<svg xmlns="http://www.w3.org/2000/svg" xmlns:xlink="http://www.w3.org/1999/xlink" width="332" height="91"><defs><linearGradient id="A" x1="50%" x2="50%" y1="0%" y2="100%"><stop offset="0%" stop-color="#1c5879"/><stop offset="100%" stop-color="#23b4c9"/></linearGradient><path id="B" d="M0 12.984V.062h17.916v12.922H0z"/><path id="C" d="M25.94 30H.047V.026H25.94V30z"/><path id="D" d="M.028.003h11.937v20.9H.028V.004z"/></defs><g fill="none" fill-rule="evenodd"><rect width="91" height="91" fill="url(#A)" rx="20"/><g transform="translate(10 40)"><mask id="E" fill="#fff"><use xlink:href="#B"/></mask><path fill="#f8951d" d="M17.75 9.933c-.13.4-.34.78-.625 1.125-2.322 2.835-8.556 2.5-13.1-.7C.525 7.87-.433 4.886.168 3.032a3.32 3.32 0 0 1 .797-1.304c1.95-2.008 6.982-2.5 11.703.202 3.7 2.086 5.886 5.523 5.08 8.002" mask="url(#E)"/></g><g fill="#f8951d"><path d="M32.227 63.354l-.07-.224-.172-.596-.174-.884c-.424-2.294-.194-4.757.662-7.127.504-1.277 1.048-2.3 1.675-3.15.696-1.042 1.6-1.904 2.288-2.536l.035-.03.448-.35.198-.153.202-.154a4.41 4.41 0 0 1 .553-.386l.663-.4.124-.074.272-.158 1.232-.6.8-.3.5-.18.745-.2a7.86 7.86 0 0 1 1.06-.22l.464-.078c.492-.068.968-.097 1.428-.124l.112-.002.436.005.968.038.393.04.964.13c1.58.27 3.093.818 4.502 1.632l.295.176.614.395.135.098.22-.452.165-.32.658-1.06.05-.072.45-.582c.234-.333.537-.657.858-1l.362-.4.03-.028c.45-.414 1-.93 1.7-1.4a14.832 14.832 0 0 1 4.815-2.29 15.712 15.712 0 0 1 4.134-.566c.776 0 1.552.063 2.306.185l.135.024 1.613.352.674.184.136.043.84.32c.714.26 1.442.618 2.265 1.1-2.534-6.994-14.445-12.987-21.258-5.647-5.12 5.515-8.842 4.686-15.988 6.053-7.14 1.373-8.83 7.393-9.566 12.227-.683 4.55.4 9.454 4.66 10.365l-.128-.302c-.18-.422-.367-.858-.493-1.344m46.473-6.67l.05-.256a9.21 9.21 0 0 0 .086-.456l.092-.95.023-.244.003-1.212-.08-.792-.037-.383-.234-1.18-.338-1.148a4.288 4.288 0 0 0-.105-.269l-.342-.843c-.92-1.94-2.263-3.622-3.9-4.885a14.061 14.061 0 0 0-5.424-2.497c-.178-.054-.4-.085-.598-.116l-.784-.12-.422-.03-.986-.053c-1.032.001-1.9.075-2.66.228a14.708 14.708 0 0 0-4.406 1.582l-.177.096.155-.1a13.28 13.28 0 0 1 4.315-2.053 14.113 14.113 0 0 1 3.705-.508 12.75 12.75 0 0 1 2.045.163l.12.02 1.404.3.715.197.84.317c.885.323 1.793.808 2.95 1.572l.433.332.24.188.203.16.424.363.27.26.95 1c.7.765 1.287 1.67 1.957 2.963l.417.966.104.253.223.694.186.6.182.874.1.452.14 1.347.006 1.353-.03.315-.106 1.03-.123.62-.06.288c-.084.47-.203.835-.33 1.22l-.143.453-.06.185-.03.08-.03.073c.098.294.134.597.112.897l.085-.16.196-.455.048-.114.025-.058.012-.027c.013-.037-.012.04.032-.088l.064-.203c.168-.554.364-1.04.484-1.714l.2-.95.095-.928.042-.465v-.466l-.007-.932-.097-.927-.05-.462-.093-.455-.2-.9-.277-.883-.142-.44-.178-.426-.365-.845c-.564-1.087-1.194-2.14-2.006-3.036-.372-.475-.82-.878-1.246-1.293-.205-.216-.454-.386-.682-.573l-.7-.538c-.98-.65-1.982-1.235-3.045-1.622l-.787-.298-.024-.01-.07-.022-.047-.014-.094-.025-.187-.05-.372-.102c-.468-.148-1.05-.243-1.6-.338-2.142-.348-4.182-.128-5.955.355a13.83 13.83 0 0 0-4.462 2.12c-.602.416-1.107.875-1.566 1.297l-1.13 1.28-.443.574-.338.54-.287.464-.206.404-.363.742.487-.668.264-.36.354-.407.407-.47.504-.494c.337-.362.785-.7 1.238-1.07l1.6-1.04a14.137 14.137 0 0 1 4.264-1.53c.812-.163 1.676-.218 2.56-.218l1.342.077.678.104.673.126a13.59 13.59 0 0 1 5.234 2.408 12.972 12.972 0 0 1 3.752 4.694l.3.7.143.358.33 1.1.15.756.077.38.037.385.078.77-.003.774v.386l-.036.385-.073.77-.14.724c-.03.243-.106.522-.194.8.146.07.287.147.422.237.106-.34.204-.684.243-1"/><path d="M79.152 59.843l.06-.2.142-.46c.126-.394.245-.766.33-1.245l.06-.294.122-.63.106-1.05.03-.322-.006-1.38-.14-1.373-.1-.46-.18-.892-.186-.6-.222-.707a5.16 5.16 0 0 0-.104-.258l-.415-.985c-.668-1.317-1.264-2.24-1.952-3.02-.278-.362-.602-.68-.946-1.018l-.268-.266c-.12-.13-.266-.245-.422-.37a8.666 8.666 0 0 1-.203-.163l-.24-.192a9.333 9.333 0 0 0-.432-.338c-1.152-.78-2.057-1.274-2.94-1.603l-.837-.323-.712-.2c-.4-.13-.908-.22-1.4-.307l-.118-.02A12.42 12.42 0 0 0 66.148 41c-1.217 0-2.458.174-3.694.52a13.12 13.12 0 0 0-4.3 2.092 9.327 9.327 0 0 0-.154.111l.177-.098a14.465 14.465 0 0 1 4.39-1.613c.76-.155 1.625-.23 2.653-.23l.982.053.42.03.783.123.595.118a13.93 13.93 0 0 1 5.406 2.545c1.63 1.288 2.97 3.002 3.885 4.98l.34.86.105.274.337 1.17.234 1.204.036.4.08.808-.003 1.234-.022.25-.1.97a9.473 9.473 0 0 1-.087.465l-.05.26c-.038.312-.136.662-.243 1a3.28 3.28 0 0 1 .9.9 2.45 2.45 0 0 1 .266.578l.032-.075.028-.082zm-44.676 5.564c-.13-.173-.26-.38-.385-.577l-.1-.157-.248-.458-.024-.05-.228-.534-.43-1.14-.088-.3-.15-.515-.158-.8c-.38-2.023-.17-4.216.6-6.336.447-1.117.936-2.027 1.5-2.77.65-.956 1.467-1.732 2.108-2.303l.392-.3.2-.16.206-.155.385-.27.822-.498.2-.115 1.145-.54.726-.263.44-.153.694-.182c.304-.1.604-.14.92-.2l.457-.076c.4-.055.852-.08 1.282-.107l.468.005.832.03.4.04.805.107c1.452.242 2.82.73 4.1 1.453l.13.08a4.626 4.626 0 0 1-.124-.056 13.722 13.722 0 0 0-4.136-.983 12.433 12.433 0 0 0-4.877.598l-.596.205-.413.173-.642.28-1.076.594-.215.145-.595.413c-.126.073-.254.185-.378.292l-.36.3-.317.27c-1.383 1.315-2.43 2.912-3.043 4.634l-.13.423c-.098.307-.2.624-.25.968l-.047.226-.084.44-.088.815-.023.25-.007 1.035.1 1.087.07.36.127.665.13.455.072.24c.082.338.22.663.353.977l.118.284-.005.007.1.247.266.496.014.02.132.206.158.243.347-.34-.235-.367-.18-.336-.046-.084-.016-.03-.068-.165c-.168-.424-.375-.836-.483-1.28l-.193-.656-.127-.67-.066-.335-.03-.34-.066-.68.005-.68.001-.34c.005-.113.024-.225.035-.338l.073-.676.13-.668c.067-.448.237-.872.36-1.306.606-1.704 1.637-3.228 2.912-4.44l.504-.425c.17-.135.33-.3.505-.403l.77-.532.3-.17.616-.34.077-.043.037-.02.018-.01.12-.053.293-.128.582-.25.593-.203a12.027 12.027 0 0 1 4.68-.573c1.483.115 2.832.47 3.966.938l.812.37.737.4 1.224.82.503.387.415.37.36.323c.108.102.196.207.28.294l.512.543-.394-.628-.222-.337-.302-.4-.357-.453-.453-.473c-.307-.35-.714-.665-1.137-1.04a37.047 37.047 0 0 0-.716-.519c-.248-.184-.535-.327-.816-.5a12.765 12.765 0 0 0-4.225-1.507c-.4-.092-.84-.105-1.274-.157-.436-.044-.883-.025-1.34-.038l-1.385.117c-.463.087-.946.133-1.412.273l-.712.187-.702.247-.353.13-.178.066-.205.096-.637.3-.32.153-.344.2-.692.42c-.244.138-.432.306-.648.462l-.63.483c-.8.704-1.56 1.473-2.172 2.374-.653.873-1.146 1.862-1.555 2.887-.758 2.066-1.043 4.365-.628 6.577l.163.826.24.807c.144.545.392 1.052.607 1.568l.083.193c.014.027-.017-.03.034.068l.01.022.024.042.046.083.182.335.5.756.248.328.32-.363-.173-.23"/><path d="M34.962 63.418l-.014-.02-.265-.5-.1-.246.005-.008a23.422 23.422 0 0 0-.12-.281c-.132-.31-.27-.633-.35-.967l-.073-.24a7.42 7.42 0 0 1-.13-.45l-.126-.66-.072-.356-.1-1.077.008-1.026a2.29 2.29 0 0 1 .023-.247l.088-.81.083-.435.047-.225c.052-.34.153-.654.25-.96l.13-.42c.612-1.705 1.66-3.29 3.04-4.6l.318-.268.36-.3c.124-.105.252-.216.377-.3l.595-.408.215-.143 1.076-.6.64-.277.413-.172.596-.202a12.513 12.513 0 0 1 4.875-.594c1.417.1 2.84.444 4.134.975l.124.055-.13-.08a12.319 12.319 0 0 0-4.088-1.44 6.57 6.57 0 0 0-.805-.106 12.487 12.487 0 0 1-.409-.04 8.848 8.848 0 0 0-.832-.03c-.156 0-.312 0-.47-.003l-1.28.105-.457.076-.92.187-.694.18-.44.152-.725.26-1.145.536-.2.115-.82.493a3.26 3.26 0 0 0-.385.267 6.82 6.82 0 0 1-.205.154l-.21.158-.392.298c-.64.567-1.458 1.335-2.107 2.285C33.73 52 33.24 52.902 32.792 54c-.777 2.1-.987 4.275-.61 6.28l.158.794.152.5.088.287c.1.38.26.745.43 1.13l.228.53.024.05.247.453.1.155.385.573.174.228 1.084-1.136a6.108 6.108 0 0 1-.158-.24l-.132-.206"/></g><path fill="#006089" d="M63.342 50.326l-.54.418-.47.393a2.032 2.032 0 0 1-.445.204l-.71.23a.333.333 0 0 0-.127.091c-.083.094-.06.178.062.223.1.04.222.075.335.103.132.035.245-.02.354-.08l.645-.347c.187-.082.39-.135.594-.177l.815-.13.86-.132c.797-.118 1.46-.45 1.963-1.04.15-.176.347-.293.54-.417l.435-.29c.098-.06.202-.112.304-.17.016-.01.03-.024.044-.036a.729.729 0 0 0-.009-.026l-.273-.033a.301.301 0 0 1-.149-.064c-.224-.217-.507-.245-.804-.217-.156.014-.31.05-.463.076-.106.018-.184-.03-.237-.1a1.457 1.457 0 0 1-.16-.278c-.067-.148-.098-.313-.184-.448a3.045 3.045 0 0 0-.401-.501l-.795-.758c-.287-.262-.563-.538-.925-.717a1.345 1.345 0 0 0-.284-.1c-.098-.023-.138.02-.12.112.026.12.023.125-.11.128-.023 0-.045.005-.068.005-.177-.004-.183.006-.174.167.002.042-.03.09-.06.127-.026.03-.07.05-.1.07-.08.038-.116.096-.085.174a.603.603 0 0 1 .007.365.969.969 0 0 0 .08.634l.32.606c.144.27.246.553.29.853l.115.72a.322.322 0 0 0 .033.102c.082.15.06.14-.1.257"/><g transform="translate(28 49)"><mask id="F" fill="#fff"><use xlink:href="#C"/></mask><path fill="#6dcff6" d="M14.82 29.598l-.753.125-2.406.14-.698.014c-.164.01-.327.052-.492.06l-.726.003c-.016-.14-.068-.21-.23-.187-.075.01-.177-.07-.245-.135-.086-.077-.153-.17-.315-.106l.263.42h-.785l-.022-.044c.054-.046.113-.086.16-.137.035-.037.055-.087.082-.13-.056-.01-.127-.043-.163-.02-.1.067-.23.14-.3.24-.077.1-.166.13-.275.126l-.982-.04-2.39-.127a16.17 16.17 0 0 1-.942-.075c-.23-.028-.458-.08-.685-.128-.047-.01-.09-.05-.157-.088.246-.24.564-.17.857-.27-.26-.164-.547-.313-.51-.63.028-.26.166-.51.264-.785l-.5-.13c-.84-.2-1.596-.56-2.12-1.285a3.205 3.205 0 0 1-.597-1.567 7.624 7.624 0 0 1-.057-1.195c.044-.828.285-1.613.617-2.37.012-.026.037-.046.082-.1l.016.174.008 1.327c.063.937.246 1.85.815 2.623.18.245.428.472.753.536.28.055.563.08.846.115.113.014.164-.03.15-.154-.02-.207-.056-.418-.044-.624l.138-1.582c.142-1.002.537-1.92.998-2.81.405-.783.89-1.515 1.42-2.216 1.112-1.474 2.394-2.8 3.744-4.04l2.706-2.424 1.283-1.213c.333-.315.484-.73.613-1.15l.512-1.803.398-1.908.394-1.593c.116-.385.264-.772.683-.953.028-.012.056-.065.056-.098 0-.695.308-1.284.678-1.833.32-.477.7-.913 1.056-1.367.02-.026.053-.042.12-.092l.1.73.25 1.535c.025.167.11.2.256.183.897-.05 1.698.254 2.436.725.164.105.3.317.36.51.197.618.627.946 1.22 1.136l1.64.6 1.085.344c.384.12.553.62.333.952-.08.12-.116.272-.157.413a1.59 1.59 0 0 1-1.06 1.128c-.84.305-1.7.35-2.586.378l-.963.074c-.26.036-.32.122-.286.375l.244 1.6c.165 1.018.35 2.034.35 3.072 0 .482-.094.945-.208 1.41l-.365 1.656-.492 2.268-.43 2.72c-.062.397.084.764.165 1.142.182.84.294 1.688.372 2.545.07.758.1 1.523.31 2.265.073.27.204.453.5.504l.94.207c.432.077.517.4.493.738-.013.174-.17.202-.31.205l-.986.004c-.55 0-1.1-.012-1.65.005a.47.47 0 0 1-.5-.318l-.418-1.117a24.364 24.364 0 0 1-.407-1.626l-.37-1.856-.294-1.58-.134-.883c-.01-.056-.03-.11-.048-.186l-1.147.97c-.726.597-1.46 1.182-2.29 1.63a2.98 2.98 0 0 1-.536.219c-1.154-2.572-3.245-3.13-3.245-3.13l.84.7c.55.5 1.013 1.072 1.323 1.754.238.522.377 1.07.338 1.647-.06.856-.592 1.46-1.428 1.69l-.888.207.907.055c.427.032.864.022 1.277.118.543.125.947.476 1.187.993a.578.578 0 0 1 .04.155c.01.08-.012.2.028.234.11.063.242.1.37.117l.54.1c.04.01.07.067.105.103-.04.035-.073.092-.116.1m.11-.16c-.026-.032-.053-.067-.092-.075a4.23 4.23 0 0 0-.285-.055l-.282-.053c-.116-.026-.236-.052-.33-.108-.01-.01-.01-.073-.01-.108l-.004-.1a.604.604 0 0 0-.042-.166c-.248-.536-.667-.886-1.2-1.012-.3-.068-.615-.083-.92-.1a9.239 9.239 0 0 1-.363-.02 27.022 27.022 0 0 0-.627-.038l-.036-.002.05-.012.6-.143c.865-.237 1.394-.865 1.452-1.718.036-.538-.075-1.082-.34-1.665-.3-.64-.726-1.215-1.33-1.765l-.578-.5-.124-.103c.522.198 2.1.953 3.052 3.052l.012.027.03-.008c.197-.06.38-.134.542-.222.832-.45 1.562-1.03 2.297-1.633l.78-.657.326-.278.006.018.027.11.05.33.086.554.294 1.58.074.382.295 1.476.408 1.628c.102.35.243.692.38 1.024l.04.097c.093.228.26.34.532.34l.688-.01 1.4.004.55-.005c.09-.002.327-.006.343-.235.032-.454-.138-.707-.52-.774a6.903 6.903 0 0 1-.462-.102l-.478-.104c-.252-.045-.394-.188-.473-.48-.17-.626-.226-1.28-.28-1.912l-.03-.347a20.82 20.82 0 0 0-.373-2.55 6.329 6.329 0 0 0-.065-.269c-.072-.277-.146-.564-.1-.86l.116-.762.315-1.956.333-1.56.16-.707.113-.525.252-1.13c.108-.44.208-.915.208-1.42.001-.943-.154-1.883-.304-2.792l-.046-.285a72.03 72.03 0 0 1-.243-1.589c-.018-.125-.01-.197.026-.244s.106-.075.23-.09c.29-.04.605-.064.96-.075.893-.027 1.764-.077 2.597-.38.564-.205.918-.58 1.08-1.15l.016-.057c.035-.122.07-.248.136-.348a.666.666 0 0 0 .062-.591.646.646 0 0 0-.412-.412l-.268-.082a21.831 21.831 0 0 1-.817-.26l-.668-.244-.973-.347c-.64-.206-1.02-.56-1.196-1.115-.07-.22-.218-.427-.375-.527-.776-.496-1.518-.736-2.266-.736a2.95 2.95 0 0 0-.19.006l-.045.001c-.104 0-.157-.023-.177-.155a53.661 53.661 0 0 0-.149-.924l-.1-.61-.068-.487-.04-.3-.106.08a.31.31 0 0 0-.066.055l-.316.396-.74.972c-.338.503-.684 1.115-.684 1.853 0 .022-.022.062-.036.068-.434.187-.584.584-.7.973-.158.52-.278 1.06-.396 1.596l-.166.81-.232 1.095a31.727 31.727 0 0 1-.511 1.8c-.123.404-.27.823-.604 1.137l-.436.416-.847.796-1.104.985-1.603 1.44C8.03 15.957 6.84 17.242 5.86 18.54a15.636 15.636 0 0 0-1.424 2.222c-.4.8-.848 1.743-1 2.822a19.627 19.627 0 0 0-.138 1.585c-.01.166.01.333.03.496l.015.134c.005.048 0 .08-.017.098-.01.012-.027.018-.074.018h-.022l-.234-.028a8.242 8.242 0 0 1-.61-.086c-.27-.054-.517-.23-.732-.524-.617-.84-.756-1.833-.81-2.604-.02-.296-.015-.6-.01-.893l.003-.432a1 1 0 0 0-.009-.109l-.015-.15-.052.064-.042.046a.215.215 0 0 0-.045.06c-.377.86-.58 1.64-.62 2.383a7.74 7.74 0 0 0 .056 1.2c.06.58.264 1.112.604 1.583.46.636 1.14 1.048 2.14 1.298l.473.122a6.53 6.53 0 0 1-.086.215c-.075.185-.147.36-.168.542-.034.313.217.47.464.622a1.91 1.91 0 0 1-.235.04c-.194.026-.396.054-.564.217l-.033.03.04.024c.023.013.042.026.06.04.038.025.07.046.107.054l.1.02.59.106.944.076 2.4.127 1.005.04a.31.31 0 0 0 .28-.14c.068-.097.186-.17.303-.234a.3.3 0 0 1 .069.014l.012.003-.001.002c-.017.03-.032.06-.053.08-.033.034-.07.064-.11.094l-.05.04v.06l.022.042h.866l-.273-.433a.186.186 0 0 1 .05-.007c.065 0 .1.042.16.09l.03.03c.106.096.186.14.27.14h.003a.552.552 0 0 1 .052-.003c.1 0 .125.04.14.16l.003.03.47.003.288-.006c.086-.004.17-.017.257-.03l.237-.03.352-.006.345-.007.153-.01a136.2 136.2 0 0 0 2.254-.131 4.86 4.86 0 0 0 .628-.1l.13-.025c.04-.008.07-.042.098-.073a.487.487 0 0 1 .033-.036l.027-.023-.025-.025a.454.454 0 0 1-.029-.036" mask="url(#F)"/></g><path fill="#00bbda" d="M42.85 78.427l-.544-.102c-.128-.028-.262-.054-.37-.118-.04-.024-.017-.154-.03-.235a.55.55 0 0 0-.04-.155c-.24-.52-.648-.87-1.195-.997-.415-.096-.856-.088-1.286-.12l-.913-.054.894-.21c.842-.23 1.38-.834 1.437-1.695.04-.58-.1-1.13-.34-1.654-.312-.686-.777-1.26-1.33-1.76l-.848-.712s2.106.56 3.268 3.142c.186-.056.37-.13.54-.22.835-.45 1.576-1.038 2.307-1.636l1.154-.973.048.184.135.888.297 1.586.37 1.864.4 1.633c.112.383.27.752.42 1.122.1.214.245.328.505.32l2.652-.01c.142-.002.3-.03.313-.205.024-.348-.06-.665-.496-.74l-.946-.207c-.298-.052-.43-.237-.504-.507-.203-.745-.243-1.513-.313-2.275a21.122 21.122 0 0 0-.374-2.556c-.082-.378-.23-.747-.167-1.145l.435-2.73.495-2.278.367-1.663c.116-.467.21-.932.2-1.417 0-1.042-.186-2.062-.353-3.085l-.245-1.596c-.036-.254.025-.34.288-.375a9.21 9.21 0 0 1 .97-.076c.882-.026 1.757-.072 2.602-.38.563-.203.907-.57 1.068-1.13.04-.143.077-.295.157-.415.222-.332.053-.837-.334-.957l-1.094-.345-1.65-.593c-.597-.2-1.03-.52-1.227-1.14-.062-.192-.2-.406-.364-.51-.743-.473-1.55-.778-2.453-.73-.148.01-.232-.014-.257-.18l-.25-1.54L46.17 49c-.066.05-.1.067-.12.093l-1.063 1.372c-.373.55-.682 1.142-.683 1.84 0 .034-.027.087-.056.1-.422.18-.57.57-.687.956l-.397 1.6-.4 1.914-.515 1.8c-.13.422-.28.84-.617 1.156l-1.292 1.218-2.725 2.433c-1.358 1.256-2.65 2.578-3.767 4.056a15.72 15.72 0 0 0-1.43 2.227c-.465.893-.863 1.816-1.006 2.822-.075.525-.107 1.058-.14 1.588-.012.21.023.42.045.628.013.123-.038.17-.152.154l-.85-.116c-.328-.063-.577-.3-.76-.537-.572-.778-.757-1.694-.82-2.635-.03-.442-.006-.888-.008-1.332 0-.048-.01-.095-.016-.175-.045.053-.07.074-.083.1-.334.76-.576 1.55-.62 2.38-.022.398.014.803.056 1.2.06.575.262 1.104.6 1.573.528.73 1.3 1.08 2.135 1.292l.513.132c-.098.277-.237.525-.266.787-.035.32.252.47.515.632-.295.1-.615.03-.863.27.07.04.1.08.158.1l.7.127.948.075 2.406.13.99.04c.11.003.198-.02.275-.126s.192-.176.303-.243c.036-.022.11.013.164.022-.027.044-.048.093-.082.13-.05.05-.108.092-.162.137l.022.043h.8l-.266-.42c.164-.066.232.03.318.107.07.062.17.145.247.134.164-.023.215.047.232.188l.73-.002c.166-.008.33-.05.496-.06l.703-.014 2.422-.14c.255-.02.507-.077.758-.125.044-.01.078-.067.117-.1-.034-.037-.064-.094-.105-.104"/><path d="M78.678 78.552c-.187.05-.376.102-.568.12l-1.832.16-1.352.092-1.785.036c-.783.005-1.568.015-2.35-.007a56.587 56.587 0 0 1-2.679-.133c-.488-.038-.972-.135-1.455-.22-.17-.03-.36-.064-.436-.308l1.054-.072.001-.027c-.47 0-.942.004-1.413-.002a3.19 3.19 0 0 1-.515-.045c-.323-.057-.45-.287-.305-.58a1.54 1.54 0 0 1 1.26-.88l1.45-.112-.2-.05c-.675-.138-1.264-.4-1.513-1.107-.164-.454-.122-.93.01-1.394.193-.684.563-1.246 1.03-1.74.455-.403 1.083-.764 1.962-1.006 0 0-2.486-.015-3.203 2.534 0 0-.077-.78-.6-1.056a4.64 4.64 0 0 0 .317.824l.1.503.006.055.002.03a1.89 1.89 0 0 1 0 .304c-.04.36-.2.694-.367 1.016-.307.594-.444 1.227-.535 1.88-.1.78-.104.655-.744.66a130.62 130.62 0 0 1-1.53-.004c-.36-.003-.46-.162-.294-.473.136-.25.28-.5.607-.554.262-.05.375-.288.443-.5l.42-1.563c.15-.816.267-1.645.146-2.475a10.345 10.345 0 0 0-.364-1.644c-.384-1.202-.712-2.4-.743-3.68-.023-.996.173-1.9.633-2.783.163-.3.295-.638.2-1.006-.084-.297-.2-.404-.506-.43l-1.484-.077c-.534-.02-.756-.427-1.003-.8-.16-.24-.2-.545-.466-.733-.05-.037-.037-.243.017-.324l.757-1.036a.662.662 0 0 0 .124-.305l.086-1.263c.043-.52.342-.9.762-1.153.343-.214.716-.383 1.085-.55.22-.1.287-.162.24-.404a11.206 11.206 0 0 0-.196-.809c-.083-.3.05-.46.36-.407.553.093 1.038.33 1.318.824.17.3.397.46.706.513.728.13 1.204.594 1.54 1.193.383.68.722 1.4 1.045 2.103l1.122 2.6c.38.8 1.04 1.382 1.773 1.878l1.837 1.32c.593.5.996 1.166 1.34 1.86.012.023.023.046.07.056l-.192-.648-.28-1.164c-.216-1.05-.363-2.104-.265-3.186.066-.72.2-1.413.54-2.054.4-.753 1.012-1.237 1.83-1.5 1.07-.36 2.232.222 2.767 1.04a1.677 1.677 0 0 1-.405 2.274c-.24.176-.514.217-.792.22-.684.004-1.053.6-1.12 1.092-.063.456-.02.895.124 1.326l1.052 3.097c.335.965.64 1.938.8 2.946.16.974.196 1.953-.035 2.92-.416 1.75-1.4 3.073-3.03 3.876l-.312.144-.3.134c1.45.06 2.876.042 4.27.383.064.016.12.064.23.124-.115.064-.18.12-.254.14m.17-.227c-.052-.03-.092-.057-.14-.068-1.143-.28-2.282-.317-3.487-.356l-.642-.023a11.775 11.775 0 0 0 .487-.22c1.594-.78 2.62-2.092 3.05-3.897.207-.87.218-1.828.034-2.933-.173-1.04-.5-2.034-.8-2.952l-1.073-3.1a2.84 2.84 0 0 1-.122-1.311c.07-.5.44-1.06 1.088-1.065.237-.002.544-.03.813-.225a1.71 1.71 0 0 0 .412-2.32c-.456-.696-1.3-1.162-2.125-1.162a2.13 2.13 0 0 0-.68.11c-.85.283-1.455.783-1.85 1.527-.297.56-.465 1.197-.545 2.066-.105 1.16.076 2.268.267 3.197l.278 1.165.14.474c-.305-.602-.7-1.27-1.302-1.777-.48-.406-1.015-.765-1.53-1.112l-.3-.2c-.604-.4-1.35-.993-1.76-1.865l-.617-1.425-.505-1.185a26.574 26.574 0 0 0-1.046-2.106c-.4-.694-.903-1.1-1.565-1.208-.304-.055-.52-.212-.683-.498-.256-.45-.707-.733-1.34-.84a.621.621 0 0 0-.114-.01c-.113 0-.2.036-.253.104-.062.08-.072.204-.03.355l.195.807c.043.22-.007.268-.22.366l-1.088.553c-.476.296-.738.692-.778 1.178l-.04.594-.046.67a.624.624 0 0 1-.118.288l-.315.427-.442.6c-.058.086-.083.315-.01.37.16.118.236.28.316.454a1.41 1.41 0 0 0 .142.27l.057.086c.227.35.463.7.972.73l.344.018.473.022.666.037c.3.025.394.113.478.406.1.358-.03.683-.188.982a5.56 5.56 0 0 0-.637 2.8c.03 1.22.318 2.355.744 3.688a10.12 10.12 0 0 1 .363 1.638c.126.862-.01 1.725-.146 2.465-.1.5-.24.98-.387 1.454l-.032.105c-.062.202-.165.44-.417.488-.333.064-.482.296-.63.57-.088.163-.105.292-.052.382s.18.14.374.14l1.073.004h.484l.204.003.125.003c.325 0 .34-.105.422-.692.08-.57.206-1.238.533-1.87.165-.318.328-.66.37-1.028a2.151 2.151 0 0 0-.002-.34l-.007-.06a6.15 6.15 0 0 0-.1-.505 4.864 4.864 0 0 0-.27-.727c.417.305.487.963.487.97l.066.007c.558-1.984 2.185-2.4 2.867-2.488-.67.22-1.233.53-1.682.926-.52.552-.86 1.127-1.04 1.756-.152.54-.155 1.004-.007 1.414.28.78.968 1.012 1.538 1.128a.199.199 0 0 0 .02.004l-.6.04-.7.053a1.57 1.57 0 0 0-1.286.898c-.075.15-.084.3-.026.403s.18.194.354.225c.158.03.328.044.52.045l.607.003h.203l-.496.035.013.04c.082.263.3.3.462.33l.23.042 1.23.18 2.68.134 1.08.013.913-.004.358-.003 1.786-.035 1.18-.08.174-.013 1.832-.158c.184-.02.366-.068.574-.123.053-.014.1-.044.16-.08l.102-.062.052-.03-.052-.03a2.066 2.066 0 0 1-.099-.06m-4.79-3.573l.23-.87c.34-1.1.404-2.25.194-3.517a8.697 8.697 0 0 0-.226-.936l-.046-.162.107.185.598 1.03.24.4.438.76c.405.837.473 1.595.2 2.318-.216.592-.862 1.02-1.54 1.02-.122 0-.192-.004-.215-.027s-.014-.088.01-.2m.205.25c.696 0 1.357-.444 1.575-1.042.293-.805.156-1.585-.2-2.342-.192-.396-.453-.767-.678-1.152L74.103 69l.345 1.368c.194 1.175.164 2.346-.194 3.502l-.23.874c-.055.237-.03.256.242.256" fill="#00b5f1"/><path fill="#00bbda" d="M74.64 74.97l.2-.9c.315-1.2.342-2.395.17-3.604-.066-.47-.198-.93-.302-1.408l.745 1.507.595 1.186c.32.778.442 1.58.184 2.4-.2.616-.77 1.074-1.38 1.073-.24 0-.263-.02-.213-.264m-.164 2.966l.3-.134.314-.145c1.65-.805 2.63-2.13 3.05-3.886.23-.97.196-1.95.033-2.927-.167-1.012-.475-1.987-.812-2.955l-1.058-3.106a2.887 2.887 0 0 1-.125-1.33c.07-.503.44-1.1 1.128-1.095.28-.002.554-.043.796-.22a1.68 1.68 0 0 0 .407-2.28c-.538-.82-1.706-1.403-2.782-1.044-.822.275-1.438.76-1.84 1.516-.342.643-.477 1.337-.543 2.06-.1 1.085.05 2.142.266 3.196l.28 1.166.193.65c-.046-.01-.057-.033-.07-.055-.347-.696-.752-1.365-1.348-1.867-.578-.486-1.22-.896-1.847-1.322-.737-.5-1.4-1.072-1.783-1.884l-1.128-2.617a27.352 27.352 0 0 0-1.05-2.11c-.34-.6-.82-1.064-1.55-1.195-.3-.054-.54-.214-.7-.514-.282-.495-.77-.734-1.325-.827-.3-.052-.444.11-.36.408l.197.812c.047.243-.02.303-.24.403a9.428 9.428 0 0 0-1.09.553c-.423.263-.724.637-.767 1.156l-.087 1.267a.663.663 0 0 1-.124.305l-.76 1.04c-.055.08-.068.287-.018.324.258.2.31.495.47.735.248.374.472.783 1.008.803l1.492.077c.318.027.425.132.5.432.105.368-.028.698-.192 1.008-.463.876-.66 1.79-.636 2.8.03 1.282.36 2.484.746 3.7.172.534.285 1.092.367 1.65.122.83.005 1.66-.147 2.48-.098.53-.263 1.05-.422 1.567-.07.224-.183.462-.445.512-.33.064-.475.303-.6.555-.17.313-.066.472.294.474a104.5 104.5 0 0 0 1.54.004c.644-.004.637.122.747-.66.092-.655.23-1.3.54-1.885.168-.324.328-.66.368-1.02.01-.1.01-.2.001-.304 0-.01 0-.02-.002-.03l-.007-.057a6.148 6.148 0 0 0-.1-.503 4.712 4.712 0 0 0-.32-.828c.528.28.605 1.06.605 1.06.72-2.556 3.22-2.54 3.22-2.54-.884.242-1.515.605-1.972 1.008-.47.496-.843 1.062-1.036 1.747-.132.464-.174.94-.01 1.398.25.697.842.972 1.522 1.11.068.013.134.034.2.05l-1.458.113c-.57.065-1 .363-1.267.882-.146.295-.02.524.306.583.17.03.345.042.517.044l1.422.002-.001.027-1.06.073c.077.245.268.278.438.308l1.463.22 2.693.136 2.363.006a54.293 54.293 0 0 0 1.795-.036l1.36-.092 1.84-.16c.193-.018.384-.07.57-.12.075-.02.14-.075.255-.14-.1-.06-.166-.11-.23-.125-1.402-.342-2.836-.322-4.293-.384"/><path fill="#006089" d="M50.06 76.513c.058.15.155.282.276.4a1.98 1.98 0 0 0 .557.366c.243.1.516.193.8.25.56.1 1.154.122 1.614.058 0 0 1.928.753 4.445.226 0 0-1.56-.644-1.553-2.298 0 0 .285 1.525 1.73 1.977s3.25.358 3.124-.15-.768-.565-1-1.602c0 0-.195-1.638 1.643-1.62s1.178-1.073 1.23-1.845-.375-1.66-1.5-1.922c0 0-.32-2.73-3.123-3.353 0 0-.34 1.477 1.5 2.6 0 0-.89-.22-1.485-1.092-.462-.197-1.328-.408-2.103.28 0 0 .34 1.338 2.516 2.45 0 0-3.034-1.64-5.247-.283s-2.284 3.56-2.284 3.56-.712.487-1.04 1.102c-.15.283-.22.592-.103.895"/><path fill="#f8951d" d="M67.004 30.892c2.026.536 3.494-1.042 4.186-2.028.954-1.36 1.575-3.216 1.752-5.23.484-5.352-2.15-9.764-4.914-10.522-2.116-.58-3.658 1.238-4.224 2.045-.863 1.23-1.447 2.83-1.68 4.622-.74 5.574 1.984 10.332 4.88 11.113"/><g transform="translate(41 12)"><mask id="G" fill="#fff"><use xlink:href="#D"/></mask><path fill="#f8951d" d="M6.143 20.605c1.378.6 2.617.325 3.68-.813.966-1.032 1.666-2.68 1.968-4.648C12.726 9.083 9.76 1.86 5.7.274c-1.385-.534-2.5-.284-3.506.792C.767 2.58-.037 5.36.032 8.497c.137 5.904 3.28 10.88 6.1 12.108" mask="url(#G)"/></g><path fill="#f8951d" d="M32.02 38.958c1.095-.155 1.875-.716 2.382-1.7.78-1.5.798-3.782.05-6.216-1.836-5.904-7.474-10.745-11.603-9.958-1.066.203-1.806.734-2.268 1.63-1.055 2.047-.653 5.48 1.023 8.75 2.67 5.17 7.485 7.916 10.415 7.495"/><path fill="#1c5879" d="M124.837 22.987l-1.69 6.802c-2.153 8.705-4.202 15.918-4.202 21.02 0 5.204 2.5 8.192 9.9 8.192 11.53 0 14.504-7.162 17.784-22.824L150 20.102h-7.226l-3.433 15.92c-3.64 16.847-5.535 17.93-9.892 17.93-2.56 0-3.535-1.7-3.535-4.637 0-4.328 2.152-11.283 6.918-29.058-1.076-.205-1.588-.256-2.46-.256C120.43 20 111 26.387 111 33.65c0 3.453 2.1 4.74 5.484 4.74-.052-.463-.718-.823-.718-3.554 0-6.182 3.485-10.355 9.07-11.85M164.445 33c-2.474 0-4.43 1.663-6.234 3.223l.67-3.223h-7.42L146 59h7.42l4.122-19.76c1.288-1.196 2.215-1.976 3.76-1.976s.104 3.432 2.988 3.432c2.524 0 3.7-1.976 3.7-3.796 0-1.976-1.237-3.9-3.555-3.9"/><path fill="#23b4c9" d="M177.47 38.563c-.05-.468-.715-.883-.715-3.536 0-7.904 4.956-12.636 13.236-12.636 4.497 0 6.337 3.224 6.337 7.072 0 5.564-3.78 12.377-8.944 12.792l3.63-17.368-7.565 1.04L176.498 59h7.36l3.118-14.82h.255c9.2 0 14.77-7.332 14.77-13.937C202 24.887 198.32 20 189.94 20 181.404 20 172 26.604 172 33.52c0 3.743 1.942 5.043 5.47 5.043m36.743-2.523c.972 0 1.278.795 1.278 2.038 0 4.125-3.476 7.952-7.413 8.2 1.023-4.92 3.528-10.238 6.135-10.238zm21.02 15.814c.304.285.765.388 1.17.388 1.33 0 2.25-1.243 2.25-2.436 0-.844-.512-1.442-1.176-1.74 1.686-3.18 3.118-6.162 4.14-9.392.51 7.654.97 9.194.97 11.78 0 3.478-2.197 4.62-4.447 4.62-2.033 0-2.93-.943-3.086-2.848.06-.12.12-.247.178-.372zm-15.344 1.183c0 4.175 2.403 5.963 5.47 5.963 1.923 0 4.96-.537 7.61-3.594 1.003 1.993 3.2 3.594 6.808 3.594C243.968 59 250 56.864 250 50.403c0-3.28-.512-5.22-1.125-18.1l-7.566.993c-1.586 4.87-3.425 9.8-6.288 14.71-1.38.647-2.7 2.336-2.7 4.622l.003.053c-.847.914-1.882 1.488-2.97 1.488-1.432 0-2.097-.447-2.097-1.84 0-.446.053-.943.206-1.6l3.27-14.908h3.068l.41-1.99h-3.068L232.872 26l-7.566.994-1.533 6.86h-1.687l-.4 1.99h1.688l-3.068 13.964c-2.557 2.833-5 5.02-9.05 5.02-2.455 0-3.68-.796-3.68-4.175 0-.596.05-1.292.102-1.987 6.135-.35 11.758-4.772 11.758-10.487 0-2.485-1.073-4.77-5.623-4.77C203.323 33.407 200 45.383 200 51.1c0 5.616 3.17 7.9 7.974 7.9 5.312 0 9.12-2.82 11.924-6.234-.003.1-.01.183-.01.27z"/><path d="M267.904 57.818l7.735-37.714A24.4 24.4 0 0 0 273.63 20C265.242 20 256 26.67 256 33.656c0 3.78 1.9 5.096 5.375 5.096-.05-.474-.703-.894-.703-3.573 0-5.62 2.662-9.56 7.032-11.45l-7.485 36.4c.403-.053.754-.053 1.156-.053 8.9 0 15.22 11.924 22.402 11.924 2.712 0 4.72-3.205 5.223-8.247-1.457.63-2.863.84-4.218.84-6.38 0-11.654-5.566-16.878-6.775M285.738 59c2.897 0 8.206-1.13 11.262-9.505h-2.252c-.804 2.568-2.734 4.52-4.826 4.52-1.502 0-2.2-.462-2.2-1.9 0-.462.055-.976.215-1.644L291.8 33h-7.723l-3.647 16.495c-.27 1.233-.43 2.363-.43 3.34 0 4.315 2.52 6.165 5.74 6.165m12.96 4.307c-.658 3.07-1.822 4.06-2.884 4.06-1.114 0-2.023-1-2.023-1.718 0-2.8 2.377-4.268 5.564-5.362l-.658 3.02zm17.25-30.346h-3.692l.86-4.113c.707-3.486 2.428-4.268 3.54-4.268 1.012 0 1.924.574 1.924 1.77 0 .47-.05.886-.102 1.406h2.378A13.11 13.11 0 0 0 321 25.62c0-3.383-2.884-5.62-5.97-5.62-3.34 0-7.7 1.405-9.208 8.848l-6.12 29.722c-4.808 1.5-8.702 3.02-8.702 7.807 0 3.385 2.883 5.623 5.97 5.623 3.34 0 7.537-1.406 9.054-8.848l5.82-28.108h3.744l.353-2.083zm10.682 2.715c1 0 1.316.807 1.316 2.07 0 4.24-3.58 8.127-7.685 8.33 1.106-4.796 3.738-10.4 6.37-10.4zM319.8 50.014c0-.455.053-1 .104-1.515C326.2 48.146 332 43.703 332 37.847c0-2.525-1.105-4.847-5.8-4.847-10.788 0-14.2 12.167-14.2 17.974 0 5.705 3.264 8.026 8.158 8.026 4.2 0 8-1.716 9.106-7.47-1.684 1.413-4.2 2.676-6.2 2.676-1.842 0-3.263-1-3.263-4.2z" fill="#eb8e30"/><path d="M124.212 65.56c.985-.53 1.515-1.433 1.515-2.28 0-1.176-1-2.28-3.227-2.28-2.863 0-5.5 1.82-5.5 3.8 0 .96.62 1.32 1.62 1.32-.014-.13-.212-.243-.212-.975 0-2.367 2.015-3.486 3.787-3.486 1.44 0 2.002.732 2.002 1.55 0 1.075-.97 2.322-2.183 2.322h-.1l.712-3.182-2.243.285-2.06 9.122h2.182l1.242-5.493.698-.043c1.105 0 1.44.817 1.44 1.822 0 1.1-.395 2.58-1.5 2.58-.35 0-.638-.142-1.016-.515-.137.33-.197.602-.197.832 0 .874.848 1.06 1.5 1.06 2.53 0 3.318-2.754 3.318-4.13 0-1.076-.5-2.065-1.788-2.3m29.245 5.4c-.612 0-.85-.3-.85-.912.07.13.238.17.377.17.362 0 .6-.326.6-.64 0-.22-.138-.377-.32-.456.46-.834.85-1.616 1.128-2.464l.265 3.1c0 .912-.6 1.212-1.2 1.212zm-12.3-1.382c-.167.756-.75 1.148-1.154 1.148-.25 0-.696-.013-.696-1.018 0-1.225.765-3.57 1.948-3.57.445 0 .57.337.57.495l-.668 2.945zm-11.28-3.6c.265 0 .348.2.348.535 0 1.08-.947 2.084-2.017 2.15.278-1.3.96-2.685 1.67-2.685zm31.712 0c.265 0 .35.2.35.535 0 1.094-.947 2.098-2.032 2.15.292-1.238.988-2.685 1.683-2.685zm1.42.56c0-.65-.292-1.25-1.53-1.25-2.653 0-3.62 2.714-3.742 4.3h-.097a7.786 7.786 0 0 1-1.002.652 1.87 1.87 0 0 0 .056-.496c0-.86-.14-1.368-.306-4.744l-2.06.26c-.43 1.28-.932 2.568-1.7 3.86a1.25 1.25 0 0 0-.52.468h-.047c-.2.652-.585 1.148-1.127 1.148-.4 0-.572-.118-.572-.483a1.74 1.74 0 0 1 .056-.417l1.002-4.432h-2.004l-.946 4.184c-.207.652-.57 1.148-1.113 1.148-.306 0-.417-.236-.417-.535 0-.117.014-.235.04-.365l1.003-4.432h-2.005l-.946 4.184h-.275c-.2.652-.583 1.226-1.126 1.226-.4 0-.57-.196-.57-.56a1.69 1.69 0 0 1 .056-.418l1-4.432h-2.002l-.153.7v-.1c0-.378-.334-.665-1.128-.665-2.282 0-3.437 2.5-3.563 4.25h-.108c-.695.743-1.364 1.316-2.462 1.316-.67 0-1.002-.208-1.002-1.095 0-1.446.904-3.832 1.78-3.832.265 0 .4.2.4.535 0 .22-.056.482-.167.768a.934.934 0 0 0 .487.157c.404 0 .738-.314.738-.953 0-.598-.307-1.198-1.545-1.198-2.628 0-3.604 2.707-3.727 4.3h-.1c-.696.744-1.364 1.317-2.463 1.317-.668 0-1.002-.208-1.002-1.095 0-.157.014-.34.028-.52 1.67-.092 3.2-1.252 3.2-2.75 0-.652-.292-1.252-1.53-1.252-2.853 0-3.757 3.14-3.757 4.64 0 1.472.863 2.072 2.17 2.072 1.588 0 2.682-.893 3.463-1.904.067 1.343.903 1.904 2.157 1.904 1.588 0 2.683-.894 3.463-1.906.076 1.396.933 1.906 1.836 1.906.988 0 1.643-.6 2.074-1.2.083.783.584 1.2 1.363 1.2.63 0 1.6-.217 2.378-1.535.013 1.073.66 1.535 1.487 1.535.585 0 1.364-.17 2.06-1.238.083.808.585 1.238 1.376 1.238.566 0 1.415-.164 2.14-1.15.215.614.826 1.15 1.936 1.15.7 0 1.6-.2 2.184-.782a8.62 8.62 0 0 0 1.638-1.15c.057 1.364.896 1.932 2.146 1.932 1.112 0 2.115-.443 2.407-1.93-.446.365-1.113.7-1.643.7-.486 0-.862-.26-.862-1.082a4.22 4.22 0 0 1 .027-.39c1.67-.092 3.2-1.24 3.2-2.75zM172.382 61c-2.56 0-5.382 1.862-5.382 3.813 0 1.056.582 1.423 1.64 1.423-.014-.132-.214-.25-.214-.997 0-2.23 1.487-3.565 3.972-3.565 1.35 0 1.9.9 1.9 1.995 0 1.57-1.135 3.5-2.682 3.608l1.088-4.898-2.27.292L168.35 72h2.208l.936-4.18h.077c2.76 0 4.43-2.068 4.43-3.93 0-1.5-1.103-2.9-3.618-2.9m15.198 9.93c-.648 0-.9-.312-.9-.95.073.135.25.176.398.176.383 0 .648-.338.648-.664 0-.23-.147-.392-.338-.474.486-.868.898-1.68 1.193-2.562l.28 3.212c0 .95-.634 1.26-1.283 1.26zm-7.483-5.2c.28 0 .37.217.37.556 0 1.124-1.003 2.168-2.138 2.236.295-1.342 1.017-2.792 1.77-2.792zm8.397-.746c-.457 1.33-.988 2.67-1.813 4.012a1.312 1.312 0 0 0-.552.488h-.05c-.22.678-.753 1.194-1.327 1.194-.413 0-.605-.123-.605-.502 0-.122.015-.258.06-.435l.942-4.065h.885l.117-.542h-.883l.5-2.142-2.18.27-.444 1.872h-.485l-.12.542h.487l-.885 3.808h-.292c-.737.773-1.445 1.37-2.6 1.37-.707 0-1.06-.217-1.06-1.14a6.75 6.75 0 0 1 .03-.541c1.768-.095 3.4-1.302 3.4-2.86 0-.677-.3-1.3-1.622-1.3-3.02 0-3.98 3.266-3.98 4.825 0 1.53.914 2.155 2.3 2.155 1.754 0 2.94-1 3.772-2.116a3.24 3.24 0 0 0-.045.49c0 1.138.692 1.626 1.577 1.626.602 0 1.584-.176 2.4-1.217.222.647.87 1.217 2.06 1.217 1.207 0 2.947-.583 2.947-2.346 0-.894-.148-1.422-.325-4.933l-2.18.27zm12.673 1.17a8.034 8.034 0 0 0-1.607-.527c.737-1.685 1.58-3.085 2.37-3.566l-.763 4.093zM202.96 61c-1.54 0-3.254 2.03-4.586 4.44l-.685-.045c-1.555 0-2.688.827-2.688 1.85 0 .586.37.873.818.873.4 0 .737-.227.737-.587 0-.2-.105-.466-.17-.466.17-.512.724-.722 1.54-.783-1.146 2.3-1.937 4.77-1.937 6.123 0 1.565 1.055 1.596 1.766 1.596-.08-.135-.184-.362-.184-.843 0-1.565.724-4.424 1.713-6.876.58.06 1.094.195 1.765.54l-1.014 5.463h1.897L204 61.2c-.316-.15-.738-.2-1.04-.2zm6.07 4c-.674 0-1.208.448-1.7.868l.183-.868H205.5l-1.5 7h2.024l1.124-5.32c.35-.322.604-.532 1.025-.532s.03.924.815.924c.7 0 1.012-.532 1.012-1.023 0-.53-.337-1.05-.97-1.05m4.37.72c.3 0 .395.218.395.558 0 1.14-1.074 2.188-2.306 2.242.333-1.3 1.12-2.8 1.9-2.8zm1.6.585c0-.68-.332-1.305-1.737-1.305-3.237 0-4.263 3.276-4.263 4.84 0 1.534.98 2.16 2.448 2.16 1.263 0 2.4-.462 2.73-2-.506.38-1.263.72-1.863.72-.552 0-.98-.273-.98-1.13 0-.122.017-.27.032-.406 1.895-.096 3.632-1.292 3.632-2.868zm8.824-.905l.634-2.92c.693.147 1.416.278 2.1.278 1.176-.25 1.22-1.143 1.432-1.76-.422.13-.888.175-1.356.175-.95 0-1.9-.175-2.503-.175-3.723 0-5.14 1.862-5.14 3.813 0 1.056.574 1.423 1.613 1.423-.014-.132-.2-.25-.2-.997 0-2.348.798-2.992 1.96-3.036L220.2 72h2.17l1.222-5.515h2.2l.24-1.085h-2.2M247 62.006c0 .554.44.994.994.994a.999.999 0 0 0 1.006-.994A1.01 1.01 0 0 0 247.994 61a.998.998 0 0 0-.994 1.006m8.26 11.708c-.182.808-.545 1.068-.824 1.068-.307 0-.56-.26-.56-.45 0-.74.67-1.136 1.55-1.424l-.168.807zm-25.338-3.585c-.167.794-.754 1.205-1.16 1.205-.25 0-.697-.014-.697-1.068 0-1.286.768-3.75 1.954-3.75.447 0 .572.355.572.52l-.67 3.092zm26.105 0c-.2.684-.572 1.205-1.116 1.205-.322 0-.42-.288-.42-.603a1.38 1.38 0 0 1 .042-.342l1.004-4.652h-2l-.948 4.392h-.278c-.2.684-.712 1.205-1.256 1.205-.4 0-.573-.124-.573-.507 0-.123.015-.26.056-.438l1.605-7.4-2.065.273-1.494 6.856h-.278c-.2.684-.712 1.205-1.255 1.205-.4 0-.573-.124-.573-.507a1.86 1.86 0 0 1 .056-.438l1.004-4.652h-2l-.948 4.392h-.275c-.308.7-.56 1.205-1.174 1.205-.418 0-.557-.233-.557-.576 0-.766.67-2.42.67-3.53 0-1.094-.656-1.546-1.55-1.546-.516 0-1.27.15-1.94 1.163-.154-.85-.698-1.177-1.437-1.177a2.16 2.16 0 0 0-1.703.78l.153-.7h-2l-.95 4.392h-.275c-.2.684-.586 1.287-1.13 1.287-.4 0-.573-.206-.573-.6a1.86 1.86 0 0 1 .056-.438l1.006-4.652h-2l-.154.725v-.096c0-.397-.334-.698-1.13-.698-2.43 0-3.587 2.942-3.587 4.8 0 1.627.907 2.203 1.856 2.203 1 0 1.648-.63 2.08-1.26.084.82.586 1.26 1.368 1.26.594 0 1.497-.203 2.243-1.374l-.28 1.3h2l.95-4.392c.2-.685.586-1.273 1.13-1.273.307 0 .418.3.418.602a1.4 1.4 0 0 1-.04.342l-1.02 4.72h2l.95-4.392c.2-.685.586-1.26 1.088-1.26.334 0 .502.247.502.698 0 .876-.627 2.56-.627 3.5 0 .78.432 1.547 1.646 1.547.616 0 1.46-.216 2.18-1.577.025 1.1.667 1.577 1.488 1.577.634 0 1.7-.23 2.512-1.628.006 1.14.66 1.628 1.492 1.628.634 0 1.712-.23 2.512-1.628.006 1.14.66 1.628 1.493 1.628.474 0 1.102-.123 1.702-.794l-.14.602c-1.325.383-2.413.78-2.413 2.053 0 .9.795 1.478 1.646 1.478.92 0 2.122-.37 2.54-2.326L259 65.737h-2.024l-.95 4.392z" fill="#1c5879"/><g fill="#eb8e30"><path d="M286.286 29.26c1.406-.11 1.795.55 2.93 1.367s2.147.134 2.878-.502 1.243-1.62.64-2.393-.588-.81-1-3.047-1.71-2.486-1.71-2.486l-.074-.055c-1.205-.506-1.814.437-2.28 1.062s-.608 1.063-2.4 1.24c-2.094.2-1.497 5.01 1.014 4.814m6.794-2.757c.214.51.774.522 1.09.484.434-.052.916-.26 1.36-.59 1.184-.868 1.676-2.2 1.39-2.898-.218-.534-.84-.52-1.098-.487-.392.046-.816.216-1.224.493-1.27.856-1.82 2.268-1.518 2.997"/><path d="M284.848 23.98l.222.02c.448-.063.842-.786.915-1.684.1-1.148-.326-2.074-.78-2.272-.087-.04-.175-.052-.263-.04-.335.048-.742.495-.892 1.4-.192 1.156.187 2.388.798 2.585m7.172.015c.385-.033.833-.2 1.262-.47 1.317-.832 2.072-2.373 1.553-3.17-.177-.273-.448-.383-.85-.348-.567.05-1.247.38-1.817.885-1.075.952-1.374 2.16-1.036 2.735.163.28.462.404.888.368M289.717 22c.262-.056.55-.326.788-.74.575-1.006.665-2.5.185-3.07-.124-.148-.26-.204-.414-.17-.356.075-.752.553-1.01 1.216-.405 1.053-.308 2.16.016 2.584.12.158.263.216.434.18"/></g></g></svg>