<svg xmlns="http://www.w3.org/2000/svg" xmlns:xlink="http://www.w3.org/1999/xlink" width="659" height="533"><defs><path id="A" d="M17.75 19.22V20H.25v-.78a.47.47 0 0 1 .469-.469h.78V4.687a.94.94 0 0 1 .937-.937h3.438V.937A.94.94 0 0 1 6.812 0h4.375a.94.94 0 0 1 .938.937V3.75h3.438a.94.94 0 0 1 .937.937V18.75h.78a.47.47 0 0 1 .469.469zM12.28 7.5h-1.56a.469.469 0 0 0-.469.469v1.56a.47.47 0 0 0 .469.469h1.562a.47.47 0 0 0 .469-.469V7.97a.469.469 0 0 0-.469-.469zM5.72 10h1.56a.47.47 0 0 0 .469-.469V7.97a.469.469 0 0 0-.469-.469H5.72a.469.469 0 0 0-.469.469v1.56a.47.47 0 0 0 .469.469zm4.062 5H8.22a.469.469 0 0 0-.469.469v3.28h2.5v-3.28a.469.469 0 0 0-.47-.469zm2.5-3.75H10.72a.469.469 0 0 0-.469.469v1.562a.47.47 0 0 0 .469.469h1.562a.47.47 0 0 0 .469-.469v-1.56a.469.469 0 0 0-.469-.469zm-4.53.47a.469.469 0 0 0-.469-.469H5.72a.469.469 0 0 0-.469.469v1.562a.47.47 0 0 0 .469.469h1.56a.47.47 0 0 0 .469-.469v-1.56zm-.39-7.97h1.015v1.016c0 .13.105.234.234.234h.782c.13 0 .234-.105.234-.234V3.75h1.016c.13 0 .234-.105.234-.234v-.782a.234.234 0 0 0-.234-.234H9.625V1.484a.234.234 0 0 0-.234-.234H8.61a.234.234 0 0 0-.234.234V2.5H7.36a.234.234 0 0 0-.234.234v.782c0 .13.105.234.234.234z"/><path id="B" d="M10.02 7.752c-3.096 0-7.486 4.786-7.486 7.807 0 1.36 1.045 2.174 2.797 2.174 1.904 0 3.16-.978 4.688-.978 1.54 0 2.802.978 4.69.978 1.752 0 2.797-.813 2.797-2.174 0-3.02-4.4-7.807-7.486-7.807zm-5.742-.49c-.406-1.35-1.655-2.226-2.8-1.955S-.24 6.893.166 8.244s1.655 2.225 2.8 1.954S4.683 8.612 4.278 7.26zm3.303-.8c1.206-.318 1.8-1.947 1.348-3.64S7.115.004 5.91.32 4.1 2.268 4.56 3.96s1.814 2.807 3.02 2.5zm10.97-1.144c-1.135-.272-2.384.603-2.8 1.954s.186 2.666 1.32 2.937 2.384-.603 2.8-1.954-.186-2.666-1.32-2.937zM12.458 6.45c1.207.317 2.56-.798 3.02-2.5S15.336.638 14.13.32s-2.558.797-3.02 2.5.142 3.322 1.348 3.64z"/><path id="C" d="M19.063 9H3.124V3.375a1.25 1.25 0 1 1 2.305-.669 2.655 2.655 0 0 0 .267 3.244.468.468 0 0 0 .02.642l.442.44c.183.184.48.184.662 0l3.713-3.712a.469.469 0 0 0 0-.663l-.442-.44a.468.468 0 0 0-.642-.02 2.65 2.65 0 0 0-2.507-.6A3.123 3.123 0 0 0 1.25 3.375V9H.937A.937.937 0 0 0 0 9.938v.624a.94.94 0 0 0 .937.938h.313v1.25a3.74 3.74 0 0 0 1.25 2.795v1.268a.94.94 0 0 0 .937.937h.625A.94.94 0 0 0 5 16.812V16.5h10v.313a.94.94 0 0 0 .938.937h.624a.94.94 0 0 0 .938-.938v-1.267a3.74 3.74 0 0 0 1.25-2.795V11.5h.313a.94.94 0 0 0 .937-.938v-.624A.937.937 0 0 0 19.062 9z"/></defs><g fill="none" fill-rule="evenodd"><g stroke="#23b4c9" stroke-width="2"><path d="M8.958 254.506l-1.252 38.776 131.926 167.783 323.794 61.962 32.782-27.41 47.32-173.56-18.144-2.283 88.86-25.24-43.74-20.946 2.82-99.504 19.68-8.366L611.7 207.08l38.118-42.984-2.685-39.582L643.88 76.2l-24.816-8.145-.458-62.607L543.6 83.1 409.15 239.714l-77.238 58-163.5-10.37-73.768 27.004-60.5-17.197-1.918-20.07 4.022-6.045-27.3-16.53zm-1.252 38.776l28.736-20.417m103.2 188.2l85.408-117.363M94.654 314.348l130.386 29.354"/><path d="M223.5 343.702l169.98 129.11 69.946 50.216-26.16-77.25m58.942 49.84l-58.942-49.84 106.26-123.72"/><path d="M223.5 343.702l-55.078-56.36 268.844 158.434zm213.766 102.075L331.912 297.715m0 0l193.472 22.058 43.633-46.908m0-.865L409.15 239.714 574.82 175m14.28-6.5l-45.574-85.963 76.322 29.43v-45.16L649.82 123zm22.6 38.58L649.818 123"/></g><g fill="#f8951d"><circle cx="9.5" cy="254.5" r="7.5"/><circle cx="35.5" cy="272.5" r="7.5"/><circle cx="7.5" cy="294.5" r="7.5"/><circle cx="32.5" cy="294.5" r="7.5"/><circle cx="168.5" cy="285.5" r="7.5"/><circle cx="94.5" cy="314.5" r="7.5"/><circle cx="223.5" cy="345.5" r="16.5"/></g><g transform="translate(215 334)"><mask id="D" fill="#fff"><use xlink:href="#A"/></mask><g fill="#fff" mask="url(#D)"><path d="M-3-2h24v24H-3z"/></g></g><g fill="#f8951d"><circle cx="139.5" cy="461.5" r="7.5"/><circle cx="437.5" cy="446.5" r="7.5"/><circle cx="463.5" cy="525.5" r="7.5"/><circle cx="497.5" cy="495.5" r="7.5"/><circle cx="328.5" cy="295.5" r="21.5"/></g><g transform="translate(318 287)"><mask id="E" fill="#fff"><use xlink:href="#B"/></mask><g fill="#fff" mask="url(#E)"><path d="M-2-3h24v24H-2z"/></g></g><g fill="#f8951d"><circle cx="528.5" cy="319.5" r="7.5"/><circle cx="545.5" cy="322.5" r="7.5"/><circle cx="611.5" cy="294.5" r="7.5"/><circle cx="569.5" cy="271.5" r="17.5"/></g><g transform="translate(560 263)"><mask id="F" fill="#fff"><use xlink:href="#C"/></mask><g fill="#fff" mask="url(#F)"><path d="M-2-3h24v24H-2z"/></g></g><g fill="#f8951d"><circle cx="409.5" cy="239.5" r="7.5"/><circle cx="574.5" cy="175.5" r="7.5"/><circle cx="545.5" cy="83.5" r="7.5"/><circle cx="619.5" cy="110.5" r="7.5"/><circle cx="619.5" cy="7.5" r="7.5"/><circle cx="619.5" cy="68.5" r="7.5"/><circle cx="643.5" cy="76.5" r="7.5"/><circle cx="648.5" cy="125.5" r="7.5"/><circle cx="591.5" cy="167.5" r="7.5"/><circle cx="612.5" cy="206.5" r="7.5"/><circle cx="651.5" cy="166.5" r="7.5"/></g></g></svg>