<svg xmlns="http://www.w3.org/2000/svg" width="121" height="168"><path fill="#23b4c9" d="M113.297 38.47a1.1 1.1 0 0 0-1.097-1.018H92.4v-5.508C92.4 14.33 78.1 0 60.5 0S28.6 14.33 28.6 31.945v5.508H8.8a1.1 1.1 0 0 0-1.097 1.018l-7.7 101.344A1.1 1.1 0 0 0 1.1 141h118.8a1.099 1.099 0 0 0 1.097-1.184l-7.7-101.345zM37.4 31.945C37.4 19.2 47.762 8.812 60.5 8.812S83.6 19.2 83.6 31.945v5.508H37.4v-5.508zM33 68.297c-6.067 0-11-4.942-11-11.016 0-4.396 2.2-8.357 6.6-10.096V57.28a4.408 4.408 0 0 0 4.4 4.407 4.41 4.41 0 0 0 4.4-4.407v-10.09c4.4 1.738 6.6 5.73 6.6 10.1 0 6.073-4.934 11.015-11 11.015zm55 0c-6.066 0-11-4.942-11-11.016 0-4.396 2.2-8.357 6.6-10.096V57.28a4.408 4.408 0 0 0 4.4 4.407 4.41 4.41 0 0 0 4.4-4.407v-10.09c4.4 1.738 6.6 5.73 6.6 10.1 0 6.073-4.933 11.015-11 11.015z"/><path fill="#f8951d" d="M34.215 167h-2.08a.909.909 0 0 1-.575-.175.995.995 0 0 1-.325-.435l-1.08-2.95h-6l-1.08 2.95a.947.947 0 0 1-.315.42.885.885 0 0 1-.575.19h-2.1l5.68-14.46h2.75l5.68 14.46zm-9.36-5.46h4.6l-1.76-4.8-.265-.755-.285-.945-.275.95-.265.77-1.76 4.8zm19.97-9v2.14h-6.4v4h5.05v2.07h-5.05v4.1h6.4V167h-9.12v-14.46h9.12zm15.17 7.23c0 1.06-.177 2.033-.53 2.92a6.707 6.707 0 0 1-1.49 2.29 6.666 6.666 0 0 1-2.31 1.49c-.9.353-1.897.53-3 .53h-5.52v-14.46h5.52c1.093 0 2.1.178 3 .535s1.67.853 2.3 1.5a6.654 6.654 0 0 1 1.49 2.285c.353.887.53 1.86.53 2.92zm-2.75 0c0-.793-.107-1.505-.32-2.135a4.524 4.524 0 0 0-.91-1.6 3.923 3.923 0 0 0-1.435-1.005c-.563-.233-1.198-.35-1.905-.35h-2.8v10.18h2.8c.707 0 1.342-.117 1.905-.35a3.923 3.923 0 0 0 1.435-1.005c.393-.437.697-.97.9-1.6s.32-1.342.32-2.135zm22.6 0c0 1.06-.177 2.042-.53 2.945a6.977 6.977 0 0 1-1.49 2.345 6.747 6.747 0 0 1-2.31 1.545c-.9.37-1.897.555-3 .555s-2.092-.185-2.995-.555a6.789 6.789 0 0 1-2.32-1.545 6.938 6.938 0 0 1-1.495-2.345c-.353-.903-.53-1.885-.53-2.945s.177-2.042.53-2.945a6.938 6.938 0 0 1 1.495-2.345 6.789 6.789 0 0 1 2.32-1.545c.903-.37 1.902-.555 2.995-.555s2.1.187 3 .56 1.67.888 2.3 1.545a6.922 6.922 0 0 1 1.49 2.34c.353.903.53 1.885.53 2.945zm-2.76 0c0-.793-.105-1.505-.315-2.135a4.516 4.516 0 0 0-.905-1.605 3.896 3.896 0 0 0-1.435-1.01c-.563-.233-1.198-.35-1.905-.35s-1.343.117-1.9.35a3.933 3.933 0 0 0-1.445 1.01c-.397.44-.702.975-.915 1.605s-.32 1.342-.32 2.135.107 1.505.32 2.135.518 1.163.915 1.6a3.96 3.96 0 0 0 1.445 1.005c.567.233 1.203.35 1.9.35s1.342-.117 1.905-.35a3.923 3.923 0 0 0 1.435-1.005c.393-.437.695-.97.905-1.6s.315-1.342.315-2.135zm14-7.23v2.14h-6.4v4.28h5.4v2.15h-5.4v5.9h-2.7v-14.46h9.12zm11.23 0v2.14h-6.4v4.28h5.4v2.15h-5.4v5.9h-2.7v-14.46h9.12z"/><path fill="#fff" d="M55.7 84.43c0 1.095-.346 1.984-1.038 2.666s-1.845 1.023-3.457 1.023H38.866l-1.612 9.362c2.025-.413 3.875-.62 5.55-.62 2.356 0 4.428.35 6.216 1.054s3.3 1.674 4.5 2.914a12.225 12.225 0 0 1 2.759 4.355c.62 1.664.93 3.457.93 5.38 0 2.377-.418 4.547-1.256 6.5s-2 3.642-3.487 5.037-3.25 2.475-5.285 3.24-4.253 1.147-6.65 1.147c-1.405 0-2.738-.145-4-.434a19.84 19.84 0 0 1-6.618-2.837 19.4 19.4 0 0 1-2.527-1.999l2.356-3.255c.496-.703 1.157-1.054 1.984-1.054.517 0 1.038.165 1.565.496l1.845 1.085c.703.393 1.52.754 2.45 1.085s2.056.496 3.38.496c1.405 0 2.645-.227 3.72-.682s1.968-1.1 2.68-1.907 1.25-1.787 1.612-2.913.543-2.35.543-3.674c0-2.44-.708-4.345-2.123-5.72s-3.498-2.06-6.247-2.06c-2.17 0-4.35.393-6.54 1.178l-4.774-1.364 3.72-21.762H55.7v3.255zm39.71 19.158c0 3.906-.418 7.3-1.255 10.183s-1.995 5.265-3.472 7.146-3.224 3.28-5.24 4.2-4.2 1.38-6.525 1.38-4.5-.46-6.495-1.38-3.725-2.32-5.192-4.2-2.614-4.262-3.44-7.145-1.24-6.278-1.24-10.184c0-3.927.413-7.326 1.24-10.2s1.974-5.25 3.44-7.13 3.198-3.28 5.193-4.2 4.16-1.38 6.494-1.38 4.5.46 6.525 1.38 3.762 2.32 5.24 4.2 2.634 4.257 3.47 7.13 1.256 6.272 1.256 10.2zm-7.905 0c0-3.245-.238-5.93-.713-8.06s-1.1-3.823-1.907-5.084-1.7-2.144-2.743-2.65a7.24 7.24 0 0 0-3.224-.76 7.08 7.08 0 0 0-3.178.76c-1.023.506-1.927 1.4-2.712 2.65s-1.4 2.955-1.876 5.084-.697 4.815-.697 8.06.232 5.93.698 8.06 1.1 3.823 1.875 5.084 1.7 2.144 2.712 2.65a7.08 7.08 0 0 0 3.178.76 7.24 7.24 0 0 0 3.224-.76c1.033-.506 1.948-1.4 2.743-2.65s1.432-2.955 1.907-5.084.713-4.815.713-8.06z"/></svg>