<svg xmlns="http://www.w3.org/2000/svg" width="82" height="145" fill="none" fill-rule="evenodd"><g fill="#f8951d"><g fill-rule="nonzero"><circle cx="40.5" cy="128.5" r="4.5"/><path d="M71.376 0H10.624C4.766 0 0 4.778 0 10.645v123.707C0 140.222 4.766 145 10.624 145h60.75C77.234 145 82 140.222 82 134.355v-123.7C82 4.778 77.234 0 71.376 0zm-23.14 7.25h2.41a2.414 2.414 0 1 1 0 4.833h-2.412a2.414 2.414 0 1 1 0-4.833zm-16.883 0H41a2.414 2.414 0 1 1 0 4.833h-9.647a2.414 2.414 0 1 1 0-4.833zM41 137.75a9.67 9.67 0 0 1-9.647-9.667A9.67 9.67 0 0 1 41 118.417a9.67 9.67 0 0 1 9.647 9.666A9.67 9.67 0 0 1 41 137.75zm36.176-26.583H4.824V19.333h72.352v91.834z"/></g><rect width="63" height="18" x="10" rx="6" y="86"/></g><g fill-rule="nonzero"><path fill="#fff" d="M22.583 98.705h2.05v-5.9l.02-.72L23.2 93.3c-.054.047-.117.083-.185.105a.65.65 0 0 1-.186.028.55.55 0 0 1-.427-.196l-.546-.75 3.087-2.625h1.42v8.84h1.82V100h-5.6v-1.295zm10.45-8.94a3.79 3.79 0 0 1 1.281.207 2.87 2.87 0 0 1 .994.584c.275.252.5.555.644.9a2.94 2.94 0 0 1 .231 1.183c0 .373-.055.72-.165 1.036a4.36 4.36 0 0 1-.44.91 6.05 6.05 0 0 1-.648.84l-.777.826-2.282 2.33c.224-.065.443-.115.658-.15a3.83 3.83 0 0 1 .616-.053h2.597c.187 0 .335.052.445.157a.55.55 0 0 1 .164.417V100h-6.944v-.574c.004-.27.115-.526.308-.714l3.073-3.08.7-.75a5.01 5.01 0 0 0 .51-.707c.138-.233.243-.47.316-.7s.108-.494.108-.76c0-.243-.035-.456-.105-.64s-.17-.34-.3-.466-.292-.224-.466-.284a1.82 1.82 0 0 0-.605-.094c-.415 0-.757.105-1.026.315a1.65 1.65 0 0 0-.563.847c-.05.177-.128.304-.23.38-.114.08-.252.122-.392.116-.07 0-.147-.007-.23-.02l-.9-.16c.07-.485.205-.91.406-1.277s.45-.672.752-.917a3.12 3.12 0 0 1 1.037-.554 4.15 4.15 0 0 1 1.256-.185zm8.28 0c.467 0 .888.066 1.264.2s.696.317.962.553a2.42 2.42 0 0 1 .826 1.858 3.02 3.02 0 0 1-.108.85 1.98 1.98 0 0 1-.316.641 1.91 1.91 0 0 1-.503.462c-.212.132-.44.238-.676.315.607.19 1.06.483 1.358.875s.448.884.448 1.477c0 .504-.093.95-.28 1.337-.178.376-.436.71-.756.976-.326.268-.7.472-1.102.6a4.29 4.29 0 0 1-1.327.203c-.51 0-.952-.058-1.33-.175a2.89 2.89 0 0 1-.987-.518 3.13 3.13 0 0 1-.714-.84 5.67 5.67 0 0 1-.504-1.148l.763-.315c.13-.056.264-.084.4-.084.12 0 .23.026.326.077s.17.126.22.224l.277.483a1.92 1.92 0 0 0 .36.423c.14.124.304.224.493.3s.415.116.676.116a1.91 1.91 0 0 0 .77-.144c.22-.095.402-.22.55-.374.28-.293.436-.68.438-1.085a2.64 2.64 0 0 0-.078-.662.98.98 0 0 0-.322-.507c-.163-.14-.398-.25-.703-.33s-.716-.12-1.23-.12v-1.232c.356.003.71-.036 1.057-.12a1.8 1.8 0 0 0 .669-.312 1.06 1.06 0 0 0 .346-.479c.065-.187.098-.392.098-.616 0-.48-.13-.843-.392-1.088s-.618-.368-1.07-.368c-.4 0-.75.108-1.022.325a1.71 1.71 0 0 0-.567.837c-.056.177-.133.304-.23.38-.11.08-.247.122-.385.116a1.45 1.45 0 0 1-.238-.021l-.9-.16c.07-.485.205-.91.406-1.277a3.03 3.03 0 0 1 .753-.917c.3-.246.646-.43 1.036-.554a4.15 4.15 0 0 1 1.256-.185zm10.34 6.42h1.274v1a.35.35 0 0 1-.091.242c-.06.067-.15.1-.266.1h-.917V100h-1.512v-2.47h-4.27c-.112.002-.22-.037-.308-.108a.47.47 0 0 1-.168-.27l-.175-.875 4.795-6.405h1.638v6.314zm-1.512-3.31a7.7 7.7 0 0 1 .063-1.022l-3.143 4.333h3.08v-3.31zm9.96-2.26a.81.81 0 0 1-.235.602c-.156.154-.416.23-.78.23h-2.786l-.364 2.114a6.31 6.31 0 0 1 1.253-.14c.532 0 1 .08 1.403.238s.744.378 1.02.658a2.77 2.77 0 0 1 .623.983c.14.376.2.78.2 1.215a3.71 3.71 0 0 1-.283 1.47c-.18.43-.45.817-.788 1.137-.345.32-.75.57-1.194.732a4.23 4.23 0 0 1-1.501.259 4.05 4.05 0 0 1-.903-.098 4.48 4.48 0 0 1-2.065-1.092l.532-.735c.098-.15.268-.24.448-.238.117 0 .234.037.353.112l.417.245a3.64 3.64 0 0 0 .553.245c.2.075.464.112.763.112.317 0 .597-.05.84-.154a1.64 1.64 0 0 0 .605-.43c.162-.185.283-.404.364-.66a2.7 2.7 0 0 0 .123-.829c0-.55-.16-.98-.48-1.29s-.8-.466-1.4-.466c-.5 0-.982.09-1.477.266l-1.078-.308.84-4.914h4.998v.735z"/><path fill="#23b4c9" d="M60.2 41.915a.4.4 0 0 0-.399-.368h-7.2v-1.992C52.6 33.183 47.396 28 41 28s-11.6 5.183-11.6 11.555v1.992h-7.2a.4.4 0 0 0-.399.368L19 78.57A.4.4 0 0 0 19.4 79h43.2a.4.4 0 0 0 .399-.428l-2.8-36.657zM33 39.077C33 34.623 36.813 31 41.5 31s8.5 3.623 8.5 8.077V41H33v-1.923zM31 53c-2.206 0-4-1.873-4-4.174 0-1.666.8-3.167 2.4-3.826v3.826c0 .92.718 1.67 1.6 1.67s1.6-.75 1.6-1.67v-3.823c1.6.658 2.4 2.17 2.4 3.823 0 2.3-1.794 4.174-4 4.174zm20 0c-2.206 0-4-1.873-4-4.174 0-1.666.8-3.167 2.4-3.826v3.826c0 .92.718 1.67 1.6 1.67s1.6-.75 1.6-1.67v-3.823c1.6.658 2.4 2.17 2.4 3.823 0 2.3-1.794 4.174-4 4.174z"/></g></svg>