<svg xmlns="http://www.w3.org/2000/svg" width="154" height="160" fill-rule="evenodd"><path fill="#f8951d" fill-rule="nonzero" d="M30.237 160h-1.875c-.216 0-.39-.054-.524-.162a1 1 0 0 1-.3-.413l-1.675-4.325h-8.038l-1.675 4.325a.977.977 0 0 1-.3.4.799.799 0 0 1-.525.175H13.45l7.163-17.912h2.462L30.237 160zM18.5 153.35h6.688l-2.813-7.287a13.62 13.62 0 0 1-.538-1.688l-.268.944-.256.756-2.813 7.275zm25.038-11.262v1.975h-8.6v5.95H41.9v1.9h-6.962v6.112h8.6V160H32.5v-17.912h11.038zm19.012 8.962c0 1.342-.212 2.562-.638 3.662s-1.024 2.042-1.8 2.826a8.025 8.025 0 0 1-2.787 1.818c-1.083.43-2.283.644-3.6.644h-6.7v-17.912h6.7c1.317 0 2.517.214 3.6.643a7.981 7.981 0 0 1 2.787 1.825c.776.788 1.375 1.73 1.8 2.83s.638 2.32.638 3.663zm-2.487 0c0-1.1-.15-2.083-.45-2.95s-.725-1.6-1.276-2.2a5.438 5.438 0 0 0-2-1.375c-.783-.317-1.654-.475-2.612-.475h-4.263v13.987h4.263c.958 0 1.83-.158 2.612-.475a5.473 5.473 0 0 0 2-1.368c.55-.596.975-1.327 1.275-2.194s.45-1.85.45-2.95zM15.32 110.228a15.47 15.47 0 0 1-5.292-.936 13.435 13.435 0 0 1-4.626-2.826c-1.356-1.26-2.442-2.82-3.258-4.68S.92 97.748.92 95.252c0-2.328.432-4.512 1.296-6.552a16.458 16.458 0 0 1 3.636-5.364c1.56-1.536 3.432-2.748 5.616-3.636s4.596-1.332 7.236-1.332c2.664 0 5.058.42 7.182 1.26s3.936 2.016 5.436 3.528 2.652 3.324 3.456 5.436 1.206 4.428 1.206 6.948c0 1.608-.138 3.132-.414 4.572a23.982 23.982 0 0 1-1.188 4.158 28.788 28.788 0 0 1-1.854 3.888 49.85 49.85 0 0 1-2.412 3.798L18.2 128.948c-.408.576-1.014 1.062-1.818 1.458s-1.722.594-2.754.594H5.456l16.164-20.196a50.633 50.633 0 0 0 2.196-2.916 14.36 14.36 0 0 1-3.96 1.746c-1.44.396-2.952.594-4.536.594zM27.452 94.64c0-1.416-.216-2.682-.648-3.798s-1.044-2.058-1.836-2.826a8.054 8.054 0 0 0-2.826-1.764c-1.092-.408-2.286-.612-3.582-.612-1.344 0-2.556.222-3.636.666s-1.998 1.062-2.754 1.854a8.19 8.19 0 0 0-1.746 2.826c-.408 1.092-.612 2.286-.612 3.582 0 2.904.75 5.118 2.25 6.642s3.63 2.286 6.4 2.286c1.44 0 2.718-.228 3.834-.684s2.058-1.08 2.826-1.872a7.874 7.874 0 0 0 1.746-2.808c.396-1.08.594-2.244.594-3.492zm50.508 10.332c0 4.536-.486 8.478-1.458 11.826s-2.316 6.114-4.032 8.298-3.744 3.8-6.084 4.878-4.866 1.602-7.578 1.602-5.226-.534-7.542-1.602-4.326-2.694-6.03-4.878-3.036-4.95-3.996-8.298-1.44-7.3-1.44-11.826c0-4.56.48-8.508 1.44-11.844s2.292-6.096 3.996-8.28 3.714-3.8 6.03-4.878 4.83-1.602 7.542-1.602 5.238.534 7.578 1.602 4.368 2.694 6.084 4.878 3.06 4.944 4.032 8.28 1.458 7.284 1.458 11.844zm-9.18 0c0-3.768-.276-6.888-.828-9.36s-1.3-4.44-2.214-5.904-1.986-2.5-3.186-3.078a8.409 8.409 0 0 0-3.744-.882 8.223 8.223 0 0 0-3.69.882c-1.188.588-2.238 1.614-3.15 3.078S50.33 93.14 49.8 95.612s-.8 5.592-.8 9.36.27 6.888.8 9.36 1.266 4.44 2.178 5.904 1.962 2.5 3.15 3.078a8.223 8.223 0 0 0 3.69.882 8.409 8.409 0 0 0 3.744-.882c1.2-.588 2.262-1.614 3.186-3.078s1.662-3.432 2.214-5.904.828-5.592.828-9.36z"/><g fill="#23b4c9"><path d="M52 67V24h7v43z"/><circle cx="55.5" cy="21.5" r="21.5"/></g><g fill-rule="nonzero" fill="#fff"><path d="M52.522 32.766s2.795-.2 4.193-2.314S53.92 23 53.92 23s-2.33 2.314-5.6 2.123S43.668 23 43.668 23s-5.125 4.246-3.26 7.643 12.114 2.123 12.114 2.123z"/><ellipse cx="49" cy="17.5" rx="6" ry="5.5"/><path d="M60.857 31h10.286c.466.007.85-.364.857-.83V20.15c-.008-.466-.39-.837-.857-.83H68.57v-.83C68.57 17.117 67.418 16 66 16s-2.57 1.117-2.57 2.5v.83h-2.572c-.466-.007-.85.364-.857.83v10.02c0 .46.383.83.857.83zM65 19a1 1 0 1 1 2 0v1h-2v-1z"/></g><g fill="#23b4c9"><path d="M89.238 99.678h49v8h-49z"/><circle cx="132.5" cy="101.5" r="21.5"/></g><g fill-rule="nonzero" fill="#fff"><path d="M129.522 112.766s2.795-.2 4.193-2.314S130.92 103 130.92 103s-2.33 2.314-5.6 2.123-4.66-2.123-4.66-2.123-5.125 4.246-3.26 7.643 12.114 2.123 12.114 2.123z"/><ellipse cx="126" cy="97.5" rx="6" ry="5.5"/><path d="M137.857 111h10.286c.466.007.85-.364.857-.83v-10.02c-.008-.466-.39-.837-.857-.83h-2.573v-.83c.001-1.373-1.152-2.5-2.57-2.5s-2.57 1.117-2.57 2.5v.83h-2.572c-.466-.007-.85.364-.857.83v10.02c0 .46.383.83.857.83zM142 99a1 1 0 1 1 2 0v1h-2v-1z"/></g><g fill="#23b4c9"><path d="M79 76.72l27.64-32.94 5.36 4.5-27.64 32.94z"/><circle cx="111.5" cy="42.5" r="21.5"/></g><g fill-rule="nonzero" fill="#fff"><path d="M108.522 53.766s2.795-.2 4.193-2.314S109.92 44 109.92 44s-2.33 2.314-5.6 2.123S99.67 44 99.67 44s-5.125 4.246-3.26 7.643 12.114 2.123 12.114 2.123z"/><ellipse cx="105" cy="38.5" rx="6" ry="5.5"/><path d="M116.857 52h10.286c.466.007.85-.364.857-.83V41.15c-.008-.466-.39-.837-.857-.83h-2.573v-.83c.001-1.373-1.152-2.5-2.57-2.5s-2.57 1.117-2.57 2.5v.83h-2.572c-.466-.007-.85.364-.857.83v10.02c0 .46.383.83.857.83zM121 40a1 1 0 1 1 2 0v1h-2v-1z"/></g></svg>