<svg xmlns="http://www.w3.org/2000/svg" width="165" height="117" fill-rule="evenodd"><g fill-rule="nonzero"><path fill="#f8951d" d="M25.238 54.62H81.38v6.238h6.238V54.62h56.143v6.238H150V54.62a6.24 6.24 0 0 0-6.238-6.238H87.62v-6.238H81.38v6.238H25.238A6.24 6.24 0 0 0 19 54.619v6.238h6.238V54.62z"/><g fill="#23b4c9" stroke="#fff"><g stroke-width="3"><path d="M30 114.438s6.248-.457 9.372-5.552S33.114 91 33.114 91s-5.207 5.553-12.497 5.095S10.202 91 10.202 91s-11.456 10.2-7.3 18.343 27.077 5.095 27.077 5.095z"/><ellipse cx="22" cy="80.5" rx="14" ry="13.5"/></g><g stroke-width="3"><path d="M93 114.438s6.248-.457 9.372-5.552S96.114 91 96.114 91s-5.207 5.553-12.497 5.095S73.202 91 73.202 91s-11.456 10.2-7.3 18.343 27.077 5.095 27.077 5.095z"/><ellipse cx="85" cy="80.5" rx="14" ry="13.5"/></g><g stroke-width="3"><path d="M153 114.438s6.248-.457 9.372-5.552S156.114 91 156.114 91s-5.207 5.553-12.497 5.095S133.202 91 133.202 91s-11.456 10.2-7.3 18.343 27.077 5.095 27.077 5.095z"/><ellipse cx="145" cy="80.5" rx="14" ry="13.5"/></g></g></g><rect width="118" height="34" x="26" fill="#f8951d" rx="6"/><path fill="#fff" fill-rule="nonzero" d="M56.56 22.965h3.223v-9.273l.033-1.133-2.288 1.914a.81.81 0 0 1-.291.165 1.01 1.01 0 0 1-.292.044c-.14.002-.278-.03-.402-.094a.75.75 0 0 1-.269-.214l-.858-1.177 4.85-4.125H62.5v13.893h2.86V25h-8.8v-2.035zM72.982 8.918c.733 0 1.404.108 2.013.325s1.13.522 1.562.918.77.873 1.012 1.43a4.62 4.62 0 0 1 .363 1.859c0 .587-.086 1.13-.258 1.628a6.77 6.77 0 0 1-.694 1.43c-.3.455-.628.895-1.017 1.32l-1.22 1.298-3.586 3.663c.34-.1.685-.18 1.034-.237a6.02 6.02 0 0 1 .968-.082h4.08c.293 0 .526.082.698.248s.26.383.26.654V25H67.284v-.902c.006-.423.18-.827.484-1.122l4.83-4.84 1.084-1.177c.32-.374.586-.744.803-1.11s.38-.74.495-1.117a4.12 4.12 0 0 0 .17-1.193c0-.38-.055-.717-.165-1.007a1.97 1.97 0 0 0-.473-.731c-.208-.2-.458-.352-.73-.446-.307-.103-.63-.153-.952-.148-.653 0-1.2.165-1.612.495s-.716.774-.885 1.33c-.08.28-.202.478-.363.6s-.367.18-.616.18a2.22 2.22 0 0 1-.363-.033l-1.43-.253c.1-.763.323-1.432.638-2.007.296-.553.698-1.042 1.182-1.44a4.9 4.9 0 0 1 1.628-.87 6.49 6.49 0 0 1 1.975-.291zm13.013 0c.733 0 1.395.104 1.986.314s1.094.498 1.512.87.74.804.963 1.303.335 1.038.335 1.617c0 .506-.057.95-.17 1.336a3.11 3.11 0 0 1-.495 1.007 3 3 0 0 1-.793.726c-.332.208-.688.374-1.06.495.953.3 1.665.76 2.134 1.375s.704 1.4.704 2.32c0 .792-.147 1.492-.44 2.1-.28.59-.685 1.115-1.188 1.534-.512.422-1.1.74-1.733.94a6.72 6.72 0 0 1-2.084.319c-.8 0-1.496-.092-2.1-.275a4.54 4.54 0 0 1-1.551-.814c-.44-.36-.814-.8-1.122-1.32a8.91 8.91 0 0 1-.792-1.804l1.2-.495c.205-.088.414-.132.627-.132a1.06 1.06 0 0 1 .511.121c.15.08.266.198.347.352l.434.76c.158.25.347.47.567.665a2.68 2.68 0 0 0 .775.473c.298.122.65.182 1.062.182.462 0 .865-.075 1.2-.226a2.63 2.63 0 0 0 .864-.588 2.49 2.49 0 0 0 .688-1.705c-.001-.38-.04-.728-.122-1.04a1.54 1.54 0 0 0-.506-.797c-.257-.22-.625-.392-1.106-.517s-1.123-.187-1.93-.187v-1.936c.667-.007 1.22-.07 1.66-.187s.8-.28 1.05-.5.442-.46.545-.753.154-.616.154-.968c0-.755-.205-1.325-.616-1.7s-.972-.578-1.683-.578c-.645 0-1.18.17-1.606.51s-.722.78-.89 1.315c-.088.28-.21.478-.363.6s-.356.18-.605.18a2.28 2.28 0 0 1-.374-.033l-1.43-.253c.1-.763.323-1.432.638-2.007.297-.553.7-1.042 1.183-1.44a4.9 4.9 0 0 1 1.627-.87 6.49 6.49 0 0 1 1.975-.291zm16.247 10.087h2.002v1.573a.55.55 0 0 1-.143.38c-.095.106-.235.16-.418.16h-1.44V25h-2.376v-3.883h-6.7c-.176.003-.348-.058-.484-.17-.135-.106-.228-.256-.264-.424l-.275-1.375 7.535-10.065h2.574v9.922zm-2.376-5.203l.022-.76.077-.847-4.94 6.81h4.84v-5.203zm15.653-3.553c0 .39-.123.704-.37.946s-.654.363-1.226.363h-4.378l-.572 3.322c.647-.14 1.307-.213 1.97-.22.836 0 1.57.125 2.206.374a4.55 4.55 0 0 1 1.6 1.034c.433.44.76.955.98 1.545s.33 1.227.33 1.91c0 .843-.148 1.613-.446 2.3-.283.676-.704 1.285-1.237 1.787a5.57 5.57 0 0 1-1.876 1.15 6.66 6.66 0 0 1-2.359.407c-.5 0-.972-.05-1.42-.154a7.04 7.04 0 0 1-3.245-1.716l.836-1.155a.82.82 0 0 1 .704-.374c.183 0 .368.06.555.176l.655.385a5.63 5.63 0 0 0 .869.385c.33.117.73.176 1.2.176.5 0 .94-.08 1.32-.242s.698-.387.95-.677.444-.634.573-1.034.192-.834.192-1.303c0-.865-.25-1.542-.754-2.03s-1.24-.73-2.216-.73c-.77 0-1.544.14-2.32.418l-1.694-.484 1.32-7.722h7.854v1.155z"/></svg>