<svg xmlns="http://www.w3.org/2000/svg" xmlns:xlink="http://www.w3.org/1999/xlink" width="90" height="79"><defs><filter id="A" width="109.3%" height="214.3%" x="-4.7%" y="-57.1%"><feOffset dy="2" in="SourceAlpha"/><feGaussianBlur stdDeviation="10"/><feColorMatrix result="C" values="0 0 0 0 0.837239583 0 0 0 0 0.837239583 0 0 0 0 0.837239583 0 0 0 0.5 0"/><feMerge><feMergeNode in="C"/><feMergeNode in="SourceGraphic"/></feMerge></filter><path id="B" d="M50.143 27.5h-1.286v-8.445a3.7 3.7 0 0 0-1.133-2.649l-8.028-7.804A3.914 3.914 0 0 0 36.972 7.5H33.43V3.75C33.43 1.68 31.7 0 29.57 0H3.857C1.727 0 0 1.68 0 3.75v25c0 2.07 1.728 3.75 3.857 3.75h1.286c0 4.14 3.455 7.5 7.714 7.5s7.714-3.36 7.714-7.5h10.286c0 4.14 3.456 7.5 7.714 7.5s7.715-3.36 7.715-7.5h3.857c.707 0 1.286-.563 1.286-1.25v-2.5c0-.688-.58-1.25-1.286-1.25zm-37 9.07a4.001 4.001 0 0 1 0-8 4.001 4.001 0 0 1 0 8zm25.143 0a4.001 4.001 0 0 1 0-8 4.001 4.001 0 0 1 0 8zm6.285-16H33.143v-9.14h3.5l7.928 8.155v.987z"/></defs><g fill-rule="evenodd" filter="url(#A)" transform="translate(20 18)"><mask id="C" fill="#fff"><use xlink:href="#B"/></mask><g fill="#23b4c9" mask="url(#C)"><path d="M-4.57-10.286H56v60.57H-4.57z"/></g></g></svg>