<svg xmlns="http://www.w3.org/2000/svg" xmlns:xlink="http://www.w3.org/1999/xlink" width="80" height="77"><defs><filter id="A" width="109.3%" height="214.3%" x="-4.7%" y="-57.1%"><feOffset dy="2" in="SourceAlpha"/><feGaussianBlur stdDeviation="10"/><feColorMatrix result="C" values="0 0 0 0 0.837239583 0 0 0 0 0.837239583 0 0 0 0 0.837239583 0 0 0 0.5 0"/><feMerge><feMergeNode in="C"/><feMergeNode in="SourceGraphic"/></feMerge></filter><path id="B" d="M24 13.333c-1.667 0-8.823.165-13.43 7.163v-7.163c0-4.41-3.556-8-7.928-8C1.183 5.333 0 6.527 0 8s1.184 2.667 2.643 2.667 2.643 1.196 2.643 2.666v21.334c0 2.94 2.37 5.333 5.285 5.333h14.536c.73 0 1.322-.597 1.322-1.333v-1.334c0-1.472-1.184-2.666-2.643-2.666h-2.643l10.57-8v12c0 .736.592 1.333 1.322 1.333h2.643c.73 0 1.32-.597 1.32-1.333v-17.18c-.85.223-1.725.38-2.643.38-5.105 0-9.375-3.67-10.357-8.534zm13-8h-5.286L26.43 0v11.2c0 4.418 3.55 8 7.928 8s7.93-3.582 7.93-8V0L37 5.333zM31.054 12c-.73 0-1.322-.597-1.322-1.333s.59-1.334 1.322-1.334 1.32.597 1.32 1.334S31.784 12 31.054 12zm6.607 0c-.73 0-1.322-.597-1.322-1.333s.592-1.334 1.322-1.334 1.32.597 1.32 1.334S38.39 12 37.66 12z"/></defs><g fill-rule="evenodd" filter="url(#A)" transform="translate(18 15)"><mask id="C" fill="#fff"><use xlink:href="#B"/></mask><g fill="#23b4c9" mask="url(#C)"><path d="M-3.43-5.714h50.286v50.286H-3.43z"/></g></g></svg>