<svg xmlns="http://www.w3.org/2000/svg" width="22" height="36" fill-rule="evenodd" fill="#c8c8c8"><path d="M8.485 17.827L20.7 30.052a2 2 0 0 1 0 2.828l-1.414 1.414a2 2 0 0 1-2.828 0l-14.85-14.85a1.99 1.99 0 0 1-.582-1.286 2 2 0 0 1 .527-1.896l14.85-14.85a2 2 0 0 1 2.828 0l1.414 1.414a2 2 0 0 1 0 2.828l-12.17 12.17zm31.74 0L28 30.052a2 2 0 0 0 0 2.828l1.414 1.414a2 2 0 0 0 2.828 0l14.85-14.85a1.99 1.99 0 0 0 .582-1.286 2 2 0 0 0-.527-1.896l-14.85-14.85a2 2 0 0 0-2.828 0l-1.414 1.414a2 2 0 0 0 0 2.828l12.17 12.17z"/></svg>