<svg xmlns="http://www.w3.org/2000/svg" xmlns:xlink="http://www.w3.org/1999/xlink" width="67" height="82"><defs><filter id="A" width="109.3%" height="214.3%" x="-4.7%" y="-57.1%"><feOffset dy="2" in="SourceAlpha"/><feGaussianBlur stdDeviation="10"/><feColorMatrix result="C" values="0 0 0 0 0.837239583 0 0 0 0 0.837239583 0 0 0 0 0.837239583 0 0 0 0.5 0"/><feMerge><feMergeNode in="C"/><feMergeNode in="SourceGraphic"/></feMerge></filter><path id="B" d="M23.664 0h-18.9C2.528 0 .714 1.764.714 3.938v34.124C.714 40.236 2.528 42 4.764 42h18.9c2.236 0 4.05-1.764 4.05-3.938V3.938C27.714 1.764 25.9 0 23.664 0zm-9.45 39.375c-1.493 0-2.7-1.173-2.7-2.625s1.207-2.625 2.7-2.625 2.7 1.173 2.7 2.625-1.206 2.625-2.7 2.625zm9.45-8.86c0 .542-.455.985-1.012.985H5.777c-.557 0-1.013-.443-1.013-.984V4.922c0-.542.456-.984 1.013-.984h16.875c.557 0 1.012.442 1.012.984v25.594z"/></defs><g fill-rule="evenodd" filter="url(#A)" transform="translate(19 18)"><mask id="C" fill="#fff"><use xlink:href="#B"/></mask><g fill="#23b4c9" mask="url(#C)"><path d="M-11.286-4h51v50h-51z"/></g></g></svg>