<svg xmlns="http://www.w3.org/2000/svg" width="38" height="33"><path fill="#23b4c9" d="M35 6v4.623c-1.768.47-3.112 1.135-4.032 1.998s-1.657 1.966-2.2 3.3-.828 2.977-.828 4.9c2.258 0 3.934.648 5.026 1.942s1.64 2.67 1.64 4.124c0 1.726-.602 3.175-1.804 4.346S30.188 33 28.593 33c-2.087 0-3.873-.894-5.358-2.682s-2.228-4.234-2.228-7.34c0-2.737.6-5.302 1.767-7.693a18.752 18.752 0 0 1 4.806-6.14C29.605 7.442 32.08 6.394 35 6zM16.993 6v4.623c-1.767.47-3.112 1.135-4.032 1.998s-1.657 1.966-2.2 3.3-.828 2.977-.828 4.9c2.283 0 3.965.648 5.045 1.942s1.62 2.67 1.62 4.124c0 1.726-.6 3.175-1.804 4.346S12.18 33 10.586 33c-2.062 0-3.842-.894-5.34-2.682S3 26.084 3 22.977c0-2.737.6-5.302 1.768-7.693a18.752 18.752 0 0 1 4.805-6.14c2.025-1.702 4.5-2.75 7.42-3.144z"/></svg>