<svg xmlns="http://www.w3.org/2000/svg" width="60" height="56" fill="#fff"><path d="M19.87 20.462c.23 0 .46-.017.692-.05 3.8-.56 6.32-5.585 5.6-11.198C25.48 4.047 22.167 0 18.608 0c-.23 0-.46.017-.692.05-1.795.265-3.368 1.542-4.43 3.595-1.106 2.14-1.518 4.842-1.16 7.604.672 5.166 3.985 9.213 7.545 9.213zm-14.67-6.5a4.65 4.65 0 0 0-1.13.14c-3.217.8-4.848 4.858-3.7 9.213 1 3.803 3.72 6.46 6.637 6.46a4.63 4.63 0 0 0 1.128-.14c3.218-.812 4.85-4.86 3.713-9.214-.992-3.803-3.722-6.458-6.64-6.458zm31.484 6.46c3.827.562 7.522-3.664 8.237-9.163.358-2.762-.053-5.463-1.16-7.604C42.7 1.592 41.128.315 39.334.05A4.788 4.788 0 0 0 38.64 0c-3.558 0-6.872 4.048-7.543 9.215-.73 5.614 1.778 10.637 5.588 11.197zm18.368-6.32a4.63 4.63 0 0 0-1.13-.14c-2.916 0-5.645 2.655-6.638 6.458-1.135 4.355.496 8.402 3.713 9.213a4.59 4.59 0 0 0 1.129.14c2.916.001 5.644-2.655 6.637-6.458 1.137-4.355-.494-8.402-3.7-9.213zM29.594 55.704c-30.656-17.082-8.485-38.32 0-24.016 8.486-14.303 30.658 6.934 0 24.016z"/></svg>