<svg xmlns="http://www.w3.org/2000/svg" width="53" height="53"><path d="M20.3 53c4.583 0 8.13-.434 10.977-1.32a5.3 5.3 0 0 1-.1-.984c0-1.505.632-2.864 1.643-3.84a5.326 5.326 0 0 1-1.644-3.842c0-1.505.633-2.863 1.644-3.84a5.326 5.326 0 0 1-1.644-3.84c0-1.506.633-2.864 1.644-3.84a5.326 5.326 0 0 1-1.644-3.84c0-1.78.888-3.346 2.237-4.325a22.006 22.006 0 0 0-2.947-2.246c.42-.524.7-1.158.7-1.88 0-1.696-1.4-3.072-3.107-3.072H12.533c-1.717 0-3.108 1.376-3.108 3.073 0 .72.29 1.35.707 1.875C4.1 24.92 0 31.878 0 39.174 0 51.567 11.63 53 20.3 53zm-.016-14.912c-2.57 0-4.66-2.067-4.66-4.61 0-2.006 1.3-3.7 3.123-4.33v-2.265c0-.85.695-1.536 1.554-1.536s1.553.687 1.553 1.536v2.275c1.796.64 3.09 2.326 3.09 4.32 0 .85-.695 1.536-1.554 1.536a1.544 1.544 0 0 1-1.553-1.536c0-.848-.697-1.536-1.554-1.536s-1.554.688-1.554 1.536.697 1.536 1.554 1.536c2.57 0 4.66 2.068 4.66 4.61 0 1.994-1.295 3.68-3.1 4.32v1.375c0 .85-.696 1.536-1.554 1.536a1.544 1.544 0 0 1-1.554-1.536v-1.364c-1.813-.632-3.124-2.325-3.124-4.33 0-.85.695-1.536 1.554-1.536s1.553.687 1.553 1.536.697 1.536 1.554 1.536 1.554-.688 1.554-1.536-.697-1.536-1.554-1.536zM50.708 48.39h-13.85a2.298 2.298 0 1 0 0 4.609h13.85a2.298 2.298 0 1 0 0-4.609zm0-8.065h-13.85a2.298 2.298 0 1 0 0 4.609h13.85a2.298 2.298 0 1 0 0-4.609zm0-8.066h-13.85a2.298 2.298 0 0 0 0 4.61h13.85a2.298 2.298 0 1 0 0-4.609zm0-8.064h-13.85a2.298 2.298 0 1 0 0 4.608h13.85a2.298 2.298 0 1 0 0-4.608zM24.566 3.117C23.918 1.307 22.2 0 20.163 0a4.7 4.7 0 0 0-4.424 3.117H10.78a1.57 1.57 0 0 0-1.269.646c-.293.407-.374.93-.214 1.405l2.442 7.506h16.847l2.44-7.506c.16-.475.08-.998-.213-1.405a1.566 1.566 0 0 0-1.269-.646h-4.98z" fill="#fff"/></svg>