<svg xmlns="http://www.w3.org/2000/svg" xmlns:xlink="http://www.w3.org/1999/xlink" width="504" height="504"><defs><path id="A" d="M0 .16h503.84v503.78H0z"/></defs><g fill-rule="evenodd"><mask id="B" fill="#fff"><use xlink:href="#A"/></mask><g fill="#fff"><path d="M251.92.16c-68.418 0-76.997.3-103.867 1.516-26.814 1.223-45.127 5.482-61.15 11.7-16.566 6.437-30.615 15.05-44.62 29.056s-22.62 28.055-29.056 44.62c-6.228 16.024-10.487 34.337-11.7 61.15C.3 175.083 0 183.662 0 252.08l1.516 103.866c1.223 26.814 5.482 45.127 11.7 61.15 6.437 16.566 15.05 30.615 29.056 44.62s28.055 22.62 44.62 29.057c16.024 6.227 34.337 10.486 61.15 11.71C174.924 503.7 183.503 504 251.92 504s76.996-.3 103.866-1.516c26.814-1.223 45.127-5.482 61.15-11.71 16.566-6.438 30.615-15.052 44.62-29.057s22.62-28.055 29.057-44.62c6.227-16.024 10.486-34.337 11.71-61.15 1.226-26.87 1.516-35.45 1.516-103.866l-1.516-103.867c-1.223-26.814-5.482-45.127-11.71-61.15-6.438-16.566-15.052-30.615-29.057-44.62s-28.055-22.62-44.62-29.056c-16.024-6.228-34.337-10.487-61.15-11.7C328.917.45 320.338.16 251.92.16zm0 45.39l101.797 1.47c24.562 1.12 37.9 5.224 46.778 8.674 11.76 4.57 20.15 10.03 28.966 18.845s14.275 17.207 18.845 28.966c3.45 8.877 7.554 22.216 8.674 46.778 1.212 26.564 1.47 34.532 1.47 101.798l-1.47 101.797c-1.12 24.562-5.224 37.9-8.674 46.778-4.57 11.76-10.03 20.15-18.845 28.966s-17.207 14.275-28.966 18.845c-8.877 3.45-22.216 7.554-46.778 8.674-26.56 1.212-34.527 1.47-101.797 1.47s-75.237-.257-101.798-1.47c-24.562-1.12-37.9-5.224-46.778-8.674-11.76-4.57-20.15-10.03-28.966-18.845s-14.275-17.207-18.845-28.966c-3.45-8.877-7.554-22.216-8.674-46.778-1.212-26.564-1.47-34.532-1.47-101.797l1.47-101.798c1.12-24.562 5.224-37.9 8.674-46.778 4.57-11.76 10.03-20.15 18.845-28.966s17.207-14.275 28.966-18.845c8.877-3.45 22.216-7.554 46.778-8.674 26.564-1.212 34.532-1.47 101.798-1.47z" mask="url(#B)"/><path d="M251.92 336.053c-46.378 0-83.974-37.596-83.974-83.973s37.596-83.974 83.974-83.974 83.973 37.596 83.973 83.974-37.596 83.973-83.973 83.973zm0-213.338c-71.447 0-129.365 57.918-129.365 129.365s57.918 129.364 129.365 129.364 129.364-57.918 129.364-129.364-57.918-129.365-129.364-129.365zm164.707-5.11c0 16.696-13.535 30.23-30.23 30.23s-30.23-13.534-30.23-30.23 13.535-30.23 30.23-30.23 30.23 13.535 30.23 30.23"/></g></g></svg>