<svg xmlns="http://www.w3.org/2000/svg" xmlns:xlink="http://www.w3.org/1999/xlink" width="199" height="66"><defs><path id="A" d="M12.693.294v14.492H.366V.294h12.327z"/><path id="B" d="M24.52 28.388H.292V.19H24.52z"/><path id="C" d="M.024.166h10.662v19.177H.024V.166z"/></defs><g fill="none" fill-rule="evenodd"><path d="M14.86 36.93a3.71 3.71 0 0 1-.523 1.132c-1.944 2.852-7.163 2.505-10.96-.714C.44 34.855-.364 31.852.14 29.988a3.53 3.53 0 0 1 .667-1.313c1.633-2.018 5.847-2.513 9.8.206 3.105 2.098 4.927 5.556 4.254 8.05m4.276 13.423l-.067-.224a13.9 13.9 0 0 1-.169-.596l-.17-.884c-.415-2.294-.2-4.757.648-7.127.493-1.277 1.026-2.3 1.64-3.15.68-1.042 1.555-1.904 2.238-2.536l.035-.03a14.31 14.31 0 0 1 .439-.35l.193-.153c.083-.062.14-.108.198-.154.152-.122.323-.26.54-.386l.77-.474a3.83 3.83 0 0 1 .266-.157l1.206-.592.8-.3a8.54 8.54 0 0 1 .5-.18l.73-.2c.34-.107.7-.167 1.037-.22l.404-.07.05-.008a17.92 17.92 0 0 1 1.397-.125l.1-.001c.144.004.286.004.427.005.305.002.62.003.947.038l.384.04a7.06 7.06 0 0 1 .944.132 13.04 13.04 0 0 1 4.407 1.631c.114.073.202.124.3.175.196.12.4.24.6.396.045.03.1.065.132.098l.216-.452a6.06 6.06 0 0 1 .162-.32l.643-1.06.05-.072.438-.582c.23-.333.526-.657.84-1l.355-.4.03-.027c.44-.414.987-.93 1.654-1.4a14.383 14.383 0 0 1 4.712-2.29 15.1 15.1 0 0 1 4.046-.566 13.87 13.87 0 0 1 2.257.185l.13.024c.536.095 1.1.193 1.58.352l.66.184.132.043.823.32c.7.26 1.412.618 2.217 1.1-2.48-6.993-14.137-12.986-20.806-5.646-5 5.515-8.654 4.686-15.647 6.053-7 1.373-8.642 7.394-9.363 12.227-.67 4.55.403 9.454 4.56 10.365l-.125-.302c-.177-.422-.36-.858-.482-1.344m59.668-18.67l-.953 3.837c-1.215 4.9-2.37 8.98-2.37 11.857 0 2.935 1.416 4.62 5.578 4.62 6.505 0 8.182-4.04 10.032-12.875L93 30.058h-4.076l-1.937 8.98c-2.052 9.504-3.122 10.114-5.58 10.114-1.445 0-1.994-.96-1.994-2.616 0-2.44 1.214-6.364 3.902-16.4-.606-.117-.896-.146-1.387-.146C76.32 30 71 33.603 71 37.7c0 1.947 1.185 2.674 3.093 2.674-.03-.262-.405-.465-.405-2.005 0-3.487 1.967-5.842 5.117-6.685M101.9 38c-1.462 0-2.62.96-3.684 1.86L98.6 38h-4.383L91 53h4.384l2.436-11.4c.76-.7 1.308-1.14 2.222-1.14s.06 1.98 1.765 1.98c1.493 0 2.193-1.14 2.193-2.2 0-1.14-.73-2.25-2.1-2.25m7.382 2.472c-.03-.265-.43-.5-.43-1.995 0-4.46 2.975-7.128 7.94-7.128 2.7 0 3.804 1.82 3.804 4 0 3.14-2.27 6.982-5.367 7.216l2.178-9.797-4.54.587L108.7 52h4.417l1.87-8.36h.153c5.52 0 8.862-4.136 8.862-7.862 0-3.02-2.207-5.778-7.236-5.778C111.642 30 106 33.725 106 37.627c0 2.1 1.166 2.845 3.282 2.845m21.678-2.388c.543 0 .714.482.714 1.235 0 2.5-1.945 4.82-4.15 4.97.572-2.982 1.976-6.205 3.435-6.205m11.77 9.585c.17.173.43.235.655.235.746 0 1.26-.753 1.26-1.476 0-.512-.286-.874-.66-1.055.945-1.928 1.747-3.735 2.32-5.692.286 4.638.543 5.572.543 7.138 0 2.1-1.23 2.8-2.5 2.8-1.14 0-1.642-.57-1.728-1.725.034-.072.066-.15.1-.225m-8.593.716c0 2.53 1.346 3.615 3.063 3.615 1.077 0 2.778-.326 4.262-2.18.562 1.208 1.787 2.18 3.813 2.18 2.346 0 5.725-1.295 5.725-5.2 0-2-.287-3.164-.63-10.965l-4.237.603c-.888 2.95-1.918 5.933-3.52 8.915-.773.392-1.518 1.416-1.518 2.8l.001.033c-.474.553-1.053.902-1.66.902-.803 0-1.174-.272-1.174-1.115a4.38 4.38 0 0 1 .114-.964l1.832-9.036h1.718l.23-1.205h-1.718l.972-4.76-4.236.602-.86 4.157h-.945l-.228 1.205h.944l-1.718 8.464c-1.432 1.716-2.806 3.042-5.067 3.042-1.375 0-2.06-.482-2.06-2.53 0-.362.028-.784.057-1.205 3.434-.2 6.584-2.892 6.584-6.356 0-1.506-.6-2.9-3.15-2.9-5.868 0-7.73 7.26-7.73 10.723 0 3.404 1.775 4.8 4.467 4.8 2.974 0 5.106-1.7 6.677-3.78-.002.054-.007.1-.007.164m27.078 3.705l4.688-21.032a15.79 15.79 0 0 0-1.218-.058C159.602 31 154 34.72 154 38.616c0 2.1 1.156 2.84 3.258 2.84-.03-.263-.427-.498-.427-1.992 0-3.134 1.614-5.33 4.262-6.385l-4.535 20.3c.243-.03.457-.03.7-.03 5.387 0 9.224 6.65 13.576 6.65 1.645 0 2.862-1.787 3.166-4.6a6.78 6.78 0 0 1-2.557.47c-3.865 0-7.063-3.105-10.228-3.78m8.823.91c1.532 0 4.344-.652 5.962-5.483h-1.193c-.425 1.48-1.447 2.608-2.555 2.608-.795 0-1.164-.267-1.164-1.097 0-.267.03-.564.114-.95L173.247 38h-4.1l-1.93 9.517c-.142.7-.227 1.362-.227 1.925 0 2.5 1.334 3.558 3.038 3.558m8.575 2.152c-.395 1.713-1.093 2.264-1.73 2.264-.668 0-1.213-.55-1.213-.957 0-1.568 1.426-2.38 3.338-3l-.395 1.683zm10.352-16.924h-2.216l.515-2.293c.426-1.945 1.458-2.38 2.126-2.38.607 0 1.153.32 1.153.986 0 .262-.03.494-.06.784h1.426c.06-.348.1-.724.1-1.2 0-1.887-1.73-3.135-3.582-3.135-2.003 0-4.614.785-5.525 4.935L179.22 52.5c-2.885.84-5.22 1.683-5.22 4.354 0 1.887 1.73 3.135 3.582 3.135 2.003 0 4.522-.784 5.432-4.935l3.5-15.676h2.247l.213-1.16z" fill="#fff"/><g transform="translate(186 37)"><mask id="D" fill="#fff"><use xlink:href="#A"/></mask><path fill="#fff" d="M9.383 1.786c.616 0 .81.45.81 1.153 0 2.364-2.206 4.53-4.735 4.643.68-2.673 2.302-5.796 3.924-5.796m-4.217 7.99c0-.253.033-.563.065-.844 3.893-.197 7.462-2.674 7.462-5.938 0-1.406-.682-2.7-3.57-2.7C2.475.294.367 7.074.367 10.31c0 3.18 2.01 4.474 5.027 4.474 2.595 0 4.93-.957 5.612-4.164-1.038.787-2.595 1.5-3.828 1.5-1.134 0-2-.562-2-2.335" mask="url(#D)"/></g><g fill="#fff"><path d="M64.7 43.662l.05-.256.087-.456.092-.95.023-.244.003-1.212-.08-.792-.037-.383-.234-1.18-.338-1.148a3.936 3.936 0 0 0-.105-.269l-.343-.843c-.92-1.94-2.262-3.622-3.898-4.885a14.065 14.065 0 0 0-5.424-2.497 4.326 4.326 0 0 0-.598-.116l-.784-.12-.422-.03-.986-.052c-1.032 0-1.9.074-2.662.227a14.723 14.723 0 0 0-4.405 1.581l-.177.097.155-.11a13.263 13.263 0 0 1 4.315-2.053 14.11 14.11 0 0 1 3.705-.508 12.85 12.85 0 0 1 2.045.163l.12.022 1.403.3.715.196.84.317c.886.323 1.794.808 2.95 1.573l.434.33.24.2.204.16.424.363.27.26.95 1c.7.765 1.287 1.67 1.958 2.963l.417.966.104.254.222.693.187.6.182.874.09.452.14 1.347.006 1.353-.028.315-.106 1.03-.123.62-.06.288c-.084.47-.204.835-.33 1.22l-.144.453-.058.185-.03.08-.032.073c.098.294.134.597.113.897l.084-.16.197-.455.048-.114.024-.058.013-.027c.012-.037-.012.04.03-.088l.065-.203c.167-.554.364-1.04.483-1.714l.2-.95.096-.928.042-.465v-.466l-.007-.932-.097-.927-.05-.462-.093-.455-.2-.91-.277-.883-.143-.44-.177-.426-.365-.846c-.565-1.085-1.194-2.138-2.006-3.036-.373-.474-.82-.876-1.247-1.293-.204-.215-.453-.384-.682-.572l-.7-.538c-.978-.65-1.98-1.235-3.045-1.622l-.81-.308-.068-.023-.048-.012-.093-.026-.187-.05-.373-.103c-.468-.148-1.048-.242-1.6-.337-2.142-.348-4.182-.128-5.956.355a13.818 13.818 0 0 0-4.462 2.121c-.6.415-1.106.874-1.565 1.296l-1.13 1.28-.443.575-.338.54-.288.464-.205.403-.363.743.487-.67.264-.36.354-.407.407-.47.503-.494c.338-.362.786-.69 1.24-1.07l1.6-1.04a14.128 14.128 0 0 1 4.264-1.53c.81-.162 1.676-.218 2.558-.218l1.343.077.68.104c.227.035.46.063.672.127 1.824.4 3.654 1.212 5.235 2.407a12.969 12.969 0 0 1 3.752 4.694l.3.71.142.358.33 1.11.15.756.077.38.036.385.08.77-.003.774v.386l-.1 1.156-.14.723a5.1 5.1 0 0 1-.193.81c.146.07.286.147.422.238.106-.342.204-.685.242-.99"/><path d="M66.23 45.843l.054-.19.13-.46.297-1.246.055-.293.112-.63.096-1.05.026-.322-.005-1.38-.128-1.372-.082-.46-.165-.892-.17-.6-.2-.707-.096-.258-.377-.985c-.606-1.317-1.148-2.24-1.774-3.02-.252-.363-.548-.682-.86-1.018l-.243-.267c-.1-.128-.243-.244-.384-.37a9.765 9.765 0 0 1-.185-.164 17.578 17.578 0 0 1-.216-.192 8.658 8.658 0 0 0-.394-.338c-1.047-.78-1.87-1.274-2.672-1.603l-.76-.323-.647-.2c-.364-.128-.826-.22-1.273-.306l-.107-.02A10.295 10.295 0 0 0 54.407 27c-1.105 0-2.234.174-3.357.517a11.506 11.506 0 0 0-3.91 2.094 6.249 6.249 0 0 0-.14.11l.16-.098a12.415 12.415 0 0 1 3.992-1.612c.7-.155 1.477-.23 2.41-.23l.893.052.383.03.71.123c.187.03.38.063.54.118 1.773.44 3.472 1.318 4.915 2.545 1.48 1.288 2.7 3 3.53 4.98l.3.858.096.275.307 1.17.212 1.204.033.4.073.808-.003 1.234-.02.25-.083.968-.08.466-.047.26a6.751 6.751 0 0 1-.22 1.01c.322.24.605.544.816.9a2.47 2.47 0 0 1 .242.578l.03-.075.026-.082zm-42.96 5.564c-.12-.173-.238-.38-.354-.577l-.1-.157-.228-.458-.022-.05-.2-.534-.393-1.14-.08-.3-.14-.515-.144-.8c-.348-2.023-.155-4.216.558-6.336.4-1.117.86-2.027 1.368-2.77.595-.956 1.345-1.732 1.932-2.303l.36-.3.193-.16.188-.155.353-.27.753-.497.185-.116 1.048-.54.666-.263.403-.153.636-.182c.28-.09.554-.14.845-.2l.418-.075c.375-.056.78-.082 1.175-.108l.43.005.763.03.376.04.737.107a10.666 10.666 0 0 1 3.87 1.532 3.341 3.341 0 0 1-.115-.055 11.737 11.737 0 0 0-3.79-.983 10.555 10.555 0 0 0-4.47.598l-.548.205a5.577 5.577 0 0 0-.379.174l-.588.28-.987.593-.197.145-.545.413c-.116.073-.233.185-.347.292l-.328.3-.29.27a12.13 12.13 0 0 0-2.79 4.634l-.12.423c-.1.307-.182.624-.23.968l-.043.226-.077.44-.08.815-.022.25-.006 1.035.1 1.087.066.36.117.665.118.455.067.24c.074.338.2.663.323.977l.11.284-.005.007.1.247.244.496.013.02.12.206.145.243.318-.34-.216-.367-.165-.336-.042-.084-.014-.03-.003-.007-.06-.158c-.154-.424-.344-.836-.442-1.28l-.177-.656-.117-.67-.06-.335-.027-.34-.06-.68.005-.68v-.34c.005-.113.023-.225.032-.338l.067-.676.12-.668c.06-.448.216-.872.328-1.306a11.646 11.646 0 0 1 2.67-4.441l.462-.425c.154-.135.303-.3.463-.403l.468-.353.236-.18.285-.17.565-.34.07-.043.035-.02.015-.01.11-.053.268-.128.534-.25.544-.203a10.157 10.157 0 0 1 4.29-.573c1.36.115 2.596.47 3.635.938l.745.37.675.4 1.12.82.462.387.71.694c.1.102.18.207.257.294l.47.543-.36-.628-.203-.337-.277-.4-.328-.453-.414-.473c-.282-.35-.655-.665-1.044-1.04a39.38 39.38 0 0 0-.655-.519c-.227-.184-.5-.327-.748-.5a11.091 11.091 0 0 0-3.873-1.507c-.376-.092-.77-.105-1.168-.157-.4-.044-.8-.025-1.228-.038l-1.27.117c-.424.087-.867.133-1.295.273l-.652.187c-.217.07-.427.165-.643.247l-.324.13-.163.066-.188.096-.88.453-.314.2-.635.422c-.223.136-.395.305-.593.46l-.578.483c-.724.704-1.43 1.473-2 2.374-.6.873-1.052 1.862-1.427 2.887-.694 2.066-.955 4.365-.575 6.577l.15.826.22.807c.13.545.36 1.052.556 1.568l.076.193c.013.027-.015-.03.03.068l.032.064.042.083.168.335.458.756.227.328.294-.363-.16-.23"/><path d="M23.806 50.418l-.013-.02-.252-.5-.103-.246.004-.008a13.162 13.162 0 0 0-.113-.281c-.126-.31-.256-.633-.334-.967a22.14 22.14 0 0 0-.068-.24 8.196 8.196 0 0 1-.123-.45l-.12-.66-.067-.356-.095-1.077.008-1.026c.002-.082.012-.165.02-.247l.085-.81.078-.435.044-.225c.05-.34.144-.654.237-.96l.123-.42A11.931 11.931 0 0 1 26 36.912l.3-.268.34-.3c.118-.105.24-.216.358-.3l.564-.408.203-.143 1.02-.6.608-.276.4-.173.565-.202a11.27 11.27 0 0 1 4.619-.594c1.342.1 2.7.444 3.916.975l.117.055-.124-.078a11.276 11.276 0 0 0-3.872-1.44 5.815 5.815 0 0 0-.763-.107 9.97 9.97 0 0 1-.388-.04 7.957 7.957 0 0 0-.788-.03c-.15 0-.296 0-.444-.003l-1.214.105-.432.076-.872.187-.658.18-.416.152-.687.26-1.084.536-.2.115-.778.493a3.095 3.095 0 0 0-.365.267 6.53 6.53 0 0 1-.194.154l-.2.158-.37.298c-.608.567-1.382 1.335-1.996 2.285-.526.734-1 1.636-1.414 2.744-.736 2.1-.935 4.275-.577 6.28l.15.794.144.5.083.287c.095.38.247.745.407 1.13l.216.53.023.05.233.453.096.155.364.573.165.228 1.027-1.136a7.835 7.835 0 0 1-.15-.24l-.125-.206m26.2-13.092l-.463.417-.404.394c-.114.09-.25.148-.38.204l-.608.23a.294.294 0 0 0-.108.091c-.072.094-.052.178.052.223a2.52 2.52 0 0 0 .287.103c.114.035.2-.02.304-.08l.553-.347a2.33 2.33 0 0 1 .508-.177c.23-.055.466-.087.7-.13l.737-.132a2.544 2.544 0 0 0 1.683-1.04c.128-.176.297-.293.463-.417l.373-.29c.083-.06.173-.112.26-.17.014-.01.025-.025.038-.036l-.008-.026-.234-.034a.243.243 0 0 1-.128-.064c-.19-.215-.434-.243-.69-.216-.133.014-.264.05-.397.076-.1.018-.158-.03-.203-.1a1.475 1.475 0 0 1-.137-.279c-.057-.148-.083-.312-.157-.448a3.006 3.006 0 0 0-.344-.5 17.95 17.95 0 0 0-.682-.758c-.246-.262-.482-.538-.792-.717a1.032 1.032 0 0 0-.243-.1c-.085-.023-.12.02-.102.112.02.12.02.124-.097.127-.02.001-.038.006-.057.005-.153-.003-.157.007-.15.168.003.042-.025.1-.05.126s-.06.052-.095.07c-.07.04-.1.097-.073.175a.7.7 0 0 1 .007.364 1.11 1.11 0 0 0 .068.635l.273.606c.123.27.2.553.247.853l.1.72a.344.344 0 0 0 .027.102c.07.15.052.14-.077.257"/></g><g transform="translate(18 37)"><mask id="E" fill="#fff"><use xlink:href="#B"/></mask><path fill="#fff" d="M14.116 28l-.705.117-2.252.132-.652.013c-.154.01-.307.05-.46.056l-.68.002c-.014-.132-.063-.198-.214-.176-.07.01-.166-.066-.23-.126-.08-.073-.143-.16-.295-.1l.246.395H8.14l-.02-.042c.05-.043.105-.08.15-.128.033-.035.052-.082.077-.122-.053-.008-.12-.04-.153-.02-.103.063-.214.13-.28.226-.07.102-.154.122-.256.118a46.07 46.07 0 0 1-.92-.037l-2.235-.12a15.05 15.05 0 0 1-.881-.07c-.216-.027-.43-.076-.64-.12-.044-.01-.083-.047-.148-.084.23-.225.53-.16.803-.254-.245-.154-.512-.294-.48-.593.027-.244.156-.478.247-.738l-.476-.123c-.785-.197-1.494-.526-1.984-1.2a3.03 3.03 0 0 1-.56-1.473 7.21 7.21 0 0 1-.051-1.124c.04-.78.266-1.517.577-2.23.01-.024.034-.043.075-.092L1 20.25l.007 1.248c.06.88.23 1.74.762 2.468.17.23.4.443.705.504.26.05.527.074.792.108.106.013.153-.03.14-.145-.02-.194-.053-.393-.04-.586l.13-1.5c.13-.942.5-1.806.932-2.643.38-.737.834-1.425 1.33-2.085 1.04-1.386 2.238-2.624 3.502-3.8l2.532-2.28 1.2-1.14c.312-.297.454-.687.574-1.083l.48-1.696.372-1.794.37-1.5c.108-.36.246-.725.638-.896.026-.01.052-.06.052-.092 0-.653.29-1.208.635-1.724.3-.45.656-.86.988-1.286.02-.025.05-.04.11-.086l.095.686.233 1.444c.023.157.1.18.24.172.84-.046 1.587.24 2.28.682.154.1.28.3.338.48.184.58.585.9 1.14 1.068l1.535.556 1.016.323c.36.112.517.585.3.896-.074.112-.107.256-.145.388-.15.527-.47.87-.993 1.06-.786.287-1.6.33-2.42.356l-.9.07c-.244.033-.3.114-.268.353l.228 1.494c.155.96.328 1.915.327 2.89 0 .453-.087.9-.193 1.328l-.343 1.558-.46 2.133-.403 2.557c-.058.374.08.72.155 1.075.17.8.275 1.588.348 2.394.064.713.103 1.433.3 2.13.068.254.192.427.47.475l.878.195c.404.072.485.367.462.694-.012.164-.16.2-.3.193l-.923.003c-.514 0-1.03-.01-1.544.006-.24.007-.386-.1-.468-.3l-.4-1.05a22.358 22.358 0 0 1-.382-1.53l-.346-1.747-.275-1.486-.125-.83c-.01-.053-.027-.105-.046-.175l-1.072.912c-.68.56-1.368 1.112-2.145 1.533-.158.085-.33.153-.5.206-1.08-2.42-3.036-2.943-3.036-2.943l.787.667c.515.47.947 1.008 1.238 1.65.22.49.35 1.006.315 1.55-.055.805-.554 1.372-1.336 1.588l-.83.195.85.05c.4.03.808.02 1.195.112.507.118.886.448 1.1.934.02.045.03.097.037.146.01.075-.01.197.027.22.102.06.227.084.345.1l.506.095c.038.01.065.063.097.097-.036.033-.068.086-.108.094m.104-.15c-.024-.03-.05-.063-.086-.07a3.4 3.4 0 0 0-.267-.052l-.264-.05c-.108-.024-.22-.048-.3-.1-.01-.01-.01-.07-.01-.102a.651.651 0 0 0-.043-.251c-.232-.505-.624-.834-1.132-.952-.28-.065-.576-.08-.86-.093a8.63 8.63 0 0 1-.339-.019 25.15 25.15 0 0 0-.587-.036l-.034-.002.048-.01.56-.136c.8-.223 1.306-.813 1.36-1.616.034-.506-.07-1.018-.32-1.566-.27-.6-.678-1.143-1.244-1.66a14.77 14.77 0 0 0-.54-.461l-.116-.097c.488.186 1.973.896 2.855 2.87l.01.026.027-.008c.185-.056.355-.126.507-.21.78-.423 1.462-.968 2.15-1.536l1.035-.88.005.016.026.105.045.3.08.52.276 1.487.07.36a47 47 0 0 0 .276 1.388l.38 1.532c.095.33.228.65.355.963l.038.09c.088.215.242.32.497.32h.001l.644-.01 1.31.004.514-.004c.083-.002.306-.006.32-.222.03-.427-.13-.664-.487-.728a6.43 6.43 0 0 1-.432-.095l-.446-.098c-.237-.043-.37-.177-.443-.453-.16-.59-.212-1.204-.263-1.798l-.028-.327a19.723 19.723 0 0 0-.348-2.399l-.062-.252c-.066-.26-.136-.53-.093-.8l.11-.716.295-1.84.3-1.47a64.223 64.223 0 0 0 .255-1.158l.236-1.063c.1-.413.195-.86.195-1.335.001-.888-.144-1.772-.284-2.628l-.044-.267-.227-1.495c-.016-.118-.01-.186.025-.23s.1-.07.214-.086a8.59 8.59 0 0 1 .899-.07c.835-.025 1.65-.073 2.43-.358a1.53 1.53 0 0 0 1.01-1.081l.016-.054a1.19 1.19 0 0 1 .127-.327.628.628 0 0 0 .058-.557.604.604 0 0 0-.386-.387l-.25-.077a20.705 20.705 0 0 1-.765-.245l-.625-.23a19.097 19.097 0 0 0-.91-.325c-.6-.194-.954-.527-1.12-1.05-.065-.207-.204-.402-.35-.496-.727-.466-1.42-.692-2.12-.692l-.22.006c-.098 0-.148-.02-.166-.146L17.336.932l-.064-.458L17.235.2l-.1.074c-.027.02-.046.034-.06.052l-.295.372-.694.915c-.316.473-.64 1.05-.64 1.743 0 .02-.02.058-.034.064-.406.176-.546.55-.656.915l-.37 1.502-.155.763-.217 1.03a30.441 30.441 0 0 1-.478 1.694c-.115.38-.254.773-.565 1.07l-.41.4-.8.75-1.034.926-1.5 1.354c-1.474 1.374-2.59 2.583-3.505 3.805-.55.733-.987 1.416-1.334 2.1-.382.742-.793 1.64-.935 2.654-.07.493-.1 1-.13 1.49-.01.156.01.314.027.467l.015.126c.005.045 0 .076-.017.092-.008.012-.024.017-.07.017h-.02l-.22-.026a7.577 7.577 0 0 1-.569-.081c-.253-.05-.484-.216-.686-.493-.577-.8-.707-1.724-.756-2.45-.02-.278-.014-.564-.01-.84l.002-.406a.932.932 0 0 0-.007-.103l-.015-.14-.048.06-.04.043a.214.214 0 0 0-.042.056c-.353.81-.543 1.543-.58 2.242-.02.378.015.765.053 1.13a3.08 3.08 0 0 0 .564 1.49c.43.597 1.067.984 2.004 1.22l.44.115a4.393 4.393 0 0 1-.079.202c-.07.174-.137.337-.157.5-.032.294.203.443.434.585a1.779 1.779 0 0 1-.22.038c-.182.024-.37.05-.528.204l-.03.03.037.02.057.037c.034.023.064.043.1.05l.092.02.55.1.884.07 2.236.12.92.04h.02a.29.29 0 0 0 .262-.132c.064-.1.174-.158.283-.22.018 0 .04.007.065.013l.01.003v.002c-.015.03-.03.056-.05.076-.03.032-.066.06-.1.088l-.047.038.002.058.02.04h.8l-.255-.408a.173.173 0 0 1 .046-.006c.062 0 .103.04.15.085l.03.027c.1.1.174.133.253.133h.002a.514.514 0 0 1 .048-.003c.085 0 .118.04.13.152l.004.03.44.002.27-.005c.08-.004.16-.016.24-.03l.22-.026.33-.007.323-.006.143-.008 2.11-.124c.198-.014.397-.054.588-.093l.122-.025c.037-.007.065-.04.09-.068a.457.457 0 0 1 .031-.033l.025-.022-.023-.024-.027-.033" mask="url(#E)"/></g><g fill="#fff"><path d="M32.28 64.466l-.523-.096c-.123-.026-.252-.05-.357-.1-.04-.022-.017-.144-.028-.22a.484.484 0 0 0-.038-.144c-.232-.485-.624-.813-1.15-.93-.4-.1-.822-.082-1.236-.112l-.878-.05.86-.196c.8-.215 1.327-.78 1.382-1.582.04-.54-.095-1.054-.326-1.544-.3-.64-.746-1.175-1.28-1.643l-.814-.665s2.025.523 3.14 2.933a2.86 2.86 0 0 0 .52-.206c.804-.42 1.516-.968 2.22-1.527l1.1-.908.046.172.13.828.285 1.48.357 1.74.394 1.524c.108.357.26.702.405 1.047.086.2.235.306.485.298l1.597-.005.954-.004c.136-.003.288-.03.3-.192.024-.325-.058-.62-.477-.692l-.91-.193c-.286-.05-.413-.22-.484-.473-.196-.695-.234-1.412-.302-2.124a19.174 19.174 0 0 0-.36-2.385c-.078-.353-.218-.697-.16-1.07l.418-2.548.476-2.126.354-1.552c.1-.436.2-.87.2-1.322 0-.973-.178-1.925-.34-2.88a62.458 62.458 0 0 1-.236-1.489c-.034-.237.025-.318.277-.35.31-.04.62-.06.932-.07.85-.026 1.7-.07 2.503-.355.54-.2.872-.533 1.027-1.057.04-.133.074-.275.15-.387.214-.3.05-.78-.322-.893l-1.05-.322-1.588-.553c-.573-.177-.988-.486-1.18-1.065-.058-.18-.2-.378-.35-.477-.715-.44-1.5-.726-2.358-.68-.142.008-.224-.013-.248-.17l-.24-1.438-.1-.685c-.062.047-.095.062-.115.087l-1.02 1.28c-.36.515-.656 1.066-.657 1.717 0 .032-.026.082-.054.093-.406.17-.55.533-.66.893-.152.5-.266.993-.382 1.494l-.385 1.786-.495 1.7c-.125.394-.27.783-.594 1.078l-1.242 1.137-2.62 2.27c-1.306 1.172-2.547 2.406-3.622 3.786a14.573 14.573 0 0 0-1.375 2.078c-.448.834-.83 1.695-.967 2.634-.072.5-.103.988-.134 1.482-.012.195.023.39.043.586.013.115-.036.157-.146.144l-.82-.108c-.314-.06-.554-.272-.73-.502-.55-.726-.728-1.58-.79-2.46-.028-.413-.005-.83-.007-1.243 0-.045-.008-.1-.015-.163-.043.05-.07.068-.08.092-.32.7-.554 1.446-.597 2.222-.02.37.014.75.055 1.12.058.536.25 1.03.578 1.468.507.68 1.24 1.008 2.053 1.205l.492.123c-.094.26-.227.5-.255.735-.034.298.242.437.495.6-.284.093-.59.03-.83.253.066.038.106.074.152.084l.664.118.91.07 2.313.12.95.038c.105.003.192-.018.265-.118s.185-.163.3-.226c.036-.02.106.012.16.02-.026.04-.046.087-.08.12-.046.048-.103.087-.155.13a.453.453 0 0 0 .022.04h.76l-.257-.393c.158-.06.223.027.306.1.067.058.165.135.238.125.157-.02.206.044.222.176l.703-.002c.16-.008.318-.047.477-.056l.675-.013 2.33-.13c.244-.017.487-.07.728-.117.043-.008.075-.062.113-.093-.034-.034-.062-.087-.1-.096m33.398.086c-.186.05-.376.102-.568.12l-1.832.16-1.352.092-1.785.036c-.783.005-1.567.015-2.35-.007a56.587 56.587 0 0 1-2.679-.133c-.488-.038-.972-.135-1.455-.22-.17-.03-.36-.064-.436-.308l1.054-.072.001-.027c-.47 0-.94.004-1.413-.002a3.19 3.19 0 0 1-.515-.045c-.323-.057-.45-.287-.305-.58a1.54 1.54 0 0 1 1.26-.88l1.45-.112-.2-.05c-.675-.138-1.264-.41-1.513-1.107-.164-.454-.122-.93.01-1.394.192-.684.562-1.246 1.03-1.74.454-.403 1.082-.764 1.96-1.006 0 0-2.486-.015-3.203 2.534 0 0-.077-.78-.6-1.056a4.64 4.64 0 0 0 .317.824l.1.503.007.055a2.035 2.035 0 0 1 .001.335c-.04.36-.2.694-.366 1.016-.308.594-.445 1.227-.536 1.88-.1.78-.104.655-.744.66-.5.002-1.02 0-1.53-.004-.36-.003-.46-.162-.293-.473.135-.25.278-.5.607-.554.26-.05.374-.288.442-.5l.42-1.563c.15-.816.267-1.645.146-2.475a10.345 10.345 0 0 0-.364-1.644c-.384-1.202-.712-2.4-.742-3.68-.024-.996.172-1.91.632-2.783.163-.31.295-.638.19-1.006-.085-.297-.2-.404-.507-.43l-1.484-.077c-.533-.02-.756-.427-1.003-.8-.16-.24-.2-.545-.466-.733-.05-.037-.036-.243.017-.324l.757-1.036a.656.656 0 0 0 .124-.305l.087-1.263c.042-.52.34-.9.76-1.153.343-.214.716-.383 1.085-.55.22-.1.288-.162.24-.404a11.21 11.21 0 0 0-.196-.809c-.083-.3.05-.46.36-.407.553.093 1.038.33 1.32.824.17.3.396.46.706.513.727.13 1.204.594 1.54 1.193.383.68.722 1.4 1.045 2.103l1.122 2.6c.38.81 1.04 1.382 1.773 1.878l1.838 1.32c.592.5.996 1.166 1.34 1.86.012.023.023.046.07.056l-.19-.648-.28-1.164c-.216-1.05-.363-2.104-.265-3.186.066-.72.2-1.413.54-2.054.4-.753 1.012-1.237 1.83-1.51 1.07-.36 2.232.222 2.767 1.04a1.677 1.677 0 0 1-.405 2.274c-.24.176-.514.217-.79.22-.685.004-1.054.6-1.122 1.092-.063.456-.02.895.124 1.326a272.82 272.82 0 0 0 1.052 3.097c.335.965.642 1.938.81 2.946.16.974.197 1.953-.035 2.92-.415 1.75-1.4 3.073-3.03 3.876l-.312.144-.3.134c1.45.06 2.876.042 4.27.383.064.016.12.064.23.124-.115.064-.18.12-.254.14m.172-.227c-.053-.03-.093-.057-.14-.068-1.143-.28-2.282-.317-3.487-.356l-.642-.023.175-.076.312-.144c1.594-.78 2.62-2.092 3.05-3.897.207-.87.218-1.828.035-2.933-.173-1.04-.49-2.034-.8-2.952L63.3 50.78a2.848 2.848 0 0 1-.123-1.311c.07-.5.44-1.06 1.1-1.065.236-.002.543-.03.812-.225a1.71 1.71 0 0 0 .412-2.32c-.456-.696-1.3-1.162-2.125-1.162a2.14 2.14 0 0 0-.68.11c-.85.283-1.455.783-1.85 1.527-.297.56-.465 1.197-.545 2.066-.105 1.16.076 2.268.267 3.197l.278 1.165.14.474c-.305-.602-.7-1.27-1.302-1.777-.48-.406-1.015-.765-1.53-1.112l-.3-.21c-.603-.4-1.35-.993-1.76-1.865l-.617-1.425a39.338 39.338 0 0 0-.505-1.185 26.776 26.776 0 0 0-1.046-2.106c-.39-.694-.903-1.1-1.565-1.208-.303-.055-.52-.212-.683-.498-.256-.45-.707-.733-1.34-.84a.627.627 0 0 0-.115-.01c-.112 0-.2.036-.252.104-.062.08-.072.204-.03.355l.195.807c.043.22-.007.268-.22.366l-1.088.553c-.476.296-.738.692-.778 1.178l-.085 1.264a.63.63 0 0 1-.119.288l-.315.427-.442.61c-.058.086-.083.315-.01.37.16.118.236.28.316.454.04.1.085.185.142.27l.057.086c.227.35.464.7.973.73l.344.018.472.022.666.037c.292.025.394.113.478.406.1.358-.03.683-.188.982-.453.86-.662 1.775-.637 2.8.03 1.22.318 2.355.744 3.688a10.12 10.12 0 0 1 .363 1.638c.126.862-.01 1.725-.146 2.465-.1.49-.24.98-.387 1.454l-.032.105c-.062.202-.165.44-.417.488-.333.064-.482.296-.63.57-.088.163-.105.292-.052.382s.18.14.375.14l1.072.004.484-.001.204.003.125.003c.325 0 .34-.105.422-.692.08-.57.207-1.238.533-1.87.165-.318.33-.66.37-1.028a2.02 2.02 0 0 0-.002-.34l-.006-.06a6.156 6.156 0 0 0-.1-.505 4.942 4.942 0 0 0-.27-.727c.416.305.486.963.487.97l.065.007c.558-1.984 2.186-2.4 2.867-2.488-.67.22-1.233.53-1.682.926-.52.552-.86 1.127-1.04 1.756-.152.54-.155 1.004-.007 1.414.28.78.968 1.012 1.54 1.128a.159.159 0 0 0 .02.004l-.57.04-.698.053a1.57 1.57 0 0 0-1.286.898c-.075.15-.084.3-.026.403s.18.194.354.225c.158.03.328.044.52.045l.607.003h.203l-.496.035.013.04c.082.263.29.3.462.33l.23.042 1.23.18 2.68.134 1.08.013.913-.004.358-.003 1.786-.035 1.18-.08.174-.013 1.832-.158c.184-.02.366-.068.574-.123a.62.62 0 0 0 .159-.08l.102-.062.052-.03-.052-.03a.96.96 0 0 1-.098-.06"/><path d="M61.03 60.75l.115-.87c.17-1.1.202-2.25.098-3.517l-.113-.936-.023-.162.054.185.298 1.03.12.4.22.76c.202.837.236 1.595.104 2.318-.107.592-.43 1.02-.77 1.02-.06 0-.096-.004-.107-.027s-.007-.088.005-.2m.102.25c.348 0 .68-.444.788-1.042.146-.805.077-1.585-.105-2.342l-.34-1.152L61.052 55l.172 1.368c.097 1.175.082 2.346-.097 3.502l-.115.874c-.027.237-.016.256.12.256"/><path d="M61.64 60.97l.2-.9c.315-1.2.342-2.395.172-3.604-.067-.47-.2-.93-.303-1.408l.745 1.507.595 1.186c.32.778.442 1.58.185 2.4-.19.616-.77 1.074-1.383 1.073-.24 0-.26-.02-.21-.264m-.164 2.966l.3-.134.314-.145c1.65-.805 2.63-2.13 3.05-3.886.232-.97.196-1.95.034-2.927-.168-1.012-.476-1.987-.813-2.955a312.77 312.77 0 0 1-1.059-3.106 2.895 2.895 0 0 1-.124-1.33c.07-.503.44-1.1 1.128-1.095.28-.002.555-.043.796-.22a1.68 1.68 0 0 0 .407-2.28c-.538-.82-1.706-1.403-2.782-1.044-.82.275-1.438.76-1.84 1.516-.342.643-.477 1.337-.543 2.06-.1 1.085.05 2.142.266 3.196l.28 1.166.192.65c-.045-.01-.056-.033-.068-.055-.347-.696-.752-1.365-1.348-1.867-.578-.486-1.22-.896-1.848-1.322-.736-.5-1.398-1.072-1.783-1.884l-1.127-2.617a27.352 27.352 0 0 0-1.05-2.11c-.34-.6-.82-1.064-1.55-1.195a.96.96 0 0 1-.71-.514c-.282-.495-.77-.734-1.325-.827-.3-.052-.444.11-.362.408l.198.812c.047.243-.02.303-.24.403a9.428 9.428 0 0 0-1.09.553c-.424.263-.723.637-.767 1.156l-.087 1.267a.663.663 0 0 1-.124.305l-.762 1.04c-.053.08-.067.287-.017.324.257.2.31.495.468.735.25.374.473.783 1.01.803l1.492.077c.318.027.425.132.5.432.105.368-.028.698-.192 1.008-.463.876-.66 1.79-.636 2.8.03 1.282.36 2.484.747 3.7.17.534.284 1.092.366 1.65.122.83.004 1.66-.147 2.48-.098.53-.264 1.05-.422 1.567-.07.224-.182.462-.446.512-.33.064-.474.303-.6.555-.168.313-.065.472.295.474l1.54.004c.644-.004.637.122.746-.66.093-.655.23-1.3.54-1.885.168-.324.328-.66.368-1.02.01-.1.01-.2.001-.304l-.002-.03-.007-.057a6.144 6.144 0 0 0-.1-.503c-.128-.463-.32-.828-.32-.828.527.28.605 1.06.605 1.06.72-2.556 3.22-2.54 3.22-2.54-.884.242-1.515.605-1.972 1.008-.47.496-.843 1.062-1.036 1.747-.13.464-.174.94-.01 1.398.25.697.843.972 1.522 1.11.07.013.135.034.202.05l-1.458.113c-.57.065-1 .363-1.267.882-.146.295-.02.524.306.583.17.03.345.042.517.044l1.42.002v.027l-1.06.073c.077.245.268.278.437.308l1.463.22 2.694.136 2.363.006a54.326 54.326 0 0 0 1.794-.036l1.36-.092 1.842-.16c.193-.018.384-.07.57-.12.075-.02.14-.075.255-.14-.1-.06-.166-.11-.23-.125-1.402-.342-2.836-.322-4.293-.384"/><path d="M38.06 60.783a.953.953 0 0 0 .276.327 2 2 0 0 0 .557.3c.243.1.516.158.8.204a5.85 5.85 0 0 0 1.614.048s1.928.616 4.445.185c0 0-1.56-.527-1.553-1.88 0 0 .285 1.248 1.73 1.618s3.25.293 3.125-.124-.77-.462-1-1.3c0 0-.197-1.34 1.642-1.325s1.178-.878 1.23-1.5-.375-1.357-1.5-1.572c0 0-.322-2.235-3.123-2.744 0 0-.34 1.208 1.5 2.128 0 0-.9-.18-1.485-.894-.462-.16-1.327-.333-2.103.23 0 0 .34 1.095 2.516 2.004 0 0-3.034-1.34-5.247-.23S39.2 59.17 39.2 59.17s-.712.398-1.04.9c-.15.232-.22.485-.103.732m40.948-4.295c.547-.3.84-.782.84-1.244 0-.642-.555-1.244-1.793-1.244-1.6 0-3.055.993-3.055 2.074 0 .523.345.72.9.72-.008-.07-.117-.133-.117-.532 0-1.3 1.12-1.9 2.104-1.9.8 0 1.1.4 1.1.845 0 .585-.538 1.267-1.212 1.267h-.05l.396-1.737-1.246.156-1.145 4.975h1.212l.7-2.995.388-.024c.614 0 .798.446.798.993 0 .594-.217 1.4-.832 1.4-.195 0-.354-.08-.564-.283-.076.18-.1.33-.1.454 0 .478.472.58.834.58C79.563 60 80 58.5 80 57.747c0-.586-.277-1.126-.993-1.26m17.32 2.778c-.365 0-.506-.214-.506-.65.043.092.14.12.225.12.215 0 .363-.233.363-.457a.352.352 0 0 0-.19-.324c.273-.597.504-1.156.67-1.76l.157 2.207c0 .652-.355.866-.72.866zm-7.318-.988c-.1.54-.448.82-.687.82-.15 0-.414-.008-.414-.726 0-.875.456-2.552 1.158-2.552.266 0 .34.242.34.354l-.397 2.104zM82.3 55.7c.157 0 .206.148.206.38 0 .773-.562 1.5-1.2 1.536.167-.92.572-1.917.994-1.917zm18.856 0c.156 0 .206.148.206.38 0 .782-.563 1.5-1.208 1.536.174-.883.587-1.917 1.002-1.917zm.843.4c0-.466-.174-.895-.9-.895-1.578 0-2.152 1.94-2.225 3.073h-.058a4.67 4.67 0 0 1-.595.467c.025-.112.033-.224.033-.355 0-.615-.082-.977-.18-3.4l-1.226.186c-.255.914-.553 1.835-1.018 2.757a.807.807 0 0 0-.308.334h-.028c-.125.467-.348.82-.67.82-.233 0-.34-.084-.34-.345a1.43 1.43 0 0 1 .033-.297l.596-3.167h-1.2l-.563 3c-.125.466-.34.82-.662.82-.182 0-.25-.167-.25-.382a1.52 1.52 0 0 1 .025-.26l.597-3.167h-1.2l-.563 3h-.164c-.124.466-.347.875-.67.875-.23 0-.34-.14-.34-.4 0-.084.008-.177.034-.298l.596-3.167H89.57l-.1.495v-.066c0-.27-.198-.475-.67-.475-1.358 0-2.044 1.778-2.12 3.035h-.063c-.415.53-.812.94-1.465.94-.398 0-.596-.15-.596-.783 0-1.033.537-2.736 1.06-2.736.157 0 .23.148.23.38a1.84 1.84 0 0 1-.098.55.49.49 0 0 0 .289.111c.24 0 .44-.223.44-.68 0-.428-.184-.857-.92-.857-1.562 0-2.143 1.934-2.217 3.073h-.065c-.414.53-.8.94-1.464.94-.398 0-.597-.15-.597-.783l.018-.372c.992-.065 1.903-.894 1.903-1.963 0-.467-.175-.896-.9-.896-1.695 0-2.234 2.246-2.234 3.316 0 1.05.514 1.48 1.3 1.48.944 0 1.595-.638 2.058-1.36.04.96.538 1.36 1.283 1.36.944 0 1.596-.64 2.06-1.36.045.996.554 1.36 1.1 1.36.588 0 .978-.43 1.233-.855.05.557.35.855.8.855.376 0 .958-.154 1.415-1.096.007.767.392 1.096.884 1.096.347 0 .8-.12 1.225-.883.05.576.347.883.818.883.336 0 .84-.116 1.27-.82.13.438.5.82 1.152.82.422 0 .95-.15 1.298-.56.296-.193.635-.454.973-.82.035.975.534 1.38 1.277 1.38.66 0 1.257-.316 1.43-1.378-.266.26-.662.495-.977.495-.3 0-.513-.187-.513-.774 0-.084.01-.186.018-.28.993-.08 1.905-.9 1.905-1.98zm4-2.1c-1.422 0-3 1.016-3 2.08 0 .576.324.776.912.776-.01-.07-.12-.136-.12-.544 0-1.216.826-1.944 2.206-1.944.75 0 1.056.496 1.056 1.088 0 .856-.63 1.904-1.5 1.968l.604-2.672-1.26.16L103.75 60h1.226l.52-2.28h.043c1.533 0 2.46-1.128 2.46-2.143 0-.825-.613-1.577-2-1.577m9.958 3.405c-.4 0-.54-.173-.54-.526.046.074.15.097.24.097.23 0 .388-.188.388-.37 0-.127-.088-.217-.202-.262.292-.482.54-.934.716-1.424l.168 1.785c0 .527-.38.7-.77.7zm-4.5-2.884c.168 0 .222.12.222.3 0 .625-.602 1.205-1.283 1.242.178-.745.6-1.55 1.06-1.55zm5.04-.414c-.275.74-.593 1.483-1.1 2.23a.776.776 0 0 0-.33.27h-.03c-.133.377-.452.663-.796.663-.25 0-.363-.068-.363-.28a.93.93 0 0 1 .036-.24l.565-2.26h.53l.07-.3h-.53l.3-1.2-1.3.15-.266 1.04h-.3l-.072.3h.293l-.53 2.117h-.176c-.443.43-.867.76-1.565.76-.426 0-.638-.12-.638-.632 0-.1.01-.196.018-.3 1.06-.053 2.034-.723 2.034-1.588 0-.378-.186-.724-.973-.724-1.812 0-2.387 1.816-2.387 2.68 0 .85.55 1.198 1.38 1.198 1.052 0 1.763-.56 2.263-1.176a1.616 1.616 0 0 0-.027.272c0 .633.416.904.946.904a1.82 1.82 0 0 0 1.435-.676c.133.36.52.676 1.235.676.725 0 1.768-.324 1.768-1.303 0-.497-.088-.8-.194-2.74l-1.3.15zm5.612 1.068a5.738 5.738 0 0 0-1.07-.324c.5-1.036 1.053-1.898 1.58-2.194l-.5 2.518zM123.306 52c-1.028 0-2.17 1.25-3.057 2.73a4.977 4.977 0 0 0-.458-.027c-1.037 0-1.8.5-1.8 1.14 0 .36.246.536.544.536.273 0 .492-.138.492-.36 0-.13-.07-.287-.114-.287.114-.315.483-.444 1.03-.482-.766 1.417-1.293 2.936-1.293 3.77 0 .962.704.982 1.178.982-.053-.084-.123-.224-.123-.52 0-.963.483-2.722 1.142-4.23a3.28 3.28 0 0 1 1.177.333l-.676 3.36h1.265L124 52.13a1.849 1.849 0 0 0-.694-.13zm5.048 3c-.45 0-.805.257-1.133.496l.12-.496h-1.348L125 59h1.35l.748-3.04c.235-.184.403-.304.684-.304s.02.528.544.528c.46 0 .674-.304.674-.583 0-.305-.225-.6-.646-.6"/><path d="M130.926 55.41c.2 0 .264.124.264.32 0 .65-.717 1.25-1.538 1.28.22-.737.747-1.6 1.274-1.6m1.074.334c0-.388-.223-.745-1.158-.745-2.158 0-2.842 1.872-2.842 2.765 0 .878.652 1.235 1.63 1.235.843 0 1.602-.264 1.822-1.15-.336.22-.84.413-1.242.413-.368 0-.652-.156-.652-.646a1.93 1.93 0 0 1 .02-.232c1.264-.055 2.422-.74 2.422-1.64m3.68.655l.352-1.593c.385.08.786.152 1.172.152.654-.136.678-.623.796-.96-.235.07-.495.095-.755.095-.527 0-1.054-.095-1.4-.095-2.068 0-2.855 1.015-2.855 2.08 0 .576.318.775.896.775-.008-.072-.117-.135-.117-.543 0-1.28.443-1.632 1.088-1.656L133.66 60h1.206l.68-3.01h1.222l.134-.592h-1.223zM150 54.503c0 .277.22.497.497.497a.5.5 0 1 0-.497-.497"/><path d="M154.733 59.593c-.1.497-.33.66-.5.66-.184 0-.337-.162-.337-.28 0-.454.405-.698.938-.875l-.1.496zm-15.357-2.206c-.1.49-.456.74-.702.74-.152 0-.422-.007-.422-.656 0-.792.465-2.308 1.184-2.308.27 0 .347.218.347.32l-.407 1.903zm15.822 0c-.126.422-.347.74-.676.74-.195 0-.255-.176-.255-.37 0-.067.01-.143.026-.2l.61-2.865h-1.218l-.575 2.704h-.17c-.126.422-.43.74-.76.74-.238 0-.347-.076-.347-.312a1.12 1.12 0 0 1 .033-.269L152.84 53l-1.252.168-.905 4.22h-.17c-.126.422-.432.74-.76.74-.238 0-.347-.076-.347-.312a1.12 1.12 0 0 1 .033-.269l.61-2.864h-1.218l-.575 2.704h-.167c-.187.438-.34.74-.7.74-.254 0-.34-.143-.34-.354 0-.47.406-1.5.406-2.172 0-.674-.398-.95-.94-.95-.313 0-.77.092-1.176.715-.094-.523-.422-.725-.87-.725-.296 0-.677.076-1.032.48l.093-.438h-1.22l-.576 2.704h-.166c-.127.422-.355.792-.685.792-.237 0-.347-.127-.347-.363 0-.075.01-.16.034-.27l.61-2.864h-1.218l-.093.447v-.06c0-.245-.204-.43-.686-.43-1.47 0-2.173 1.8-2.173 2.95 0 1 .55 1.355 1.124 1.355.6 0 .998-.388 1.26-.775.052.506.356.775.83.775.36 0 .907-.125 1.36-.845l-.17.794h1.22l.574-2.703c.128-.42.355-.783.685-.783.186 0 .254.185.254.37a.874.874 0 0 1-.025.212l-.617 2.904h1.218l.575-2.703c.127-.42.355-.774.66-.774.202 0 .304.15.304.43 0 .538-.38 1.574-.38 2.146 0 .48.26.952.997.952.373 0 .887-.133 1.32-.97.017.677.406.97.903.97.385 0 1.038-.14 1.522-1.002.004.702.4 1.002.905 1.002.385 0 1.038-.14 1.522-1.002.004.702.4 1.002.905 1.002.288 0 .67-.076 1.033-.488l-.085.37c-.803.236-1.464.48-1.464 1.263 0 .548.482.9 1 .9.557 0 1.285-.227 1.54-1.432l1.03-4.885h-1.226l-.576 2.704zm17.072-21.354c.78-.06.998.306 1.627.76s1.193.074 1.6-.28.7-.9.356-1.33-.328-.45-.556-1.693-.95-1.38-.95-1.38l-.042-.03c-.67-.282-1.008.242-1.265.59s-.34.6-1.333.7c-1.164.115-.832 2.783.564 2.673m5.75-3.157c.053.127.194.13.272.12a.736.736 0 0 0 .34-.147c.297-.216.42-.55.348-.724-.054-.134-.2-.13-.274-.122a.715.715 0 0 0-.306.123c-.318.215-.455.568-.38.75m-6.596-.902a.136.136 0 0 0 .11.022c.225-.063.422-.786.46-1.682.05-1.148-.164-2.073-.4-2.27-.044-.04-.088-.052-.132-.04-.168.048-.37.495-.445 1.4-.097 1.154.092 2.383.398 2.58m4.83.02c.096-.033.208-.198.315-.47.33-.832.518-2.373.39-3.17-.044-.272-.113-.382-.213-.348-.142.048-.312.38-.454.885-.27.95-.343 2.16-.26 2.736.04.28.116.404.223.367M173.358 31c.132-.057.275-.327.395-.74.287-1.007.332-2.5.092-3.07-.062-.148-.13-.204-.208-.17-.177.075-.375.554-.503 1.216-.203 1.053-.155 2.16.008 2.582.06.16.13.217.216.182M52.094 18.892c1.658.536 2.86-1.042 3.425-2.028.78-1.36 1.29-3.216 1.434-5.23.395-5.352-1.76-9.764-4.02-10.522-1.73-.58-2.993 1.238-3.456 2.045-.706 1.23-1.184 2.83-1.376 4.622-.605 5.574 1.624 10.332 3.994 11.113"/></g><g transform="translate(29)"><mask id="F" fill="#fff"><use xlink:href="#C"/></mask><path fill="#fff" d="M5.487 19.06c1.23.55 2.336.297 3.288-.746.862-.946 1.487-2.457 1.756-4.263.835-5.558-1.814-12.183-5.45-13.636C3.845-.076 2.85.153 1.95 1.14.685 2.53-.033 5.08.028 7.956c.123 5.414 2.93 9.977 5.46 11.104" mask="url(#F)"/></g><path fill="#fff" d="M20.22 26.958c1.022-.156 1.75-.716 2.223-1.7.727-1.5.744-3.782.047-6.216-1.713-5.904-6.976-10.745-10.83-9.958-.994.203-1.685.734-2.116 1.63-.985 2.047-.61 5.48.954 8.75 2.494 5.17 6.987 7.916 9.722 7.495"/></g></svg>