<svg xmlns="http://www.w3.org/2000/svg" width="42" height="25"><path fill="#ffb600" d="M41.176 12.5c0 6.878-5.555 12.5-12.5 12.5-6.878 0-12.5-5.622-12.5-12.5S21.732 0 28.6 0c7 0 12.566 5.622 12.566 12.5z"/><path fill="#f7981d" d="M28.676 0c6.88 0 12.5 5.622 12.5 12.5S35.62 25 28.676 25c-6.878 0-12.5-5.622-12.5-12.5"/><path fill="#ff8500" d="M28.676 0c6.88 0 12.5 5.622 12.5 12.5S35.62 25 28.676 25"/><path fill="#ff5050" d="M12.4 0C5.57.066 0 5.622 0 12.5S5.57 25 12.533 25c3.25 0 6.167-1.257 8.422-3.24.464-.398.862-.86 1.26-1.323H19.63a15.26 15.26 0 0 1-.929-1.257h4.443c.265-.397.53-.86.73-1.323H17.97a7.87 7.87 0 0 1-.53-1.323h6.896c.398-1.256.663-2.58.663-3.968 0-.926-.133-1.786-.265-2.645H17.04c.067-.463.2-.86.332-1.323h6.897a7.87 7.87 0 0 0-.53-1.323h-5.836c.198-.463.464-.86.73-1.323h4.443a6.29 6.29 0 0 0-.995-1.322h-2.45c.398-.463.795-.86 1.26-1.257-2.19-2.05-5.173-3.24-8.422-3.24 0-.133 0-.133-.066-.133z"/><path fill="#e52836" d="M0 12.803C0 19.515 5.57 25 12.533 25c3.25 0 6.167-1.226 8.422-3.162.464-.387.862-.84 1.26-1.3H19.63a14.918 14.918 0 0 1-.929-1.227h4.443a8.33 8.33 0 0 0 .73-1.29H17.97a7.573 7.573 0 0 1-.53-1.291h6.896c.398-1.226.663-2.517.663-3.872 0-.904-.133-1.743-.265-2.582H17.04c.067-.45.2-.84.332-1.3h6.897a7.573 7.573 0 0 0-.53-1.291h-5.836c.198-.452.464-.84.73-1.3h4.443a6.154 6.154 0 0 0-.995-1.291h-2.45c.398-.452.795-.84 1.26-1.227-2.19-2-5.173-3.162-8.422-3.162H12.4"/><path fill="#cb2026" d="M12.632 25c3.223 0 6.118-1.226 8.355-3.162.46-.387.855-.84 1.25-1.3H19.67a14.907 14.907 0 0 1-.921-1.227h4.408c.263-.387.526-.84.724-1.3h-5.856a7.607 7.607 0 0 1-.526-1.291h6.842c.395-1.226.658-2.517.658-3.872 0-.904-.132-1.743-.263-2.582h-7.632c.066-.45.198-.84.33-1.3h6.84a7.607 7.607 0 0 0-.526-1.291h-5.8c.198-.452.46-.84.724-1.3h4.408a6.148 6.148 0 0 0-.987-1.291H19.67c.395-.452.8-.84 1.25-1.227-2.17-2-5.132-3.162-8.355-3.162H12.5"/><path d="M17.092 15.964l.196-1.11c-.065 0-.196.065-.327.065-.46 0-.524-.26-.46-.392l.393-2.287h.72l.197-1.242h-.655l.13-.785h-1.3l-.786 4.837c0 .784.46 1.11 1.048 1.11a2.01 2.01 0 0 0 .852-.196zm.458-2.09c0 1.83 1.244 2.287 2.292 2.287.983 0 1.376-.196 1.376-.196l.262-1.242s-.72.327-1.376.327c-1.44 0-1.18-1.046-1.18-1.046h2.686s.196-.85.196-1.176c0-.85-.458-1.896-1.9-1.896-1.374-.13-2.357 1.308-2.357 2.942zm2.292-1.896c.72 0 .6.85.6.915H19c0-.065.13-.915.85-.915zm8.318 3.987l.263-1.438s-.655.327-1.114.327c-.917 0-1.3-.72-1.3-1.503 0-1.57.786-2.42 1.703-2.42a2.19 2.19 0 0 1 1.179.393l.196-1.373s-.785-.327-1.506-.327c-1.506 0-3.013 1.307-3.013 3.79 0 1.634.786 2.745 2.358 2.745.524 0 1.245-.196 1.245-.196zM9.887 10.8c-.917 0-1.572.262-1.572.262l-.196 1.11s.59-.26 1.44-.26c.46 0 .852.065.852.457 0 .262-.066.327-.066.327h-.6c-1.113 0-2.357.458-2.357 1.96 0 1.177.786 1.44 1.244 1.44.917 0 1.3-.588 1.376-.588l-.066.522h1.18l.523-3.594c0-1.57-1.3-1.634-1.768-1.634zm.262 2.942c0 .196-.13 1.242-.917 1.242-.393 0-.524-.327-.524-.523 0-.327.196-.785 1.18-.785a1.02 1.02 0 0 0 .262.066zm2.75 2.353c.327 0 1.965.065 1.965-1.7 0-1.634-1.572-1.307-1.572-1.96 0-.327.262-.458.72-.458.197 0 .917.065.917.065l.197-1.176s-.46-.13-1.245-.13c-.982 0-1.965.39-1.965 1.7 0 1.503 1.638 1.372 1.638 1.96 0 .393-.46.458-.786.458-.6 0-1.18-.196-1.18-.196l-.196 1.176c.066.13.393.262 1.507.262zm26.133-6.34l-.262 1.765s-.524-.654-1.244-.654c-1.18 0-2.227 1.438-2.227 3.137 0 1.046.524 2.157 1.637 2.157.786 0 1.245-.523 1.245-.523l-.066.458h1.3l.982-6.275-1.375-.065zm-.6 3.464c0 .72-.327 1.634-1.047 1.634-.46 0-.72-.392-.72-1.046 0-1.046.458-1.7 1.047-1.7.46 0 .72.328.72 1.112zM2.748 16.03l.786-4.706.13 4.705h.918l1.703-4.705-.72 4.705H6.94l1.048-6.274H5.826l-1.3 3.856-.065-3.856h-1.9L1.503 16.03zm20.304 0c.393-2.157.458-3.922 1.375-3.595.13-.85.328-1.177.46-1.504h-.262c-.6 0-1.048.785-1.048.785l.13-.72h-1.244l-.85 5.1h1.44v-.066zm8.12-5.23c-.917 0-1.572.262-1.572.262l-.196 1.11s.6-.26 1.44-.26c.46 0 .852.065.852.457 0 .262-.065.327-.065.327h-.6c-1.113 0-2.357.458-2.357 1.96 0 1.177.785 1.44 1.244 1.44.917 0 1.3-.588 1.375-.588l-.065.522h1.18l.524-3.594c.065-1.57-1.3-1.634-1.77-1.634zm.328 2.942c0 .196-.13 1.242-.917 1.242-.393 0-.524-.327-.524-.523 0-.327.196-.785 1.18-.785.196.066.196.066.262.066zm2.554 2.288c.393-2.157.46-3.922 1.376-3.595.13-.85.327-1.177.458-1.504h-.262c-.6 0-1.048.785-1.048.785l.13-.72h-1.244l-.852 5.1h1.44v-.066z" fill="#fff"/><path d="M15.06 15.05c0 .784.46 1.11 1.048 1.11.46 0 .852-.13.983-.196l.196-1.11c-.065 0-.196.065-.327.065-.46 0-.524-.26-.46-.392l.393-2.287h.72l.197-1.242h-.655l.13-.785m.917 3.66c0 1.83.6 2.287 1.637 2.287.983 0 1.376-.196 1.376-.196l.262-1.242s-.72.327-1.376.327c-1.44 0-1.18-1.046-1.18-1.046h2.686s.196-.85.196-1.176c0-.85-.458-1.896-1.9-1.896-1.374-.13-1.702 1.308-1.702 2.942zm1.637-1.896c.72 0 .852.85.852.915H19c0-.065.13-.915.85-.915zm8.318 3.987l.263-1.438s-.655.327-1.114.327c-.917 0-1.3-.72-1.3-1.503 0-1.57.786-2.42 1.703-2.42a2.19 2.19 0 0 1 1.179.393l.196-1.373s-.785-.327-1.506-.327c-1.506 0-2.358 1.307-2.358 3.79 0 1.634.13 2.745 1.703 2.745.524 0 1.245-.196 1.245-.196zM8.12 12.24s.59-.262 1.44-.262c.46 0 .852.065.852.458 0 .26-.066.326-.066.326h-.6c-1.113 0-2.357.458-2.357 1.96 0 1.177.786 1.438 1.244 1.438.917 0 1.3-.588 1.376-.588l-.066.523h1.18l.523-3.595c0-1.503-1.3-1.57-1.834-1.57l-1.7 1.31zm2.685 1.503c0 .196-.786 1.242-1.572 1.242-.393 0-.524-.327-.524-.523 0-.327.196-.785 1.18-.785.196.066.917.066.917.066zm.655 2.222s.393.13 1.506.13c.328 0 1.965.066 1.965-1.7 0-1.634-1.572-1.307-1.572-1.96 0-.327.262-.458.72-.458.197 0 .918.065.918.065l.196-1.176s-.458-.13-1.244-.13c-.983 0-1.3.39-1.3 1.7 0 1.503.982 1.372.982 1.96 0 .393-.458.458-.786.458M38.77 11.52s-.524-.654-1.244-.654c-1.18 0-1.572 1.438-1.572 3.137 0 1.046-.13 2.157.982 2.157.786 0 1.245-.523 1.245-.523l-.066.458h1.3l.982-6.275-1.637 1.7zm-.065 1.7c0 .72-.6 1.634-1.3 1.634-.46 0-.72-.392-.72-1.046 0-1.046.458-1.7 1.047-1.7.46 0 .983.328.983 1.112zM2.748 16.03l.786-4.706.13 4.705h.918l1.703-4.705-.72 4.705H6.94l1.048-6.274H6.35L4.516 13.6 4.45 9.754h-.72l-2.228 6.274zm18.928 0h1.376c.393-2.157.458-3.922 1.375-3.595.13-.85.328-1.177.46-1.504h-.262c-.6 0-1.048.785-1.048.785l.13-.72m5.7 1.243s.6-.262 1.44-.262c.46 0 .852.065.852.458 0 .26-.065.326-.065.326h-.6c-1.113 0-2.357.458-2.357 1.96 0 1.177.785 1.438 1.244 1.438.917 0 1.3-.588 1.375-.588l-.065.523h1.18l.524-3.595c0-1.503-1.3-1.57-1.834-1.57l-1.703 1.308zm2.685 1.503c0 .196-.786 1.242-1.572 1.242-.393 0-.524-.327-.524-.523 0-.327.197-.785 1.18-.785.26.066.916.066.916.066zm.6 2.288h1.375c.393-2.157.46-3.922 1.376-3.595.13-.85.327-1.177.458-1.504h-.262c-.6 0-1.048.785-1.048.785l.13-.72" fill="#dce5e5"/></svg>