<svg xmlns="http://www.w3.org/2000/svg" width="50" height="15"><path fill="#3c58bf" d="M17.727 14.318L20.122.682h3.742l-2.32 13.636z"/><path fill="#293688" d="M17.727 14.318L20.795.682h3.07l-2.32 13.636z"/><path fill="#3c58bf" d="M36.136.632C35.38.316 34.166 0 32.652 0c-3.788 0-6.516 1.974-6.516 4.816 0 2.13 1.894 3.237 3.4 3.947s1.97 1.184 1.97 1.816c0 .947-1.213 1.42-2.274 1.42-1.515 0-2.348-.237-3.636-.8l-.53-.236-.53 3.237c.91.394 2.575.79 4.318.79 4.015 0 6.666-1.974 6.666-4.974 0-1.658-.985-2.92-3.257-3.947-1.364-.7-2.197-1.105-2.197-1.816 0-.63.682-1.263 2.197-1.263 1.288 0 2.197.237 2.88.553l.378.158.606-3.08z"/><path fill="#293688" d="M36.136.632C35.38.316 34.166 0 32.652 0c-3.788 0-5.834 1.974-5.834 4.816 0 2.13 1.212 3.237 2.727 3.947s1.97 1.184 1.97 1.816c0 .947-1.212 1.42-2.273 1.42-1.515 0-2.348-.237-3.636-.8l-.53-.236-.53 3.237c.91.394 2.575.79 4.318.79 4.015 0 6.666-1.974 6.666-4.974 0-1.658-.985-2.92-3.257-3.947-1.364-.7-2.197-1.105-2.197-1.816 0-.63.682-1.263 2.197-1.263 1.288 0 2.197.237 2.88.553l.378.158.606-3.08z"/><path fill="#3c58bf" d="M42.72.682c-.945 0-1.653.076-2.046.985l-5.9 12.65h4.248l.787-2.273h5.035l.472 2.273h3.776L45.787.682H42.72zm-1.8 9.1l1.574-4.014.55-1.364.236 1.288.944 4.166H40.9v-.075z"/><path fill="#293688" d="M43.663.682c-.944 0-1.653.076-2.046.985l-6.844 12.65h4.248l.787-2.273h5.035l.472 2.273h3.776L45.787.682h-2.124zm-2.754 9.1l1.574-4.014.55-1.364.236 1.288.944 4.166H40.9v-.075z"/><path fill="#3c58bf" d="M10.74 10.152l-.398-1.97C9.625 5.91 7.318 3.41 4.773 2.197l3.58 12.12h4.295L19.1.682h-4.296l-4.056 9.47z"/><path fill="#293688" d="M10.74 10.152l-.398-1.97C9.625 5.91 7.318 3.41 4.773 2.197l3.58 12.12h4.295L19.1.682h-3.5l-4.852 9.47z"/><path fill="#ffbc00" d="M0 .682l.733.163c5.2 1.228 8.792 4.337 10.176 8.02L9.444 1.91C9.2.927 8.467.682 7.57.682H0z"/><path fill="#f7981d" d="M0 .682c5.2 1.24 9.525 4.463 10.9 8.182L9.524 2.996c-.244-.992-1.058-1.57-1.954-1.57L0 .682z"/><path fill="#ed7c00" d="M0 .682c5.2 1.24 9.525 4.463 10.9 8.182L9.93 5.64c-.244-.99-.57-1.983-1.7-2.396L0 .682z"/><path d="M14.5 9.877l-2.668-2.65-1.255 2.96-.314-1.948c-.705-2.337-2.98-4.91-5.5-6.156l3.53 12.468h4.235L14.5 9.877zm7.294 4.675l-3.373-3.43-.627 3.43zm9.02-4.832c.313.312.47.546.392.858 0 .935-1.255 1.403-2.353 1.403-1.57 0-2.432-.234-3.766-.78l-.55-.233-.55 3.194c.942.4 2.667.78 4.47.78 2.5 0 4.55-.702 5.726-1.948L30.815 9.72zm4.55 4.832h3.687l.784-2.338h5.02l.47 2.338h3.766l-1.334-5.688-4.706-4.52.235 1.247.942 4.286h-3.295l1.57-4.13.55-1.403" fill="#051244"/></svg>