<svg xmlns="http://www.w3.org/2000/svg" width="32" height="32"><path fill="#252c32" fill-rule="evenodd" d="M30.9 15.54l.24.46-.24.46A17 17 0 0 1 16 26a17 17 0 0 1-14.89-9.54L.87 16l.24-.46A17 17 0 0 1 16 6a17 17 0 0 1 14.89 9.54zM24 16a8 8 0 1 0-16 0 8 8 0 0 0 16 0zM3.14 16a16.47 16.47 0 0 0 4.14 4.89 10 10 0 0 1 0-9.78A16.47 16.47 0 0 0 3.14 16zm21.58 4.9A16.47 16.47 0 0 0 28.86 16a16.47 16.47 0 0 0-4.14-4.89 10 10 0 0 1 0 9.78zM16 20a4 4 0 1 1 0-8 4 4 0 0 1 0 8zm0-6a2 2 0 1 0 0 4 2 2 0 0 0 0-4z"/></svg>