<svg xmlns="http://www.w3.org/2000/svg" xmlns:xlink="http://www.w3.org/1999/xlink" width="35" height="35"><defs><path d="M19.063 9H3.124V3.375a1.25 1.25 0 0 1 1.467-1.851 1.25 1.25 0 0 1 .838 1.182c-.662 1.015-.552 2.35.267 3.244a.47.47 0 0 0 .02.642l.442.44c.183.184.48.184.662 0l3.713-3.712a.47.47 0 0 0 0-.663l-.442-.44a.47.47 0 0 0-.642-.02 2.65 2.65 0 0 0-2.507-.6C6.165.473 4.747-.016 3.442.392S1.25 2.008 1.25 3.375V9H.937c-.25 0-.487.1-.663.275S0 9.69 0 9.938v.624a.94.94 0 0 0 .937.938h.313v1.25a3.74 3.74 0 0 0 1.25 2.795v1.268a.94.94 0 0 0 .937.937h.625A.94.94 0 0 0 5 16.812V16.5h10v.313a.94.94 0 0 0 .938.937h.624a.94.94 0 0 0 .938-.938v-1.267a3.74 3.74 0 0 0 1.25-2.795V11.5h.313a.94.94 0 0 0 .937-.938v-.624c0-.25-.098-.488-.274-.664S19.31 9 19.062 9z" id="A"/></defs><g fill="none" fill-rule="evenodd"><circle fill="#1c5879" fill-rule="nonzero" cx="17.5" cy="17.5" r="17.5"/><g transform="translate(8 9)"><mask id="B" fill="#fff"><use xlink:href="#A"/></mask><g mask="url(#B)" fill="#fff" fill-rule="nonzero"><path d="M-2-3h24v24H-2z"/></g></g></g></svg>