<svg xmlns="http://www.w3.org/2000/svg" xmlns:xlink="http://www.w3.org/1999/xlink" width="33" height="33"><defs><path d="M17.75 19.22V20H.25v-.78a.47.47 0 0 1 .469-.469h.78V4.687a.94.94 0 0 1 .937-.937h3.438V.937A.94.94 0 0 1 6.812 0h4.375a.94.94 0 0 1 .938.937V3.75h3.438a.94.94 0 0 1 .937.937V18.75h.78a.47.47 0 0 1 .469.469zM12.28 7.5h-1.56a.47.47 0 0 0-.469.469v1.56a.47.47 0 0 0 .469.469h1.562a.47.47 0 0 0 .469-.469V7.97a.47.47 0 0 0-.469-.469L12.28 7.5zM5.72 10h1.56a.47.47 0 0 0 .469-.469V7.97a.47.47 0 0 0-.469-.469H5.72a.47.47 0 0 0-.469.469v1.56a.47.47 0 0 0 .469.469zm4.062 5H8.22a.47.47 0 0 0-.469.469v3.28h2.5v-3.28a.47.47 0 0 0-.47-.469zm2.5-3.75H10.72a.47.47 0 0 0-.469.469v1.562a.47.47 0 0 0 .469.469h1.562a.47.47 0 0 0 .469-.469v-1.56a.47.47 0 0 0-.469-.469zm-4.53.47a.47.47 0 0 0-.469-.469H5.72a.47.47 0 0 0-.469.469v1.562a.47.47 0 0 0 .469.469h1.56a.47.47 0 0 0 .469-.469v-1.56h.002zm-.39-7.97h1.015v1.016c0 .13.105.234.234.234h.782c.13 0 .234-.105.234-.234V3.75h1.016c.13 0 .234-.105.234-.234v-.782c0-.13-.105-.234-.234-.234H9.625V1.484c0-.13-.105-.234-.234-.234H8.61c-.13 0-.234.105-.234.234V2.5H7.36c-.13 0-.234.105-.234.234v.782c0 .13.105.234.234.234h.001z" id="A"/></defs><g fill="none" fill-rule="evenodd"><circle fill="#1c5879" fill-rule="nonzero" cx="16.5" cy="16.5" r="16.5"/><g transform="translate(8 5)"><mask id="B" fill="#fff"><use xlink:href="#A"/></mask><g mask="url(#B)" fill="#fff" fill-rule="nonzero"><path d="M-3-2h24v24H-3z"/></g></g></g></svg>