<svg xmlns="http://www.w3.org/2000/svg" xmlns:xlink="http://www.w3.org/1999/xlink" width="43" height="43"><defs><path d="M10.02 7.752c-3.096 0-7.486 4.786-7.486 7.807 0 1.36 1.045 2.174 2.797 2.174 1.904 0 3.16-.978 4.688-.978 1.54 0 2.802.978 4.69.978 1.752 0 2.797-.813 2.797-2.174 0-3.02-4.4-7.807-7.486-7.807zm-5.742-.49c-.406-1.35-1.655-2.226-2.8-1.955S-.24 6.893.166 8.244s1.655 2.225 2.8 1.954S4.683 8.612 4.278 7.26zm3.303-.8c1.206-.318 1.8-1.947 1.348-3.64S7.115.004 5.91.32 4.1 2.268 4.56 3.96s1.814 2.807 3.02 2.5h.001zm10.97-1.144c-1.135-.272-2.384.603-2.8 1.954s.186 2.666 1.32 2.937 2.384-.603 2.8-1.954-.186-2.666-1.32-2.937zM12.458 6.45c1.207.317 2.56-.798 3.02-2.5S15.336.638 14.13.32s-2.558.797-3.02 2.5.142 3.322 1.348 3.64z" id="A"/></defs><g fill="none" fill-rule="evenodd"><circle fill="#1c5879" fill-rule="nonzero" cx="21.5" cy="21.5" r="21.5"/><g transform="translate(11 13)"><mask id="B" fill="#fff"><use xlink:href="#A"/></mask><g mask="url(#B)" fill="#fff" fill-rule="nonzero"><path d="M-2-3h24v24H-2z"/></g></g></g></svg>