<svg xmlns="http://www.w3.org/2000/svg" xmlns:xlink="http://www.w3.org/1999/xlink" width="20" height="18"><defs><path id="A" d="M9.003.73L6.736 5.325l-5.073.74C.753 6.198.4 7.32 1.05 7.962l3.67 3.576-.868 5.052a1.11 1.11 0 0 0 1.61 1.17L10 15.375l4.538 2.385c.806.424 1.768-.257 1.61-1.17l-.868-5.052 3.67-3.576c.66-.643.296-1.764-.614-1.896l-5.073-.74L10.997.73C10.6-.1 9.413-.1 9.003.73z"/></defs><g fill-rule="evenodd"><mask id="B" fill="#fff"><use xlink:href="#A"/></mask><g fill="#f8951d" mask="url(#B)"><path d="M-2-3h24v24H-2z"/></g></g></svg>