<svg xmlns="http://www.w3.org/2000/svg" width="17" height="16" fill-rule="evenodd" fill="#fff"><path d="M5.574 5.852c.064 0 .13-.004.194-.014 1.07-.16 1.772-1.597 1.568-3.203C7.148 1.157 6.218 0 5.22 0a1.27 1.27 0 0 0-.194.015C4.522.1 4.08.455 3.783 1.043c-.3.612-.426 1.384-.325 2.174.188 1.478 1.118 2.635 2.116 2.635zM1.46 4a1.31 1.31 0 0 0-.317.04c-.902.233-1.36 1.4-1.04 2.636.278 1.087 1.043 1.847 1.86 1.847.107 0 .213-.014.317-.04.902-.233 1.36-1.4 1.04-2.635C3.043 4.75 2.277 4 1.46 4zm8.83 1.848c1.074.16 2.1-1.048 2.31-2.62.1-.8-.015-1.563-.325-2.175-.298-.588-.74-.953-1.242-1.028A1.32 1.32 0 0 0 10.839 0C9.84 0 8.91 1.158 8.723 2.636c-.205 1.605.5 3.042 1.568 3.202H10.3zm5.153-1.808c-.104-.027-.2-.04-.317-.04-.818 0-1.583.76-1.862 1.848-.318 1.245.14 2.402 1.042 2.635.103.026.2.04.316.04.818 0 1.584-.76 1.862-1.847.32-1.246-.138-2.403-1.04-2.636h-.001z" fill-rule="nonzero"/><path d="M8 15c-1.435-.906-2.44-1.68-3.013-2.323-.47-.525-.774-1.273-.916-2.243A1.86 1.86 0 0 1 4 9.925l.004-.12L4 9.75h.008C4.1 8.77 4.957 8 6 8s1.9.77 1.992 1.75h.016C8.1 8.77 8.957 8 10 8s1.9.77 1.992 1.75H12l-.004.056.004.12a1.86 1.86 0 0 1-.071.509c-.142.97-.447 1.718-.916 2.243C10.44 13.32 9.435 14.094 8 15z" stroke="#fff" stroke-linejoin="round"/></svg>