<svg xmlns="http://www.w3.org/2000/svg" xmlns:xlink="http://www.w3.org/1999/xlink" width="198" height="101"><style><![CDATA[.B{fill-rule:nonzero}.C{fill:#fff}.D{fill:#eb8e30}.E{fill:#1c5879}.F{fill:#23b4c9}]]></style><defs><filter x="-6.4%" y="-12.6%" width="112.8%" height="125.3%" id="A"><feOffset dy="1" in="SourceAlpha"/><feGaussianBlur stdDeviation="2.5"/><feColorMatrix values="0 0 0 0 0 0 0 0 0 0 0 0 0 0 0 0 0 0 0.5 0" result="C"/><feMerge><feMergeNode in="C"/><feMergeNode in="SourceGraphic"/></feMerge></filter><path id="B" d="M.03.336h14.91v10.366H.03z"/><path d="M16.584 16.677a2.15 2.15 0 0 0-.205-.494c-.18-.303-.417-.564-.692-.77a5.78 5.78 0 0 0 .186-.861l.04-.224.067-.397.088-1.04.002-1.054-.062-.69-.028-.332-.18-1.028-.26-1-.08-.235-.264-.734c-.705-1.69-1.74-3.153-2.996-4.253-1.222-1.047-2.646-1.79-4.17-2.174a3 3 0 0 0-.46-.102l-.604-.103-.324-.027-.758-.045c-.792 0-1.46.066-2.046.197A10.48 10.48 0 0 0 .452 2.687l-.137.084.12-.095C1.426 1.863 2.55 1.257 3.75.89 4.677.6 5.636.45 6.6.447c.53 0 1.06.048 1.572.142l.092.018 1.08.26.55.172.645.275c.68.282 1.38.703 2.267 1.37l.334.288.184.164.157.14.326.315.206.227.73.87c.53.666 1 1.456 1.505 2.582l.32.84.08.22.172.604.143.52.14.762.07.393.11 1.173.004 1.178-.022.274-.083.898-.093.538-.047.252c-.065.408-.157.726-.254 1.063l-.1.393-.046.16-.02.07-.025.065" id="C"/><linearGradient x1="83.966%" y1="3.91221856%" x2="71.291%" y2="22.4311958%" id="D"><stop stop-color="#eb8d30" offset="0%"/><stop stop-color="#fffffe" offset="100%"/></linearGradient><path d="M2.062 16.887l-.143-.2-.315-.5-.08-.136-.205-.397-.02-.043-.187-.462-.352-.988-.072-.25-.123-.448-.13-.694a9.95 9.95 0 0 1-.151-1.743c0-1.233.218-2.502.65-3.743.367-.968.768-1.757 1.223-2.4.533-.828 1.202-1.5 1.727-1.995l.32-.26.174-.14.168-.134.315-.233.673-.43.165-.1.937-.468.595-.228.36-.133.568-.16c.25-.077.496-.118.754-.163L9.29.376c.335-.048.698-.07 1.05-.092l.383.003.682.026.335.034.66.093c1.186.21 2.322.635 3.35 1.258l.11.07-.103-.048c-1.074-.466-2.22-.754-3.387-.85-1.354-.11-2.716.067-3.997.518l-.487.177-.338.15-.526.244-.882.513c-.074.048-.126.087-.176.126l-.488.357c-.103.065-.208.16-.31.254l-.295.26-.26.233C3.484 4.833 2.63 6.206 2.12 7.713l-.106.367c-.08.266-.163.542-.206.84l-.038.196-.07.38-.072.706-.02.216-.006.896.08.94.06.31.104.578.106.393.06.21c.066.292.18.573.29.845l.097.246-.005.006.09.215.217.428.01.018.107.18.13.21-.89.992" id="E"/><linearGradient x1="11.1502013%" y1="14.541%" x2="25.4912224%" y2="27.594%" id="F"><stop stop-color="#eb8d30" offset="0%"/><stop stop-color="#fffffe" offset="100%"/></linearGradient><path id="G" d="M.258.494h41.686v28.29H.258z"/><path id="H" d="M.022.15h24.3v17.37H.02z"/></defs><g filter="url(#A)" transform="translate(5)" fill="none" fill-rule="evenodd"><path d="M0 0h188v82c-31.333 8.667-62.667 13-94 13S31.333 90.667 0 82V0z" class="B C"/><g transform="translate(9 15)"><g transform="translate(0 22.755)"><mask id="I" class="C"><use xlink:href="#B"/></mask><path d="M14.8 8.254c-.113.33-.3.636-.52.902-1.936 2.274-7.134 2-10.914-.57C.438 6.6-.36 4.204.14 2.717c.13-.39.354-.74.665-1.045 1.626-1.6 5.823-2.005 9.76.163 3.09 1.673 4.906 4.43 4.235 6.42" mask="url(#I)" class="B D"/></g><g class="B"><path d="M18.418 42.418l-.056-.183-.14-.484-.14-.718c-.343-1.866-.156-3.866.536-5.79.407-1.037.847-1.867 1.354-2.557.563-.847 1.286-1.548 1.85-2.06l.03-.026.363-.285.16-.123.163-.126c.125-.098.267-.2.446-.313l.536-.334.1-.06.22-.13.995-.48.655-.244.412-.145.604-.16a6.33 6.33 0 0 1 .856-.181l.334-.057.04-.006a15.01 15.01 0 0 1 1.154-.101l.09-.002.35.005.783.03.318.032.78.108c1.287.222 2.52.67 3.64 1.325l.24.143.497.32.108.08.178-.368.133-.258.533-.862.04-.06.363-.473c.19-.27.434-.533.694-.81l.27-.292.022-.026.026-.022c.364-.338.815-.755 1.366-1.137 1.167-.848 2.487-1.48 3.893-1.86 1.112-.306 2.238-.46 3.34-.46a11.66 11.66 0 0 1 1.865.151l.1.02 1.303.286.545.15.11.034.682.26c.64.243 1.252.545 1.83.902-2.05-5.682-11.678-10.552-17.188-4.587-4.137 4.48-7.15 3.807-12.926 4.918-5.774 1.116-7.14 6.008-7.734 9.934-.553 3.697.333 7.682 3.767 8.422l-.103-.245a7.57 7.57 0 0 1-.398-1.092" class="D"/><path d="M66.97 26.2l-.852 3.314c-1.084 4.242-2.116 7.755-2.116 10.24 0 2.535 1.264 3.99 4.982 3.99 5.808 0 7.305-3.49 8.958-11.12l1.703-7.83h-3.64l-1.73 7.755c-1.834 8.208-2.8 8.734-4.984 8.734-1.3 0-1.78-.828-1.78-2.258 0-2.108 1.084-5.497 3.485-14.157a5.77 5.77 0 0 0-1.238-.125c-5 0-9.76 3.112-9.76 6.65 0 1.682 1.06 2.31 2.762 2.31-.025-.227-.36-.402-.36-1.732 0-3.013 1.755-5.045 4.57-5.774m20.217 4.878c-1.263 0-2.262.81-3.18 1.57l.34-1.57H80.56l-2.787 12.667h3.785l2.104-9.627c.658-.582 1.13-.962 1.92-.962s.053 1.672 1.524 1.672c1.288 0 1.893-.963 1.893-1.85 0-.962-.63-1.9-1.813-1.9" class="E"/><path d="M92.708 33.8c-.025-.228-.353-.43-.353-1.723 0-3.85 2.455-6.156 6.555-6.156 2.226 0 3.138 1.57 3.138 3.445 0 2.71-1.872 6.03-4.43 6.232l1.797-8.46-3.746.507-3.443 16.112h3.646l1.543-7.22h.127c4.555 0 7.314-3.572 7.314-6.8 0-2.61-1.822-5-5.973-5-4.228 0-8.884 3.217-8.884 6.587 0 1.824.962 2.457 2.708 2.457zm18.347-1.375c.488 0 .642.392.642 1.005 0 2.036-1.744 3.924-3.717 4.046.513-2.428 1.768-5.052 3.075-5.052zm10.54 7.804c.153.14.383.19.586.19.667 0 1.13-.613 1.13-1.202 0-.417-.256-.71-.59-.858.847-1.57 1.564-3.042 2.077-4.636.256 3.777.487 4.537.487 5.813 0 1.717-1.102 2.28-2.23 2.28-1.02 0-1.47-.465-1.55-1.405.03-.06.06-.123.09-.183h.001zm-7.694.583c0 2.06 1.206 2.943 2.743 2.943.964 0 2.487-.265 3.816-1.774.5.984 1.6 1.774 3.413 1.774 2.102 0 5.127-1.054 5.127-4.243 0-1.618-.256-2.575-.564-8.928l-3.794.49c-.794 2.404-1.717 4.83-3.153 7.26-.69.32-1.358 1.153-1.358 2.28v.027c-.423.45-.944.734-1.49.734-.718 0-1.05-.22-1.05-.908a3.27 3.27 0 0 1 .103-.785l1.64-7.358h1.538l.206-.98h-1.538l.87-3.876-3.794.49-.77 3.385h-.847l-.205.98h.847l-1.538 6.892c-1.283 1.398-2.514 2.478-4.538 2.478-1.23 0-1.845-.393-1.845-2.06 0-.294.026-.637.05-.98 3.075-.173 5.896-2.356 5.896-5.176 0-1.227-.538-2.355-2.82-2.355-5.256 0-6.922 5.912-6.922 8.732 0 2.77 1.59 3.9 4 3.9 2.663 0 4.573-1.392 5.978-3.077-.001.045-.006.09-.006.134z" class="F"/><g class="D"><path d="M138.132 43.938l3.985-18.132-1.035-.05c-4.32 0-9.083 3.207-9.083 6.566 0 1.817.984 2.45 2.77 2.45-.026-.227-.363-.43-.363-1.718 0-2.702 1.37-4.596 3.623-5.505l-3.856 17.5c.207-.026.39-.026.595-.026 4.58 0 7.84 5.732 11.54 5.732 1.397 0 2.432-1.54 2.69-3.964a5.69 5.69 0 0 1-2.173.404c-3.287 0-6.003-2.676-8.695-3.257"/><path d="M147.762 44.506c1.394 0 3.95-.543 5.42-4.57h-1.083c-.387 1.234-1.316 2.174-2.324 2.174-.722 0-1.058-.223-1.058-.914a3.29 3.29 0 0 1 .104-.791l1.86-8.4h-3.718l-1.754 7.93c-.13.593-.207 1.136-.207 1.605 0 2.075 1.213 2.965 2.762 2.965zm6.42 2.07c-.32 1.475-.883 1.952-1.396 1.952-.54 0-.982-.477-.982-.826 0-1.352 1.153-2.053 2.698-2.578l-.32 1.452zm8.365-14.6h-1.8l.417-1.978c.343-1.676 1.178-2.052 1.717-2.052.49 0 .932.276.932.85 0 .225-.024.426-.05.676h1.153a6.26 6.26 0 0 0 .074-1.026c0-1.626-1.398-2.702-2.894-2.702-1.62 0-3.73.675-4.465 4.254l-2.967 14.3c-2.33.725-4.22 1.452-4.22 3.753 0 1.628 1.398 2.703 2.894 2.703 1.62 0 3.654-.675 4.39-4.254l2.82-13.514h1.815l.17-1z"/><path d="M167.288 32.834c.505 0 .666.378.666.97 0 1.986-1.808 3.806-3.882 3.9.56-2.246 1.888-4.87 3.218-4.87h-.001zm-3.456 6.714c0-.213.028-.473.053-.7 3.2-.165 6.115-2.246 6.115-4.988 0-1.182-.56-2.27-2.925-2.27-5.45 0-7.178 5.697-7.178 8.416 0 2.67 1.65 3.76 4.122 3.76 2.126 0 4.04-.803 4.6-3.498-.85.662-2.127 1.252-3.138 1.252-.93 0-1.65-.473-1.65-1.962zM55.154 36.795l.044-.2c.024-.117.05-.235.07-.357l.074-.743c.008-.065.015-.128.02-.19l.002-.95-.066-.62-.03-.3-.192-.925-.276-.897a2.95 2.95 0 0 0-.086-.212l-.28-.66c-.73-1.493-1.82-2.803-3.182-3.823a11.72 11.72 0 0 0-4.428-1.953 3.69 3.69 0 0 0-.488-.091l-.64-.094-.346-.024c-.27-.02-.54-.037-.804-.042-.842.001-1.55.06-2.173.178a12.33 12.33 0 0 0-3.74 1.314l.126-.086a11.06 11.06 0 0 1 3.522-1.607c.985-.26 2.003-.394 3.026-.397a10.81 10.81 0 0 1 1.67.127l.097.016c.402.068.82.137 1.146.236l.584.153.685.248c.722.253 1.464.63 2.408 1.23a6.09 6.09 0 0 1 .353.259l.196.147c.048.04.108.082.166.126.128.095.248.185.346.284l.22.203c.28.26.548.504.775.783.564.598 1.052 1.307 1.6 2.32l.34.755.085.198.182.543.152.47.15.685.074.353.115 1.054.006 1.06a9.07 9.07 0 0 1-.024.246l-.087.807a9.74 9.74 0 0 1-.099.484l-.05.225c-.068.367-.165.653-.27.956l-.117.354-.048.145-.024.063-.025.057c.08.23.1.467.09.702l.068-.127.16-.355.04-.09.02-.046v-.022l.025-.07.053-.16c.137-.433.298-.814.396-1.34.052-.247.114-.498.154-.743l.078-.727c.012-.12.026-.242.033-.363v-.365l-.006-.73-.08-.725-.04-.36-.075-.357-.155-.71c-.07-.233-.15-.46-.227-.692l-.116-.344c-.044-.113-.097-.222-.145-.333l-.298-.662c-.46-.85-.975-1.675-1.638-2.376-.304-.37-.67-.687-1.018-1.012-.166-.17-.37-.302-.555-.45-.192-.14-.376-.29-.572-.42-.8-.507-1.618-.966-2.486-1.27l-.66-.24-.056-.018-.116-.03-.456-.12c-.38-.115-.856-.2-1.3-.264-1.747-.272-3.413-.1-4.86.278-1.455.376-2.677.994-3.643 1.66-.492.326-.904.685-1.278 1.015-.344.362-.68.673-.92 1.002l-.364.45-.274.425-.235.363c-.066.113-.118.22-.17.316l-.295.58.397-.522c.066-.086.132-.183.216-.284l.3-.318.33-.367.412-.386c.276-.285.64-.54 1.01-.838.404-.26.82-.563 1.315-.814.972-.52 2.15-.96 3.48-1.198.663-.127 1.368-.17 2.09-.17.36.005.727.038 1.097.06l.553.082c.186.026.376.05.55.098 1.488.313 2.982.95 4.273 1.885 1.3.98 2.36 2.24 3.064 3.673l.236.557c.04.094.083.185.117.28l.088.29.18.58.185.888.03.302.064.602-.002.605v.303c-.007.1-.022.2-.03.302l-.06.602c-.03.194-.077.378-.114.567-.035.215-.088.427-.16.634a2.75 2.75 0 0 1 .344.185c.088-.267.168-.535.198-.775v.001z"/><path d="M55.306 39.623l.05-.158.118-.39c.103-.33.2-.644.268-1.048l.05-.248.1-.53.086-.883.025-.27-.005-1.16-.114-1.155-.075-.39-.148-.75-.152-.515-.18-.595-.085-.218-.34-.828c-.546-1.1-1.035-1.888-1.597-2.545-.227-.305-.492-.574-.774-.858l-.218-.223c-.1-.1-.22-.208-.346-.312l-.166-.14-.195-.162-.354-.283c-.942-.657-1.683-1.073-2.405-1.35l-.684-.27-.583-.17c-.327-.108-.743-.184-1.145-.258l-.097-.018a9.93 9.93 0 0 0-1.669-.14c-.995 0-2.01.147-3.022.436a10.62 10.62 0 0 0-3.519 1.762l-.125.094.145-.082c1.12-.652 2.332-1.1 3.59-1.36.622-.13 1.33-.194 2.17-.194l.804.045.346.026.64.103.486.1c1.605.374 3.114 1.105 4.424 2.144 1.334 1.084 2.43 2.527 3.178 4.193l.28.723.086.233.275.985.19 1.013.03.33.066.68-.002 1.04-.02.2-.073.815-.07.39-.043.22a5.4 5.4 0 0 1-.198.85c.29.202.543.457.734.76.097.154.165.32.218.486l.026-.063.023-.068"/></g></g><g transform="translate(39 22.755)"><mask id="J" class="C"><use xlink:href="#C"/></mask><path d="M16.584 16.677a2.15 2.15 0 0 0-.205-.494c-.18-.303-.417-.564-.692-.77a5.78 5.78 0 0 0 .186-.861l.04-.224.067-.397.088-1.04.002-1.054-.062-.69-.028-.332-.18-1.028-.26-1-.08-.235-.264-.734c-.705-1.69-1.74-3.153-2.996-4.253-1.222-1.047-2.646-1.79-4.17-2.174a3 3 0 0 0-.46-.102l-.604-.103-.324-.027-.758-.045c-.792 0-1.46.066-2.046.197A10.48 10.48 0 0 0 .452 2.687l-.137.084.12-.095C1.426 1.863 2.55 1.257 3.75.89 4.677.6 5.636.45 6.6.447c.53 0 1.06.048 1.572.142l.092.018 1.08.26.55.172.645.275c.68.282 1.38.703 2.267 1.37l.334.288.184.164.157.14.326.315.206.227.73.87c.53.666 1 1.456 1.505 2.582l.32.84.08.22.172.604.143.52.14.762.07.393.11 1.173.004 1.178-.022.274-.083.898-.093.538-.047.252c-.065.408-.157.726-.254 1.063l-.1.393-.046.16-.02.07-.025.065" fill="url(#D)" mask="url(#J)" class="B"/></g><g class="B D"><path d="M19.96 46.252c-.102-.147-.206-.323-.304-.49l-.08-.135-.197-.39-.02-.04-.18-.453-.34-.97-.07-.245-.12-.44-.125-.68c-.3-1.72-.134-3.584.482-5.386.354-.95.742-1.723 1.18-2.354.515-.814 1.162-1.473 1.67-1.958l.31-.256.167-.136.163-.13.304-.23.65-.423.16-.1.905-.46.575-.223.347-.13.55-.155c.24-.077.478-.117.73-.16l.362-.065c.324-.046.674-.068 1.015-.09l.37.003.66.026.325.034.637.09a9.29 9.29 0 0 1 3.238 1.235l.104.068-.1-.048c-1.042-.46-2.147-.74-3.273-.835a9.22 9.22 0 0 0-3.861.509l-.473.173-.326.147-.51.238-.852.504c-.072.046-.12.085-.17.124l-.47.35c-.107.073-.207.156-.3.248l-.283.256-.252.23c-1.084 1.1-1.908 2.45-2.41 3.938l-.102.36c-.078.26-.157.53-.2.822l-.037.193-.065.374-.07.69-.018.214-.007.88.08.923.056.306.1.567.103.385.058.205c.065.288.174.563.28.83l.094.24-.004.006.087.21.2.422.01.017.105.176.126.206.275-.29-.187-.312-.192-.383-.002-.006-.05-.135c-.134-.36-.297-.71-.382-1.088l-.152-.558-.1-.57-.054-.283-.024-.29-.05-.578.004-.578v-.3c.003-.096.018-.193.027-.288l.058-.575.103-.567c.054-.382.188-.742.284-1.11.48-1.427 1.268-2.718 2.305-3.774l.4-.363c.134-.113.262-.254.4-.342l.405-.3.204-.153.734-.434.06-.036.03-.018.013-.007.096-.045.23-.11.46-.212.47-.172a8.91 8.91 0 0 1 3.705-.487c1.08.09 2.14.358 3.14.797l.644.315.583.33.968.697.4.33.328.315.286.275c.087.087.155.176.22.25l.405.46-.312-.533-.176-.288-.24-.33-.282-.385-.358-.402c-.243-.297-.565-.567-.9-.884l-.567-.442c-.195-.156-.423-.277-.645-.425-1.032-.634-2.165-1.067-3.345-1.28-.326-.077-.664-.1-1.01-.133-.345-.037-.7-.022-1.06-.033l-1.097.1c-.367.074-.75.113-1.118.232l-.565.16-.554.21-.28.1-.14.056-.163.082-.504.256-.254.128-.27.17-.548.358c-.192.117-.34.26-.512.392l-.5.41c-.625.598-1.236 1.252-1.72 2.017-.517.742-.908 1.583-1.232 2.454-.6 1.757-.825 3.71-.497 5.59l.13.703.2.686c.114.462.31.893.48 1.333l.065.163.027.06.01.018.2.39.395.643.197.28.255-.308-.138-.195"/><path d="M20.495 43.423l-.01-.017-.224-.412-.093-.208.005-.006-.1-.237a5.21 5.21 0 0 1-.297-.813l-.06-.202-.108-.38-.107-.557-.06-.3-.084-.906.007-.864c.002-.07.01-.14.02-.21l.075-.68.07-.367.038-.2c.044-.286.13-.55.21-.806l.1-.355a9.99 9.99 0 0 1 2.559-3.866l.268-.226.303-.25c.104-.1.21-.183.32-.244l.5-.344.18-.12.906-.497.54-.233.348-.145.503-.17a10.55 10.55 0 0 1 4.106-.499c1.193.09 2.39.373 3.48.82l.104.045-.11-.066c-1.067-.604-2.232-1.015-3.44-1.213-.21-.046-.438-.067-.678-.09l-.346-.034c-.222-.023-.455-.023-.7-.025-.13 0-.263 0-.395-.003l-1.08.09-.384.064-.776.158-.584.15-.37.128-.61.22-.963.45-.17.097-.69.416a2.57 2.57 0 0 0-.324.225l-.173.13-.177.133-.33.252c-.54.477-1.228 1.124-1.773 1.922-.47.62-.88 1.38-1.257 2.312-.655 1.77-.83 3.6-.512 5.288l.132.67.128.43.073.242c.086.32.22.627.36.952l.192.446.02.04.208.382.085.132.323.48.147.192.914-.957-.134-.203-.11-.172"/></g><g transform="translate(18 27.755)"><mask id="K" class="C"><use xlink:href="#E"/></mask><path d="M2.062 16.887l-.143-.2-.315-.5-.08-.136-.205-.397-.02-.043-.187-.462-.352-.988-.072-.25-.123-.448-.13-.694a9.95 9.95 0 0 1-.151-1.743c0-1.233.218-2.502.65-3.743.367-.968.768-1.757 1.223-2.4.533-.828 1.202-1.5 1.727-1.995l.32-.26.174-.14.168-.134.315-.233.673-.43.165-.1.937-.468.595-.228.36-.133.568-.16c.25-.077.496-.118.754-.163L9.29.376c.335-.048.698-.07 1.05-.092l.383.003.682.026.335.034.66.093c1.186.21 2.322.635 3.35 1.258l.11.07-.103-.048c-1.074-.466-2.22-.754-3.387-.85-1.354-.11-2.716.067-3.997.518l-.487.177-.338.15-.526.244-.882.513c-.074.048-.126.087-.176.126l-.488.357c-.103.065-.208.16-.31.254l-.295.26-.26.233C3.484 4.833 2.63 6.206 2.12 7.713l-.106.367c-.08.266-.163.542-.206.84l-.038.196-.07.38-.072.706-.02.216-.006.896.08.94.06.31.104.578.106.393.06.21c.066.292.18.573.29.845l.097.246-.005.006.09.215.217.428.01.018.107.18.13.21-.89.992" fill="url(#F)" mask="url(#K)" class="B"/></g><g transform="translate(15 26.755)"><mask id="L" class="C"><use xlink:href="#G"/></mask><path d="M28.806 4.43l-.445.38c-.132.117-.248.253-.387.357a1.58 1.58 0 0 1-.368.186l-.582.212-.104.083c-.07.085-.05.16.05.2a2.29 2.29 0 0 0 .275.095c.108.03.202-.02.29-.072l.533-.316c.153-.075.32-.123.487-.162.22-.05.448-.078.672-.116l.707-.12c.655-.108 1.203-.4 1.616-.948.123-.158.286-.264.445-.377l.358-.263c.08-.056.166-.103.25-.154l.036-.033-.008-.022-.224-.03-.122-.058c-.186-.196-.42-.222-.663-.197-.128.013-.254.046-.38.07-.086.017-.153-.03-.196-.093-.053-.08-.098-.164-.133-.253-.053-.134-.078-.283-.15-.407-.095-.163-.206-.315-.332-.455l-.654-.7c-.235-.238-.463-.49-.76-.65-.074-.04-.153-.07-.234-.1s-.114.02-.097.1c.02.112.02.114-.093.117l-.055.004c-.146-.003-.15.006-.144.152l-.05.116-.09.064c-.066.033-.096.087-.07.158a.61.61 0 0 1 .007.331c-.038.195-.014.396.066.577l.262.55c.118.246.202.504.238.777l.095.655.028.093c.066.135.05.128-.075.234" mask="url(#L)" class="B E"/><mask id="M" class="C"><use xlink:href="#H" href="#G"/></mask><path d="M12.42 28.476l-.62.106-1.982.117h-.575c-.136.01-.27.045-.406.05l-.597.002c-.014-.118-.055-.176-.19-.156-.062.008-.146-.06-.202-.113-.07-.066-.126-.145-.26-.09l.218.35h-.645l-.02-.037c.044-.038.093-.073.133-.115l.066-.108c-.044-.008-.104-.037-.133-.02-.092.057-.19.118-.25.204s-.136.107-.224.105l-.81-.033-1.967-.108-.775-.064c-.2-.022-.377-.066-.564-.106-.04-.008-.074-.04-.13-.075.202-.2.464-.143.706-.226-.216-.137-.45-.262-.42-.53.023-.22.137-.427.217-.658l-.418-.112c-.692-.175-1.315-.468-1.746-1.08-.28-.393-.443-.837-.493-1.316-.033-.33-.063-.67-.045-1.002.036-.696.234-1.355.508-1.99l.066-.083.013.145.007 1.115c.052.785.202 1.552.67 2.202.148.205.353.396.62.45.23.047.464.067.696.097.093.01.135-.027.125-.128-.02-.175-.048-.35-.038-.524l.114-1.33c.117-.84.442-1.612.82-2.36.334-.657.734-1.272 1.17-1.86.914-1.237 1.97-2.342 3.08-3.392l2.228-2.036 1.057-1.017c.275-.264.398-.613.505-.967l.42-1.514.33-1.6.324-1.338c.095-.322.218-.647.563-.8l.045-.083c0-.583.254-1.077.558-1.54.265-.4.577-.766.87-1.147.017-.022.044-.036.098-.078l.083.613.204 1.288c.02.14.1.16.21.153.738-.04 1.398.214 2.005.61.136.09.248.268.298.428.16.52.515.794 1.004.954l1.35.495.894.29c.316.1.454.522.273.8-.065.1-.095.23-.128.348a1.33 1.33 0 0 1-.873.947c-.692.257-1.406.294-2.13.317a7.7 7.7 0 0 0-.792.062c-.216.03-.265.103-.235.315l.2 1.335c.137.854.288 1.707.287 2.58 0 .405-.075.794-.17 1.186l-.3 1.4-.405 1.905-.355 2.282c-.05.333.07.64.136.958.15.706.242 1.418.306 2.137.056.637.1 1.28.256 1.902.06.225.168.38.412.424l.773.174c.356.064.426.327.406.62-.01.145-.14.17-.255.172l-.81.003c-.453 0-.906-.01-1.358.006a.39.39 0 0 1-.412-.268l-.345-.937-.335-1.366-.304-1.56-.243-1.327-.11-.74c-.007-.047-.022-.09-.04-.154l-.944.813c-.597.5-1.204.993-1.887 1.367-.14.077-.29.14-.442.185-.948-2.16-2.67-2.628-2.67-2.628l.693.596c.453.42.833.9 1.09 1.472.196.438.31.9.277 1.383-.048.72-.486 1.226-1.175 1.418l-.73.175.746.045c.35.027.712.02 1.052.1.447.105.78.4.977.833l.033.13c.01.067-.01.176.022.196.09.054.2.075.304.098l.445.086.085.086-.095.084v-.001zm.092-.132l-.076-.065-.233-.045-.232-.046c-.096-.022-.195-.042-.274-.09l-.008-.093-.003-.085c-.004-.047-.016-.094-.033-.138-.206-.45-.55-.744-.998-.85a4.17 4.17 0 0 0-.756-.084l-.298-.017-.517-.033h-.03l.042-.01.494-.12c.712-.2 1.148-.725 1.196-1.443.03-.45-.062-.908-.28-1.396-.24-.538-.598-1.022-1.096-1.482l-.475-.413-.102-.085c.43.166 1.736.8 2.512 2.562l.01.022.023-.007a2.32 2.32 0 0 0 .447-.186c.685-.377 1.287-.864 1.89-1.372l.64-.55.27-.234.004.016.022.094.04.278.07.464.243 1.327.06.32.243 1.238.336 1.37c.084.292.2.58.313.86l.033.08a.42.42 0 0 0 .438.286h.001l.566-.008 1.152.003.45-.004c.074 0 .27-.004.283-.197.027-.38-.114-.593-.43-.65l-.38-.086-.393-.088c-.208-.037-.324-.157-.4-.404-.14-.524-.186-1.074-.23-1.606l-.025-.3a17.84 17.84 0 0 0-.306-2.142l-.054-.225c-.06-.232-.12-.473-.082-.722l.095-.64.26-1.642.274-1.31.223-1.035.208-.948c.088-.368.17-.77.17-1.192 0-.792-.127-1.582-.25-2.345l-.04-.24-.2-1.333c-.014-.105-.008-.167.02-.205s.088-.062.2-.078c.262-.034.526-.055.8-.062.735-.022 1.452-.065 2.138-.318a1.36 1.36 0 0 0 .89-.966l.013-.048c.03-.102.057-.21.112-.292a.57.57 0 0 0 .052-.496c-.053-.163-.18-.292-.34-.346l-.22-.068-.673-.22-.55-.204-.8-.29c-.526-.173-.84-.47-.985-.937a.85.85 0 0 0-.309-.442c-.64-.416-1.25-.618-1.865-.618l-.158.004h-.035c-.086 0-.13-.018-.146-.128l-.122-.776-.083-.513-.056-.41-.033-.252-.088.067-.053.046-.26.332-.6.816c-.28.422-.564.936-.564 1.555l-.03.056c-.357.158-.48.49-.577.82l-.325 1.34-.137.68-.19.92-.42 1.512c-.102.337-.223.69-.497.954l-.36.35-.696.668-.9.826-1.32 1.21c-1.298 1.226-2.277 2.304-3.084 3.395a13.2 13.2 0 0 0-1.173 1.866c-.337.663-.7 1.462-.825 2.37-.06.44-.088.89-.114 1.33a2.28 2.28 0 0 0 .024.416l.012.113-.013.083-.06.016h-.02l-.192-.025-.502-.073c-.223-.045-.427-.192-.603-.438-.508-.706-.622-1.54-.665-2.188l-.01-.748.002-.363-.007-.09-.012-.125-.043.05-.034.04-.038.05c-.31.723-.477 1.378-.51 2-.017.338.013.683.046 1.007a2.76 2.76 0 0 0 .497 1.33c.378.533.937.88 1.762 1.1l.39.103-.07.18c-.062.155-.122.3-.138.455-.028.262.18.395.38.523a1.72 1.72 0 0 1-.193.033c-.16.022-.325.045-.464.18l-.027.027.032.02.05.033.088.045.08.018.486.09.777.064 1.967.107.81.033h.02c.092.006.18-.04.23-.117.068-.083.154-.15.25-.196l.056.01v.003.002l-.044.067-.088.078-.04.035v.052l.02.035h.714l-.225-.364.04-.006c.055 0 .09.035.133.076l.024.025c.088.08.155.12.223.12h.002l.042-.003c.074 0 .104.033.115.136l.003.025.387.002.237-.004c.07-.004.14-.013.2-.026l.196-.023.29-.007.284-.006.126-.007 1.856-.112c.175-.01.348-.048.517-.084l.106-.022.082-.06.027-.03.022-.02-.02-.02-.022-.03h-.001z" fill="#70c8e6" mask="url(#M)" class="B"/><mask id="N" class="C"><use xlink:href="#I" href="#G"/></mask><path d="M12.43 28.307l-.445-.086c-.104-.022-.213-.045-.303-.098-.033-.02-.014-.13-.024-.196l-.032-.13c-.198-.435-.53-.728-.977-.833-.34-.08-.7-.074-1.052-.1l-.746-.045.73-.175c.69-.192 1.127-.697 1.175-1.417.033-.485-.082-.946-.276-1.383-.256-.573-.636-1.054-1.1-1.473l-.693-.596s1.723.468 2.673 2.628a2.4 2.4 0 0 0 .441-.185c.683-.376 1.3-.867 1.887-1.367l.944-.814.04.156.11.74.243 1.327.303 1.558.335 1.365c.092.32.22.63.345.937.073.18.2.276.412.268l1.358-.004.81-.003c.116-.002.245-.026.254-.172.02-.292-.05-.555-.405-.62l-.774-.174c-.243-.044-.35-.2-.41-.424-.166-.622-.2-1.265-.256-1.902-.06-.718-.16-1.432-.306-2.137-.066-.317-.187-.625-.136-.958l.355-2.282.405-1.905.3-1.4c.095-.4.17-.78.17-1.186 0-.87-.15-1.724-.287-2.58l-.2-1.335c-.03-.212.02-.286.235-.315a7.7 7.7 0 0 1 .792-.062c.723-.022 1.437-.06 2.13-.317.46-.17.74-.477.873-.947.033-.12.063-.248.128-.348a.55.55 0 0 0-.273-.799l-.894-.29-1.35-.495c-.49-.16-.842-.435-1.004-.954a.83.83 0 0 0-.298-.428c-.608-.395-1.267-.65-2.005-.61-.122.008-.2-.01-.2-.153l-.206-1.288-.083-.613c-.054.042-.082.056-.1.078l-.87 1.148c-.304.46-.558.955-.558 1.538l-.045.083c-.345.153-.468.477-.563.8-.13.438-.227.89-.324 1.337l-.328 1.6-.42 1.514c-.106.354-.23.703-.505.967l-1.057 1.017-2.228 2.036c-1.11 1.05-2.166 2.155-3.08 3.39-.437.59-.837 1.205-1.17 1.863-.38.747-.704 1.518-.82 2.36-.06.44-.087.886-.114 1.328-.01.174.02.35.038.524.01.103-.032.142-.125.13l-.696-.097c-.267-.054-.472-.244-.62-.45-.47-.65-.62-1.417-.672-2.203-.024-.37-.006-.742-.007-1.113 0-.04-.007-.08-.013-.146l-.066.083c-.274.636-.472 1.294-.508 1.99-.018.332.01.67.045 1.003a2.74 2.74 0 0 0 .492 1.315c.432.61 1.056.903 1.746 1.08l.42.11c-.08.232-.193.44-.217.658-.03.268.206.393.42.53-.24.084-.503.026-.705.226.055.033.09.067.13.075l.564.106.777.064 1.967.107.807.033c.1.003.162-.014.225-.104s.157-.147.248-.204c.03-.018.088.01.135.02l-.066.108c-.04.042-.088.077-.134.115l.02.037h.645l-.218-.35c.135-.056.2.023.26.09.055.052.14.12.202.112.133-.02.175.04.188.157l.598-.002c.136-.006.27-.04.406-.05l.575-.012 1.98-.117c.21-.014.414-.064.62-.105l.095-.084-.085-.086" mask="url(#N)" class="B F"/><mask id="O" class="C"><use xlink:href="#J" href="#G"/></mask><path d="M41.674 28.43c-.156.042-.315.087-.475.105l-1.533.136-1.13.078-1.492.03c-.657.003-1.312.013-1.967-.006l-2.24-.115c-.41-.032-.813-.116-1.218-.2-.14-.026-.3-.054-.365-.263l.883-.062v-.022c-.393 0-.788.003-1.183-.001a2.6 2.6 0 0 1-.43-.039c-.27-.05-.376-.245-.254-.497.214-.444.58-.697 1.054-.753l1.212-.097-.168-.042c-.564-.118-1.058-.352-1.266-.948-.137-.39-.103-.798.007-1.193.162-.587.47-1.07.862-1.492.38-.346.906-.655 1.64-.86 0 0-2.078-.013-2.68 2.17 0 0-.064-.668-.503-.906a4.11 4.11 0 0 0 .266.707l.083.43.006.047.002.027a2.04 2.04 0 0 1 0 .26c-.034.308-.168.595-.307.87-.258.5-.372 1.052-.45 1.612-.092.667-.086.56-.62.563a98.25 98.25 0 0 1-1.282-.003c-.298-.002-.385-.138-.244-.405.113-.214.232-.42.507-.474.22-.042.313-.245.37-.437l.35-1.338c.126-.7.224-1.41.122-2.12-.064-.477-.165-.95-.304-1.4-.32-1.028-.597-2.056-.62-3.15a4.83 4.83 0 0 1 .529-2.384c.136-.264.246-.547.16-.862-.07-.254-.16-.346-.424-.368l-.81-.045-.432-.022c-.447-.016-.632-.365-.84-.685-.133-.205-.175-.466-.39-.628-.042-.03-.03-.207.015-.277l.632-.888a.57.57 0 0 0 .104-.261l.072-1.082c.036-.445.286-.764.638-.988.287-.183.6-.328.907-.472.185-.086.24-.137.2-.345l-.165-.694c-.07-.257.043-.393.3-.348.463.078.87.283 1.103.706.143.257.332.393.6.44.608.112 1.008.507 1.3 1.02.32.584.603 1.19.873 1.802l.94 2.236c.318.692.87 1.182 1.482 1.608l1.536 1.13c.497.428.834 1 1.123 1.594l.057.048-.16-.555-.233-.996c-.18-.9-.304-1.804-.22-2.73.054-.617.167-1.2.45-1.76.335-.645.848-1.06 1.53-1.294.895-.308 1.868.2 2.316.9a1.46 1.46 0 0 1-.338 1.949c-.202.15-.43.185-.663.187-.573.004-.88.505-.938.937a2.53 2.53 0 0 0 .104 1.135l.88 2.652c.28.826.537 1.66.676 2.524.136.834.165 1.672-.028 2.5-.35 1.5-1.165 2.632-2.537 3.32l-.26.123-.26.115c1.21.052 2.405.036 3.572.328.053.013.1.056.19.107-.096.055-.15.1-.212.118zm.144-.194l-.117-.06c-.956-.24-1.91-.27-2.917-.305l-.537-.02.146-.066.262-.123c1.334-.67 2.192-1.792 2.552-3.338.172-.745.18-1.566.028-2.513-.144-.892-.41-1.742-.678-2.53l-.88-2.652a2.49 2.49 0 0 1-.103-1.123c.06-.436.37-.908.91-.912.2-.001.455-.025.68-.193a1.49 1.49 0 0 0 .346-1.986c-.38-.596-1.096-.996-1.78-.996-.195 0-.387.03-.57.094-.71.244-1.216.67-1.546 1.308-.25.48-.4 1.026-.455 1.77-.088.995.062 1.943.22 2.738l.223.956.01.04.108.38.008.025c-.255-.515-.586-1.086-1.1-1.52a14.62 14.62 0 0 0-1.28-.953l-.26-.178c-.506-.35-1.13-.85-1.473-1.597l-.516-1.22-.423-1.015-.874-1.804c-.327-.596-.755-.934-1.31-1.035a.78.78 0 0 1-.571-.426c-.214-.387-.592-.63-1.123-.72l-.094-.008c-.095 0-.168.03-.212.09-.052.07-.06.174-.025.303l.164.692c.035.188-.006.23-.185.313l-.91.473c-.398.254-.617.593-.65 1.01l-.033.51-.04.574a.54.54 0 0 1-.099.246l-.263.366-.37.522c-.05.072-.07.27-.01.317.135.1.2.24.265.388.034.078.07.16.118.232l.048.075c.2.3.387.608.813.625l.287.014.396.02.557.03c.244.022.332.096.4.348.084.307-.025.584-.158.84-.378.736-.553 1.52-.532 2.398.023 1.044.265 2.02.62 3.16a8.88 8.88 0 0 1 .304 1.404c.106.737-.007 1.477-.122 2.1-.075.42-.202.84-.324 1.246l-.027.09c-.052.174-.138.377-.35.418-.28.056-.403.254-.527.49-.073.14-.087.25-.043.327s.15.12.313.12l.897.003h.406l.17.002.105.002c.272 0 .284-.1.353-.593.066-.49.172-1.06.445-1.6.138-.272.276-.566.31-.88a1.89 1.89 0 0 0-.001-.292l-.006-.05-.084-.434c-.06-.213-.134-.42-.225-.622.348.26.407.825.408.83l.055.006c.466-1.7 1.827-2.056 2.398-2.13-.52.163-.998.433-1.408.793-.435.473-.72.965-.87 1.504-.127.463-.13.86-.007 1.212.233.666.8.867 1.287.966l.017.003-.475.033-.584.045a1.32 1.32 0 0 0-1.077.77c-.062.13-.07.25-.022.346s.153.167.296.193a2.58 2.58 0 0 0 .435.039l.507.003h.17l-.416.028.01.036c.07.224.244.257.387.283l.19.035 1.03.154 2.24.115.905.01.763-.003.3-.002 1.494-.03.987-.067h.146l1.533-.136c.154-.016.305-.058.48-.105.044-.012.083-.038.133-.07l.085-.052.044-.025-.044-.026-.082-.05z" fill="#37aad5" mask="url(#O)" class="B"/><mask id="P" class="C"><use xlink:href="#K" href="#G"/></mask><path d="M38.286 25.35l.166-.767c.25-.966.296-1.978.144-3.1l-.166-.824-.033-.143.077.163.437.905.175.344.32.668c.295.735.345 1.402.153 2.04-.157.52-.63.898-1.123.898-.088 0-.14-.004-.157-.026s-.01-.076.008-.167v.001zm.15.22c.508 0 1-.4 1.15-.917.214-.708.114-1.394-.154-2.06-.14-.348-.33-.675-.495-1.013l-.62-1.287.252 1.202c.14 1.034.12 2.063-.14 3.078l-.168.77c-.04.207-.022.225.177.225z" fill="#37aad5" mask="url(#P)" class="B"/><mask id="Q" class="C"><use xlink:href="#L" href="#G"/></mask><path d="M38.26 25.344l.168-.77c.26-1.015.283-2.045.14-3.078-.055-.402-.166-.795-.252-1.202l.62 1.287.495 1.013c.267.665.368 1.35.155 2.06-.16.525-.642.917-1.15.917-.2 0-.218-.018-.177-.225zm-.136 2.532l.26-.114.26-.123c1.372-.688 2.188-1.82 2.537-3.32.192-.83.164-1.666.028-2.5-.14-.863-.396-1.698-.676-2.524l-.88-2.652a2.53 2.53 0 0 1-.104-1.137c.057-.43.365-.93.938-.937.232 0 .46-.036.663-.186a1.46 1.46 0 0 0 .338-1.949c-.448-.7-1.42-1.198-2.316-.89-.683.234-1.196.65-1.53 1.295-.284.55-.398 1.142-.452 1.76-.082.927.042 1.83.222 2.73l.232.996.16.555-.057-.048c-.287-.594-.626-1.166-1.122-1.595-.48-.414-1.015-.765-1.536-1.13-.613-.426-1.165-.917-1.483-1.608l-.94-2.236-.873-1.802c-.282-.513-.68-.91-1.3-1.02-.255-.042-.475-.206-.6-.44-.234-.424-.64-.627-1.103-.706-.258-.045-.37.093-.3.348l.165.694c.04.207-.017.26-.2.346l-.906.47c-.353.224-.602.543-.64.988l-.072 1.082a.57.57 0 0 1-.104.261l-.632.888c-.045.07-.057.245-.015.277.214.162.258.423.4.628.207.32.392.67.84.686l.43.022.8.045c.265.022.354.112.424.368.088.315-.022.596-.16.86a4.83 4.83 0 0 0-.531 2.384c.027 1.095.3 2.123.622 3.15.143.457.237.934.304 1.41.103.712.004 1.42-.122 2.12-.082.454-.22.898-.35 1.34-.057.19-.15.395-.37.437-.275.055-.395.26-.508.474-.14.268-.054.403.246.405l1.28.003c.535-.003.53.104.62-.563.077-.56.19-1.102.45-1.61.14-.277.273-.563.306-.87.007-.087.007-.174 0-.26l-.001-.027-.006-.047-.083-.43c-.107-.396-.265-.707-.265-.707.438.238.502.906.502.906.6-2.184 2.68-2.17 2.68-2.17-.735.206-1.26.516-1.64.86-.392.424-.7.906-.862 1.49-.11.397-.144.805-.008 1.195.208.596.7.83 1.266.948.056.01.112.028.168.042l-1.212.097c-.475.056-.84.31-1.054.753-.122.25-.017.448.254.497a2.66 2.66 0 0 0 .431.039h1.183l-.001.023-.883.062c.065.2.224.238.365.263l1.218.2 2.24.115 1.967.006 1.492-.03 1.13-.078 1.533-.136c.16-.018.32-.062.475-.105.062-.017.116-.064.212-.118-.092-.052-.138-.094-.19-.107-1.167-.292-2.36-.276-3.572-.328v-.001z" mask="url(#Q)" class="B F"/></g><g class="B"><path d="M32.05 53.674c.05.11.132.205.234.29.127.106.29.194.472.266.206.08.438.14.68.182.474.08.98.088 1.37.04 0 0 1.635.548 3.77.165 0 0-1.323-.468-1.318-1.67 0 0 .243 1.1 1.47 1.438s2.755.26 2.65-.11-.65-.41-.848-1.164c0 0-.165-1.192 1.393-1.178s1-.78 1.045-1.343-.32-1.206-1.27-1.397c0 0-.273-1.987-2.65-2.438 0 0-.29 1.073 1.273 1.89 0 0-.754-.16-1.26-.795-.393-.144-1.127-.297-1.784.204 0 0 .287.972 2.134 1.78 0 0-2.574-1.19-4.45-.205s-1.937 2.6-1.937 2.6-.603.353-.882.8c-.128.205-.187.432-.086.65zm34.875-4.928c.502-.23.772-.625.772-.995 0-.514-.51-.995-1.647-.995-1.46 0-2.807.795-2.807 1.658 0 .42.318.576.827.576-.007-.056-.107-.106-.107-.425 0-1.032 1.028-1.52 1.933-1.52.735 0 1.02.32 1.02.676 0 .47-.495 1.014-1.114 1.014h-.046l.364-1.39-1.146.125-1.052 3.98h1.114l.634-2.397.356-.02c.565 0 .735.357.735.795 0 .475-.202 1.126-.765 1.126-.18 0-.326-.062-.518-.225-.06.114-.096.237-.1.363 0 .38.433.463.766.463 1.29 0 1.694-1.202 1.694-1.802 0-.47-.256-.9-.913-1.008h.001zm14.55 2.34c-.304 0-.422-.137-.422-.418.034.06.118.077.187.077a.3.3 0 0 0 .303-.291c0-.09-.062-.173-.16-.208.228-.382.422-.74.56-1.127l.13 1.412c0 .418-.298.555-.6.555zm-6.114-.632c-.083.346-.373.524-.573.524-.124 0-.345-.006-.345-.465 0-.56.38-1.632.967-1.632.22 0 .283.154.283.226l-.332 1.347zm-5.603-1.65c.132 0 .173.096.173.245 0 .494-.47.953-1.002.983.138-.59.476-1.227.83-1.227zm15.752 0c.132 0 .173.096.173.245 0 .5-.47.96-1.01.983.144-.566.49-1.227.836-1.227zm.706.257c0-.298-.146-.572-.76-.572-1.318 0-1.797 1.24-1.86 1.966h-.047a3.92 3.92 0 0 1-.497.298.79.79 0 0 0 .028-.227c0-.394-.07-.625-.152-2.17l-1.023.12c-.214.585-.463 1.174-.85 1.763-.108.05-.197.123-.258.215h-.023c-.104.298-.29.524-.56.524-.194 0-.283-.054-.283-.22 0-.053.007-.113.028-.2l.497-2.026h-.995l-.47 1.912c-.103.298-.282.524-.552.524-.152 0-.207-.108-.207-.244a.7.7 0 0 1 .021-.167l.497-2.026h-.996l-.47 1.912h-.137c-.104.298-.3.56-.56.56-.193 0-.283-.1-.283-.256a.72.72 0 0 1 .028-.192l.496-2.026h-.995l-.075.317v-.042c0-.173-.165-.304-.56-.304-1.134 0-1.708 1.14-1.77 1.943h-.054c-.345.34-.677.602-1.224.602-.33 0-.496-.096-.496-.5 0-.66.45-1.75.884-1.75.13 0 .193.096.193.244 0 .102-.028.22-.083.35.083.048.165.072.243.072.2 0 .366-.144.366-.436 0-.274-.152-.547-.767-.547-1.306 0-1.79 1.237-1.853 1.966h-.055c-.345.34-.676.602-1.222.602-.332 0-.498-.096-.498-.5 0-.07.008-.154.014-.238.83-.04 1.59-.572 1.59-1.258 0-.298-.144-.57-.76-.57-1.416 0-1.865 1.436-1.865 2.122 0 .672.428.947 1.077.947.788 0 1.332-.408 1.72-.87.033.614.45.87 1.072.87.788 0 1.332-.408 1.72-.87.037.637.463.87.912.87.49 0 .816-.274 1.03-.547.04.357.3.547.677.547.313 0 .8-.1 1.18-.7.007.5.33.7.74.7.3 0 .677-.077 1.022-.566.042.37.29.566.684.566.28 0 .704-.075 1.063-.525.107.28.4.525.962.525.353 0 .795-.096 1.085-.357a4.32 4.32 0 0 0 .814-.525c.028.623.444.883 1.065.883.552 0 1.05-.203 1.196-.883-.222.167-.554.317-.816.317-.243 0-.43-.12-.43-.495 0-.054.008-.12.014-.18.83-.04 1.59-.566 1.59-1.258l.001.001zm4.585-2.304c-1.308 0-2.748.813-2.748 1.664 0 .46.298.62.838.62-.008-.058-.1-.108-.1-.435 0-.973.76-1.555 2.028-1.555.688 0 .97.396.97.87 0 .684-.58 1.523-1.37 1.574l.556-2.138-1.158.128-1.066 4.07h1.128l.477-1.824h.04c1.41 0 2.26-.902 2.26-1.715 0-.66-.562-1.26-1.846-1.26zm7.52 4.324c-.316 0-.44-.138-.44-.42.036.06.125.08.196.08.187 0 .318-.15.318-.296 0-.093-.066-.177-.165-.21.238-.385.44-.746.584-1.138l.138 1.427c0 .422-.31.56-.63.56h-.001zm-3.668-2.307c.138 0 .18.096.18.248 0 .5-.49.963-1.048.994.146-.596.498-1.24.867-1.24zm4.116-.33c-.225.6-.485 1.187-.89 1.783-.112.048-.206.124-.27.217h-.025c-.108.3-.368.53-.65.53-.202 0-.296-.055-.296-.224a.71.71 0 0 1 .029-.192l.462-1.808h.433l.057-.24h-.432l.246-.952-1.07.12-.217.83h-.237l-.058.24h.238l-.433 1.692h-.143c-.36.344-.708.61-1.28.61-.346 0-.52-.096-.52-.506 0-.072.007-.156.014-.24.867-.043 1.662-.58 1.662-1.272 0-.3-.152-.578-.794-.578-1.482 0-1.952 1.45-1.952 2.145 0 .68.45.957 1.127.957.86 0 1.44-.448 1.85-.94a1.31 1.31 0 0 0-.022.218c0 .506.34.723.772.723a1.5 1.5 0 0 0 1.172-.54c.11.288.426.54 1.01.54.592 0 1.445-.26 1.445-1.043 0-.397-.072-.632-.16-2.193l-1.07.12zm6.214.54c-.264-.1-.54-.176-.82-.228.376-.726.807-1.33 1.21-1.536l-.4 1.763zm.915-2.224c-.787 0-1.662.875-2.34 1.912l-.35-.02c-.794 0-1.373.355-1.373.797 0 .252.19.376.418.376.208 0 .376-.098.376-.253 0-.1-.054-.2-.087-.2.088-.22.37-.31.786-.337-.584.992-.988 2.054-.988 2.638 0 .674.538.687.9.687-.04-.06-.094-.156-.094-.364 0-.674.37-1.906.874-2.962a2.7 2.7 0 0 1 .901.233l-.518 2.352h.97l1.056-4.77a1.54 1.54 0 0 0-.531-.091zm2.843 1.6c-.3 0-.556.204-.782.396l.084-.396h-.93l-.684 3.2h.93l.516-2.432c.16-.148.278-.244.47-.244s.013.422.375.422c.316 0 .465-.243.465-.467 0-.243-.154-.48-.445-.48zm2.46.33c.14 0 .183.1.183.255 0 .52-.494 1-1.06 1.024.152-.59.515-1.28.877-1.28zm.74.267c0-.3-.153-.596-.798-.596-1.488 0-1.958 1.498-1.958 2.212 0 .702.45.99 1.125.99.58 0 1.103-.21 1.255-.92-.233.173-.58.328-.857.328-.254 0-.45-.125-.45-.516 0-.056.008-.125.014-.186.87-.043 1.67-.6 1.67-1.31zm4.3-.276l.323-1.273c.354.063.723.12 1.077.12.6-.108.623-.5.73-.768a2.71 2.71 0 0 1-.692.077c-.485 0-.97-.077-1.278-.077-1.9 0-2.624.813-2.624 1.664 0 .46.293.62.824.62-.008-.058-.107-.108-.107-.435 0-1.024.408-1.306 1-1.325l-1.108 4.275h1.108l.623-2.406h1.125l.12-.474h-1.123zm11.32-1.518c0 .222.203.398.457.398s.46-.18.46-.4-.206-.4-.46-.4c-.122.001-.24.043-.325.12s-.133.178-.132.284zm4.557 5.013c-.1.348-.272.46-.412.46-.154 0-.28-.112-.28-.195 0-.32.336-.5.776-.614l-.084.348zm-12.7-1.544c-.083.342-.377.518-.58.518-.126 0-.35-.006-.35-.46 0-.553.385-1.614.98-1.614.224 0 .287.153.287.224l-.336 1.332zm13.085 0c-.105.295-.287.518-.56.518-.16 0-.2-.124-.2-.26 0-.048.007-.1.02-.148l.503-2.003h-1.007l-.476 1.89h-.14c-.105.296-.357.52-.63.52-.196 0-.288-.053-.288-.218a.7.7 0 0 1 .028-.189l.805-3.182-1.035.117-.75 2.954h-.14c-.105.295-.357.518-.63.518-.197 0-.288-.053-.288-.218a.7.7 0 0 1 .028-.189l.504-2.003h-1.008l-.475 1.89h-.138c-.154.307-.28.52-.59.52-.2 0-.28-.1-.28-.248 0-.33.336-1.043.336-1.52 0-.47-.33-.666-.776-.666-.26 0-.637.065-.973.5-.077-.365-.35-.507-.72-.507-.328-.005-.64.118-.853.336l.077-.307h-1.008l-.476 1.893h-.138c-.105.295-.293.554-.567.554-.195 0-.287-.088-.287-.253a.7.7 0 0 1 .028-.189l.505-2.003H119.9l-.077.312v-.04c0-.17-.168-.3-.567-.3-1.217 0-1.797 1.267-1.797 2.064 0 .7.454.948.93.948.496 0 .827-.272 1.043-.542.042.353.293.542.685.542.298 0 .75-.087 1.125-.59l-.14.556h1.008l.476-1.892c.105-.295.293-.548.567-.548.153 0 .2.13.2.26a.5.5 0 0 1-.022.148l-.51 2.033h1.007l.476-1.892c.105-.295.293-.542.546-.542.168 0 .25.106.25.3 0 .377-.314 1.102-.314 1.503 0 .336.216.666.825.666.31 0 .732-.093 1.092-.68.013.474.335.68.747.68a1.47 1.47 0 0 0 1.259-.701c.003.5.33.7.748.7a1.47 1.47 0 0 0 1.259-.701c.003.5.33.7.75.7a1.17 1.17 0 0 0 .852-.343l-.07.26c-.665.166-1.2.336-1.2.885 0 .383.398.636.825.636.462 0 1.064-.16 1.274-1.002l.853-3.418h-1.014l-.476 1.89z" class="E"/><g class="D"><path d="M147.088 30.788c.67-.06.855.307 1.396.76s1.022.074 1.37-.278.592-.9.305-1.33-.28-.45-.476-1.692-.815-1.38-.815-1.38l-.036-.03c-.573-.28-.864.242-1.084.6s-.3.6-1.143.69c-.998.116-.713 2.784.483 2.674m3.23-1.282c.093.254.33.262.467.242.185-.026.393-.13.583-.294.507-.434.718-1.1.597-1.45-.094-.266-.36-.26-.47-.244a1.13 1.13 0 0 0-.525.246c-.545.428-.78 1.135-.65 1.5m-3.957-1.763l.096.01c.192-.032.36-.394.392-.842.043-.574-.14-1.037-.334-1.136a.18.18 0 0 0-.113-.019c-.144.024-.318.247-.382.695-.082.577.08 1.194.34 1.292"/><path d="M150.5 26.752c.192-.017.416-.1.63-.235.66-.415 1.036-1.186.776-1.584-.09-.137-.223-.192-.425-.174-.283.024-.624.2-.908.442-.538.477-.686 1.08-.518 1.368.082.14.232.202.444.184m-1.15-1.002c.13-.028.275-.163.394-.37.288-.504.332-1.25.092-1.536-.06-.072-.13-.1-.206-.084-.178.037-.377.276-.504.61-.204.526-.155 1.08.007 1.29.06.08.132.108.216.1"/></g></g><g transform="translate(26 .755)"><mask id="R" class="C"><use xlink:href="#H"/></mask><path d="M19.75 16.422c1.545.46 2.665-.897 3.192-1.746.728-1.17 1.2-2.77 1.337-4.503.368-4.61-1.64-8.408-3.75-9.06-1.613-.498-2.79 1.067-3.222 1.76-.658 1.06-1.103 2.436-1.283 3.98-.563 4.8 1.514 8.897 3.724 9.57m-15.114.84c1.04.497 1.974.27 2.778-.675.728-.857 1.257-2.225 1.485-3.86C9.603 7.693 7.365 1.693 4.293.377 3.25-.07 2.408.14 1.648 1.033.578 2.292-.028 4.6.024 7.206.127 12.11 2.5 16.243 4.636 17.263" mask="url(#R)" class="B D"/></g><path d="M17.616 22.72c.876-.13 1.5-.596 1.905-1.417.624-1.258.638-3.15.042-5.18-1.47-4.92-5.98-8.954-9.283-8.298-.853.17-1.446.61-1.814 1.358-.845 1.705-.523 4.567.818 7.3 2.138 4.31 5.988 6.598 8.332 6.247" class="B D"/></g></g></svg>