<svg xmlns="http://www.w3.org/2000/svg" xmlns:xlink="http://www.w3.org/1999/xlink" width="500" height="80"><defs><path id="A" d="M0 .114h501.002v79.012H0z"/><path id="B" d="M21.515 42.437V.002H.065v42.435h21.45z"/><path id="C" d="M19.674 26.658l-.01.258-.007.11-.046.372c-.288 1.73-1.398 2.988-2.483 2.802a1.46 1.46 0 0 1-.176-.043l-.04-.015a1.343 1.343 0 0 1-.36-.195.858.858 0 0 1-.176-.155 1.57 1.57 0 0 1-.092-.097l-.04-.048a1.437 1.437 0 0 1-.1-.138.737.737 0 0 1-.05-.078 1.535 1.535 0 0 1-.06-.098l-.074-.138-.043-.095a.744.744 0 0 1-.045-.109 3.117 3.117 0 0 1-.098-.285c-.006-.03-.016-.056-.023-.082l-.034-.135a4.614 4.614 0 0 1-.035-1.76c.288-1.734 1.396-2.99 2.483-2.803.402.068.742.324.997.706.054.08.102.167.15.254.004.015.01.022.016.034l.102.237.024.068.077.237.018.067a4.45 4.45 0 0 1 .112.663l.005.087.01.264v.116zm-3.594 6.4l-.002.016a1.02 1.02 0 0 1-.019.15c-.002.01-.002.017-.005.024a2 2 0 0 1-.096.34 2.453 2.453 0 0 1-.06.141 2.789 2.789 0 0 1-.072.123l-.017.025a.52.52 0 0 1-.064.084c-.007.007-.014.017-.02.027l-.1.087c-1.183.955-2.213-.493-3.08-.447-.516.026-.604.224-1.762.614l-.248.082a.735.735 0 0 1-.114.026c-.016.006-.033.006-.05.01l-.07.007c-.026.005-.05.003-.076.005-.02 0-.036.003-.055.003-.033 0-.067-.003-.1-.005-.012.002-.02 0-.033 0-.04-.003-.08-.01-.124-.017H9.9c-.525-.087-1.084-.438-1.23-1.112l-.02-.133-.006-.04-.007-.087c-.002-.012-.002-.024-.002-.04a.589.589 0 0 1 0-.084v-.032c0-.034.002-.07.007-.106a.786.786 0 0 1 .019-.101.443.443 0 0 1 .024-.097c0-.01.005-.022.01-.03.006-.026.016-.05.026-.077a1.567 1.567 0 0 1 .056-.118l.034-.063c.005-.007.01-.014.014-.024l.038-.056c.005-.005.01-.014.015-.022L9 31.99c.005-.01.012-.017.017-.024.017-.015.03-.034.043-.048.007-.008.014-.017.023-.025.012-.017.027-.03.04-.048l.022-.022c.005-.007.012-.012.017-.02l.112-.122c.21-.225.404-.465.48-.798.18-.798.876-3.294 2.367-3.545.535-.092.96-.072 1.318.078v.002c.23.097.435.25.625.464v.003l.105.128a1.35 1.35 0 0 1 .102.145l.015.02.104.164c.376.633.485 1.2.712 2.413.02.113.07.244.14.377.202.406.556.867.706 1.163a1.36 1.36 0 0 1 .138.604 1.02 1.02 0 0 1-.005.157zM8.593 25.44a4.509 4.509 0 0 1-.774-1.73c-.385-1.715.174-3.3 1.247-3.552.418-.095.85.03 1.25.314l.1.075c.02.02.043.038.066.056l.136.125.06.06.104.114.046.054.13.17.045.063c.046.062.086.125.126.193a3.769 3.769 0 0 1 .129.225c.012.017.02.04.03.058l.112.227c.004.017.014.034.02.05l.1.225c.004.014.01.026.013.038.034.087.06.175.088.267l.017.055.07.283c.386 1.714-.173 3.305-1.246 3.55a1.1 1.1 0 0 1-.18.027l-.04.005a1.5 1.5 0 0 1-.176-.003l-.03-.004c-.054-.005-.1-.015-.153-.025-.015-.002-.03-.007-.048-.01a1.415 1.415 0 0 1-.219-.075l-.12-.058a.38.38 0 0 1-.057-.027l-.145-.087-.076-.053a2.608 2.608 0 0 1-.212-.172l-.072-.065a2.544 2.544 0 0 0-.087-.087l-.053-.06a2.495 2.495 0 0 1-.145-.17l-.047-.058zM6.96 30.41a1.12 1.12 0 0 1-.18.027l-.042.002a.827.827 0 0 1-.176-.002h-.028l-.155-.03c-.014-.004-.03-.006-.043-.01a1.373 1.373 0 0 1-.22-.075 1.778 1.778 0 0 1-.127-.056l-.053-.026-.15-.1-.068-.048-.102-.075a4.671 4.671 0 0 0-.105-.09 2.174 2.174 0 0 0-.084-.079c-.028-.024-.052-.053-.078-.078a1.338 1.338 0 0 1-.078-.086 2.417 2.417 0 0 1-.117-.14 1.587 1.587 0 0 1-.135-.182h-.003a4.581 4.581 0 0 1-.692-1.615c-.383-1.714.173-3.303 1.247-3.552.396-.092.808.015 1.19.27.02.01.04.027.06.04l.107.08c.02.018.04.032.062.05l.138.13.057.058.105.116.045.05.13.168.048.065.124.19c.01.014.016.03.026.04l.102.185.034.06.1.228a.976.976 0 0 0 .02.055l.088.218.017.046.086.26c.007.017.012.042.017.06l.073.28c.386 1.715-.176 3.303-1.248 3.552zm7.383-10.867c.404.014.778.225 1.08.568a2 2 0 0 1 .178.234c.01.01.014.02.02.03l.134.222a.89.89 0 0 1 .035.065l.103.222.028.068c.08.2.145.413.195.638l.017.087a3.838 3.838 0 0 1 .057.373l.024.258.004.112c.008.12.008.246.005.375-.062 1.754-1.004 3.147-2.103 3.11a1.488 1.488 0 0 1-.178-.025c-.017 0-.028-.004-.043-.01a.914.914 0 0 1-.171-.045c-.007-.002-.017-.008-.026-.012-.05-.017-.093-.04-.14-.063-.015-.007-.03-.012-.043-.022a1.593 1.593 0 0 1-.298-.215l-.047-.04c-.043-.04-.08-.082-.12-.124l-.06-.067a2.392 2.392 0 0 0-.073-.095l-.086-.123a2.696 2.696 0 0 0-.057-.09l-.057-.1a2.393 2.393 0 0 1-.133-.268c-.015-.028-.024-.06-.036-.086a20.827 20.827 0 0 0-.05-.123v-.005a4.572 4.572 0 0 1-.262-1.738c.062-1.758 1.002-3.148 2.1-3.1zm4.115-7.998l-13.04-1.85-3.102 6.806V39.6l18.863 2.847v-22.75l.338-1.994V8.368l-3.06 3.18zm3.06-10.186L10.612.002l-2.276.58-.05-.007-8.22 6.402L17.56 9.465l3.956-3.9V1.362z"/></defs><g fill="none" fill-rule="evenodd" transform="translate(.332)"><mask id="D" fill="#fff"><use xlink:href="#A"/></mask><g mask="url(#D)" opacity=".057"><path fill="#fff" d="M175.573 49.26c-1.4-.405-.323-1.553 1.185-1.37 1.82.218 2.603-1.893 3.05-1.366s-.967 3.692-4.235 2.736m-34.196-23.014c.118.374.27.733.44 1.08-1.1-.97-2.004-2.086-2.443-3.416-1.306-3.962 2.963-7.494 6.34-5.25-3.118.58-5.548 3.836-4.336 7.585m-4.42.08c-2.293.418-2.688 3.097-3.25 2.694s.214-3.933 3.21-3.926c1.457.005 1.58.952.04 1.232m44.36 16.944c-.322-.842-1.32-3.036-3.402-3.21-5.4-.455-5.84 2.547-9.798.56-2.803-1.408-9.702-5.065-14.53-9.664-4.125-3.925-2.896-6.163-3.18-8.638-.054-1.77-.867-3.496-2.25-4.727-3.31-2.94-7.678-.935-9.667 1.792-.874 1.198-1.107 2.683-.895 4.118-.923.15-1.795.48-2.526 1l.002-.013c-.046.032-.092.07-.136.105l-.114.084a5.74 5.74 0 0 0-.381.344c-.03.03-.056.06-.085.092a4.425 4.425 0 0 0-.357.424c-1.99 2.726-1.698 6.357.65 8.108 1.42 1.063 3.267 1.193 4.945.528 1.578-.104 3.83-.03 5.3.983 3.516 2.43 4.17 3.66 7.47 5.78 5.69 3.654 9.723 6.247 10.665 8.76l.928 2.523c-.018 1.855.803 3.685 2.25 4.972 3.3 2.94 7.68.93 9.668-1.793a4.75 4.75 0 0 0 .301-.477l.05-.093c.083-.152.158-.312.224-.47.014-.04.026-.078.043-.117l.06-.16-.012.007c.306-.89.37-1.86.228-2.81 1.426-.235 2.752-.882 3.594-2.035 1.362-1.865 1.656-4.152.954-5.97m-35.002-68.575c9.288-1.343 16.964.3 17.466 3.764.157 1.075-.405 2.18-1.527 3.233-2.487 2.327-7.746 4.397-14.143 5.322-6.658.963-12.482.387-15.436-1.285-1.17-.664-1.89-1.497-2.034-2.48-.504-3.453 6.382-7.21 15.674-8.555m-10.02 9.783c2.388.8 6.48 1.167 11.705.41 4.82-.697 8.444-2.04 10.596-3.377 1.56-.973 2.344-1.944 2.24-2.664-.25-1.712-5.708-3.36-14.03-2.155-8.328 1.203-13.093 4.328-12.843 6.04.095.64.91 1.268 2.332 1.745m20.996 13.3c1.338 1.367.415 2.185.415 2.185s-2.467-.27-3.236-1.874c-1.296 1.24-3.388 3.025-5.228 3.67-3.788 1.33-7.632.323-8.156-2.628s3.612-5.795 7.107-5.226c1.95.318 4.38 1.36 5.943 2.108.184-1.837 2.58-2.84 2.58-2.84s1.117.52.226 2.214a7.706 7.706 0 0 1-.91 1.351c.4.267.837.606 1.258 1.04m-8.85-6.16c-9.646 1.394-18.102.133-20.994-2.818l.078.533.324 2.234 1.723 11.817c.648 4.45 10.156 6.755 21.235 5.154s19.538-6.507 18.888-10.955l-.002-.018-2.082-14.284c-2.196 3.543-9.795 6.98-19.17 8.337m-21.627-7.325c.027.1.066.198.104.294.44 1.196 1.552 2.215 3.185 3.013 3.837 1.87 10.502 2.534 17.866 1.47s13.565-3.6 16.71-6.47c1.343-1.228 2.116-2.52 2.196-3.792.007-.103.017-.208.014-.3-.002-.07-.01-.14-.017-.2-.004-.058-.004-.117-.014-.175-.647-4.45-10.156-6.757-21.237-5.155s-19.535 6.508-18.886 10.957c.008.058.027.114.037.173.014.067.024.137.043.205M15.25 21.59C9.43 23.505 3.185 20.26 1.3 14.344S2.608 2.077 8.43.16 20.494 1.5 22.377 7.407 21.07 19.675 15.25 21.59zm-2.723 8.98a2.07 2.07 0 0 1-.943.645c-.332.1-.696.134-1.063.054l-4.532-.984-.194 9.087 4.812-3.015 5.43 3.242.19-8.9-1.512.498a2.037 2.037 0 0 1-2.187-.618zm10.896-2.978c-.42.14-.88.137-1.303-.01a2.087 2.087 0 0 1-1.394 1.626l-3.885 1.28 2.95 9.264 3.57-4.456 6.176 1.248-3.612-11.35-1.608 1.812c-.25.282-.56.478-.893.588zM9.062 2.15C4.322 3.71 1.724 8.883 3.26 13.7s6.618 7.457 11.356 5.898 7.337-6.73 5.803-11.546-6.62-7.46-11.356-5.9zm20.793 6.446L27.9 2.48l-3.845 1.266a13.58 13.58 0 0 0-.537-.861L26.322-.26l-4.694-4.306-2.717 3.062a13.9 13.9 0 0 0-.876-.484l.872-4.143-6.183-1.343-.843 4.02c-.332 0-.665.02-.998.043L9.596-7.443 3.584-5.465l1.244 3.9a12.9 12.9 0 0 0-.845.543L.888-3.848l-.888 1v21.484l.148.226L0 19.03v5.404l2.05 1.88 2.716-3.062a14.36 14.36 0 0 0 .875.484l-.87 4.144 6.18 1.342.847-4.02a15.11 15.11 0 0 0 .996-.044l1.285 4.036 6.014-1.98-1.244-3.908a15.05 15.05 0 0 0 .846-.544l3.093 2.837 4.234-4.77L24 18.067c.168-.293.33-.588.476-.892l4.075.886 1.322-6.285-3.955-.86a14.94 14.94 0 0 0-.042-1.013l3.97-1.307zm77.643-3.314a20.166 20.166 0 0 1-3.46 1.365c-2.36.466-5.855.348-9.64-.46s-7.002-2.12-8.938-3.503A19.2 19.2 0 0 1 82.917.039c-3.568-4.44-5.146-10.367-3.78-16.346a19.38 19.38 0 0 1 2.744-6.371c.553.625 1.327 1.265 2.298 1.9-1.166 1.683-2.24 3.675-2.6 5.67-1.24 7.103.93 11.538 3.784 14.307 3.02 2.933 6.806 3.995 8.123 4.35-.4-.225-.796-.457-1.124-.7a17.123 17.123 0 0 1-3.363-3.912c-2.243-3.58-3.126-7.984-2.11-12.423a16.548 16.548 0 0 1 1.94-4.808 19.66 19.66 0 0 1-.608-.348c3.044 1.34 6.844 2.56 11.055 3.46 8.278 1.765 15.68 1.773 19.06.272a19.05 19.05 0 0 1-.292 6.896c-1.367 5.98-5.384 10.7-10.554 13.287M85.033-27.6c2.518-1.332 9.31-1.243 17.003.397s13.892 4.325 15.597 6.556c.38.497.542.973.442 1.408-.547 2.39-8.614 2.703-18.02.698s-16.585-5.572-16.038-7.963c.1-.435.454-.8 1.016-1.096m13.12 25.897c-.53-.112-1.056.21-1.173.725a.95.95 0 0 0 .748 1.134c.532.115 1.058-.2 1.175-.724s-.217-1.02-.75-1.135m9.42-7.92a.498.498 0 0 0-.592.365.48.48 0 0 0 .379.573.499.499 0 0 0 .592-.366.482.482 0 0 0-.378-.572m-5.262 2.687a.79.79 0 0 0-.94.58.761.761 0 0 0 .6.908.79.79 0 0 0 .94-.579.764.764 0 0 0-.6-.91m1.966 7.733c-.423-.1-.846.168-.94.578a.764.764 0 0 0 .6.908.79.79 0 0 0 .94-.58.76.76 0 0 0-.6-.906m1.013-13.357a.492.492 0 0 0-.586.361.475.475 0 0 0 .374.567.492.492 0 0 0 .588-.361.476.476 0 0 0-.376-.567M99.41 3.876c-.425-.1-.848.168-.94.58a.763.763 0 0 0 .6.908.79.79 0 0 0 .94-.58.761.761 0 0 0-.6-.907m20.53-19.942a1.89 1.89 0 0 0 .317-.663v-.002l.47-2.047-.03-.007c.373-3.16-7.71-7.482-18.354-9.753s-19.86-1.64-20.898 1.38l-.032-.007-.468 2.05h-.001a1.852 1.852 0 0 0 0 .732 20.777 20.777 0 0 0-3.923 8.188c-1.612 7.05.617 14.048 5.333 18.98.367.535.948 1.083 1.713 1.62 2.14 1.507 5.695 2.942 9.864 3.832s8.022 1.032 10.623.537c.926-.177 1.692-.436 2.257-.773 6.426-2.553 11.503-7.992 13.118-15.044.7-3.074.656-6.134.012-9.022m107.572 53.13c-2.846 1.993-6.288 3.938-10.138 5.64-4.13 1.825-8.17 3.123-11.783 3.882-3.844.477-6.66-.04-7.436-1.665-1.448-3.05 4.83-8.82 14.025-12.884s17.825-4.885 19.276-1.834c.806 1.7-.8 4.24-3.944 6.86zm6.542 3.65a.933.933 0 0 1-1.217-.437.872.872 0 0 1 .452-1.174c.46-.204 1.008-.01 1.22.435a.876.876 0 0 1-.455 1.175zm-5.772 5.764a.935.935 0 0 1-1.217-.436.873.873 0 0 1 .453-1.175.933.933 0 0 1 1.216.436.873.873 0 0 1-.452 1.175zm-6.773 4.18a.933.933 0 0 1-1.217-.434.877.877 0 0 1 .453-1.175.935.935 0 0 1 1.219.435.873.873 0 0 1-.455 1.174zm14.1-22.38c-2.036-4.157-12.95-3.426-24.43 1.648-11.244 4.97-18.862 12.267-17.348 16.5-.008-.005-.02-.007-.03-.012l4.443 9.35a.12.12 0 0 0 .007.019c1.593 3.35 8.624 3.7 17.103 1.276a2.436 2.436 0 0 1-.239-.389l-1.367-2.88-.907.4a.883.883 0 0 1-1.155-.412.833.833 0 0 1 .43-1.117l.907-.398-1.472-3.1a2.257 2.257 0 0 1-.165-1.464 2.372 2.372 0 0 1 1.369-1.665l7.783-3.44a2.508 2.508 0 0 1 3.031.814l-8.845 3.9c-.873.386-1.258 1.384-.858 2.225l.922 1.94 1.178-.522a.885.885 0 0 1 1.158.414.83.83 0 0 1-.43 1.115l-1.18.52.9 1.873c.4.842 1.433 1.212 2.305.825l8.81-3.894c.012.06.017.116.024.176 8.774-4.87 14.128-10.956 12.383-14.628l-.007-.017-4.312-9.075zm-47.8-33.26c1.228.844-.038 5.622-.545 6.662s-2.905 2.526-3.92 2.81-1.54-.333-1.54-.333c.2-1.5 4.777-9.984 6.005-9.14m8.02 3.96c.804.574.063 3.54-.316 4.5-.753-.444-1.64-.765-2.5-1.033 1.012-1.883 2.305-3.826 2.807-3.467m-2.27 12.26c1.035.272 1.597 1.724 1.597 1.724s-.562 1.1-1.7 1.1-3.005-.817-3.005-.817 2.066-2.27 3.098-1.997m-.125.322c-.648-.173-1.946 1.253-1.946 1.253s.21.1.505.196c.183-.198 1.237-1.287 1.845-1.228a1.051 1.051 0 0 0-.404-.221m13.085 9.235h-.08l-.9.006c-.787.015-1.715.067-2.473.215a4.247 4.247 0 0 0-.788.217c-.084.035-.13.083-.184.128-.035.027-.085.048-.113.078v.003a.554.554 0 0 0-.12.27.819.819 0 0 0 .014.311 1.467 1.467 0 0 0 .123.32 2.053 2.053 0 0 0 .429.551 1.277 1.277 0 0 0 .246.177.428.428 0 0 0 .206.064h.005c.136-.001.276-.023.417-.044.13-.02.256-.036.37-.038l.024-.002.015.002c.083.002.16.015.224.043.007.005.015.013.022.016.06.035.1.086.138.172.133.408.25 1.068.86 1.068.033 0 .058-.016.1-.018.548-.05.886-.49 1.173-.905a.707.707 0 0 1 .113-.125c.198-.187.5-.343.818-.5.29-.156.57-.323.733-.538.377-.493-.304-1.46-1.36-1.46m-2.02 4.383c-.672-.186-.988-.768-1.146-1.195-.138.02-.294.04-.475.043-.856 0-1.73-.993-1.9-1.847-.106-.497.025-.94.31-1.285.16-.192.36-.36.623-.47.404-.17.894-.278 1.413-.354a19.05 19.05 0 0 1 2.367-.161l.226-.004c-1.04-1.323-3.198-3.78-4.918-5.827a2 2 0 0 1-.105-.388c-.03-.195-.017-.488.005-.825a2.634 2.634 0 0 1-.557.424 38.73 38.73 0 0 1-.791-.983c.023-.506.1-.987.31-1.068.27-.106.755-.15 1.12-.17-.01-.427-.056-.844-.182-1.195-.655-1.848-2.414-3.906-3.788-5.2.467-1.224.788-2.74.89-3.777.178-1.84-.15-6.04-1.516-7.062-1.037-.78-4.097 5.088-5.493 7.927-.616-.245-1.015-.507-1.015-.865 0-1.17 1.213-8.236-.3-9.408s-7.723 5.748-10.294 10.87-5.3 18.3-5.904 21.8c-.214 1.24.314 2.44 1.152 3.495 3.95 6.81 20.5 7.183 21.263 5.022.508-1.432 1.35-2.994 1.954-4.585a22.424 22.424 0 0 0 2.824-.495 49.408 49.408 0 0 1-2.518-.39c-1.73-.317-3.452-.752-4.48-1.342-.406-.233-.67-.472-.828-.72l.823.372c1.103.497 2.9.77 4.697.917 1.893.157 3.766.176 4.778.176.078 0 .136-.01.205-.012 1.402-.054 1.95-.63 2.356-1.466a1.976 1.976 0 0 1-.643.111c-.17 0-.316-.026-.452-.065m-14.715 48.82c-.973-.552 4.57-3.52 6.438-3.624s-1.972 8.177-1.972 8.177-1.35-2.794-4.466-4.553m-.622 10.313c-1.86 2.062-4.432 1.79-4.432 1.79s-1.5-1.184-.915-3.017a3.3 3.3 0 0 1 .621-1.114c-.737.314-1.333.655-1.483.996-.416.948-.17 4.98.024 5.93-.368-.375-1.276-.737-2.9-.845-.84-.056-2.274.293-2.274.293a1.28 1.28 0 0 0-.618.302c.337-1.43 1.526-4.728.16-5.75-.374-.276-.833-.52-1.313-.737.316.28.588.617.785 1.02.848 1.73-.464 3.116-.464 3.116s-2.504.648-4.645-1.123c-1.27-1.052-.375-4.057-.375-4.057.383-.14 1.064-.2 1.832-.113.87-.026 4.9.346 7.305.16l5.764-.46c1.057-.453 2.162-.575 2.716-.46 0 0 1.324 2.85.223 4.07m-5.556 11.534a2.3 2.3 0 0 1-1.2-.022c-.683.52-1.577.963-2.24.967-1.2.01-2.092-.422-2.65-.996a2.301 2.301 0 0 1-1.313.05c-4.39-1.09-3.245-4.776-1.822-5.815.715-.525 1.65-.766 2.458-.876-.027.15.003.3.137.39.446.326 1.63.002 1.777.35s-.3.958-.16 1.366a1.563 1.563 0 0 0 1.308.95h.007c.09.005.18.005.277-.007.034-.005.062-.024.09-.033.612-.188 1.072-1.402.925-1.79-.15-.408.262-.562.63-.468s1.378-.163 1.342-.64c-.003-.03-.017-.06-.027-.087.766.12 1.618.36 2.283.847 1.42 1.04 2.57 4.726-1.825 5.816M166.713 78.55s-3.842-8.28-1.974-8.177 7.413 3.072 6.438 3.624c-3.113 1.76-4.464 4.553-4.464 4.553m7.987 2.873c-.085-.02-.18.027-.28.125-.288.286-.61 1.02-.8 1.913-.273 1.205-.223 2.234.1 2.312s.82-.838 1.1-2.043c.193-.85.222-1.6.104-2.012-.046-.166-.118-.273-.214-.295m11.458-.082c-.202-.23-.386-.348-.515-.297-.128.045-.186.245-.183.535.002.432.144 1.075.41 1.764.445 1.15 1.062 1.98 1.38 1.858.317-.117.216-1.154-.227-2.3-.262-.674-.58-1.23-.864-1.56m12.768-15.354c-2.714-1.886-11.08 6.908-12.236 6.512s-13.052-.168-14.05-.574-9.134-8.16-10.867-5.465c-1.808 2.8 3 13.466 2.83 14.4-.465 2.44-2.574 13.77 5.126 17.12 6.32 2.743 16.83 3.03 22.897-1.676 5.254-4.078 3.11-12.426 2.97-14.34s6.046-14.087 3.33-15.974m-154.56-85.15c.208-.064.602-.064 1.02.03.49.08 1.96.407 2.993.382.307-.008 1.605-.09 2.603-.144.563-.267 1.205-.326 1.497-.25 0 0 .542 1.32.006 1.846-.903.888-2.08.705-2.08.705s-.66-.57-.348-1.384c.07-.18.178-.33.3-.462-.338.113-.618.24-.693.388-.202.396-.197 2.054-.138 2.596a.592.592 0 0 0 .013.089c-.023-.024-.053-.05-.083-.074-.198-.155-.588-.305-1.24-.38-.384-.043-1.05.077-1.05.077a.596.596 0 0 0-.292.136c.182-.63.82-2.1.2-2.607a3.36 3.36 0 0 0-.623-.387c.153.14.288.3.376.5.347.802-.29 1.397-.29 1.397s-1.165.236-2.107-.617c-.558-.504-.075-1.842-.075-1.842m6.267 4.362c.63.505 1.068 2.2-.977 2.59-1 .188-1.574-.924-1.605-1.743.04.004.078.018.124.016.303-.023.568-.614.508-.803s.134-.248.3-.196.637-.04.63-.26c0-.012-.006-.024-.008-.038.347.072.732.2 1.026.434m-5.548.294c.123-.238.296-.437.474-.55.343-.223.78-.308 1.155-.337-.016.067-.01.13.048.176.19.15.69.056.785.186.004.006.02.007.022.015.06.162-.164.425-.104.614.05.166.256.406.575.448-.118.812-.817 1.86-1.783 1.57-1.47-.44-1.518-1.446-1.172-2.12M55.1 14.473c.44-.193 1.02-.302 1.585-.41l.634-.126c-.866-5.535-.166-9.233 2.086-11.016-.78-1.094-1.437-1.874-1.848-2.3-.26.837-.46 2.43-.558 3.204-.067.53-.124.984-.187 1.308-.097.51-.58 1.703-1.202 3.114.258.472.43.906.506 1.323.178 1.008.044 3.07-.724 3.164-1.307.16-1.907 1.078-1.062 1.523a3.49 3.49 0 0 0 .665.27c.036-.02.065-.04.105-.055m-8.007-.92c.786-1.143 3.155-7.904 1.372-10.562-.11-.167-.5-.55-.877-.92l-.236-.234c.282 4.325-.62 9.33-.782 10.013-.35 1.462-3.105 1.365-1.345 2.555.067.045.14.08.208.12.298-.478.89-.69 1.316-.843.105-.038.255-.1.344-.13m-1.176-31.45c.11-.387.137-.734.09-.915-.018-.07-.045-.12-.087-.133-.037-.008-.08.01-.125.047-.142.12-.31.447-.425.852-.155.538-.156 1.006-.005 1.048s.4-.36.55-.9m5.68.957c.148-.046.126-.517-.05-1.046a2.573 2.573 0 0 0-.334-.685c-.096-.132-.188-.2-.255-.187s-.1.127-.093.272c-.003.195.04.47.14.774.177.528.44.92.6.872m20.414 28.945c.972-3.854.322-8.744-1.456-11.43-1.908-2.88-4.55-6.272-7.877-7.905s-5.863-2.06-7.35-3.95c-.623-.792-1.213-1.76-1.692-2.624.53-1.388.262-3.024.262-3.505 0-.7 2.567-4.87 1.634-5.614s-4.202 2.176-4.6 2.005-4.725-.4-5.074-.573-3.093-3.15-3.794-2.233c-.73.955.733 4.884.642 5.21-.225.83-1.216 4.572 1.147 6.085.103 1.53.156 3.414.02 3.996-1.12 4.842 3.006 8.5 4.762 10.264.082.08.158.158.228.232l.154.162a3.29 3.29 0 0 1 .282.34c2.188 3.262-.7 10.825-1.488 11.77a.693.693 0 0 1-.248.17l-.042.02a5.321 5.321 0 0 1-.315.125c-.287.102-.596.206-.784.34-.25.18-.286.42.253.806 1.312.946 3.762 1.03 4.55-.43.235-.435 2.478-5.04 3.76-8.005l.313-.737.014-.03a27.58 27.58 0 0 0 .263-.66c.063-.16.1-.298.155-.428l.034-.093a4.14 4.14 0 0 0 .1-.356l.047-.287c.008-.047.015-.102.022-.156l.028-.197.03-.235.023-.164.05-.4c.01-.06.017-.123.025-.185l.04-.297.028-.2c.014-.1.024-.18.037-.27l.034-.224c.015-.1.026-.176.04-.267l.04-.22.043-.258.042-.218.05-.245.046-.205c.018-.076.038-.15.057-.224.017-.066.035-.13.052-.19.02-.07.042-.137.062-.202l.06-.167a4.53 4.53 0 0 1 .07-.173c.022-.047.04-.093.065-.134.025-.05.05-.096.077-.14.024-.036.048-.073.072-.103a.825.825 0 0 1 .087-.094c.027-.024.05-.05.078-.067a.439.439 0 0 1 .098-.043c.03-.01.056-.02.086-.022a.387.387 0 0 1 .175.02c.592.223 2.014 1.963 3.268 3.82-4.2 2.053-2.547 10.152-2.393 11.214.003.023-.02.04-.025.063-.113.45-2.044.522-2.863.882-1.166.5-1.12 1.286-.263 1.634 1.5.6 13.04 1.458 15.577-1.89.076-.1.12-.208.183-.312.145.336.228.657.2.93-.132 2.14-7.996 2.918-9.184 3.567s-.595 1.753 1.652 1.558c.895-.077 7.93-1.232 9.846-3.05 1.542-1.46-.235-3.963-1.512-5.783m74.77 50.957c-.75 0-1.36-.6-1.36-1.333s.61-1.332 1.36-1.332a1.38 1.38 0 0 1 1.027.458.48.48 0 0 0-.204-.046.45.45 0 0 0-.459.443c0 .25.205.45.46.45.246 0 .445-.2.458-.43.05.14.083.295.083.457 0 .734-.6 1.333-1.364 1.333m-5.308-6.052l-1.968 1.524s-3.214.1-2.576-2.983c.175-.842 1.436-2.4 3.59-1.336 1.044.5.955 2.795.955 2.795m12.08 9.825c-.217-.662-.596-1.34-.877-1.815-.5-.843-2.874-4.642-4.62-6.835.027-.068.054-.132.054-.195 0-.73.928-5.313-.86-6.103-2.396-1.058-3.5 1.77-3.248 3.303.046.282.12.583.204.884a7.645 7.645 0 0 0-1.135.086c-.128-1.307-.518-3.098-1.7-3.67-3.958-1.936-6.276.908-6.596 2.458-.746 3.613 1.382 4.84 3.025 5.26-.2.725-.276 1.492-.412 2.285-.372 2.193 1.882 4.682 4.237 5.722s5.778 2.328 11.206.727h.005c.5.094 1.025-.137 1.252-.62a1.106 1.106 0 0 0-.545-1.486m-7.534 9.885c-1.096-.494-2.473-1.74-3.446-2.7l1.91-2.64c-1.386-.315-2.6-.782-3.718-1.273-3.07-1.353-6.023-4.598-5.45-7.945l.1-.657c-2.35-1.338-3.354-3.818-2.704-6.96.02-.09.048-.187.074-.283-1.514-.957-3.206-1.58-4.975-1.376-14.695 1.705-15.816 13.027-15.567 16.43.026.352.1.696.22 1.028-1.058 1.803-2.15 3.216-3.03 3.348-2.6.4-3.217-.48-5.487-.762s-5.92 1.64-5.92 1.64 1.627-.698 6.527-.09 4.07 1.72 6.76.628c.623-.25 1.25-.79 1.856-1.466.327.33.92.65 1.94 1.03 3.61 1.338 4.236 3.408 6.973 4.504s6.85 1.095 6.477 0-2.12-.366-3.612-1.34c-.732-.477-1.312-1.303-1.818-2.107l.26-.09c1.126.93 2.537 1.875 3.838 2.104 2.742.49 3.86.852 5.106.49s-1.6-.95-2.822-1.505c-.865-.388-1.91-1.25-2.786-2.07a7.84 7.84 0 0 1 .587-.104c3.2-.465 6.044 1.262 7.384 1.85 1.3 1.028 2.186 2.1 3.893 2.774 2.742 1.095 6.853 1.095 6.478 0s-2.118-.366-3.6-1.34c-.375-.24-.707-.573-1.013-.95l.407-.52c.918.65 1.93 1.204 2.884 1.375 2.74.49 3.862.852 5.106.49s-1.6-.95-2.823-1.502M0 70.026l2.048-11.16L0 60.828v9.198zm4.288-15.62L0 53.915v4.138l2.914-2.647 1.214.217-2.163 16.37v22.062l8.793-3.878v-22.77l-6.47-13zm59.74 35.244c-.48-.31-.782-.606-.665-.798.18-.3.934-.22 1.728-.06l1.046-.87c-.828-.817-1.75-1.77-1.164-1.935.618-.178 1.7.31 2.58.7l.933-.862c-.486-.99-1.188-2.216-1.017-2.377.15-.14 1.362.385 2.57.9l1.145-1.06c-.984-1.166-2.023-2.425-1.35-2.405.758.02 1.987.52 3.17.927a12.194 12.194 0 0 1 2.366-1.312 6.14 6.14 0 0 1 .215-.083c.435-.158 1.133-.32 2.002-.48-1.933-1.154-6.106-2.987-8.58-2.23-2.578.787-8.71 11.507-8.043 12.973.136.302.374.565.644.805a66.437 66.437 0 0 0 2.42-1.833zm4.107 12.028c1.356.95 4.79.086 4.672.575-.148.626-1.628 2.233.248 1.887 2.686-.494 6.38-2.393 8.123-4.088a4.01 4.01 0 0 0 .773-1.047c-.423.182-.847.363-1.292.53-2.526.92-7.694 1.637-12.524 2.143zm20.92-15.882c-.69.253-1.472-.14-1.745-.87s.06-1.526.75-1.777 1.47.134 1.745.867-.06 1.53-.75 1.78zm5.11-4.385c-1.183-1.3-14.96-.65-18.155.674s-5.037 3.945-8.964 7.26-7.034 5.465-9.92 6.83-.17 4.585-.17 4.585 17.833-1.054 23.08-2.992C91.904 93.383 95.5 82.903 94.162 81.41zm-5.69 2.306c-.277.1-.414.42-.303.713a.558.558 0 0 0 .701.348c.276-.102.41-.42.3-.713s-.424-.45-.698-.348zm-32 18.246c-1.106 1.985-2.388 4.717-3.55 5.19-1.338.555 1.655-3.752 2.84-5.65a6.96 6.96 0 0 1-.245-.326c-1.55 1.422-5.264 5.206-6.757 5.566-1.748.42 5.03-4.998 6.225-6.447-.05-.1-.1-.2-.15-.32-1.327.4-6.4 3.47-8.167 3.505s5.75-3.224 7.885-4.3a5.917 5.917 0 0 1-.08-.33c-1.997.118-8.158.802-8.782.305-.572-.46 5.884-1.142 8.74-1.422.007-.053-.001-.1.01-.163a3.37 3.37 0 0 1 .06-.27c-2.44-.636-7.7-2.128-8.363-2.854-.733-.79 5.852 1.147 8.833 1.916.282-.375.694-.735 1.306-1.027a25.14 25.14 0 0 0 1.191-.609c-3.818-1.298-11.013-4.207-13.263-2.264-1.282 1.1-1.793 6.503-.152 10.866.763 2.028 4.096 7.227 7.202 7.24 1.105.008 3.436-2.585 5.06-4.353.732-.79 1.85-2.63 2.95-4.448l-2.595.17-.198.012zm47.176-67.648l1.944 6.894-6.44 1.8 2.06 7.306-8.28 2.3-.77-2.74-1.288-4.565-7.358 2.045-.888-3.15-.54-1.92-.375-1.322-.14-.505-.373-1.32 7.36-2.045-1.803-6.392 1.332-.37.508-.14 3.268-.908 1.33-.372.508-.14 1.332-.37 1.803 6.393 6.44-1.79.373 1.322zm-7.422 7.456c-.214-.95-.318-1.38-.64-1.86a1.438 1.438 0 0 0-.1-.14 5.509 5.509 0 0 0-.09-.112 1.602 1.602 0 0 0-.09-.098 1.367 1.367 0 0 0-.412-.302c-.035-.018-.073-.034-.1-.05-.3-.106-.646-.112-1.08-.03-1.218.233-1.728 2.193-1.856 2.817-.055.26-.212.45-.378.633-.03.037-.064.072-.097.11h-.002c-.008.01-.015.016-.02.025a.216.216 0 0 0-.03.033.165.165 0 0 0-.02.024c-.01.01-.02.022-.03.035-.008.006-.013.014-.018.02l-.04.054c-.02.024-.032.042-.044.06-.006.008-.01.013-.015.023a.284.284 0 0 0-.027.04c-.002.007-.008.015-.014.022-.007.015-.016.03-.025.043-.001.01-.005.016-.01.02-.01.022-.02.044-.03.067a.177.177 0 0 0-.006.016l-.02.054c0 .01-.003.015-.006.024-.004.02-.01.035-.013.052 0 .008-.004.016-.005.025l-.01.062v.017c-.005.03-.005.054-.005.083 0 .008-.002.016 0 .024a.702.702 0 0 0 .002.067c.001.01.002.02.005.03 0 .022.002.045.008.068-.001.01.003.02.005.03a.6.6 0 0 0 .02.1c.134.526.6.783 1.032.84l.007-.001a.764.764 0 0 0 .106.01h.024c.03.003.058.002.086.002.015 0 .028-.004.044-.005s.04 0 .06-.004.04-.006.06-.01.028-.003.04-.005c.034-.008.063-.016.094-.025 1.062-.356 1.167-.532 1.55-.583l.08-.008c.708-.053 1.585 1.047 2.532.275a.455.455 0 0 0 .07-.069l.02-.02c.018-.022.033-.045.05-.07.006-.006.01-.012.013-.018a.88.88 0 0 0 .055-.097l.01-.017a1.04 1.04 0 0 0 .037-.092c.005-.008.006-.016.012-.025.026-.077.047-.158.06-.244 0-.006 0-.012.003-.02a.91.91 0 0 0 .01-.117c.005-.053.005-.094.005-.136a1.06 1.06 0 0 0-.128-.468c-.175-.302-.65-.823-.73-1.176zm-5.827-.327a.65.65 0 0 0 .048.028c.02.015.037.024.058.032a.58.58 0 0 0 .134.056c.02.007.044.016.067.022.008.003.015.003.02.004.03.008.058.014.084.016h.02l.077.005.01-.001a.425.425 0 0 0 .086-.01.57.57 0 0 0 .102-.027c.492-.17.66-.917.38-1.66a2.48 2.48 0 0 0-.069-.157l-.02-.046a1.738 1.738 0 0 0-.055-.1l-.03-.05a.781.781 0 0 0-.062-.097c-.007-.012-.013-.025-.024-.037a1.418 1.418 0 0 0-.095-.122 1.107 1.107 0 0 0-.102-.109c-.007-.01-.017-.018-.024-.026a4.436 4.436 0 0 0-.084-.074c-.01-.007-.017-.014-.027-.023-.032-.022-.065-.047-.097-.066a.95.95 0 0 0-.135-.078.764.764 0 0 0-.575-.054c-.492.174-.663.92-.38 1.665.102.27.248.504.418.682l.003.002.04.042c.014.012.026.022.037.034l.054.05c.015.01.032.026.05.037a.187.187 0 0 0 .038.03l.05.034zm1.123-2.635c.01.016.023.03.038.048l.024.025a.523.523 0 0 0 .09.095l.037.036c.016.01.025.022.04.03a2.273 2.273 0 0 0 .1.07c.01.007.02.016.032.02.023.014.046.027.07.036.01.007.017.012.027.013.018.01.04.017.057.023a.1.1 0 0 0 .026.01c.027.01.052.016.08.024.006 0 .013.003.02.003.025.005.05.007.073.012.044.004.07.001.1 0l.02.001.086-.01c.51-.1.786-.757.614-1.467-.01-.052-.024-.1-.043-.15-.004-.016-.012-.03-.016-.045a2.32 2.32 0 0 0-.037-.1l-.02-.044c-.016-.035-.033-.066-.05-.1a1.553 1.553 0 0 0-.094-.157 1.081 1.081 0 0 0-.085-.112c-.007-.008-.015-.016-.02-.025-.023-.026-.05-.052-.073-.076a.694.694 0 0 0-.123-.11.923.923 0 0 0-.108-.072.793.793 0 0 0-.562-.118c-.513.1-.79.755-.617 1.467.06.26.173.487.318.67h.001zm6.404-.425l-.012-.033c-.017-.034-.03-.07-.048-.103a.092.092 0 0 0-.01-.016.912.912 0 0 0-.07-.113.725.725 0 0 0-.474-.32c-.513-.087-1.04.47-1.177 1.24a1.95 1.95 0 0 0 .016.787l.001.002.016.053a.72.72 0 0 0 .013.047c.006.024.016.045.022.068.01.018.016.038.023.057a.3.3 0 0 0 .02.044c.006.02.02.035.027.052a.411.411 0 0 0 .024.047c.013.018.024.037.035.055a.092.092 0 0 1 .02.03c.018.022.03.043.052.065.004.005.01.01.014.016l.048.05.018.015a1.907 1.907 0 0 0 .08.063.439.439 0 0 0 .078.044c.025.014.05.026.077.033a.8.8 0 0 0 .103.027c.515.087 1.04-.468 1.178-1.24l.02-.165c.003-.016.003-.036.003-.052a.697.697 0 0 0 .006-.114v-.054l-.005-.112-.002-.04a1.42 1.42 0 0 0-.02-.154l-.001-.003a1.116 1.116 0 0 0-.032-.137c-.002-.013-.006-.023-.01-.034-.01-.035-.02-.07-.034-.105zm-3.902.115c.024.03.05.062.077.1l.01.012c.065.06.13.112.2.153.045.025.074.037.103.05l.03.012c.028.01.053.016.08.02l.03.01c.04.006.076.01.112.012.524.004.933-.58.923-1.3l-.012-.157-.006-.044c-.004-.036-.01-.073-.016-.1a.247.247 0 0 1-.008-.044l-.03-.1-.008-.032a1.556 1.556 0 0 0-.108-.266l-.016-.026c-.018-.032-.034-.062-.055-.093-.006-.008-.008-.02-.017-.025-.02-.033-.044-.062-.068-.092-.178-.21-.392-.33-.627-.334-.52-.007-.932.58-.92 1.3.007.38.13.722.315.963l.01.012zM89.6 23.665a5.957 5.957 0 0 1 4.723.657l4.108-1.14c-2.455-2.824-6.226-4.18-9.86-3.17s-6.146 4.112-6.77 7.8l4.107-1.142a5.918 5.918 0 0 1 3.693-2.995zm15.1-.68l-30.837 8.57c-2.407.667-3.827 3.097-3.17 5.424l5.545 19.665c.655 2.327 3.14 3.672 5.547 3.003l30.84-8.57c2.405-.667 3.827-3.098 3.17-5.424l-5.545-19.665c-.656-2.326-3.14-3.67-5.547-3.003zM47.2 71.48c-.376-.288-1.124-4.646-1.202-5.673l-.174-2.77a19.7 19.7 0 0 0 .439-.502l1.144 8.7c.008.16.044.292.077.43a3.532 3.532 0 0 1-.284-.185m-2.976-39.44c.745.364.4 3.316.18 3.862s-1.474 1.4-2.027 1.603-.888-.092-.888-.092c.018-.756 2-5.737 2.734-5.373m3.798 2.103c.395.295.02 2.268-.158 2.767-.388-.235-.842-.404-1.275-.545.5-1.134 1.18-2.4 1.433-2.222m-1.1 6.677c.5.138.773.87.773.87s-.272.55-.82.55-1.456-.413-1.456-.413 1-1.144 1.502-1.006m-.06.162c-.316-.087-.945.63-.945.63a3.82 3.82 0 0 0 .245.1c.1-.1.6-.65.895-.62a.51.51 0 0 0-.196-.111m6.272 4.736l-.033.001a13.59 13.59 0 0 0-.624.014 5.758 5.758 0 0 0-.46.033c-.283.028-.56.07-.75.154a.291.291 0 0 0-.142.122c-.167.27.228.752.4.748.213-.004.475-.12.533.068s.1.5.376.5c.016 0 .025-.008.04-.01.24-.022.4-.224.516-.413.018-.03.055-.052.083-.08.157-.134.418-.242.58-.394.022-.022.052-.04.07-.064.165-.225-.134-.67-.6-.67m-1.662 2.94h.044c.828 0 1.08-.356 1.297-.863a.915.915 0 0 1-.367.075c-.082 0-.144-.022-.2-.043-.326-.093-.485-.38-.56-.592a1.81 1.81 0 0 1-.225.023c-.423 0-.843-.498-.93-.925a.777.777 0 0 1 .074-.544.784.784 0 0 1 .382-.338c.095-.042.216-.067.33-.095.063-.017.115-.04.184-.054a8.1 8.1 0 0 1 1.317-.107h.106c-.5-.665-1.55-1.9-2.388-2.945a1.081 1.081 0 0 1-.053-.196 2.35 2.35 0 0 1 .004-.421 1.15 1.15 0 0 1-.274.216l-.38-.49c.012-.255.048-.5.15-.54.13-.054.365-.077.542-.086a2.036 2.036 0 0 0-.087-.602c-.32-.932-1.175-1.97-1.84-2.628a8.283 8.283 0 0 0 .432-1.901c.087-.93-.072-3.54-.734-4.056-.5-.4-2.023 2.935-2.687 4.474-.278-.116-.468-.245-.468-.418 0-.6.587-4.65-.146-5.24s-3.743 3.395-5 5.977c-1.026 2.124-2.04 8.444-2.534 11.605a10.18 10.18 0 0 0-1.833 1.819c-.47.612-2.065 2.945-3.86 5.76-3.138 3.034-6.745 7.69-7.95 9.78-.436.756-.758 1.795-.853 2.872-1.133.633-2.586 2.012-2.646 3.27-.187 3.82 2.332 5.473 2.954 5.782s1.932.568 2.225-.233-4.477-2.853-2.24-5.594c.06-.076.125-.146.2-.2.214.426.498.81.87 1.137 2.495 2.173 12.138 2.365 13.546 2.273s1.975-.528 1.76-1.087c-.1-.283-1.85-.706-3.132-1.184.86.233 1.704.288 2.125.3 1.112.06 4.425.653 4.425-.476s-3.153-1.876-3.715-1.97c-.318-.05-.49-.272-.45-.838.878-.732 1.6-1.683 2.4-2.27.244-.182.684-.5 1.23-.947.405 2.43.78 4.748.83 5.566.117 1.845 2.056 1.95 2.793 2.006s1.372.027 2.176-.494a.728.728 0 0 0 .263-.269c.577.264 1.227.32 1.587.355.738.076 1.372.06 2.188-.44 1.02-.635-.695-1.467-1.063-1.764s-1.02-4.672-1.07-5.7c-.346-6.68-1.075-10.34-1.897-13.186a61.94 61.94 0 0 0-.22-.83c.25-.66.597-1.365.86-2.084.545-.06 1.052-.158 1.486-.268a17.65 17.65 0 0 1-1.33-.205c-.6-.12-1.172-.275-1.55-.48l-.096-.054c.493.136 1.1.22 1.7.273.904.08 1.796.092 2.3.092M249.82 19.024l-3.055 2.964 3.055 2.414v-5.378zm0-21.774l-3.865 3.752 3.48 2.748a12.08 12.08 0 0 0-.55.888l-4.7-.882-1.527 6.255 4.57.857c0 .334.022.67.048 1.008l-4.586 1.3 2.248 6.086 4.444-1.26c.14.216.29.424.447.63V-2.75z"/><g transform="translate(228.303 52.736)"><mask id="E" fill="#fff"><use xlink:href="#B"/></mask><use xlink:href="#C" fill="#fff" mask="url(#E)"/></g><g fill="#fff"><path d="M221.214 9.26a5.56 5.56 0 0 0-.536.56c.295-.94.73-1.8 1.415-2.425 2.047-1.862 5.298-.147 4.835 2.548-1.17-1.785-3.773-2.43-5.714-.683zm-6.966-2.363c-.007.158-.003.313.007.466-.226-.488-.375-1.014-.35-1.577.068-1.674 1.82-2.627 2.6-1.417-1.037-.083-2.184.947-2.257 2.528zm1.447 3.092c.075.001.153-.003.23-.015 1.376-.195 2.22-2.097 1.9-4.245a6.728 6.728 0 0 0-.09-.453l-.037-.14a5.817 5.817 0 0 0-.082-.3l-.05-.143a6.445 6.445 0 0 0-.109-.298l-.044-.11a5.025 5.025 0 0 0-.182-.381 4.702 4.702 0 0 0-.439-.67l-.06-.076a3.565 3.565 0 0 0-.21-.236c-.015-.012-.025-.025-.037-.037a3.24 3.24 0 0 0-.275-.24c-.458-.353-.967-.526-1.474-.454-1.376.195-2.218 2.095-1.9 4.244a5.669 5.669 0 0 0 .729 2.06l.087.134.076.114.114.158.1.132c.027.035.058.067.087.1l.1.116.1.105.13.113a2.883 2.883 0 0 0 .26.194l.057.032.168.1c.017.01.037.02.056.03a2.083 2.083 0 0 0 .458.148 1.534 1.534 0 0 0 .256.026h.05zM221.713-.8c-1.04-.085-2.187.946-2.257 2.528a4.22 4.22 0 0 0 .004.464c-.226-.486-.372-1.01-.35-1.575.068-1.675 1.822-2.627 2.603-1.417zm-3.222 3.605l.073.146.05.088c.038.072.082.14.125.2l.064.094.083.115.077.097.12.14.097.103.08.076a2.361 2.361 0 0 0 .222.184c.047.035.093.064.142.095a2.098 2.098 0 0 0 .254.141c.016.01.033.016.053.023a1.41 1.41 0 0 0 .18.068l.04.013c.07.023.144.038.217.05l.053.007c.076.01.15.02.23.02 1.385.013 2.457-1.594 2.396-3.6a4.975 4.975 0 0 0-.034-.423l-.018-.13a3.646 3.646 0 0 0-.048-.288l-.027-.134a5.555 5.555 0 0 0-.075-.288l-.027-.1a5.546 5.546 0 0 0-.136-.374v-.002a3.859 3.859 0 0 0-.161-.343l-.04-.077a3.926 3.926 0 0 0-.15-.25l-.048-.073a3.576 3.576 0 0 0-.182-.245c-.013-.013-.02-.025-.03-.038a3.208 3.208 0 0 0-.243-.256c-.412-.384-.894-.612-1.406-.616-1.388-.015-2.46 1.592-2.396 3.586.02.727.194 1.402.467 1.97zM235.43 6.48l.015-.114.03-.414v-.01c.004-.132 0-.263-.008-.39l-.008-.092a5.45 5.45 0 0 0-.034-.297l-.017-.094a2.929 2.929 0 0 0-.068-.303.451.451 0 0 0-.012-.052 3.388 3.388 0 0 0-.12-.337l-.002-.004c-.224-.525-.584-.924-1.064-1.112-1.296-.514-2.97.685-3.74 2.678a5.417 5.417 0 0 0-.38 2.112v.006l.01.152.01.13.025.197.027.165.026.126.04.155.043.142.058.164.037.09.097.204a.428.428 0 0 1 .032.051 1.78 1.78 0 0 0 .103.162.57.57 0 0 0 .033.052 2.14 2.14 0 0 0 .33.351c.007.006.014.015.02.02a1.7 1.7 0 0 0 .188.13c.014.01.03.017.044.025a1.52 1.52 0 0 0 .207.1c1.295.515 2.97-.684 3.74-2.676l.146-.43.037-.135.075-.3.03-.143.048-.308zm-7.15-8.236c.79.257.696.797-.188.682-1.315-.173-1.985 1.222-2.22.903s.782-2.114 2.41-1.585zm-3.093 5.096l.153.28.027.043a2.61 2.61 0 0 0 .428.515c.012.01.027.02.042.033l.2.156a2.323 2.323 0 0 0 .272.15l.078.037c.093.038.188.07.288.092 1.354.303 2.745-1.042 3.103-3.002.027-.143.044-.284.058-.424l.008-.12a3.33 3.33 0 0 0 .014-.305l.003-.124-.012-.313c-.005-.03-.005-.06-.008-.1a4.763 4.763 0 0 0-.163-.85 3.288 3.288 0 0 0-.127-.356 3.375 3.375 0 0 0-.129-.281l-.02-.038c-.33-.62-.828-1.06-1.43-1.196-1.357-.302-2.746 1.044-3.103 3.005-.188 1.017-.057 2 .3 2.752.005.013.012.023.018.035zm3.98 9.954c-.047-2.656-.083-3.857-.668-5.33a5.35 5.35 0 0 0-.166-.392c-.005-.012-.01-.02-.014-.032a9.667 9.667 0 0 0-.163-.33c-.005-.005-.008-.012-.012-.018a5.135 5.135 0 0 0-.186-.32 3.94 3.94 0 0 0-.906-1.026l-.002-.001a4.117 4.117 0 0 0-.263-.186c-.72-.456-1.623-.66-2.806-.673-3.298-.04-5.683 4.925-6.355 6.526-.285.672-.794 1.097-1.323 1.494a20.133 20.133 0 0 1-.321.243l-.066.05-.097.074-.06.05a1.667 1.667 0 0 0-.1.079l-.056.045-.136.12a3.47 3.47 0 0 0-.149.14 3.42 3.42 0 0 0-.185.194l-.088.106c-.012.017-.027.03-.04.048l-.112.158-.022.038-.08.137-.032.062-.06.127-.028.068a1.909 1.909 0 0 0-.058.163l-.015.043a3.153 3.153 0 0 0-.068.286l-.027.176c-.004.03-.01.056-.01.087l-.014.182c-.003.03-.003.056-.003.083a2.902 2.902 0 0 0 0 .286c.066 1.473 1.145 2.418 2.24 2.802l.017.004.273.086.06.012a2.5 2.5 0 0 0 .224.048c.037.01.076.01.112.018l.166.02c.056.005.1.005.163.006l.1.004a2.05 2.05 0 0 0 .253-.018c2.964-.37 3.335-.785 4.358-.7l.214.022c1.875.24 3.57 3.667 6.455 2.115a1.62 1.62 0 0 0 .221-.146l.06-.047.166-.153c.014-.014.032-.027.046-.043l.195-.23.03-.043.153-.225.04-.064c.11-.192.21-.397.3-.616l.02-.05a3.642 3.642 0 0 0 .105-.342l.068-.328c.07-.45.053-.907-.078-1.323-.3-.904-1.257-2.557-1.272-3.554z"/><path d="M425.406 49.26c-1.4-.405-.323-1.553 1.185-1.37 1.82.218 2.603-1.893 3.05-1.366s-.967 3.692-4.235 2.736M391.2 26.246c.118.374.27.733.44 1.08-1.1-.97-2.004-2.086-2.443-3.416-1.306-3.962 2.963-7.494 6.34-5.25-3.118.58-5.548 3.836-4.336 7.585m-4.42.08c-2.293.418-2.688 3.097-3.25 2.694s.214-3.933 3.21-3.926c1.457.005 1.58.952.04 1.232m44.36 16.944c-.322-.842-1.32-3.036-3.402-3.21-5.4-.455-5.84 2.547-9.798.56-2.803-1.408-9.702-5.065-14.53-9.664-4.125-3.925-2.896-6.163-3.18-8.638-.054-1.77-.867-3.496-2.25-4.727-3.31-2.94-7.678-.935-9.667 1.792-.874 1.198-1.107 2.683-.895 4.118-.923.15-1.795.48-2.526 1l.002-.013c-.046.032-.092.07-.136.105l-.114.084a5.74 5.74 0 0 0-.381.344c-.03.03-.056.06-.085.092a4.425 4.425 0 0 0-.357.424c-1.99 2.726-1.698 6.357.65 8.108 1.42 1.063 3.267 1.193 4.945.528 1.578-.104 3.83-.03 5.3.983 3.516 2.43 4.17 3.66 7.47 5.78 5.69 3.654 9.723 6.247 10.665 8.76l.928 2.523c-.018 1.855.803 3.685 2.25 4.972 3.3 2.94 7.68.93 9.668-1.793a4.75 4.75 0 0 0 .301-.477l.05-.093c.083-.152.158-.312.224-.47.014-.04.026-.078.043-.117l.06-.16-.012.007c.306-.89.37-1.86.228-2.81 1.426-.235 2.752-.882 3.594-2.035 1.362-1.865 1.656-4.152.954-5.97m-35-68.575c9.287-1.343 16.963.3 17.465 3.764.157 1.075-.405 2.18-1.527 3.233-2.487 2.327-7.746 4.397-14.143 5.322-6.658.963-12.482.387-15.436-1.285-1.17-.664-1.89-1.497-2.034-2.48-.504-3.453 6.382-7.21 15.674-8.555m-10.02 9.783c2.388.8 6.48 1.167 11.705.41 4.82-.697 8.444-2.04 10.596-3.377 1.56-.973 2.344-1.944 2.24-2.664-.25-1.712-5.708-3.36-14.03-2.155-8.328 1.203-13.093 4.328-12.843 6.04.095.64.91 1.268 2.332 1.745m20.996 13.3c1.338 1.367.415 2.185.415 2.185s-2.467-.27-3.236-1.874c-1.296 1.24-3.388 3.025-5.228 3.67-3.788 1.33-7.632.323-8.156-2.628s3.612-5.795 7.107-5.226c1.95.318 4.38 1.36 5.943 2.108.184-1.837 2.58-2.84 2.58-2.84s1.117.52.226 2.214a7.706 7.706 0 0 1-.91 1.351c.4.267.837.606 1.258 1.04m-8.85-6.16c-9.646 1.394-18.102.133-20.994-2.818l.078.533.324 2.234 1.723 11.817c.648 4.45 10.156 6.755 21.235 5.154S420.18 2.04 419.53-2.408l-.002-.018-2.082-14.284c-2.196 3.543-9.795 6.98-19.17 8.337m-21.627-7.325c.027.1.066.198.104.294.44 1.196 1.552 2.215 3.185 3.013 3.837 1.87 10.502 2.534 17.866 1.47s13.565-3.6 16.71-6.47c1.343-1.228 2.116-2.52 2.196-3.792.007-.103.017-.208.014-.3-.002-.07-.01-.14-.017-.2-.004-.058-.004-.117-.014-.175-.647-4.45-10.156-6.757-21.237-5.155s-19.535 6.508-18.886 10.957c.008.058.027.114.037.173.014.067.024.137.043.205M265.083 21.59c-5.82 1.916-12.065-1.328-13.95-7.245S252.44 2.077 258.262.16 270.327 1.5 272.2 7.407s-1.307 12.268-7.126 14.182zm-2.723 8.98a2.07 2.07 0 0 1-.943.645c-.332.1-.696.134-1.063.054l-4.532-.984-.194 9.087 4.812-3.015 5.43 3.242.19-8.9-1.512.498a2.037 2.037 0 0 1-2.187-.618zm10.896-2.978c-.42.14-.88.137-1.303-.01a2.087 2.087 0 0 1-1.394 1.626l-3.885 1.28 2.95 9.264 3.57-4.456 6.176 1.248-3.612-11.35-1.608 1.812c-.25.282-.56.478-.893.588zm-14.36-25.44c-4.74 1.56-7.338 6.732-5.803 11.55s6.618 7.457 11.356 5.898 7.337-6.73 5.803-11.546-6.62-7.46-11.356-5.9zm20.793 6.446l-1.946-6.116-3.845 1.266a13.58 13.58 0 0 0-.537-.861l2.794-3.144-4.694-4.306-2.717 3.062a13.9 13.9 0 0 0-.876-.484l.872-4.143-6.183-1.343-.843 4.02c-.332 0-.665.02-.998.043l-1.286-4.034-6.012 1.978 1.244 3.9a12.9 12.9 0 0 0-.845.543L250.72-3.85l-.888 1v21.484l.148.226-.148.168v5.404l2.05 1.88 2.716-3.062a14.36 14.36 0 0 0 .875.484l-.87 4.144 6.18 1.342.847-4.02a15.11 15.11 0 0 0 .996-.044l1.285 4.036 6.014-1.98-1.244-3.908a15.05 15.05 0 0 0 .846-.544l3.093 2.837 4.234-4.77-3.012-2.763c.168-.293.33-.588.476-.892l4.075.886 1.322-6.285-3.955-.86a14.94 14.94 0 0 0-.042-1.013l3.97-1.307zm77.642-3.314a20.166 20.166 0 0 1-3.459 1.365c-2.36.466-5.855.348-9.64-.46s-7.002-2.12-8.938-3.503A19.2 19.2 0 0 1 332.75.039c-3.568-4.44-5.146-10.367-3.78-16.346a19.38 19.38 0 0 1 2.744-6.371c.553.625 1.327 1.265 2.298 1.9-1.166 1.683-2.24 3.675-2.6 5.67-1.24 7.103.93 11.538 3.784 14.307 3.02 2.933 6.806 3.995 8.123 4.35-.4-.225-.796-.457-1.124-.7a17.123 17.123 0 0 1-3.363-3.912c-2.243-3.58-3.126-7.984-2.11-12.423a16.548 16.548 0 0 1 1.94-4.808 19.66 19.66 0 0 1-.608-.348c3.044 1.34 6.844 2.56 11.055 3.46 8.278 1.765 15.68 1.773 19.06.272a19.05 19.05 0 0 1-.292 6.896c-1.367 5.98-5.384 10.7-10.554 13.287M334.866-27.6c2.518-1.332 9.31-1.243 17.003.397s13.892 4.325 15.597 6.556c.38.497.542.973.442 1.408-.547 2.39-8.614 2.703-18.02.698s-16.585-5.572-16.038-7.963c.1-.435.454-.8 1.016-1.096m13.12 25.897c-.53-.112-1.056.21-1.173.725a.95.95 0 0 0 .748 1.134c.532.115 1.058-.2 1.175-.724s-.217-1.02-.75-1.135m9.42-7.92a.498.498 0 0 0-.592.365.48.48 0 0 0 .379.573.499.499 0 0 0 .592-.366.482.482 0 0 0-.378-.572m-5.262 2.687a.79.79 0 0 0-.94.58.761.761 0 0 0 .6.908.79.79 0 0 0 .94-.579.764.764 0 0 0-.6-.91M354.1.797c-.423-.1-.846.168-.94.578a.764.764 0 0 0 .6.908.79.79 0 0 0 .94-.58.76.76 0 0 0-.6-.906m1.013-13.357a.492.492 0 0 0-.586.361.475.475 0 0 0 .374.567.492.492 0 0 0 .588-.361.476.476 0 0 0-.376-.567m-5.88 16.437c-.425-.1-.848.168-.94.58a.763.763 0 0 0 .6.908.79.79 0 0 0 .94-.58.761.761 0 0 0-.6-.907m20.53-19.942a1.89 1.89 0 0 0 .317-.663v-.002l.47-2.047-.03-.007c.373-3.16-7.71-7.482-18.354-9.753s-19.86-1.64-20.898 1.38l-.032-.007-.468 2.05h-.001a1.852 1.852 0 0 0 0 .732 20.777 20.777 0 0 0-3.923 8.188c-1.612 7.05.617 14.048 5.333 18.98.367.535.948 1.083 1.713 1.62 2.14 1.507 5.695 2.942 9.864 3.832s8.022 1.032 10.623.537c.926-.177 1.692-.436 2.257-.773C363.068 5.448 368.145.01 369.76-7.043c.7-3.074.656-6.134.012-9.022m107.573 53.128c-2.846 1.993-6.288 3.938-10.138 5.64-4.13 1.825-8.17 3.123-11.783 3.882-3.844.477-6.66-.04-7.436-1.665-1.448-3.05 4.83-8.82 14.025-12.884s17.825-4.885 19.276-1.834c.806 1.7-.8 4.24-3.944 6.86zm6.542 3.65a.933.933 0 0 1-1.217-.437.872.872 0 0 1 .452-1.174c.46-.204 1.008-.01 1.22.435a.876.876 0 0 1-.455 1.175zm-5.772 5.764a.935.935 0 0 1-1.217-.436.873.873 0 0 1 .453-1.175.933.933 0 0 1 1.216.436.873.873 0 0 1-.452 1.175zm-6.773 4.18a.933.933 0 0 1-1.217-.434.877.877 0 0 1 .453-1.175.935.935 0 0 1 1.219.435.873.873 0 0 1-.455 1.174zm14.1-22.38c-2.036-4.157-12.95-3.426-24.43 1.648-11.244 4.97-18.862 12.267-17.348 16.5-.008-.005-.02-.007-.03-.012l4.443 9.35a.12.12 0 0 0 .007.019c1.593 3.35 8.624 3.7 17.103 1.276a2.436 2.436 0 0 1-.239-.389l-1.367-2.88-.907.4a.883.883 0 0 1-1.155-.412.833.833 0 0 1 .43-1.117l.907-.398-1.472-3.1a2.257 2.257 0 0 1-.165-1.464 2.372 2.372 0 0 1 1.369-1.665l7.783-3.44a2.508 2.508 0 0 1 3.031.814l-8.845 3.9c-.873.386-1.258 1.384-.858 2.225l.922 1.94 1.178-.522a.885.885 0 0 1 1.158.414.83.83 0 0 1-.43 1.115l-1.18.52.9 1.873c.4.842 1.433 1.212 2.305.825l8.81-3.894c.012.06.017.116.024.176 8.774-4.87 14.128-10.956 12.383-14.628l-.007-.017-4.312-9.075zm-47.8-33.26c1.228.844-.038 5.622-.545 6.662s-2.905 2.526-3.92 2.81-1.54-.333-1.54-.333c.2-1.5 4.777-9.984 6.005-9.14m8.02 3.96c.804.574.063 3.54-.316 4.5-.753-.444-1.64-.765-2.5-1.033 1.012-1.883 2.305-3.826 2.807-3.467m-2.27 12.26c1.035.272 1.597 1.724 1.597 1.724s-.562 1.1-1.7 1.1-3.005-.817-3.005-.817 2.066-2.27 3.098-1.997m-.125.322c-.648-.173-1.946 1.253-1.946 1.253s.21.1.505.196c.183-.198 1.237-1.287 1.845-1.228a1.051 1.051 0 0 0-.404-.221m13.085 9.235h-.08l-.9.006c-.787.015-1.715.067-2.473.215a4.247 4.247 0 0 0-.788.217c-.084.035-.13.083-.184.128-.035.027-.085.048-.113.078l-.002.003a.554.554 0 0 0-.12.27.819.819 0 0 0 .014.311 1.467 1.467 0 0 0 .123.32 2.053 2.053 0 0 0 .429.551 1.277 1.277 0 0 0 .246.177.428.428 0 0 0 .206.064h.005c.136-.001.276-.023.417-.044.13-.02.256-.036.37-.038l.024-.002.015.002c.083.002.16.015.224.043.007.005.015.013.022.016.06.035.1.086.138.172.133.408.25 1.068.86 1.068.033 0 .058-.016.1-.018.548-.05.886-.49 1.173-.905a.707.707 0 0 1 .113-.125c.198-.187.5-.343.818-.5.29-.156.57-.323.733-.538.377-.493-.304-1.46-1.36-1.46m-2.02 4.383c-.672-.186-.988-.768-1.146-1.195-.138.02-.294.04-.475.043-.856 0-1.73-.993-1.9-1.847-.106-.497.025-.94.31-1.285.16-.192.36-.36.623-.47.404-.17.894-.278 1.413-.354a19.05 19.05 0 0 1 2.367-.161l.226-.004c-1.04-1.323-3.198-3.78-4.918-5.827a2 2 0 0 1-.105-.388c-.03-.195-.017-.488.005-.825a2.634 2.634 0 0 1-.557.424 38.73 38.73 0 0 1-.791-.983c.023-.506.1-.987.31-1.068.27-.106.755-.15 1.12-.17-.01-.427-.056-.844-.182-1.195-.655-1.848-2.414-3.906-3.788-5.2.467-1.224.788-2.74.89-3.777.178-1.84-.15-6.04-1.516-7.062-1.037-.78-4.097 5.088-5.493 7.927-.616-.245-1.015-.507-1.015-.865 0-1.17 1.213-8.236-.3-9.408s-7.723 5.748-10.294 10.87-5.3 18.3-5.904 21.8c-.214 1.24.314 2.44 1.152 3.495 3.95 6.81 20.5 7.183 21.263 5.022.508-1.432 1.35-2.994 1.954-4.585a22.424 22.424 0 0 0 2.824-.495 49.408 49.408 0 0 1-2.518-.39c-1.73-.317-3.452-.752-4.48-1.342-.406-.233-.67-.472-.828-.72l.823.372c1.103.497 2.9.77 4.697.917 1.893.157 3.766.176 4.778.176.078 0 .136-.01.205-.012 1.402-.054 1.95-.63 2.356-1.466a1.976 1.976 0 0 1-.643.111c-.17 0-.316-.026-.452-.065m-14.715 48.82c-.973-.552 4.57-3.52 6.438-3.624s-1.972 8.177-1.972 8.177-1.35-2.794-4.466-4.553m-.622 10.313c-1.86 2.062-4.432 1.79-4.432 1.79s-1.5-1.184-.915-3.017a3.3 3.3 0 0 1 .621-1.114c-.737.314-1.333.655-1.483.996-.416.948-.17 4.98.024 5.93-.368-.375-1.276-.737-2.9-.845-.84-.056-2.274.293-2.274.293a1.28 1.28 0 0 0-.618.302c.337-1.43 1.526-4.728.16-5.75-.374-.276-.833-.52-1.313-.737.316.28.588.617.785 1.02.848 1.73-.464 3.116-.464 3.116s-2.504.648-4.645-1.123c-1.27-1.052-.375-4.057-.375-4.057.383-.14 1.064-.2 1.832-.113.87-.026 4.9.346 7.305.16l5.764-.46c1.057-.453 2.162-.575 2.716-.46 0 0 1.324 2.85.223 4.07m-5.556 11.534a2.3 2.3 0 0 1-1.2-.022c-.683.52-1.577.963-2.24.967-1.2.01-2.092-.422-2.65-.996a2.301 2.301 0 0 1-1.313.05c-4.39-1.09-3.245-4.776-1.822-5.815.715-.525 1.65-.766 2.458-.876-.027.15.003.3.137.39.446.326 1.63.002 1.777.35s-.3.958-.16 1.366a1.563 1.563 0 0 0 1.308.95h.007c.09.005.18.005.277-.007.034-.005.062-.024.09-.033.612-.188 1.072-1.402.925-1.79-.15-.408.262-.562.63-.468s1.378-.163 1.342-.64c-.003-.03-.017-.06-.027-.087.766.12 1.618.36 2.283.847 1.42 1.04 2.57 4.726-1.825 5.816M416.546 78.55s-3.842-8.28-1.974-8.177 7.413 3.072 6.438 3.624c-3.113 1.76-4.464 4.553-4.464 4.553m7.987 2.873c-.085-.02-.18.027-.28.125-.288.286-.61 1.02-.8 1.913-.273 1.205-.223 2.234.1 2.312s.82-.838 1.1-2.043c.193-.85.222-1.6.104-2.012-.046-.166-.118-.273-.214-.295m11.458-.082c-.202-.23-.386-.348-.515-.297-.128.045-.186.245-.183.535.002.432.144 1.075.41 1.764.445 1.15 1.062 1.98 1.38 1.858.317-.117.216-1.154-.227-2.3-.262-.674-.58-1.23-.864-1.56m12.768-15.354c-2.714-1.886-11.08 6.908-12.236 6.512s-13.052-.168-14.05-.574-9.134-8.16-10.867-5.465c-1.808 2.8 3 13.466 2.83 14.4-.465 2.44-2.574 13.77 5.126 17.12 6.32 2.743 16.83 3.03 22.897-1.676 5.254-4.078 3.11-12.426 2.97-14.34s6.046-14.087 3.33-15.974M294.2-19.162c.208-.064.602-.064 1.02.03.49.08 1.96.407 2.993.382.307-.008 1.605-.09 2.603-.144.563-.267 1.205-.326 1.497-.25 0 0 .542 1.32.006 1.846-.903.888-2.08.705-2.08.705s-.66-.57-.348-1.384c.07-.18.178-.33.3-.462-.338.113-.618.24-.693.388-.202.396-.197 2.054-.138 2.596a.592.592 0 0 0 .013.089c-.023-.024-.053-.05-.083-.074-.198-.155-.588-.305-1.24-.38-.384-.043-1.05.077-1.05.077a.596.596 0 0 0-.292.136c.182-.63.82-2.1.2-2.607a3.36 3.36 0 0 0-.623-.387c.153.14.288.3.376.5.347.802-.29 1.397-.29 1.397s-1.165.236-2.107-.617c-.558-.504-.075-1.842-.075-1.842m6.267 4.362c.63.505 1.068 2.2-.977 2.59-1 .188-1.574-.924-1.605-1.743.04.004.078.018.124.016.303-.023.568-.614.508-.803s.134-.248.3-.196.637-.04.63-.26c0-.012-.006-.024-.008-.038.347.072.732.2 1.026.434m-5.548.294c.123-.238.296-.437.474-.55.343-.223.78-.308 1.155-.337-.016.067-.01.13.048.176.19.15.69.056.785.186.004.006.02.007.022.015.06.162-.164.425-.104.614.05.166.256.406.575.448-.118.812-.817 1.86-1.783 1.57-1.47-.44-1.518-1.446-1.172-2.12m10.005 28.98c.44-.193 1.02-.302 1.585-.41l.634-.126c-.866-5.535-.166-9.233 2.086-11.016-.78-1.094-1.437-1.874-1.848-2.3-.26.837-.46 2.43-.558 3.204-.067.53-.124.984-.187 1.308-.097.51-.58 1.703-1.202 3.114.258.472.43.906.506 1.323.178 1.008.044 3.07-.724 3.164-1.307.16-1.907 1.078-1.062 1.523a3.49 3.49 0 0 0 .665.27c.036-.02.065-.04.105-.055m-8.007-.92c.786-1.143 3.155-7.904 1.372-10.562-.11-.167-.5-.55-.877-.92l-.236-.234c.282 4.325-.62 9.33-.782 10.013-.35 1.462-3.105 1.365-1.345 2.555.067.045.14.08.208.12.298-.478.89-.69 1.316-.843.105-.038.255-.1.344-.13m-1.176-31.45c.11-.387.137-.734.09-.915-.018-.07-.045-.12-.087-.133s-.08.01-.125.047c-.142.12-.31.447-.425.852-.155.538-.156 1.006-.005 1.048s.4-.36.55-.9m5.68.957c.148-.046.126-.517-.05-1.046a2.573 2.573 0 0 0-.334-.685c-.096-.132-.188-.2-.255-.187s-.1.127-.093.272c-.003.195.04.47.14.774.177.528.44.92.6.872m20.414 28.945c.972-3.854.322-8.744-1.456-11.43-1.908-2.88-4.55-6.272-7.877-7.905s-5.863-2.06-7.35-3.95c-.623-.792-1.213-1.76-1.692-2.624.53-1.388.262-3.024.262-3.505 0-.7 2.567-4.87 1.634-5.614s-4.202 2.176-4.6 2.005-4.725-.4-5.074-.573-3.093-3.15-3.794-2.233c-.73.955.733 4.884.642 5.21-.225.83-1.216 4.572 1.147 6.085.103 1.53.156 3.414.02 3.996-1.12 4.842 3.006 8.5 4.762 10.264.082.08.158.158.228.232l.154.162a3.29 3.29 0 0 1 .282.34c2.188 3.262-.7 10.825-1.488 11.77a.693.693 0 0 1-.248.17l-.042.02a5.321 5.321 0 0 1-.315.125c-.287.102-.596.206-.784.34-.25.18-.286.42.253.806 1.312.946 3.762 1.03 4.55-.43.235-.435 2.478-5.04 3.76-8.005l.313-.737.014-.03a27.58 27.58 0 0 0 .263-.66c.063-.16.1-.298.155-.428l.034-.093a4.14 4.14 0 0 0 .1-.356l.047-.287c.008-.047.015-.102.022-.156l.028-.197.03-.235.023-.164.05-.4c.01-.06.017-.123.025-.185l.04-.297.028-.2c.014-.1.024-.18.037-.27l.034-.224c.015-.1.026-.176.04-.267l.04-.22.043-.258.042-.218.05-.245.046-.205c.018-.076.038-.15.057-.224.017-.066.035-.13.052-.19.02-.07.042-.137.062-.202l.06-.167a4.53 4.53 0 0 1 .07-.173c.022-.047.04-.093.065-.134.025-.05.05-.096.077-.14.024-.036.048-.073.072-.103a.825.825 0 0 1 .087-.094c.027-.024.05-.05.078-.067a.439.439 0 0 1 .098-.043c.03-.01.056-.02.086-.022a.387.387 0 0 1 .175.02c.592.223 2.014 1.963 3.268 3.82-4.2 2.053-2.547 10.152-2.393 11.214.003.023-.02.04-.025.063-.113.45-2.044.522-2.863.882-1.166.5-1.12 1.286-.263 1.634 1.5.6 13.04 1.458 15.577-1.89.076-.1.12-.208.183-.312.145.336.228.657.2.93-.132 2.14-7.996 2.918-9.184 3.567s-.595 1.753 1.652 1.558c.895-.077 7.93-1.232 9.846-3.05 1.542-1.46-.235-3.963-1.512-5.783m74.77 50.956c-.75 0-1.36-.6-1.36-1.333s.61-1.332 1.36-1.332a1.38 1.38 0 0 1 1.027.458.48.48 0 0 0-.204-.046.45.45 0 0 0-.459.443c0 .25.205.45.46.45.246 0 .445-.2.458-.43.05.14.083.295.083.457 0 .734-.6 1.333-1.364 1.333m-5.308-6.052l-1.968 1.524s-3.214.1-2.576-2.983c.175-.842 1.436-2.4 3.59-1.336 1.044.5.955 2.795.955 2.795m12.08 9.825c-.217-.662-.596-1.34-.877-1.815-.5-.843-2.874-4.642-4.62-6.835.027-.068.054-.132.054-.195 0-.73.928-5.313-.86-6.103-2.396-1.058-3.5 1.77-3.248 3.303.046.282.12.583.204.884a7.645 7.645 0 0 0-1.135.086c-.128-1.307-.518-3.098-1.7-3.67-3.958-1.936-6.276.908-6.596 2.458-.746 3.613 1.382 4.84 3.025 5.26-.2.725-.276 1.492-.412 2.285-.372 2.193 1.882 4.682 4.237 5.722s5.778 2.328 11.206.727h.005c.5.094 1.025-.137 1.252-.62a1.106 1.106 0 0 0-.545-1.486m-7.534 9.885c-1.096-.494-2.473-1.74-3.446-2.7l1.91-2.64c-1.386-.315-2.6-.782-3.718-1.273-3.07-1.353-6.023-4.598-5.45-7.945l.1-.657c-2.35-1.338-3.354-3.818-2.704-6.96.02-.09.048-.187.074-.283-1.514-.957-3.206-1.58-4.975-1.376-14.695 1.705-15.816 13.027-15.567 16.43.026.352.1.696.22 1.028-1.058 1.803-2.15 3.216-3.03 3.348-2.6.4-3.217-.48-5.487-.762s-5.92 1.64-5.92 1.64 1.627-.698 6.527-.09 4.07 1.72 6.76.628c.623-.25 1.25-.79 1.856-1.466.327.33.92.65 1.94 1.03 3.61 1.338 4.236 3.408 6.973 4.504s6.85 1.095 6.477 0-2.12-.366-3.612-1.34c-.732-.477-1.312-1.303-1.818-2.107l.26-.09c1.126.93 2.537 1.875 3.838 2.104 2.742.49 3.86.852 5.106.49s-1.6-.95-2.822-1.505c-.865-.388-1.91-1.25-2.786-2.07a7.84 7.84 0 0 1 .587-.104c3.2-.465 6.044 1.262 7.384 1.85 1.3 1.028 2.186 2.1 3.893 2.774 2.742 1.095 6.853 1.095 6.478 0s-2.118-.366-3.6-1.34c-.375-.24-.707-.573-1.013-.95l.407-.52c.918.65 1.93 1.204 2.884 1.375 2.74.49 3.862.852 5.106.49s-1.6-.95-2.823-1.502m-146.008-6.593l2.048-11.16-2.048 1.963v9.198zm4.288-15.62l-4.288-.5v4.138l2.914-2.647 1.214.217-2.163 16.37v22.062l8.793-3.878V67.405l-6.47-13zm59.74 35.244c-.48-.31-.782-.606-.665-.798.18-.3.934-.22 1.728-.06l1.046-.87c-.828-.817-1.75-1.77-1.164-1.935.618-.178 1.7.31 2.58.7l.933-.862c-.486-.99-1.188-2.216-1.017-2.377.15-.14 1.362.385 2.57.9l1.145-1.06c-.984-1.166-2.023-2.425-1.35-2.405.758.02 1.987.52 3.17.927a12.194 12.194 0 0 1 2.366-1.312 6.14 6.14 0 0 1 .215-.083c.435-.158 1.133-.32 2.002-.48-1.933-1.154-6.106-2.987-8.58-2.23-2.578.787-8.71 11.507-8.043 12.973.136.302.374.565.644.805a66.437 66.437 0 0 0 2.42-1.833zm4.107 12.028c1.356.95 4.79.086 4.672.575-.148.626-1.628 2.233.248 1.887 2.686-.494 6.38-2.393 8.123-4.088a4.01 4.01 0 0 0 .773-1.047c-.423.182-.847.363-1.292.53-2.526.92-7.694 1.637-12.524 2.143zm20.92-15.882c-.69.253-1.472-.14-1.745-.87s.06-1.526.75-1.777 1.47.134 1.745.867-.06 1.53-.75 1.78zm5.11-4.385c-1.183-1.3-14.96-.65-18.155.674s-5.037 3.945-8.964 7.26-7.034 5.465-9.92 6.83-.17 4.585-.17 4.585 17.833-1.054 23.08-2.992c11.87-4.385 15.476-14.865 14.128-16.357zm-5.69 2.306c-.277.1-.414.42-.303.713a.558.558 0 0 0 .701.348c.276-.102.41-.42.3-.713s-.424-.45-.698-.348zm-32 18.246c-1.106 1.985-2.388 4.717-3.55 5.19-1.338.555 1.655-3.752 2.84-5.65a6.96 6.96 0 0 1-.245-.326c-1.55 1.422-5.264 5.206-6.757 5.566-1.748.42 5.03-4.998 6.225-6.447-.05-.1-.1-.2-.15-.32-1.327.4-6.4 3.47-8.167 3.505s5.75-3.224 7.885-4.3a5.917 5.917 0 0 1-.08-.33c-1.997.118-8.158.802-8.782.305-.572-.46 5.884-1.142 8.74-1.422.007-.053-.001-.1.01-.163a3.37 3.37 0 0 1 .06-.27c-2.44-.636-7.7-2.128-8.363-2.854-.733-.79 5.852 1.147 8.833 1.916.282-.375.694-.735 1.306-1.027a25.14 25.14 0 0 0 1.191-.609c-3.818-1.298-11.013-4.207-13.263-2.264-1.282 1.1-1.793 6.503-.152 10.866.763 2.028 4.096 7.227 7.202 7.24 1.105.008 3.436-2.585 5.06-4.353.732-.79 1.85-2.63 2.95-4.448l-2.595.17-.198.012zm47.176-67.648l1.944 6.894-6.44 1.8 2.06 7.306-8.28 2.3-.77-2.74-1.288-4.565-7.358 2.045-.888-3.15-.54-1.92-.375-1.322-.14-.505-.373-1.32 7.36-2.045-1.803-6.392 1.332-.37.508-.14 3.268-.908 1.33-.372.508-.14 1.332-.37 1.803 6.393 6.44-1.79.373 1.322zm-7.422 7.456c-.214-.95-.318-1.38-.64-1.86a1.438 1.438 0 0 0-.1-.14 5.509 5.509 0 0 0-.09-.112 1.602 1.602 0 0 0-.09-.098 1.367 1.367 0 0 0-.412-.302c-.035-.018-.073-.034-.1-.05-.3-.106-.646-.112-1.08-.03-1.218.233-1.728 2.193-1.856 2.817-.055.26-.212.45-.378.633-.03.037-.064.072-.097.11h-.002c-.008.01-.015.016-.02.025a.216.216 0 0 0-.03.033.165.165 0 0 0-.02.024c-.01.01-.02.022-.03.035-.008.006-.013.014-.018.02l-.04.054c-.02.024-.032.042-.044.06-.006.008-.01.013-.015.023a.284.284 0 0 0-.027.04c-.002.007-.008.015-.014.022-.007.015-.016.03-.025.043-.001.01-.005.016-.01.02-.01.022-.02.044-.03.067a.177.177 0 0 0-.006.016l-.02.054c0 .01-.003.015-.006.024-.004.02-.01.035-.013.052 0 .008-.004.016-.005.025l-.01.062v.017c-.005.03-.005.054-.005.083 0 .008-.002.016 0 .024a.702.702 0 0 0 .002.067c.001.01.002.02.005.03 0 .022.002.045.008.068-.001.01.003.02.005.03a.6.6 0 0 0 .02.1c.134.526.6.783 1.032.84l.007-.001a.764.764 0 0 0 .106.01h.024c.03.003.058.002.086.002.015 0 .028-.004.044-.005s.04 0 .06-.004.04-.006.06-.01.028-.003.04-.005c.034-.008.063-.016.094-.025 1.062-.356 1.167-.532 1.55-.583l.08-.008c.708-.053 1.585 1.047 2.532.275a.455.455 0 0 0 .07-.069l.02-.02c.018-.022.033-.045.05-.07.006-.006.01-.012.013-.018a.88.88 0 0 0 .055-.097l.01-.017a1.04 1.04 0 0 0 .037-.092c.005-.008.006-.016.012-.025.026-.077.047-.158.06-.244 0-.006 0-.012.003-.02a.91.91 0 0 0 .01-.117c.005-.053.005-.094.005-.136a1.06 1.06 0 0 0-.128-.468c-.175-.302-.65-.823-.73-1.176zm-5.827-.327a.65.65 0 0 0 .048.028c.02.015.037.024.058.032a.58.58 0 0 0 .134.056c.02.007.044.016.067.022.008.003.015.003.02.004.03.008.058.014.084.016h.02l.077.005.01-.001a.425.425 0 0 0 .086-.01.57.57 0 0 0 .102-.027c.492-.17.66-.917.38-1.66a2.48 2.48 0 0 0-.069-.157l-.02-.046a1.738 1.738 0 0 0-.055-.1l-.03-.05a.781.781 0 0 0-.062-.097c-.007-.012-.013-.025-.024-.037a1.418 1.418 0 0 0-.095-.122 1.107 1.107 0 0 0-.102-.109c-.007-.01-.017-.018-.024-.026a4.436 4.436 0 0 0-.084-.074c-.01-.007-.017-.014-.027-.023-.032-.022-.065-.047-.097-.066a.95.95 0 0 0-.135-.078.764.764 0 0 0-.575-.054c-.492.174-.663.92-.38 1.665.102.27.248.504.418.682l.003.002.04.042c.014.012.026.022.037.034l.054.05c.015.01.032.026.05.037a.187.187 0 0 0 .038.03l.05.034zm1.123-2.635c.01.016.023.03.038.048l.024.025a.523.523 0 0 0 .09.095l.037.036c.016.01.025.022.04.03a2.273 2.273 0 0 0 .1.07c.01.007.02.016.032.02.023.014.046.027.07.036.01.007.017.012.027.013.018.01.04.017.057.023a.1.1 0 0 0 .026.01c.027.01.052.016.08.024.006 0 .013.003.02.003.025.005.05.007.073.012.044.004.07.001.1 0l.02.001.086-.01c.51-.1.786-.757.614-1.467-.01-.052-.024-.1-.043-.15-.004-.016-.012-.03-.016-.045-.012-.034-.024-.068-.037-.1l-.02-.044c-.016-.035-.033-.066-.05-.1a1.553 1.553 0 0 0-.094-.157h-.001a1.081 1.081 0 0 0-.084-.112c-.007-.008-.015-.016-.02-.025-.023-.026-.05-.052-.073-.076a.694.694 0 0 0-.123-.11.923.923 0 0 0-.108-.072.793.793 0 0 0-.562-.118c-.513.1-.79.755-.617 1.467.06.26.173.487.318.67zm6.404-.425l-.012-.033c-.017-.034-.03-.07-.048-.103a.092.092 0 0 0-.01-.016.912.912 0 0 0-.07-.113.725.725 0 0 0-.474-.32c-.513-.087-1.04.47-1.177 1.24a1.95 1.95 0 0 0 .016.787l.001.002.016.053a.72.72 0 0 0 .013.047c.006.024.016.045.022.068.01.018.016.038.023.057a.3.3 0 0 0 .02.044c.006.02.02.035.027.052a.411.411 0 0 0 .024.047c.013.018.024.037.035.055a.092.092 0 0 1 .02.03c.018.022.03.043.052.065.004.005.01.01.014.016l.048.05.018.015a1.907 1.907 0 0 0 .08.063.439.439 0 0 0 .078.044c.025.014.05.026.077.033a.8.8 0 0 0 .103.027c.515.087 1.04-.468 1.178-1.24l.02-.165c.003-.016.003-.036.003-.052a.697.697 0 0 0 .006-.114v-.054l-.005-.112-.002-.04a1.42 1.42 0 0 0-.02-.154l-.001-.003a1.116 1.116 0 0 0-.032-.137c-.002-.013-.006-.023-.01-.034-.01-.035-.02-.07-.034-.105zm-3.902.115c.024.03.05.062.077.1l.01.012c.065.06.13.112.2.153.045.025.074.037.103.05l.03.012c.028.01.053.016.08.02l.03.01c.04.006.076.01.112.012.524.004.933-.58.923-1.3l-.012-.157-.006-.044c-.004-.036-.01-.073-.016-.1a.247.247 0 0 1-.008-.044l-.03-.1-.008-.032a1.556 1.556 0 0 0-.108-.266l-.016-.026c-.018-.032-.034-.062-.055-.093-.006-.008-.008-.02-.017-.025-.02-.033-.044-.062-.068-.092-.178-.21-.392-.33-.627-.334-.52-.007-.932.58-.92 1.3.007.38.13.722.315.963l.01.012zm-4.434-14.834a5.957 5.957 0 0 1 4.723.657l4.108-1.14c-2.455-2.824-6.226-4.18-9.86-3.17s-6.146 4.112-6.77 7.8l4.107-1.142a5.918 5.918 0 0 1 3.693-2.995zm15.1-.68l-30.837 8.57c-2.407.667-3.827 3.097-3.17 5.424l5.545 19.665c.655 2.327 3.14 3.672 5.547 3.003l30.84-8.57c2.405-.667 3.827-3.098 3.17-5.424l-5.545-19.665c-.656-2.326-3.14-3.67-5.547-3.003zm-57.48 48.495c-.376-.288-1.124-4.646-1.202-5.673l-.174-2.77a19.7 19.7 0 0 0 .439-.502l1.144 8.7c.008.16.044.292.077.43a3.532 3.532 0 0 1-.284-.185m-2.976-39.44c.745.364.4 3.316.18 3.862s-1.474 1.4-2.027 1.603-.888-.092-.888-.092c.018-.756 2-5.737 2.734-5.373m3.798 2.103c.395.295.02 2.268-.158 2.767-.388-.235-.842-.404-1.275-.545.5-1.134 1.18-2.4 1.433-2.222m-1.1 6.677c.5.138.773.87.773.87s-.272.55-.82.55-1.456-.413-1.456-.413 1-1.144 1.502-1.006m-.06.162c-.316-.087-.945.63-.945.63a3.82 3.82 0 0 0 .245.1c.1-.1.6-.65.895-.62a.51.51 0 0 0-.196-.111m6.272 4.736l-.033.001a13.59 13.59 0 0 0-.624.014 5.758 5.758 0 0 0-.46.033c-.283.028-.56.07-.75.154a.291.291 0 0 0-.142.122c-.167.27.228.752.4.748.213-.004.475-.12.533.068s.1.5.376.5c.016 0 .025-.008.04-.01.24-.022.4-.224.516-.413.018-.03.055-.052.083-.08.157-.134.418-.242.58-.394.022-.022.052-.04.07-.064.165-.225-.134-.67-.6-.67m-1.662 2.94h.044c.828 0 1.08-.356 1.297-.863a.915.915 0 0 1-.367.075c-.082 0-.144-.022-.2-.043-.326-.093-.485-.38-.56-.592a1.81 1.81 0 0 1-.225.023c-.423 0-.843-.498-.93-.925a.777.777 0 0 1 .074-.544.784.784 0 0 1 .382-.338c.095-.042.216-.067.33-.095.063-.017.115-.04.184-.054a8.1 8.1 0 0 1 1.317-.107h.106c-.5-.665-1.55-1.9-2.388-2.945a1.081 1.081 0 0 1-.053-.196 2.35 2.35 0 0 1 .004-.421 1.15 1.15 0 0 1-.274.216l-.38-.49c.012-.255.048-.5.15-.54.13-.054.365-.077.542-.086a2.036 2.036 0 0 0-.087-.602c-.32-.932-1.175-1.97-1.84-2.628a8.283 8.283 0 0 0 .432-1.901c.087-.93-.072-3.54-.734-4.056-.5-.4-2.023 2.935-2.687 4.474-.278-.116-.468-.245-.468-.418 0-.6.587-4.65-.146-5.24s-3.743 3.395-5 5.977c-1.026 2.124-2.04 8.444-2.534 11.605a10.18 10.18 0 0 0-1.833 1.819c-.47.612-2.065 2.945-3.86 5.76-3.138 3.034-6.745 7.69-7.95 9.78-.436.756-.758 1.795-.853 2.872-1.133.633-2.586 2.012-2.646 3.27-.187 3.82 2.332 5.473 2.954 5.782s1.932.568 2.225-.233-4.477-2.853-2.24-5.594c.06-.076.125-.146.2-.2.214.426.498.81.87 1.137 2.495 2.173 12.138 2.365 13.546 2.273s1.975-.528 1.76-1.087c-.1-.283-1.85-.706-3.132-1.184.86.233 1.704.288 2.125.3 1.112.06 4.425.653 4.425-.476s-3.153-1.876-3.715-1.97c-.318-.05-.49-.272-.45-.838.878-.732 1.6-1.683 2.4-2.27.244-.182.684-.5 1.23-.947.405 2.43.78 4.748.83 5.566.117 1.845 2.056 1.95 2.793 2.006s1.372.027 2.176-.494a.728.728 0 0 0 .263-.269c.577.264 1.227.32 1.587.355.738.076 1.372.06 2.188-.44 1.02-.635-.695-1.467-1.063-1.764s-1.02-4.672-1.07-5.7c-.346-6.68-1.075-10.34-1.897-13.186a61.94 61.94 0 0 0-.22-.83c.25-.66.597-1.365.86-2.084.545-.06 1.052-.158 1.486-.268a17.65 17.65 0 0 1-1.33-.205c-.6-.12-1.172-.275-1.55-.48l-.096-.054c.493.136 1.1.22 1.7.273.904.08 1.796.092 2.3.092m198.338-29.634l-3.055 2.964 3.055 2.414v-5.378zm0-21.774l-3.865 3.752 3.48 2.748a12.08 12.08 0 0 0-.55.888l-4.7-.882-1.527 6.255 4.57.857c0 .334.022.67.048 1.008l-4.586 1.3 2.248 6.086 4.444-1.26c.14.216.29.424.447.63V-2.75z"/></g><g transform="translate(478.136 52.736)"><mask id="F" fill="#fff"><use xlink:href="#C" href="#B"/></mask><use xlink:href="#C" fill="#fff" mask="url(#F)"/></g><path fill="#fff" d="M471.047 9.26a5.56 5.56 0 0 0-.536.56c.295-.94.73-1.8 1.415-2.425 2.047-1.862 5.298-.147 4.835 2.548-1.17-1.785-3.773-2.43-5.714-.683zm-6.966-2.363c-.007.158-.003.313.007.466-.226-.488-.375-1.014-.35-1.577.068-1.674 1.82-2.627 2.6-1.417-1.037-.083-2.184.947-2.257 2.528zm1.447 3.092c.075.001.153-.003.23-.015 1.376-.195 2.22-2.097 1.9-4.245a6.728 6.728 0 0 0-.09-.453l-.037-.14a5.817 5.817 0 0 0-.082-.3l-.05-.143a6.445 6.445 0 0 0-.109-.298l-.044-.11a5.025 5.025 0 0 0-.182-.381 4.702 4.702 0 0 0-.439-.67l-.06-.076a3.565 3.565 0 0 0-.21-.236c-.015-.012-.025-.025-.037-.037a3.24 3.24 0 0 0-.275-.24c-.458-.353-.967-.526-1.474-.454-1.376.195-2.218 2.095-1.9 4.244a5.669 5.669 0 0 0 .729 2.06l.087.134.076.114.114.158.1.132c.027.035.058.067.087.1l.1.116.1.105.13.113a2.883 2.883 0 0 0 .26.194l.057.032.168.1c.017.01.037.02.056.03a2.083 2.083 0 0 0 .458.148 1.534 1.534 0 0 0 .256.026h.05zM471.546-.8c-1.04-.085-2.187.946-2.257 2.528a4.22 4.22 0 0 0 .004.464c-.226-.486-.372-1.01-.35-1.575.068-1.675 1.822-2.627 2.603-1.417zm-3.222 3.605l.073.146.05.088c.038.072.082.14.125.2l.064.094.083.115.077.097.12.14.097.103.08.076a2.361 2.361 0 0 0 .222.184c.047.035.093.064.142.095a2.098 2.098 0 0 0 .254.141c.016.01.033.016.053.023a1.41 1.41 0 0 0 .18.068l.04.013c.07.023.144.038.217.05l.053.007c.076.01.15.02.23.02 1.385.013 2.457-1.594 2.396-3.6a4.975 4.975 0 0 0-.034-.423l-.018-.13a3.646 3.646 0 0 0-.048-.288l-.027-.134a5.555 5.555 0 0 0-.075-.288l-.027-.1a5.546 5.546 0 0 0-.136-.374v-.002a3.859 3.859 0 0 0-.161-.343l-.04-.077a3.926 3.926 0 0 0-.15-.25l-.048-.073a3.576 3.576 0 0 0-.182-.245c-.013-.013-.02-.025-.03-.038a3.208 3.208 0 0 0-.243-.256c-.412-.384-.894-.612-1.406-.616-1.388-.015-2.46 1.592-2.396 3.586.02.727.194 1.402.467 1.97zm16.938 3.675l.015-.114.03-.414v-.01c.004-.132 0-.263-.008-.39l-.008-.092a5.45 5.45 0 0 0-.034-.297l-.017-.094a2.929 2.929 0 0 0-.068-.303.451.451 0 0 0-.012-.052 3.388 3.388 0 0 0-.12-.337l-.002-.004c-.224-.525-.584-.924-1.064-1.112-1.296-.514-2.97.685-3.74 2.678a5.417 5.417 0 0 0-.38 2.112v.006l.01.152.01.13.025.197.027.165.026.126.04.155.043.142.058.164.037.09.097.204a.428.428 0 0 1 .032.051 1.78 1.78 0 0 0 .103.162.57.57 0 0 0 .033.052 2.14 2.14 0 0 0 .33.351c.007.006.014.015.02.02a1.7 1.7 0 0 0 .188.13c.014.01.03.017.044.025a1.52 1.52 0 0 0 .207.1c1.295.515 2.97-.684 3.74-2.676l.146-.43.037-.135.075-.3.03-.143.048-.308zm-7.15-8.236c.79.257.696.797-.188.682-1.315-.173-1.985 1.222-2.22.903s.782-2.114 2.41-1.585zm-3.093 5.096l.153.28.027.043a2.61 2.61 0 0 0 .428.515c.012.01.027.02.042.033l.2.156a2.323 2.323 0 0 0 .272.15l.078.037c.093.038.188.07.288.092 1.354.303 2.745-1.042 3.103-3.002.027-.143.044-.284.058-.424l.008-.12a3.33 3.33 0 0 0 .014-.305l.003-.124-.012-.313c-.005-.03-.005-.06-.008-.1a4.763 4.763 0 0 0-.163-.85 3.288 3.288 0 0 0-.127-.356 3.375 3.375 0 0 0-.129-.281l-.02-.038c-.33-.62-.828-1.06-1.43-1.196-1.357-.302-2.746 1.044-3.103 3.005-.188 1.017-.057 2 .3 2.752.005.013.012.023.018.035zm3.98 9.954c-.047-2.656-.083-3.857-.668-5.33a5.35 5.35 0 0 0-.166-.392c-.005-.012-.01-.02-.014-.032a9.667 9.667 0 0 0-.163-.33c-.005-.005-.008-.012-.012-.018a5.135 5.135 0 0 0-.186-.32 3.94 3.94 0 0 0-.906-1.026l-.002-.001a4.117 4.117 0 0 0-.263-.186c-.72-.456-1.623-.66-2.806-.673-3.298-.04-5.683 4.925-6.355 6.526-.285.672-.794 1.097-1.323 1.494a20.133 20.133 0 0 1-.321.243l-.066.05-.097.074-.06.05a1.667 1.667 0 0 0-.1.079l-.056.045-.136.12a3.47 3.47 0 0 0-.149.14 3.42 3.42 0 0 0-.185.194l-.088.106c-.012.017-.027.03-.04.048l-.112.158-.022.038-.08.137-.032.062-.06.127-.028.068a1.909 1.909 0 0 0-.058.163l-.015.043a3.153 3.153 0 0 0-.068.286l-.027.176c-.004.03-.01.056-.01.087l-.014.182c-.003.03-.003.056-.003.083a2.902 2.902 0 0 0 0 .286c.066 1.473 1.145 2.418 2.24 2.802l.017.004.273.086.06.012a2.5 2.5 0 0 0 .224.048c.037.01.076.01.112.018l.166.02c.056.005.1.005.163.006l.1.004a2.05 2.05 0 0 0 .253-.018c2.964-.37 3.335-.785 4.358-.7l.214.022c1.875.24 3.57 3.667 6.455 2.115a1.62 1.62 0 0 0 .221-.146l.06-.047.166-.153c.014-.014.032-.027.046-.043l.195-.23.03-.043.153-.225.04-.064c.11-.192.21-.397.3-.616l.02-.05a3.642 3.642 0 0 0 .105-.342l.068-.328c.07-.45.053-.907-.078-1.323-.3-.904-1.257-2.557-1.272-3.554z"/></g></g></svg>