<svg xmlns="http://www.w3.org/2000/svg" xmlns:xlink="http://www.w3.org/1999/xlink" width="155" height="50" viewBox="0 0 155 50">
    <defs>
        <path id="a" d="M.027.305h13.045v9.424H.027z"/>
        <path id="c" d="M15.663 14.715a1.831 1.831 0 0 0-.194-.436 2.407 2.407 0 0 0-.654-.679c.077-.263.149-.526.176-.76l.038-.198c.023-.115.045-.23.063-.35l.066-.73c.007-.063.013-.125.017-.188l.002-.93-.059-.61-.026-.293-.17-.907-.246-.882a3.073 3.073 0 0 0-.076-.207l-.249-.648c-.666-1.49-1.643-2.782-2.83-3.753a9.965 9.965 0 0 0-3.938-1.918 3.006 3.006 0 0 0-.434-.09l-.57-.091-.306-.024c-.24-.018-.48-.036-.716-.04-.748 0-1.379.058-1.932.174A10.3 10.3 0 0 0 .427 2.371a4.535 4.535 0 0 0-.129.074l.112-.084A9.428 9.428 0 0 1 3.543.784a9.72 9.72 0 0 1 2.69-.39c.5 0 1 .042 1.485.125l.087.016c.358.066.728.134 1.02.23l.519.152.609.243c.643.249 1.302.62 2.141 1.209.104.076.21.165.315.254l.174.145.148.124c.113.093.22.18.308.278l.195.2c.25.255.487.495.69.768.5.588.935 1.285 1.421 2.278l.302.741c.027.065.053.13.076.195l.162.533c.046.152.093.305.135.46l.132.672.066.347.103 1.035.004 1.039c-.004.067-.013.154-.021.242l-.078.792c-.021.144-.055.31-.088.475l-.044.222c-.061.36-.148.641-.24.938-.035.114-.07.229-.104.347l-.043.142-.02.062-.024.057"/>
        <linearGradient id="d" x1="83.966%" x2="71.291%" y1="9.773%" y2="25.937%">
            <stop offset="0%" stop-color="#EB8D30"/>
            <stop offset="100%" stop-color="#FFFFFE"/>
        </linearGradient>
        <path id="f" d="M1.804 14.9c-.041-.06-.085-.117-.125-.176-.092-.133-.185-.29-.276-.441l-.07-.12-.179-.35-.017-.038-.164-.408c-.12-.298-.235-.579-.308-.872l-.063-.22c-.038-.132-.076-.262-.108-.395l-.113-.612A8.853 8.853 0 0 1 .249 9.73c0-1.088.191-2.208.568-3.303.321-.854.672-1.55 1.07-2.117.466-.731 1.052-1.324 1.511-1.76.084-.071.183-.15.281-.23l.152-.123c.045-.034.096-.076.147-.118.092-.076.18-.148.276-.206l.589-.38c.049-.03.098-.062.144-.088l.82-.413.521-.201c.105-.041.209-.082.315-.117l.497-.14C7.36.466 7.574.43 7.8.39c.111-.018.22-.037.328-.058.293-.042.611-.062.92-.081.111.002.223.002.335.003.21.001.407.002.597.023.095.012.195.021.293.03.205.02.398.04.578.082a8.45 8.45 0 0 1 2.931 1.11l.095.061-.09-.042a9.34 9.34 0 0 0-2.964-.751 8.417 8.417 0 0 0-3.497.457L6.9 1.38a4.648 4.648 0 0 0-.296.132l-.46.215-.772.453c-.065.042-.11.077-.154.111l-.427.315c-.09.057-.182.142-.27.224l-.258.23a9.248 9.248 0 0 0-.228.206 9.229 9.229 0 0 0-2.181 3.54c-.033.124-.063.224-.093.324-.07.235-.143.478-.18.74-.008.049-.02.11-.033.173-.022.111-.044.222-.06.335l-.063.623a2.399 2.399 0 0 0-.017.191l-.005.791.07.83.052.274.091.51c.03.13.061.238.093.347l.052.184c.058.258.157.506.253.746l.085.217-.004.005.08.19.19.378.01.016c.034.054.064.106.094.158.034.06.073.122.114.186-.278.297-.536.587-.778.875"/>
        <linearGradient id="g" x1="11.795%" x2="25.898%" y1="14.541%" y2="27.594%">
            <stop offset="0%" stop-color="#EB8D30"/>
            <stop offset="100%" stop-color="#FFFFFE"/>
        </linearGradient>
        <path id="i" d="M.233.443h37.716v25.364H.233z"/>
        <path id="k" d="M.02.133h22.357v15.44H.019z"/>
    </defs>
    <g fill="none" fill-rule="evenodd">
        <g transform="translate(0 20.833)">
            <mask id="b" fill="#fff">
                <use xlink:href="#a"/>
            </mask>
            <path fill="#EB8E30" d="M12.95 7.504a2.5 2.5 0 0 1-.456.82c-1.694 2.067-6.242 1.817-9.55-.517C.383 6-.316 3.822.122 2.47c.115-.354.31-.672.582-.95 1.423-1.464 5.095-1.823 8.54.148 2.705 1.521 4.293 4.028 3.706 5.836" mask="url(#b)"/>
        </g>
        <path fill="#EB8E30" d="M16.406 37.924l-.05-.17c-.044-.149-.088-.298-.125-.45l-.127-.667c-.308-1.734-.14-3.593.482-5.383.366-.964.762-1.735 1.217-2.377.506-.787 1.156-1.439 1.663-1.915l.026-.024c.107-.09.217-.178.326-.265l.144-.114c.062-.047.104-.082.147-.117.112-.091.24-.195.401-.291l.482-.31.09-.056a3.85 3.85 0 0 1 .198-.12l.895-.445.589-.227c.123-.048.246-.095.37-.135l.543-.15a5.53 5.53 0 0 1 .77-.168c.1-.016.201-.033.3-.053l.037-.006c.358-.051.704-.073 1.038-.094l.082-.002c.106.004.212.004.316.005.227.001.462.002.704.028.103.013.194.021.286.03.225.022.458.044.7.1a9.578 9.578 0 0 1 3.273 1.232c.086.055.15.094.215.133.146.089.297.18.447.298l.097.074.16-.342c.037-.075.075-.156.12-.24l.479-.801.036-.055.326-.44c.17-.25.39-.495.624-.754.08-.088.161-.177.243-.271l.02-.024.023-.02c.327-.314.733-.702 1.228-1.057a10.608 10.608 0 0 1 3.5-1.73c1-.284 2.012-.428 3.004-.428.565 0 1.13.048 1.677.14l.099.018c.397.072.809.146 1.172.266l.49.14.098.032.613.241a9.581 9.581 0 0 1 1.646.838c-1.843-5.281-10.5-9.808-15.454-4.264-3.72 4.165-6.428 3.539-11.622 4.571-5.192 1.037-6.419 5.584-6.954 9.234-.497 3.436.299 7.14 3.387 7.828l-.093-.228a7.192 7.192 0 0 1-.358-1.015"/>
        <path fill="#1C5879" d="M61.209 23.84l-.759 3.052c-.966 3.907-1.885 7.143-1.885 9.432 0 2.335 1.126 3.676 4.438 3.676 5.174 0 6.507-3.214 7.98-10.241l1.517-7.213h-3.242l-1.54 7.143c-1.634 7.56-2.485 8.045-4.44 8.045-1.149 0-1.586-.763-1.586-2.08 0-1.942.966-5.063 3.104-13.039a4.978 4.978 0 0 0-1.103-.115C59.23 22.5 55 25.366 55 28.626c0 1.549.943 2.127 2.46 2.127-.022-.209-.321-.37-.321-1.595 0-2.775 1.563-4.647 4.07-5.318M79.218 28.333c-1.125 0-2.015.747-2.834 1.447l.304-1.447h-3.372L70.833 40h3.372l1.874-8.867c.586-.536 1.007-.886 1.71-.886.702 0 .047 1.54 1.358 1.54 1.147 0 1.686-.887 1.686-1.704 0-.886-.562-1.75-1.615-1.75"/>
        <path fill="#23B4C9" d="M84.93 30.83c-.022-.21-.317-.397-.317-1.587 0-3.547 2.203-5.67 5.883-5.67 1.998 0 2.816 1.447 2.816 3.173 0 2.497-1.68 5.554-3.975 5.74l1.613-7.793-3.362.467L84.498 40h3.272l1.385-6.65h.114c4.088 0 6.564-3.29 6.564-6.254 0-2.403-1.635-4.596-5.36-4.596-3.794 0-7.973 2.963-7.973 6.067 0 1.68.863 2.263 2.43 2.263M101.395 29.564c.438 0 .576.361.576.926 0 1.875-1.565 3.614-3.336 3.727.46-2.236 1.587-4.653 2.76-4.653zm9.459 7.188c.137.13.344.176.526.176.599 0 1.013-.565 1.013-1.107 0-.384-.23-.655-.53-.79.76-1.447 1.404-2.802 1.864-4.27.23 3.479.437 4.179.437 5.354 0 1.581-.989 2.1-2.001 2.1-.915 0-1.32-.428-1.39-1.294.028-.054.054-.113.08-.169zm-6.905.537c0 1.898 1.082 2.711 2.462 2.711.865 0 2.232-.244 3.425-1.634.45.906 1.435 1.634 3.063 1.634 1.886 0 4.601-.971 4.601-3.908 0-1.49-.23-2.372-.506-8.223l-3.405.452c-.713 2.214-1.541 4.45-2.83 6.687-.62.294-1.219 1.062-1.219 2.1l.001.025c-.38.415-.847.676-1.336.676-.644 0-.943-.203-.943-.836 0-.203.023-.429.092-.723l1.472-6.777h1.38l.185-.903h-1.38l.782-3.57-3.405.452-.69 3.118h-.76l-.184.903h.76l-1.38 6.348c-1.151 1.288-2.256 2.282-4.073 2.282-1.105 0-1.656-.362-1.656-1.898 0-.271.023-.587.046-.903 2.76-.159 5.291-2.17 5.291-4.767 0-1.13-.483-2.169-2.53-2.169-4.717 0-6.212 5.445-6.212 8.043C95 38.96 96.426 40 98.589 40c2.39 0 4.104-1.282 5.365-2.834-.001.041-.005.084-.005.123z"/>
        <path fill="#EB8E30" d="M125.411 39.47l3.516-16.923a11.234 11.234 0 0 0-.913-.047c-3.813 0-8.014 2.993-8.014 6.128 0 1.696.868 2.286 2.443 2.286-.023-.212-.32-.4-.32-1.603 0-2.522 1.21-4.29 3.197-5.138l-3.402 16.334c.183-.024.343-.024.525-.024 4.041 0 6.918 5.35 10.183 5.35 1.233 0 2.146-1.438 2.374-3.7a4.781 4.781 0 0 1-1.917.377c-2.9 0-5.297-2.498-7.672-3.04"/>
        <path fill="#EB8E30" d="M133.365 40c1.278 0 3.62-.507 4.968-4.265h-.993c-.355 1.152-1.206 2.029-2.13 2.029-.662 0-.97-.208-.97-.853 0-.208.024-.438.095-.738l1.704-7.84h-3.408l-1.608 7.402c-.119.553-.19 1.06-.19 1.498 0 1.937 1.112 2.767 2.532 2.767M139.25 41.933c-.292 1.377-.809 1.822-1.28 1.822-.496 0-.9-.445-.9-.771 0-1.262 1.057-1.916 2.473-2.406l-.292 1.355zm7.668-13.617h-1.641l.382-1.846c.314-1.564 1.08-1.915 1.574-1.915.45 0 .854.258.854.794 0 .21-.022.398-.045.631h1.057c.045-.28.068-.584.068-.958 0-1.518-1.282-2.522-2.653-2.522-1.485 0-3.418.63-4.093 3.97l-2.72 13.337c-2.137.677-3.868 1.355-3.868 3.503 0 1.519 1.282 2.523 2.653 2.523 1.485 0 3.35-.63 4.025-3.97l2.586-12.613h1.664l.157-.934z"/>
        <path fill="#EB8E30" d="M151.706 29.534c.458 0 .604.362.604.929 0 1.903-1.641 3.647-3.523 3.738.507-2.152 1.713-4.667 2.92-4.667zm-3.136 6.434c0-.204.025-.453.048-.68 2.895-.158 5.549-2.152 5.549-4.78 0-1.133-.507-2.175-2.654-2.175-4.945 0-6.513 5.46-6.513 8.065 0 2.56 1.496 3.602 3.74 3.602 1.929 0 3.666-.77 4.173-3.352-.772.634-1.93 1.2-2.847 1.2-.844 0-1.496-.453-1.496-1.88zM49.955 33.33l.04-.193c.022-.112.045-.225.063-.342l.067-.712c.007-.062.014-.123.018-.183l.002-.91-.06-.593-.027-.287-.174-.886-.25-.86a2.918 2.918 0 0 0-.078-.203l-.254-.632a10.054 10.054 0 0 0-2.887-3.664 10.362 10.362 0 0 0-4.018-1.872 3.188 3.188 0 0 0-.443-.087l-.58-.09-.314-.023c-.246-.018-.49-.035-.73-.04-.764.001-1.407.057-1.972.171a10.803 10.803 0 0 0-3.394 1.259l.114-.082a9.792 9.792 0 0 1 3.196-1.54 10.334 10.334 0 0 1 2.746-.38c.51 0 1.02.04 1.515.122l.088.015c.365.065.743.131 1.04.226l.53.147.622.238c.655.242 1.328.605 2.185 1.18.105.074.213.16.32.248l.178.141c.044.037.098.079.151.121.116.091.225.177.314.272l.199.195c.255.248.497.483.703.75.512.573.955 1.253 1.451 2.223l.309.724c.026.063.053.126.077.19l.165.52c.047.149.095.298.138.45l.135.656.067.338.104 1.01.005 1.015c-.005.065-.013.15-.022.236l-.079.773c-.022.14-.056.302-.09.464l-.045.216c-.062.352-.15.626-.244.916-.036.112-.072.223-.106.339l-.044.139-.022.06-.023.055c.072.22.1.448.083.673l.062-.122.146-.34.036-.085.018-.044.009-.021c.003-.01.003-.009.003-.007l.02-.059.048-.152c.124-.415.27-.78.359-1.285.047-.237.103-.477.14-.712l.071-.697c.011-.116.024-.232.03-.348v-.35l-.005-.699-.072-.695-.037-.346-.068-.342-.141-.681c-.064-.223-.137-.442-.206-.663l-.105-.33c-.04-.108-.088-.213-.132-.319l-.27-.634c-.418-.815-.885-1.605-1.486-2.277-.276-.356-.608-.658-.924-.97-.151-.162-.335-.289-.504-.43-.174-.134-.341-.277-.519-.403-.725-.486-1.468-.926-2.256-1.216l-.582-.224-.018-.007-.051-.017-.035-.01-.07-.02-.138-.038-.276-.076c-.346-.11-.777-.182-1.179-.253-1.585-.261-3.097-.096-4.41.266-1.32.36-2.429.953-3.306 1.59-.446.312-.82.656-1.16.973-.312.347-.616.645-.836.96l-.33.43-.249.407-.213.348c-.06.108-.107.212-.153.303l-.268.556.36-.5c.06-.082.12-.175.196-.272l.263-.305.3-.352.374-.37c.25-.273.582-.518.917-.803.367-.25.743-.54 1.193-.78.882-.498 1.952-.92 3.158-1.148.602-.122 1.241-.163 1.896-.163.327.005.66.036.995.057l.502.079c.169.025.341.047.498.094 1.35.3 2.706.91 3.877 1.806a9.714 9.714 0 0 1 2.78 3.52l.214.534c.035.09.075.177.106.268l.08.277.164.555.112.567.056.284.028.289.058.577-.002.58v.29c-.006.096-.02.192-.028.289l-.054.577c-.028.186-.07.362-.103.543a3.827 3.827 0 0 1-.144.608c.108.052.213.11.312.177.08-.256.152-.513.18-.743"/>
        <path fill="#EB8E30" d="M51.024 35.716l.045-.14c.035-.118.072-.23.109-.344.095-.293.185-.57.248-.928l.046-.22c.035-.163.07-.326.092-.47l.08-.782c.01-.087.018-.174.023-.24l-.005-1.028-.106-1.023-.069-.344-.137-.664a15.503 15.503 0 0 0-.141-.456l-.168-.527c-.024-.065-.052-.129-.079-.193l-.314-.733c-.506-.983-.958-1.672-1.479-2.253-.21-.27-.456-.508-.717-.76l-.202-.197c-.092-.097-.203-.184-.32-.276-.055-.043-.11-.085-.154-.123l-.181-.143a7.056 7.056 0 0 0-.328-.251c-.872-.582-1.558-.95-2.227-1.196l-.633-.24-.54-.15c-.303-.096-.688-.163-1.06-.228l-.09-.016a9.606 9.606 0 0 0-1.545-.124c-.921 0-1.862.13-2.798.386-1.167.316-2.261.84-3.258 1.56l-.116.083.134-.073a11.052 11.052 0 0 1 3.325-1.203c.576-.115 1.231-.172 2.01-.172.245.004.494.021.744.04l.32.023.592.091c.155.023.316.047.45.088a10.59 10.59 0 0 1 4.096 1.898c1.235.96 2.25 2.237 2.943 3.712l.259.64c.026.063.052.126.08.206l.255.872.177.897.027.291.061.602-.002.921c-.004.062-.01.124-.018.186l-.068.722c-.019.118-.042.233-.065.346l-.04.195a4.606 4.606 0 0 1-.183.753c.268.179.503.405.68.672.09.136.153.282.202.43l.024-.056.021-.06"/>
        <g transform="translate(35 20.833)">
            <mask id="e" fill="#fff">
                <use xlink:href="#c"/>
            </mask>
            <path fill="url(#d)" d="M15.663 14.715a1.831 1.831 0 0 0-.194-.436 2.407 2.407 0 0 0-.654-.679c.077-.263.149-.526.176-.76l.038-.198c.023-.115.045-.23.063-.35l.066-.73c.007-.063.013-.125.017-.188l.002-.93-.059-.61-.026-.293-.17-.907-.246-.882a3.073 3.073 0 0 0-.076-.207l-.249-.648c-.666-1.49-1.643-2.782-2.83-3.753a9.965 9.965 0 0 0-3.938-1.918 3.006 3.006 0 0 0-.434-.09l-.57-.091-.306-.024c-.24-.018-.48-.036-.716-.04-.748 0-1.379.058-1.932.174A10.3 10.3 0 0 0 .427 2.371a4.535 4.535 0 0 0-.129.074l.112-.084A9.428 9.428 0 0 1 3.543.784a9.72 9.72 0 0 1 2.69-.39c.5 0 1 .042 1.485.125l.087.016c.358.066.728.134 1.02.23l.519.152.609.243c.643.249 1.302.62 2.141 1.209.104.076.21.165.315.254l.174.145.148.124c.113.093.22.18.308.278l.195.2c.25.255.487.495.69.768.5.588.935 1.285 1.421 2.278l.302.741c.027.065.053.13.076.195l.162.533c.046.152.093.305.135.46l.132.672.066.347.103 1.035.004 1.039c-.004.067-.013.154-.021.242l-.078.792c-.021.144-.055.31-.088.475l-.044.222c-.061.36-.148.641-.24.938-.035.114-.07.229-.104.347l-.043.142-.02.062-.024.057" mask="url(#e)"/>
        </g>
        <path fill="#EB8E30" d="M17.639 40.389c-.094-.13-.19-.285-.28-.433l-.073-.119-.181-.343-.018-.036s-.127-.31-.166-.4c-.123-.293-.24-.569-.313-.857l-.065-.216c-.038-.13-.077-.257-.11-.388l-.115-.6c-.276-1.517-.123-3.162.444-4.752.326-.838.683-1.52 1.088-2.077.474-.718 1.07-1.3 1.537-1.728.085-.07.186-.148.286-.226l.154-.12a5.76 5.76 0 0 0 .15-.116c.093-.074.183-.145.28-.202l.6-.373c.05-.03.099-.061.146-.087l.834-.405.53-.197a5.42 5.42 0 0 1 .32-.115l.506-.137c.222-.068.44-.103.672-.142.112-.017.223-.036.333-.057.298-.041.621-.06.935-.08.113.002.228.003.341.003.213.002.414.002.607.023.097.011.198.021.299.03.208.02.404.038.587.08a8.786 8.786 0 0 1 2.982 1.09l.096.06-.091-.042a9.78 9.78 0 0 0-3.015-.737 8.84 8.84 0 0 0-3.556.449l-.436.153a4.814 4.814 0 0 0-.3.13l-.469.21-.785.445c-.066.041-.11.075-.156.109l-.434.31a1.968 1.968 0 0 0-.276.219l-.261.226a9.299 9.299 0 0 0-.232.202 9.012 9.012 0 0 0-2.219 3.475c-.033.12-.064.219-.094.318-.072.23-.145.468-.183.725-.009.048-.02.11-.034.17-.022.11-.045.219-.06.33l-.065.61a2.274 2.274 0 0 0-.017.189l-.006.776.073.814.052.27.092.5c.031.127.063.234.095.34l.053.181c.06.254.16.497.257.732l.087.213-.004.005.08.186.193.372.01.015c.036.053.066.104.097.155.034.058.075.12.116.182.082-.084.167-.17.253-.255-.059-.094-.11-.182-.172-.275l-.165-.315-.012-.023-.002-.005-.047-.119c-.123-.318-.274-.627-.352-.96-.046-.165-.1-.327-.14-.492l-.093-.504-.05-.25-.022-.255-.047-.51.004-.51.001-.256c.003-.085.017-.17.025-.254l.053-.507c.025-.168.064-.333.095-.5.05-.337.173-.655.262-.98a8.647 8.647 0 0 1 2.123-3.33c.12-.11.246-.213.368-.32.123-.1.241-.224.368-.302l.373-.264c.063-.045.118-.091.188-.135l.226-.128.45-.255.055-.032.028-.016.012-.006.088-.04.213-.096c.143-.061.282-.132.425-.187l.433-.152a8.542 8.542 0 0 1 3.412-.43 9.35 9.35 0 0 1 2.891.703c.203.097.411.17.593.278l.537.292c.325.218.644.4.892.615.13.103.252.2.368.29.107.1.208.192.302.278l.263.243c.08.077.143.155.204.22l.373.407-.287-.47c-.048-.076-.097-.164-.162-.254l-.22-.291c-.08-.105-.165-.221-.26-.34l-.33-.355c-.224-.262-.52-.5-.83-.78a29.58 29.58 0 0 0-.522-.39c-.18-.138-.39-.244-.594-.375a9.159 9.159 0 0 0-3.081-1.13c-.3-.068-.612-.079-.929-.117-.318-.033-.644-.019-.977-.029-.33.02-.67.04-1.01.088-.338.065-.69.1-1.03.205l-.52.14c-.171.054-.339.123-.51.186l-.258.097-.13.049-.15.072-.464.226-.234.113c-.08.044-.166.1-.25.15l-.505.316c-.177.103-.314.23-.472.346-.152.12-.309.238-.46.363-.576.528-1.138 1.105-1.583 1.78-.476.655-.836 1.397-1.135 2.165-.552 1.55-.76 3.274-.458 4.933l.12.62c.05.203.117.403.175.605.105.408.286.788.442 1.176l.06.144c.005.008.004.007.003.007l.022.045.009.016.183.345c.118.19.245.403.364.567.06.085.12.164.181.246.076-.09.155-.181.235-.272-.042-.058-.087-.115-.127-.172"/>
        <path fill="#EB8E30" d="M18.875 38.82l-.01-.015-.198-.365-.082-.184.004-.005-.089-.21a4.615 4.615 0 0 1-.263-.72c-.017-.06-.036-.12-.054-.179a5.518 5.518 0 0 1-.096-.336l-.095-.493-.053-.265-.074-.802.006-.765c.002-.062.009-.124.017-.185l.066-.602c.016-.11.039-.217.062-.325l.034-.168c.039-.253.114-.487.187-.714.031-.098.062-.195.097-.314A8.847 8.847 0 0 1 20.6 28.75a9.41 9.41 0 0 1 .237-.2l.268-.222c.092-.08.187-.162.282-.216l.443-.305c.046-.034.092-.067.16-.107l.802-.44.478-.206a5.02 5.02 0 0 1 .308-.128l.445-.151a9.342 9.342 0 0 1 3.635-.442c1.056.081 2.117.33 3.082.726l.092.04-.098-.058a9.195 9.195 0 0 0-3.047-1.074c-.187-.041-.388-.059-.6-.079a10.67 10.67 0 0 1-.306-.03c-.197-.02-.403-.02-.62-.022-.116 0-.233 0-.35-.003-.32.02-.65.038-.955.079-.112.02-.225.04-.34.057-.236.037-.46.072-.687.14l-.517.134c-.11.033-.218.073-.327.113l-.541.195-.853.398c-.048.026-.1.056-.15.086l-.612.368c-.1.055-.191.125-.287.199l-.153.114-.157.118c-.103.077-.206.154-.293.223-.477.422-1.087.995-1.57 1.702-.415.55-.78 1.222-1.113 2.047-.58 1.567-.736 3.187-.453 4.682l.117.592c.033.128.073.255.113.381l.065.214c.076.283.195.555.32.843.04.09.17.395.17.395l.019.036.184.338.075.117c.093.146.19.298.286.426.042.057.087.113.13.17.252-.279.52-.56.809-.847a5.119 5.119 0 0 1-.119-.18c-.031-.05-.062-.1-.098-.152"/>
        <g transform="translate(16.667 25)">
            <mask id="h" fill="#fff">
                <use xlink:href="#f"/>
            </mask>
            <path fill="url(#g)" d="M1.804 14.9c-.041-.06-.085-.117-.125-.176-.092-.133-.185-.29-.276-.441l-.07-.12-.179-.35-.017-.038-.164-.408c-.12-.298-.235-.579-.308-.872l-.063-.22c-.038-.132-.076-.262-.108-.395l-.113-.612A8.853 8.853 0 0 1 .249 9.73c0-1.088.191-2.208.568-3.303.321-.854.672-1.55 1.07-2.117.466-.731 1.052-1.324 1.511-1.76.084-.071.183-.15.281-.23l.152-.123c.045-.034.096-.076.147-.118.092-.076.18-.148.276-.206l.589-.38c.049-.03.098-.062.144-.088l.82-.413.521-.201c.105-.041.209-.082.315-.117l.497-.14C7.36.466 7.574.43 7.8.39c.111-.018.22-.037.328-.058.293-.042.611-.062.92-.081.111.002.223.002.335.003.21.001.407.002.597.023.095.012.195.021.293.03.205.02.398.04.578.082a8.45 8.45 0 0 1 2.931 1.11l.095.061-.09-.042a9.34 9.34 0 0 0-2.964-.751 8.417 8.417 0 0 0-3.497.457L6.9 1.38a4.648 4.648 0 0 0-.296.132l-.46.215-.772.453c-.065.042-.11.077-.154.111l-.427.315c-.09.057-.182.142-.27.224l-.258.23a9.248 9.248 0 0 0-.228.206 9.229 9.229 0 0 0-2.181 3.54c-.033.124-.063.224-.093.324-.07.235-.143.478-.18.74-.008.049-.02.11-.033.173-.022.111-.044.222-.06.335l-.063.623a2.399 2.399 0 0 0-.017.191l-.005.791.07.83.052.274.091.51c.03.13.061.238.093.347l.052.184c.058.258.157.506.253.746l.085.217-.004.005.08.19.19.378.01.016c.034.054.064.106.094.158.034.06.073.122.114.186-.278.297-.536.587-.778.875" mask="url(#h)"/>
        </g>
        <g transform="translate(13.333 24.167)">
            <mask id="j" fill="#fff">
                <use xlink:href="#i"/>
            </mask>
            <path fill="#1C5879" d="M26.063 3.971c-.134.113-.27.224-.403.34-.119.105-.224.227-.35.32a1.433 1.433 0 0 1-.333.167c-.173.069-.352.124-.527.19l-.094.074c-.062.076-.046.144.046.18.08.034.164.061.249.085.098.028.183-.017.263-.065.161-.094.315-.204.482-.283.138-.067.29-.11.441-.145.2-.045.405-.07.608-.104l.64-.108c.593-.097 1.088-.368 1.462-.85.111-.142.259-.237.403-.338.11-.077.214-.16.324-.236.072-.05.15-.092.226-.138l.033-.03-.007-.02c-.067-.01-.136-.013-.203-.028l-.11-.052c-.168-.176-.379-.199-.6-.177-.116.012-.23.041-.345.063-.078.015-.138-.026-.177-.083a1.195 1.195 0 0 1-.12-.227c-.048-.12-.071-.254-.135-.365a2.48 2.48 0 0 0-.3-.408c-.19-.213-.39-.417-.592-.619-.213-.213-.419-.438-.688-.584a.905.905 0 0 0-.212-.081c-.073-.02-.103.017-.088.09.019.1.017.102-.084.105l-.05.004c-.132-.003-.137.005-.13.136l-.044.104-.082.057c-.06.03-.087.078-.064.142a.54.54 0 0 1 .006.297.859.859 0 0 0 .06.517c.073.167.157.33.237.494.107.221.183.452.215.697.026.196.056.391.086.587l.025.083c.06.121.044.115-.068.21" mask="url(#j)"/>
            <path fill="#70C8E6" d="M11.237 25.53c-.186.038-.372.082-.56.095-.598.042-1.196.073-1.793.105-.173.01-.347.001-.52.01-.123.008-.244.04-.367.045-.177.008-.355.002-.54.002-.013-.106-.05-.158-.171-.14-.056.007-.132-.054-.183-.101-.064-.059-.114-.13-.236-.08l.197.315H6.48l-.017-.033c.04-.034.084-.065.12-.103l.06-.097c-.04-.007-.094-.033-.12-.017-.083.051-.171.106-.225.183-.057.08-.123.096-.203.094a33.45 33.45 0 0 1-.732-.03c-.593-.032-1.186-.063-1.78-.097a11.55 11.55 0 0 1-.701-.057c-.172-.02-.341-.059-.51-.095-.036-.007-.067-.037-.118-.067.183-.18.42-.128.639-.203-.195-.123-.408-.235-.381-.474.021-.196.124-.383.196-.59l-.378-.1c-.626-.157-1.19-.42-1.58-.967-.252-.352-.401-.75-.446-1.18-.03-.297-.057-.6-.041-.898.033-.624.212-1.215.46-1.785l.06-.074c.006.06.012.095.012.13.001.334-.016.668.006 1 .047.704.183 1.391.607 1.974.134.184.319.355.561.403.208.042.42.06.63.087.084.01.122-.024.113-.115-.017-.157-.043-.315-.034-.47.024-.398.048-.798.103-1.192.106-.754.4-1.445.743-2.116.302-.589.664-1.14 1.059-1.668.827-1.109 1.782-2.1 2.787-3.041.662-.62 1.348-1.213 2.016-1.825.326-.297.638-.608.956-.912.249-.237.36-.55.457-.867.136-.45.271-.9.38-1.357.115-.475.193-.958.298-1.435.088-.402.176-.806.293-1.2.086-.289.197-.58.509-.717l.041-.074c0-.523.23-.966.505-1.38.24-.358.522-.687.787-1.028.015-.02.04-.032.089-.07.027.2.047.375.075.55.06.385.128.77.185 1.155.019.126.081.144.191.137.668-.036 1.265.192 1.814.546.123.08.224.24.27.384.146.465.466.712.908.855.411.133.812.3 1.221.444.267.094.539.174.809.259.286.09.411.468.247.716-.059.09-.086.205-.116.312-.12.42-.373.696-.79.849-.626.23-1.272.264-1.926.284a7.03 7.03 0 0 0-.717.056c-.195.026-.24.092-.213.282.055.4.117.798.181 1.197.124.766.261 1.53.26 2.312 0 .363-.068.712-.154 1.063-.1.413-.182.83-.272 1.246-.123.57-.262 1.135-.366 1.708-.123.679-.216 1.363-.321 2.046-.046.299.063.575.123.859.135.633.219 1.271.277 1.916.051.571.081 1.147.232 1.705.054.202.152.341.373.38.234.042.464.114.699.156.322.057.385.293.367.555-.009.13-.126.152-.231.154-.245.005-.49.003-.734.003-.41 0-.82-.009-1.229.005-.192.006-.307-.08-.373-.24-.112-.277-.229-.554-.312-.84a18.43 18.43 0 0 1-.303-1.225c-.1-.464-.186-.931-.275-1.398a83.03 83.03 0 0 1-.22-1.19c-.037-.22-.065-.442-.1-.664-.006-.042-.02-.082-.035-.138-.295.252-.571.494-.854.729-.54.449-1.089.89-1.707 1.226a2.151 2.151 0 0 1-.4.166c-.858-1.936-2.417-2.356-2.417-2.356.21.178.425.348.627.534.41.376.754.807.985 1.32.177.393.28.806.251 1.24-.043.646-.44 1.099-1.063 1.271-.215.06-.434.103-.661.157.228.013.452.023.675.04.318.024.644.018.952.09.404.094.705.358.884.747l.03.117c.008.06-.01.158.02.176.082.048.181.067.275.088.134.03.27.046.403.077l.077.077-.086.075zm.083-.118l-.069-.058c-.07-.016-.14-.028-.211-.04a3.826 3.826 0 0 1-.21-.041c-.087-.02-.176-.038-.248-.08l-.007-.083-.003-.076a.44.44 0 0 0-.03-.124c-.186-.404-.498-.667-.903-.761a3.808 3.808 0 0 0-.684-.075c-.09-.004-.181-.008-.27-.015-.156-.012-.31-.02-.468-.03H8.19l.038-.01c.152-.033.3-.066.447-.107.644-.18 1.039-.65 1.082-1.294.027-.404-.056-.814-.253-1.252-.217-.482-.541-.916-.992-1.329a11.04 11.04 0 0 0-.43-.37l-.092-.076c.389.149 1.571.717 2.273 2.297l.009.02.021-.006c.147-.045.283-.1.404-.167.62-.338 1.164-.775 1.711-1.23.194-.16.385-.325.58-.494l.244-.21.004.014.02.084c.014.083.025.166.037.249.02.139.04.278.064.416.07.398.144.794.22 1.19l.054.288c.07.37.14.742.22 1.11.109.498.202.876.304 1.227.076.262.18.52.283.77l.03.072c.07.172.193.256.396.256h.001c.17-.005.341-.007.512-.007l1.042.003c.136 0 .272 0 .408-.004.067 0 .245-.004.256-.177.024-.341-.103-.532-.388-.582a5.384 5.384 0 0 1-.343-.077c-.118-.029-.237-.058-.356-.079-.188-.033-.293-.141-.353-.362-.127-.47-.168-.963-.208-1.44l-.023-.26a15.857 15.857 0 0 0-.277-1.92c-.014-.067-.032-.134-.049-.202-.053-.208-.108-.424-.074-.647.03-.191.057-.382.086-.574.072-.483.146-.983.235-1.472.071-.393.161-.79.248-1.174a57.524 57.524 0 0 0 .202-.928c.06-.284.12-.568.188-.85.08-.33.155-.689.155-1.069 0-.71-.115-1.418-.226-2.102l-.035-.215a54.72 54.72 0 0 1-.181-1.195c-.013-.094-.007-.15.019-.184.026-.036.08-.056.172-.07a7.07 7.07 0 0 1 .715-.056c.665-.02 1.314-.058 1.934-.285.42-.155.684-.438.805-.866l.012-.043c.026-.091.052-.187.101-.262a.508.508 0 0 0 .047-.445.484.484 0 0 0-.308-.31l-.199-.061a16.166 16.166 0 0 1-.609-.197 24.62 24.62 0 0 1-.497-.183c-.236-.09-.48-.182-.725-.261-.476-.155-.76-.421-.891-.84a.764.764 0 0 0-.28-.396c-.578-.373-1.13-.554-1.687-.554-.048 0-.095.001-.143.004h-.032c-.078 0-.118-.016-.132-.115a40.84 40.84 0 0 0-.11-.696l-.075-.46c-.02-.12-.034-.24-.051-.367l-.03-.226-.08.06-.048.041-.235.298c-.188.234-.383.478-.552.732-.252.378-.51.839-.51 1.394l-.027.05c-.323.142-.434.44-.522.734-.116.391-.206.798-.294 1.202-.045.202-.084.406-.124.61-.053.27-.107.551-.173.824-.108.452-.242.9-.38 1.356-.092.302-.202.618-.45.855L10 11.74c-.208.202-.416.403-.63.599-.273.249-.548.495-.823.741-.394.352-.801.717-1.194 1.084-1.174 1.099-2.06 2.066-2.79 3.044a11.821 11.821 0 0 0-1.061 1.673c-.305.594-.632 1.311-.746 2.124-.055.394-.08.799-.103 1.193-.008.124.007.25.022.373l.011.101-.012.074-.055.014h-.017l-.174-.022c-.15-.017-.305-.035-.454-.065-.202-.04-.386-.172-.546-.393-.46-.633-.563-1.38-.602-1.962a8.141 8.141 0 0 1-.008-.671c.001-.109.003-.217.002-.325l-.006-.082-.011-.112-.039.046-.031.035-.034.045c-.281.648-.432 1.235-.462 1.794-.015.303.012.612.042.903.045.436.197.838.45 1.192.342.478.848.789 1.594.977l.352.092c-.02.055-.042.11-.064.162-.056.139-.11.27-.125.408-.025.235.162.354.345.469a1.57 1.57 0 0 1-.175.03c-.145.02-.294.04-.42.162l-.024.024.029.017.045.03.08.04.073.016c.144.03.291.062.44.08.242.028.49.044.703.057.593.034 1.186.065 1.78.096.243.013.488.022.732.03h.017a.23.23 0 0 0 .208-.105.673.673 0 0 1 .226-.176l.051.01.01.003-.002.002-.04.06-.08.07-.037.031v.047l.017.031h.646l-.204-.326.037-.005c.05 0 .082.031.12.068l.022.022c.08.072.14.107.202.107h.002l.038-.003c.067 0 .094.03.104.122l.003.022.35.002c.071 0 .143 0 .214-.004a1.62 1.62 0 0 0 .19-.023c.06-.009.118-.018.177-.021.088-.005.175-.006.263-.006.086 0 .171 0 .257-.005l.114-.006c.56-.03 1.12-.06 1.679-.1.158-.01.315-.043.468-.075l.096-.02.074-.054.024-.026.02-.018-.019-.019-.02-.026z" mask="url(#j)"/>
            <path fill="#23B4C9" d="M11.246 25.379c-.133-.03-.27-.047-.403-.077-.094-.02-.193-.04-.274-.088-.03-.018-.013-.116-.022-.176l-.029-.117c-.179-.39-.48-.653-.884-.747-.308-.072-.634-.066-.952-.09-.223-.017-.447-.027-.675-.04.227-.054.446-.097.661-.157.623-.172 1.02-.625 1.063-1.27.03-.435-.074-.848-.25-1.24-.232-.514-.575-.945-.986-1.321-.202-.186-.417-.356-.627-.534 0 0 1.559.42 2.418 2.356.138-.043.273-.097.399-.166.618-.337 1.167-.777 1.707-1.226.283-.235.56-.477.854-.73.015.057.03.097.036.14.034.22.062.443.1.664.07.397.144.793.22 1.19.088.466.173.933.274 1.397.09.41.186.821.303 1.224.083.287.2.564.312.84.066.162.181.247.373.24.409-.013.82-.003 1.229-.004.244 0 .489.002.734-.003.105-.002.222-.023.23-.154.019-.262-.044-.498-.366-.555-.235-.042-.465-.114-.7-.156-.22-.039-.318-.178-.372-.38-.15-.558-.18-1.134-.232-1.705a16.013 16.013 0 0 0-.277-1.916c-.06-.284-.169-.56-.123-.859.105-.683.198-1.367.321-2.046.104-.573.243-1.138.366-1.708.09-.415.172-.833.272-1.246.086-.35.154-.7.155-1.063 0-.781-.137-1.546-.26-2.312a52.623 52.623 0 0 1-.182-1.197c-.026-.19.018-.256.213-.282a7.03 7.03 0 0 1 .717-.056c.654-.02 1.3-.055 1.926-.284.417-.153.67-.428.79-.849.03-.107.057-.222.116-.312.164-.248.04-.627-.247-.716-.27-.085-.542-.165-.809-.259-.409-.143-.81-.31-1.221-.444-.442-.143-.762-.39-.908-.855a.746.746 0 0 0-.27-.384c-.55-.354-1.146-.582-1.814-.546-.11.007-.172-.01-.19-.137-.058-.385-.125-.77-.186-1.155-.028-.175-.048-.35-.075-.55-.049.038-.074.05-.09.07-.264.34-.546.67-.786 1.029-.275.413-.505.856-.505 1.379l-.041.074c-.312.137-.423.428-.509.718-.117.393-.205.797-.293 1.199-.105.477-.183.96-.297 1.435-.11.457-.245.908-.381 1.357-.096.317-.208.63-.457.867-.318.304-.63.615-.956.912-.668.612-1.354 1.205-2.016 1.825-1.005.941-1.96 1.932-2.787 3.04-.395.53-.757 1.08-1.059 1.67-.343.67-.637 1.361-.743 2.115-.055.394-.079.794-.103 1.191-.01.156.017.314.034.47.01.092-.029.127-.113.116-.21-.027-.422-.045-.63-.087-.242-.048-.427-.219-.56-.403-.425-.583-.56-1.27-.608-1.975-.022-.331-.005-.665-.006-.998 0-.036-.006-.072-.012-.131l-.06.074c-.248.57-.427 1.16-.46 1.785-.016.298.01.6.041.899.045.43.194.827.445 1.179.391.546.955.81 1.58.968l.379.098c-.072.208-.175.395-.196.59-.027.24.186.352.38.475-.218.075-.455.023-.638.203.05.03.082.06.117.067.17.036.34.075.51.095.234.028.468.044.703.057.593.034 1.186.065 1.78.096.243.013.487.023.73.03.081.003.147-.013.204-.093.054-.077.142-.132.224-.183.027-.016.08.01.122.017l-.06.097c-.037.038-.08.069-.121.103l.017.033h.584l-.197-.315c.122-.05.172.021.236.08.05.047.127.108.183.1.12-.017.158.035.17.141.186 0 .364.006.541-.002.123-.005.244-.037.367-.044.173-.01.347-.002.52-.011.597-.032 1.195-.063 1.792-.105.189-.013.375-.057.561-.094l.086-.075-.077-.077" mask="url(#j)"/>
            <path fill="#37AAD5" d="M37.705 25.489c-.141.038-.285.078-.43.094-.461.046-.924.084-1.387.122-.34.027-.681.057-1.023.07-.45.018-.9.024-1.35.028-.594.003-1.187.012-1.78-.005a42.168 42.168 0 0 1-2.027-.103c-.37-.029-.736-.104-1.102-.17-.127-.023-.271-.048-.33-.236l.799-.056v-.02c-.356 0-.713.003-1.07-.001a2.372 2.372 0 0 1-.389-.035c-.245-.044-.34-.22-.23-.446.194-.398.525-.625.954-.675.36-.043.725-.04 1.097-.087-.05-.013-.1-.028-.152-.038-.51-.106-.957-.316-1.145-.85-.124-.349-.093-.715.006-1.07.147-.526.426-.958.78-1.338.344-.31.82-.587 1.485-.772 0 0-1.88-.012-2.424 1.946 0 0-.058-.599-.455-.812 0 0 .144.28.241.634a5 5 0 0 1 .075.386l.005.042.002.024c.005.079.005.157 0 .233-.031.276-.152.533-.278.78-.233.457-.337.943-.406 1.445-.083.598-.078.502-.562.505-.387.002-.773 0-1.16-.003-.27-.002-.348-.124-.221-.363.102-.192.21-.376.459-.425.198-.038.283-.22.335-.392.12-.396.244-.794.318-1.2.114-.627.203-1.263.11-1.9a8.045 8.045 0 0 0-.275-1.264c-.29-.922-.54-1.843-.562-2.825a4.297 4.297 0 0 1 .479-2.137c.123-.237.223-.49.144-.773-.064-.228-.144-.31-.384-.33-.243-.02-.488-.027-.732-.04l-.391-.02c-.404-.014-.572-.327-.76-.614-.12-.184-.158-.418-.352-.563-.038-.028-.027-.186.014-.248.18-.272.385-.529.572-.796a.51.51 0 0 0 .094-.234c.03-.323.039-.647.065-.97.033-.399.259-.685.577-.886.26-.164.542-.294.821-.423.167-.077.218-.123.182-.309a8.612 8.612 0 0 0-.149-.622c-.062-.23.039-.352.272-.312.419.07.786.254.998.633.129.23.3.352.534.394.55.1.912.455 1.167.915.29.524.546 1.068.79 1.616.296.662.544 1.347.85 2.005.288.62.787 1.06 1.341 1.442.473.326.956.64 1.39 1.013.45.384.755.896 1.016 1.429l.052.043c-.049-.166-.103-.33-.145-.498-.075-.297-.15-.593-.211-.893-.163-.807-.275-1.617-.2-2.448.049-.553.151-1.085.408-1.577.303-.578.767-.95 1.385-1.16.81-.276 1.69.17 2.095.798a1.3 1.3 0 0 1-.306 1.747c-.183.135-.39.166-.6.168-.518.004-.797.453-.849.84-.047.35-.015.687.094 1.018.262.794.526 1.587.796 2.378.254.741.486 1.489.612 2.263.123.748.149 1.499-.025 2.242-.316 1.345-1.054 2.36-2.295 2.977a8.1 8.1 0 0 1-.236.11l-.234.103c1.096.047 2.176.032 3.232.294.048.012.09.05.173.096-.087.049-.136.09-.192.106zm.13-.174l-.106-.053c-.865-.214-1.727-.243-2.639-.273-.161-.005-.323-.01-.486-.017l.132-.059c.08-.035.159-.072.237-.11 1.207-.6 1.983-1.607 2.309-2.993.156-.668.164-1.404.025-2.253-.13-.8-.372-1.562-.613-2.267-.27-.791-.534-1.584-.796-2.378a2.215 2.215 0 0 1-.093-1.007c.053-.391.334-.814.824-.818.18-.001.412-.022.615-.173a1.327 1.327 0 0 0 .313-1.781c-.345-.534-.992-.893-1.61-.893-.176 0-.35.028-.515.084-.643.219-1.1.602-1.399 1.173-.225.43-.353.92-.412 1.587-.08.892.056 1.742.2 2.455.06.288.132.577.202.857l.01.037c.029.115.063.229.098.342l.007.022c-.231-.462-.53-.974-.986-1.364a13.22 13.22 0 0 0-1.158-.854l-.234-.16c-.458-.315-1.022-.763-1.333-1.432-.167-.36-.32-.733-.467-1.095-.124-.304-.249-.61-.383-.91a20.225 20.225 0 0 0-.791-1.617c-.296-.534-.683-.837-1.184-.928a.705.705 0 0 1-.517-.382c-.194-.347-.536-.564-1.016-.646l-.085-.007c-.086 0-.152.027-.192.08-.047.062-.054.156-.023.272.067.249.113.44.148.62.032.169-.005.206-.167.281-.276.127-.561.258-.824.424-.36.228-.558.532-.589.905-.013.152-.02.304-.03.456-.01.172-.02.344-.035.515a.482.482 0 0 1-.09.221c-.077.11-.158.22-.238.328-.114.154-.228.309-.334.468-.044.065-.063.242-.008.284.122.09.18.216.24.348.031.07.064.143.107.208l.043.067c.172.268.35.545.736.56.087.003.174.007.26.013l.358.017c.169.007.337.014.504.028.221.02.3.086.362.312.076.275-.023.524-.143.754-.342.66-.5 1.363-.481 2.15.021.936.24 1.81.562 2.832a7.9 7.9 0 0 1 .275 1.259c.096.661-.006 1.324-.11 1.892-.068.377-.183.753-.293 1.117l-.024.08c-.047.156-.125.338-.316.375-.252.05-.365.228-.477.438-.066.126-.079.225-.039.293.041.07.137.107.283.108.27.002.542.003.812.003h.367c.058 0 .11 0 .154.002l.095.002c.246 0 .257-.081.319-.532.06-.438.156-.95.403-1.435.125-.244.25-.507.28-.79a1.677 1.677 0 0 0-.001-.262l-.005-.044a4.603 4.603 0 0 0-.076-.389 3.739 3.739 0 0 0-.204-.558c.315.234.368.74.369.745l.05.005c.422-1.524 1.653-1.843 2.17-1.91a3.549 3.549 0 0 0-1.274.711c-.394.424-.651.865-.786 1.348-.115.415-.118.771-.006 1.087.211.597.733.777 1.164.866l.015.003c-.144.014-.289.022-.43.03a9 9 0 0 0-.528.04c-.443.053-.78.292-.974.69-.056.116-.063.224-.02.31.045.09.138.15.268.173.12.022.249.033.394.035l.459.003h.154l-.376.025.01.032c.063.201.221.23.35.254l.173.031c.304.056.619.114.931.138.63.048 1.294.082 2.028.103.273.008.546.01.819.01l.69-.003.271-.002c.53-.004.96-.012 1.352-.028.298-.01.6-.036.893-.06l.132-.01c.462-.037.925-.075 1.387-.122.139-.014.276-.052.434-.094.04-.011.075-.034.12-.062l.077-.047.04-.022-.04-.023-.074-.045z" mask="url(#j)"/>
            <path fill="#37AAD5" d="M34.64 22.727c.046-.236.093-.465.15-.688.226-.866.268-1.773.13-2.77a7.932 7.932 0 0 0-.15-.739l-.03-.128.07.146.395.811c.051.103.104.206.158.308.102.193.207.394.29.599.267.659.312 1.257.138 1.828-.142.466-.57.805-1.016.805-.08 0-.127-.004-.142-.023-.015-.018-.01-.068.007-.15zm.135.197c.46 0 .896-.35 1.04-.822.194-.635.103-1.25-.139-1.846-.126-.312-.299-.605-.448-.908-.187-.381-.371-.764-.561-1.154.078.365.178.718.228 1.078.128.927.108 1.85-.128 2.76-.06.228-.106.46-.152.69-.037.186-.02.202.16.202z" mask="url(#j)"/>
            <path fill="#23B4C9" d="M34.615 22.722c.046-.23.093-.462.152-.69.236-.91.256-1.833.128-2.76-.05-.36-.15-.713-.228-1.078.19.39.374.773.561 1.154.15.303.322.596.448.908.242.596.333 1.21.14 1.846-.145.471-.581.822-1.041.822-.18 0-.197-.016-.16-.202zm-.123 2.27l.234-.102a8.1 8.1 0 0 0 .236-.11c1.241-.617 1.98-1.632 2.295-2.977.174-.743.148-1.494.025-2.242-.126-.774-.358-1.522-.612-2.263-.27-.79-.534-1.584-.796-2.378a2.248 2.248 0 0 1-.094-1.019c.052-.386.33-.835.849-.84.21 0 .417-.032.6-.167a1.3 1.3 0 0 0 .306-1.747c-.405-.628-1.284-1.074-2.095-.799-.618.21-1.082.583-1.385 1.161-.257.492-.36 1.024-.409 1.577-.074.831.038 1.64.201 2.448.06.3.136.596.21.893.043.168.097.332.146.498l-.052-.043c-.26-.533-.566-1.045-1.015-1.43-.435-.371-.918-.686-1.39-1.012-.555-.382-1.054-.822-1.342-1.442-.306-.658-.554-1.343-.85-2.005-.244-.548-.5-1.092-.79-1.616-.255-.46-.616-.815-1.167-.915a.729.729 0 0 1-.534-.394c-.212-.38-.58-.562-.998-.633-.233-.04-.334.083-.272.312.056.206.108.413.149.622.036.186-.015.232-.182.31-.28.128-.561.258-.82.422-.319.201-.545.487-.578.886-.026.323-.036.647-.065.97a.51.51 0 0 1-.094.234c-.187.267-.391.524-.572.796-.041.062-.052.22-.014.248.194.145.233.379.353.563.187.287.355.6.759.615.13.005.26.013.39.02.245.012.49.018.733.04.24.02.32.1.384.33.08.282-.02.534-.144.772a4.297 4.297 0 0 0-.48 2.137c.024.982.272 1.903.563 2.825.129.41.214.837.275 1.263.093.638.004 1.274-.11 1.9-.074.407-.198.805-.318 1.201-.052.171-.137.354-.335.392-.249.049-.357.233-.46.425-.126.24-.049.361.223.363.386.003.772.005 1.159.003.484-.003.48.093.562-.505.07-.502.173-.988.406-1.444.126-.248.247-.505.277-.78a1.522 1.522 0 0 0 0-.234l-.001-.024-.005-.042a5 5 0 0 0-.075-.386c-.097-.355-.24-.634-.24-.634.396.213.454.812.454.812.543-1.958 2.424-1.946 2.424-1.946-.665.185-1.14.463-1.484.772-.355.38-.634.812-.78 1.337-.1.356-.13.722-.007 1.071.188.534.634.744 1.145.85.051.01.101.025.152.038-.372.046-.737.044-1.097.087-.43.05-.76.277-.954.675-.11.225-.015.402.23.446.128.023.26.033.39.035.356.004.713 0 1.07 0l-.001.021-.799.056c.059.188.203.213.33.236.366.066.733.141 1.102.17.674.051 1.351.084 2.027.103.593.017 1.186.008 1.78.005.45-.004.9-.01 1.35-.028.342-.013.683-.043 1.023-.07.463-.038.926-.076 1.387-.122.145-.016.289-.056.43-.094.056-.015.105-.057.192-.106-.083-.047-.125-.084-.173-.096-1.056-.262-2.136-.247-3.232-.294z" mask="url(#j)"/>
        </g>
        <path fill="#1C5879" d="M29.213 48.04c.045.114.12.214.212.303.115.11.262.202.428.277.187.084.397.146.616.19.43.083.888.092 1.242.043 0 0 1.483.571 3.419.172 0 0-1.2-.488-1.195-1.741 0 0 .22 1.156 1.332 1.498 1.111.343 2.498.271 2.402-.114-.096-.386-.59-.428-.769-1.213 0 0-.15-1.242 1.263-1.227 1.414.014.906-.814.948-1.399.04-.585-.289-1.256-1.153-1.455 0 0-.248-2.07-2.403-2.54 0 0-.262 1.118 1.154 1.97 0 0-.684-.168-1.142-.828-.356-.15-1.022-.309-1.618.213 0 0 .26 1.013 1.935 1.855 0 0-2.334-1.241-4.036-.214-1.702 1.027-1.757 2.698-1.757 2.698s-.547.368-.8.834c-.116.214-.17.45-.078.678M60.84 42.906c.455-.24.7-.651.7-1.036 0-.535-.463-1.037-1.494-1.037-1.325 0-2.546.828-2.546 1.727 0 .437.288.6.75.6-.006-.058-.097-.11-.097-.443 0-1.075.932-1.584 1.753-1.584.667 0 .926.333.926.704 0 .49-.449 1.056-1.01 1.056h-.042l.33-1.447-1.039.13-.954 4.147h1.01l.575-2.497a3.94 3.94 0 0 1 .323-.02c.512 0 .667.372.667.828 0 .495-.183 1.173-.694 1.173-.162 0-.296-.065-.47-.234a.985.985 0 0 0-.092.378c0 .397.393.482.695.482 1.171 0 1.536-1.252 1.536-1.877 0-.49-.232-.939-.828-1.05M74.035 45.343c-.276 0-.383-.143-.383-.435.031.062.107.08.17.08.163 0 .275-.154.275-.303a.234.234 0 0 0-.144-.217c.207-.398.383-.77.508-1.174.062.956.119 1.149.119 1.471 0 .435-.27.578-.545.578zm-5.545-.658c-.075.36-.338.546-.52.546-.112 0-.313-.006-.313-.484 0-.584.344-1.7.877-1.7.2 0 .257.16.257.235l-.3 1.403zm-5.081-1.72c.12 0 .157.1.157.255 0 .515-.427.993-.909 1.024.125-.614.432-1.278.752-1.278zm14.285 0c.12 0 .157.1.157.255 0 .521-.427 1-.915 1.024.131-.59.445-1.278.758-1.278zm.64.268c0-.31-.132-.596-.69-.596-1.195 0-1.63 1.292-1.686 2.048h-.043a3.494 3.494 0 0 1-.451.31.939.939 0 0 0 .025-.236c0-.41-.063-.651-.138-2.259l-.928.124c-.194.609-.42 1.223-.771 1.837a.575.575 0 0 0-.234.224h-.021c-.094.31-.264.546-.508.546-.176 0-.257-.056-.257-.23 0-.055.006-.118.025-.198l.451-2.11h-.902l-.427 1.992c-.093.31-.256.546-.501.546-.138 0-.188-.112-.188-.254 0-.056.006-.112.019-.174l.451-2.11h-.903l-.426 1.992h-.124c-.094.31-.263.584-.507.584-.175 0-.257-.094-.257-.267 0-.056.006-.119.025-.2l.45-2.11h-.902l-.068.33v-.044c0-.18-.15-.317-.508-.317-1.028 0-1.549 1.186-1.605 2.024h-.049c-.313.354-.614.627-1.11.627-.3 0-.45-.1-.45-.522 0-.688.407-1.824.802-1.824.119 0 .175.1.175.254 0 .106-.025.23-.075.366.075.05.15.075.22.075.181 0 .332-.15.332-.454 0-.285-.138-.57-.696-.57-1.184 0-1.624 1.289-1.68 2.048h-.05c-.313.354-.613.627-1.108.627-.301 0-.452-.1-.452-.522 0-.074.007-.16.013-.248.752-.043 1.441-.596 1.441-1.31 0-.31-.131-.595-.69-.595-1.284 0-1.691 1.496-1.691 2.21 0 .7.388.986.977.986.715 0 1.208-.425 1.56-.906.03.64.407.906.972.906.715 0 1.208-.425 1.56-.907.034.664.42.907.827.907.445 0 .74-.285.934-.57.037.372.263.57.614.57.284 0 .725-.103 1.071-.73.006.51.298.73.67.73.263 0 .614-.08.927-.59.038.385.264.59.62.59.255 0 .638-.078.964-.547.097.292.372.547.872.547.32 0 .721-.1.984-.372.224-.13.481-.303.738-.547.025.649.403.92.966.92.501 0 .953-.211 1.085-.92-.201.174-.502.33-.74.33-.22 0-.389-.125-.389-.516 0-.056.007-.124.013-.186.752-.043 1.441-.59 1.441-1.31zM82.492 40.833c-1.186 0-2.492.847-2.492 1.733 0 .48.27.647.76.647-.007-.06-.1-.113-.1-.453 0-1.014.689-1.62 1.839-1.62.624 0 .88.413.88.907 0 .713-.526 1.586-1.242 1.64l.504-2.227-1.05.133-.967 4.24h1.023l.433-1.9h.036c1.278 0 2.05-.94 2.05-1.787 0-.686-.51-1.313-1.674-1.313M89.313 45.337c-.287 0-.4-.144-.4-.439.033.063.113.082.178.082.17 0 .288-.157.288-.308a.237.237 0 0 0-.15-.22c.216-.401.399-.777.53-1.185.066.966.125 1.16.125 1.487 0 .44-.282.583-.57.583zm-3.326-2.403c.125 0 .164.1.164.258 0 .52-.445 1.003-.95 1.035.132-.621.452-1.293.786-1.293zm3.733-.345c-.204.615-.44 1.236-.806 1.857a.591.591 0 0 0-.245.226h-.023c-.098.314-.334.553-.59.553-.183 0-.268-.057-.268-.233a.84.84 0 0 1 .026-.2l.419-1.883h.393l.052-.25h-.392l.223-.992-.97.125-.197.866h-.215l-.053.251h.216l-.393 1.763h-.13c-.327.358-.642.634-1.16.634-.314 0-.471-.1-.471-.527 0-.075.006-.163.013-.25.786-.045 1.507-.603 1.507-1.325 0-.313-.138-.602-.72-.602-1.344 0-1.77 1.512-1.77 2.234 0 .708.407.997 1.022.997.78 0 1.307-.467 1.677-.98a1.56 1.56 0 0 0-.02.227c0 .527.307.753.7.753.268 0 .705-.081 1.063-.563.099.3.386.563.915.563.537 0 1.31-.27 1.31-1.086 0-.414-.065-.658-.144-2.284l-.97.126zM95.355 43.15a3.803 3.803 0 0 0-.744-.237c.341-.756.732-1.384 1.098-1.6l-.354 1.836zm.83-2.317c-.714 0-1.507.911-2.123 1.992a3 3 0 0 0-.317-.02c-.72 0-1.245.37-1.245.83 0 .263.171.392.379.392.189 0 .341-.102.341-.264 0-.094-.049-.209-.079-.209.08-.23.335-.324.713-.351-.53 1.033-.896 2.14-.896 2.748 0 .702.488.716.817.716-.037-.061-.085-.163-.085-.379 0-.702.335-1.985.793-3.085a2.2 2.2 0 0 1 .817.243l-.47 2.45h.879l.958-4.968a1.235 1.235 0 0 0-.482-.095zM98.763 42.5c-.281 0-.504.213-.709.413l.076-.413h-.843l-.62 3.333h.843l.468-2.533c.146-.154.252-.254.427-.254.176 0 .012.44.34.44.287 0 .422-.253.422-.486 0-.253-.14-.5-.404-.5M100.995 42.843c.126 0 .166.104.166.266 0 .543-.448 1.041-.961 1.067.138-.614.467-1.333.795-1.333zm.672.278c0-.323-.139-.621-.724-.621-1.349 0-1.776 1.56-1.776 2.304 0 .731.408 1.03 1.02 1.03.526 0 1-.22 1.138-.958-.211.18-.527.342-.777.342-.23 0-.408-.13-.408-.537 0-.058.007-.13.013-.194.79-.045 1.514-.615 1.514-1.366zM105.567 42.833l.293-1.326c.321.066.656.126.977.126.544-.113.565-.52.663-.8-.195.06-.411.08-.628.08-.44 0-.88-.08-1.159-.08-1.723 0-2.38.847-2.38 1.733 0 .48.266.647.747.647-.007-.06-.097-.113-.097-.453 0-1.067.37-1.36.907-1.38l-1.005 4.453h1.005l.565-2.506h1.02l.11-.494h-1.018M115.833 41.252c0 .231.184.415.414.415a.416.416 0 1 0 0-.834.416.416 0 0 0-.414.42M119.966 46.474c-.082.363-.247.48-.374.48-.14 0-.254-.117-.254-.203 0-.332.305-.51.704-.64l-.076.363zm-11.517-1.608c-.075.356-.342.54-.526.54-.114 0-.317-.006-.317-.48 0-.576.349-1.681.888-1.681.203 0 .26.159.26.233l-.305 1.388zm11.866 0c-.095.307-.26.54-.507.54-.146 0-.19-.129-.19-.27 0-.05.006-.104.019-.154l.456-2.087h-.913l-.432 1.97h-.126c-.095.308-.324.541-.57.541-.178 0-.261-.055-.261-.227a.83.83 0 0 1 .025-.197l.73-3.315-.939.122-.679 3.077h-.126c-.095.307-.324.54-.57.54-.179 0-.261-.055-.261-.227a.83.83 0 0 1 .025-.197l.457-2.087h-.914l-.431 1.97h-.125c-.14.32-.254.541-.534.541-.19 0-.253-.104-.253-.258 0-.344.305-1.087.305-1.584 0-.491-.299-.694-.704-.694-.235 0-.578.068-.882.522-.07-.38-.318-.528-.654-.528a.99.99 0 0 0-.774.35l.07-.32h-.914l-.432 1.972h-.125c-.095.307-.266.577-.514.577-.177 0-.26-.092-.26-.264a.83.83 0 0 1 .025-.197l.458-2.087h-.914l-.07.325v-.043c0-.178-.152-.313-.514-.313-1.104 0-1.63 1.32-1.63 2.15 0 .73.412.988.843.988.45 0 .75-.283.946-.565.038.368.266.565.621.565.27 0 .681-.091 1.02-.616l-.127.579h.914l.432-1.971c.095-.307.266-.571.514-.571.139 0 .19.135.19.27a.59.59 0 0 1-.02.154l-.462 2.118h.913l.432-1.971c.095-.307.266-.565.495-.565.152 0 .228.11.228.313 0 .393-.285 1.148-.285 1.566 0 .35.196.694.748.694.28 0 .664-.097.99-.708.012.494.304.708.677.708.288 0 .778-.103 1.142-.73.003.51.3.73.678.73.289 0 .778-.103 1.142-.73.003.51.3.73.679.73a.994.994 0 0 0 .773-.357l-.063.27c-.603.173-1.097.35-1.097.922 0 .399.361.663.748.663.419 0 .965-.166 1.155-1.044l.774-3.561h-.92l-.432 1.97z"/>
        <path fill="#EB8E30" d="M133.558 26.694c.651-.051.831.256 1.357.633.524.377.994.062 1.332-.232.337-.294.576-.75.297-1.108-.278-.357-.272-.374-.463-1.41-.192-1.037-.792-1.151-.792-1.151l-.035-.026c-.557-.234-.84.202-1.054.492-.216.288-.282.492-1.111.574-.97.097-.693 2.32.47 2.228M136.7 25.626c.09.212.322.218.454.202.18-.022.382-.109.567-.245.493-.362.698-.917.58-1.208-.091-.222-.35-.216-.458-.203-.163.02-.34.09-.51.205-.53.357-.758.946-.633 1.25M132.853 24.158l.093.009c.187-.027.35-.328.381-.702.042-.478-.136-.864-.325-.947-.036-.016-.073-.021-.11-.016-.14.02-.309.206-.371.579-.08.481.078.995.332 1.077"/>
        <path fill="#EB8E30" d="M136.258 24.164c.16-.014.347-.083.526-.196.549-.346.863-.988.647-1.32-.074-.114-.186-.16-.354-.145-.236.02-.52.158-.757.368-.448.397-.572.9-.432 1.14.068.117.193.168.37.153M135.299 23.329c.109-.023.229-.136.328-.308.24-.42.277-1.041.077-1.28-.051-.06-.108-.084-.172-.07-.148.031-.314.23-.42.507-.17.438-.129.9.006 1.076.05.066.11.09.18.075"/>
        <g transform="translate(23.333)">
            <mask id="l" fill="#fff">
                <use xlink:href="#k"/>
            </mask>
            <path fill="#EB8E30" d="M18.17 14.597c1.421.41 2.452-.797 2.937-1.552.67-1.041 1.105-2.461 1.23-4.003.339-4.097-1.51-7.474-3.449-8.054-1.484-.443-2.566.948-2.964 1.565-.605.942-1.015 2.165-1.18 3.538-.518 4.267 1.393 7.908 3.426 8.506M4.265 15.345c.957.442 1.816.24 2.556-.6.67-.762 1.156-1.978 1.366-3.432C8.835 6.838 6.776 1.505 3.95.335 2.99-.062 2.215.124 1.516.918.532 2.037-.026 4.09.022 6.405c.095 4.36 2.278 8.033 4.243 8.94" mask="url(#l)"/>
        </g>
        <path fill="#EB8E30" d="M16.181 19.969c.791-.115 1.354-.53 1.72-1.26.563-1.118.576-2.8.038-4.604-1.327-4.374-5.399-7.959-8.38-7.376-.77.15-1.305.543-1.638 1.207-.763 1.516-.472 4.06.738 6.48 1.93 3.83 5.406 5.865 7.522 5.553"/>
    </g>
</svg>
