<svg xmlns="http://www.w3.org/2000/svg" xmlns:xlink="http://www.w3.org/1999/xlink" width="501" height="80" viewBox="0 0 501 80">
    <defs>
        <path id="a" d="M0 .114h501.002v79.012H0z"/>
        <path id="c" d="M21.515 42.437V.002H.065v42.435h21.45z"/>
        <path id="e" d="M21.515 42.437V.002H.065v42.435h21.45z"/>
    </defs>
    <g fill="none" fill-rule="evenodd" transform="translate(.666)">
        <mask id="b" fill="#fff">
            <use xlink:href="#a"/>
        </mask>
        <g mask="url(#b)" opacity=".057">
            <path fill="#FFF" d="M175.573 49.26c-1.399-.405-.323-1.553 1.185-1.37 1.821.218 2.603-1.893 3.05-1.366.447.53-.967 3.692-4.235 2.736m-34.196-23.014c.118.374.27.733.439 1.081-1.1-.969-2.004-2.086-2.443-3.416-1.306-3.962 2.963-7.494 6.34-5.25-3.118.579-5.548 3.836-4.336 7.585m-4.42.08c-2.293.418-2.688 3.097-3.25 2.694-.558-.402.214-3.933 3.211-3.926 1.457.005 1.58.952.039 1.232m44.361 16.944c-.322-.842-1.32-3.036-3.402-3.211-5.41-.455-5.84 2.547-9.798.559-2.803-1.408-9.702-5.065-14.53-9.664-4.125-3.925-2.896-6.163-3.18-8.638-.054-1.77-.867-3.496-2.25-4.727-3.309-2.94-7.678-.935-9.667 1.792-.874 1.198-1.107 2.683-.895 4.118-.923.15-1.795.479-2.526 1l.002-.013c-.046.032-.092.07-.136.105l-.114.084a5.74 5.74 0 0 0-.381.344c-.03.03-.056.061-.085.092a4.425 4.425 0 0 0-.357.424c-1.989 2.726-1.698 6.357.65 8.108 1.42 1.063 3.267 1.193 4.945.528 1.578-.104 3.83-.029 5.299.983 3.516 2.43 4.17 3.66 7.47 5.78 5.691 3.654 9.723 6.247 10.665 8.759.376.991.68 1.828.928 2.523-.018 1.855.803 3.685 2.25 4.972 3.31 2.94 7.68.931 9.668-1.793.112-.155.211-.315.301-.477l.051-.093c.083-.152.158-.312.224-.47.014-.039.026-.078.043-.117l.061-.16-.012.007c.306-.891.37-1.86.228-2.809 1.426-.235 2.752-.882 3.594-2.035 1.362-1.865 1.656-4.152.954-5.971M146.316-25.305c9.288-1.343 16.964.31 17.466 3.764.157 1.075-.405 2.18-1.527 3.233-2.487 2.327-7.746 4.397-14.143 5.322-6.658.963-12.482.387-15.436-1.285-1.171-.664-1.891-1.497-2.034-2.479-.504-3.453 6.382-7.211 15.674-8.555m-10.02 9.783c2.388.8 6.48 1.167 11.705.411 4.82-.697 8.444-2.04 10.596-3.377 1.559-.973 2.344-1.944 2.24-2.664-.25-1.712-5.708-3.359-14.029-2.155-8.328 1.203-13.093 4.328-12.843 6.04.095.64.909 1.268 2.332 1.745m20.996 13.31c1.338 1.367.415 2.185.415 2.185s-2.467-.269-3.236-1.874c-1.296 1.24-3.388 3.025-5.228 3.67-3.788 1.33-7.632.323-8.156-2.628-.526-2.95 3.612-5.795 7.107-5.226 1.949.318 4.38 1.36 5.943 2.108.184-1.837 2.581-2.84 2.581-2.84s1.117.521.226 2.214a7.706 7.706 0 0 1-.91 1.351c.4.267.837.606 1.258 1.04m-8.849-6.161c-9.646 1.394-18.102.133-20.994-2.818l.078.533.322 2.217.002.017.264 1.806.308 2.127.25 1.7.342 2.34.555 3.827.004.017c.648 4.449 10.156 6.755 21.235 5.154 11.079-1.602 19.538-6.507 18.888-10.955l-.002-.018-.558-3.828-.342-2.339-.247-1.7-.31-2.127-.264-1.806-.003-.017-.322-2.216-.036-.251c-2.196 3.543-9.795 6.981-19.17 8.337m-21.627-7.325c.027.1.066.198.104.294.44 1.196 1.552 2.215 3.185 3.013 3.837 1.87 10.502 2.534 17.866 1.47 7.366-1.064 13.565-3.59 16.709-6.47 1.343-1.228 2.116-2.521 2.196-3.792.007-.103.017-.208.014-.31-.002-.07-.01-.14-.017-.21-.004-.058-.004-.117-.014-.175-.647-4.45-10.156-6.757-21.237-5.155-11.079 1.603-19.535 6.508-18.886 10.957.008.058.027.114.037.173.014.067.024.137.043.205M15.25 21.589C9.429 23.505 3.185 20.26 1.3 14.344-.582 8.426 2.608 2.077 8.429.16c5.82-1.915 12.065 1.33 13.948 7.247 1.885 5.917-1.307 12.268-7.126 14.182zm-2.723 8.98c-.249.3-.576.524-.943.645-.332.11-.696.134-1.063.054l-4.532-.984-.194 9.087 4.812-3.015 5.43 3.242.189-8.91-1.512.498a2.037 2.037 0 0 1-2.187-.618zm10.896-2.978c-.42.139-.88.137-1.303-.01a2.087 2.087 0 0 1-1.394 1.626l-3.885 1.279 2.95 9.264 3.569-4.456 6.176 1.248-3.612-11.351-1.608 1.812c-.251.282-.56.478-.893.588zM9.062 2.15C4.322 3.711 1.724 8.883 3.259 13.7c1.534 4.818 6.618 7.457 11.356 5.898 4.738-1.559 7.337-6.73 5.803-11.546-1.533-4.817-6.619-7.46-11.356-5.9zm20.793 6.446L27.91 2.48l-3.845 1.266a13.58 13.58 0 0 0-.537-.861l2.794-3.144-4.694-4.306-2.717 3.062a13.9 13.9 0 0 0-.876-.484l.872-4.143-6.183-1.343-.843 4.02c-.332 0-.665.02-.998.043L9.596-7.443 3.584-5.465l1.244 3.91c-.29.167-.569.354-.845.543L.888-3.848l-.888 1v21.484l.148.226L0 19.03v5.404l2.05 1.88 2.716-3.062c.289.17.576.335.875.484l-.87 4.144 6.18 1.342.847-4.02c.33 0 .665-.022.996-.044l1.285 4.036 6.014-1.979-1.244-3.908c.291-.17.57-.357.846-.544l3.093 2.837 4.234-4.77-3.012-2.763c.168-.293.33-.588.476-.892l4.075.886 1.322-6.285-3.955-.859c0-.337-.019-.675-.042-1.013l3.97-1.307zM107.498 5.282a20.166 20.166 0 0 1-3.46 1.365c-2.36.466-5.855.348-9.639-.459-3.783-.806-7.002-2.121-8.938-3.503A19.2 19.2 0 0 1 82.917.039c-3.568-4.44-5.146-10.367-3.78-16.346a19.38 19.38 0 0 1 2.744-6.371c.553.625 1.327 1.265 2.298 1.9-1.166 1.683-2.24 3.675-2.59 5.669-1.24 7.103.93 11.538 3.784 14.307 3.021 2.933 6.806 3.995 8.123 4.35-.41-.225-.796-.457-1.124-.69a17.123 17.123 0 0 1-3.363-3.912c-2.243-3.58-3.126-7.984-2.111-12.423a16.548 16.548 0 0 1 1.94-4.808c-.213-.116-.41-.231-.608-.348 3.044 1.34 6.844 2.561 11.055 3.46 8.278 1.765 15.679 1.773 19.059.272a19.05 19.05 0 0 1-.292 6.896c-1.367 5.979-5.384 10.71-10.554 13.287M85.033-27.6c2.518-1.332 9.311-1.243 17.003.397 7.693 1.642 13.892 4.325 15.597 6.556.38.497.542.973.442 1.408-.547 2.391-8.614 2.703-18.02.698-9.404-2.007-16.585-5.572-16.038-7.963.1-.435.454-.8 1.016-1.096m13.12 25.897c-.529-.112-1.056.211-1.173.725a.95.95 0 0 0 .748 1.134c.532.115 1.058-.21 1.175-.724.118-.513-.217-1.02-.75-1.135m9.42-7.92a.498.498 0 0 0-.592.365.48.48 0 0 0 .379.573.499.499 0 0 0 .592-.366.482.482 0 0 0-.378-.572m-5.262 2.687a.79.79 0 0 0-.94.58.761.761 0 0 0 .6.908.79.79 0 0 0 .94-.579.764.764 0 0 0-.6-.91m1.966 7.733c-.423-.09-.846.168-.94.578a.764.764 0 0 0 .6.908.79.79 0 0 0 .94-.58.76.76 0 0 0-.6-.906m1.013-13.357a.492.492 0 0 0-.586.361.475.475 0 0 0 .374.567.492.492 0 0 0 .588-.361.476.476 0 0 0-.376-.567m-5.88 16.437c-.425-.09-.848.168-.94.579a.763.763 0 0 0 .6.908.79.79 0 0 0 .94-.58.761.761 0 0 0-.6-.907m20.529-19.942a1.89 1.89 0 0 0 .317-.663v-.002l.427-1.865.042-.182-.03-.007c.373-3.161-7.709-7.482-18.354-9.753-10.646-2.27-19.859-1.639-20.898 1.38l-.032-.007-.042.184-.426 1.865h-.001a1.852 1.852 0 0 0 0 .732 20.777 20.777 0 0 0-3.923 8.188c-1.612 7.05.617 14.048 5.333 18.979.367.535.948 1.083 1.713 1.621 2.14 1.507 5.695 2.942 9.864 3.832 4.173.89 8.022 1.032 10.623.537.926-.177 1.692-.436 2.257-.773 6.426-2.553 11.503-7.992 13.118-15.044.701-3.074.656-6.134.012-9.022M227.512 37.063c-2.846 1.993-6.288 3.938-10.138 5.64-4.13 1.825-8.171 3.123-11.783 3.882-3.844.477-6.661-.039-7.436-1.665-1.448-3.05 4.83-8.82 14.025-12.884 9.196-4.064 17.825-4.885 19.276-1.834.806 1.7-.79 4.24-3.944 6.86zm6.542 3.65a.933.933 0 0 1-1.217-.437.872.872 0 0 1 .452-1.174c.46-.204 1.008-.01 1.22.435a.876.876 0 0 1-.455 1.175zm-5.772 5.764a.935.935 0 0 1-1.217-.436.873.873 0 0 1 .453-1.175.933.933 0 0 1 1.216.436.873.873 0 0 1-.452 1.175zm-6.773 4.181a.933.933 0 0 1-1.217-.434.877.877 0 0 1 .453-1.175.935.935 0 0 1 1.219.435.873.873 0 0 1-.455 1.174zm14.099-22.38c-2.036-4.157-12.95-3.426-24.429 1.648-11.244 4.97-18.862 12.267-17.348 16.51-.008-.005-.02-.007-.03-.012l.146.307 4.297 9.042a.12.12 0 0 0 .007.019c1.593 3.35 8.624 3.7 17.103 1.276a2.436 2.436 0 0 1-.239-.389l-1.367-2.881-.907.4a.883.883 0 0 1-1.155-.412.833.833 0 0 1 .43-1.117l.907-.398-1.472-3.1a2.257 2.257 0 0 1-.165-1.464 2.372 2.372 0 0 1 1.369-1.665l7.783-3.44a2.508 2.508 0 0 1 3.031.814l-3.309 1.463-2.215.98-3.321 1.467c-.873.386-1.258 1.384-.858 2.225l.922 1.94 1.178-.522a.885.885 0 0 1 1.158.414.83.83 0 0 1-.43 1.115l-1.18.52.89 1.873c.4.842 1.433 1.212 2.305.825l3.322-1.468 2.216-.979 3.273-1.447c.012.06.017.116.024.176 8.774-4.869 14.128-10.956 12.383-14.628l-.007-.017-4.295-9.043-.017-.034v.002zM187.807-4.983c1.228.844-.038 5.622-.545 6.662-.507 1.036-2.905 2.526-3.919 2.811-1.014.287-1.541-.333-1.541-.333.2-1.49 4.777-9.984 6.005-9.14m8.02 3.959c.804.574.063 3.54-.316 4.5-.753-.444-1.641-.765-2.49-1.033 1.012-1.883 2.305-3.826 2.807-3.467m-2.27 12.261c1.035.272 1.597 1.724 1.597 1.724s-.562 1.09-1.69 1.09c-1.127 0-3.005-.817-3.005-.817s2.066-2.27 3.098-1.997m-.125.322c-.648-.173-1.946 1.253-1.946 1.253s.211.09.505.196c.183-.198 1.237-1.287 1.845-1.228a1.051 1.051 0 0 0-.404-.221m13.085 9.235h-.079c-.255 0-.562 0-.9.006-.787.015-1.715.067-2.473.215a4.247 4.247 0 0 0-.788.217c-.084.035-.129.083-.184.128-.035.027-.085.048-.113.078l-.002.003a.554.554 0 0 0-.12.27c0 .003-.004.003-.004.003a.819.819 0 0 0 .018.308 1.467 1.467 0 0 0 .123.32c.003.003.003.004.003.007a2.053 2.053 0 0 0 .426.544c.003.003.003.004.008.007a1.277 1.277 0 0 0 .238.17.428.428 0 0 0 .206.064h.005c.136-.001.276-.023.417-.044.13-.02.256-.036.37-.038l.024-.002.015.002c.083.002.161.015.224.043.007.005.015.013.022.016.06.035.11.086.138.172.133.408.251 1.068.859 1.068.033 0 .058-.016.09-.018.548-.05.886-.489 1.173-.905a.707.707 0 0 1 .113-.125c.198-.187.51-.343.818-.51.289-.156.57-.323.733-.538.377-.493-.304-1.461-1.36-1.461m-2.02 4.383c-.672-.186-.988-.768-1.146-1.195-.138.02-.294.04-.475.043-.856 0-1.73-.993-1.91-1.847-.106-.497.025-.939.311-1.285.16-.192.36-.36.623-.47.005-.003.007-.007.012-.008.392-.162.882-.27 1.401-.346a19.05 19.05 0 0 1 2.367-.161c.076-.002.15-.004.226-.004-1.039-1.323-3.198-3.78-4.918-5.827a2 2 0 0 1-.105-.388c-.03-.195-.017-.488.005-.825a2.634 2.634 0 0 1-.557.424c-.297-.357-.555-.68-.791-.983.023-.506.1-.987.309-1.068.271-.106.755-.15 1.12-.169-.01-.427-.056-.844-.182-1.195-.655-1.848-2.414-3.906-3.788-5.21.467-1.224.788-2.741.889-3.777.178-1.84-.15-6.039-1.516-7.062-1.037-.781-4.097 5.088-5.493 7.927-.616-.245-1.015-.507-1.015-.865 0-1.169 1.213-8.236-.3-9.408-1.515-1.168-7.723 5.748-10.294 10.87-2.573 5.126-5.3 18.299-5.904 21.81-.214 1.241.314 2.44 1.152 3.495 3.951 6.809 20.5 7.183 21.263 5.022.508-1.432 1.349-2.994 1.954-4.585a22.424 22.424 0 0 0 2.824-.495 49.408 49.408 0 0 1-2.518-.39c-1.73-.317-3.452-.752-4.479-1.342-.406-.233-.67-.472-.828-.719l.823.372c1.103.497 2.91.77 4.697.917 1.893.157 3.766.176 4.778.176.078 0 .136-.01.205-.012 1.402-.054 1.949-.631 2.356-1.466a1.976 1.976 0 0 1-.643.111c-.17 0-.316-.026-.452-.065M189.784 73.997c-.973-.552 4.57-3.521 6.438-3.624 1.87-.104-1.972 8.177-1.972 8.177s-1.35-2.794-4.466-4.553m-.622 10.313c-1.86 2.062-4.432 1.789-4.432 1.789s-1.5-1.184-.915-3.017a3.3 3.3 0 0 1 .621-1.114c-.737.314-1.333.655-1.483.996-.416.948-.17 4.98.024 5.929-.368-.375-1.276-.737-2.91-.845-.84-.056-2.274.293-2.274.293a1.28 1.28 0 0 0-.618.302c.337-1.43 1.526-4.728.159-5.751-.374-.276-.833-.52-1.313-.737.316.28.588.617.785 1.02.848 1.73-.464 3.116-.464 3.116s-2.504.648-4.645-1.123c-1.27-1.052-.375-4.057-.375-4.057.383-.139 1.064-.2 1.832-.113.87-.026 4.89.346 7.305.161.717-.055 3.717-.321 5.764-.459 1.057-.453 2.162-.575 2.716-.46 0 0 1.324 2.849.223 4.07m-5.556 11.534c-.434.108-.83.081-1.2-.022-.683.52-1.577.963-2.239.967-1.21.01-2.092-.422-2.65-.996a2.301 2.301 0 0 1-1.313.05c-4.391-1.089-3.245-4.776-1.822-5.815.715-.525 1.651-.766 2.458-.876-.027.151.003.29.137.389.446.326 1.63.002 1.777.35.147.35-.31.958-.159 1.366a1.563 1.563 0 0 0 1.308.95h.007c.089.005.18.005.277-.007.034-.005.062-.024.091-.033.612-.188 1.072-1.402.925-1.791-.15-.408.262-.562.63-.468.369.093 1.378-.163 1.342-.64-.003-.03-.017-.06-.027-.087.766.12 1.618.36 2.283.847 1.42 1.04 2.569 4.726-1.825 5.816M166.713 78.55s-3.842-8.28-1.974-8.177c1.87.103 7.413 3.072 6.438 3.624-3.113 1.76-4.464 4.553-4.464 4.553m7.987 2.873c-.085-.02-.179.027-.28.125-.288.286-.611 1.02-.81 1.913-.273 1.205-.223 2.234.11 2.312.332.074.82-.838 1.09-2.043.193-.85.222-1.61.104-2.012-.046-.166-.118-.273-.214-.295m11.458-.082c-.202-.23-.386-.348-.515-.297-.128.045-.186.245-.183.535.002.432.144 1.075.409 1.764.445 1.15 1.062 1.98 1.38 1.858.317-.117.216-1.154-.227-2.3-.262-.674-.58-1.23-.864-1.56m12.768-15.354c-2.714-1.886-11.08 6.908-12.236 6.512-1.158-.396-13.052-.168-14.05-.574-.996-.408-9.134-8.16-10.867-5.465-1.808 2.81 3.01 13.466 2.831 14.399-.465 2.441-2.574 13.77 5.126 17.119 6.32 2.743 16.83 3.029 22.897-1.676 5.254-4.078 3.109-12.426 2.969-14.341-.142-1.918 6.046-14.087 3.33-15.974M44.366-19.162c.208-.064.602-.064 1.019.03.491.079 1.96.407 2.993.382.307-.008 1.605-.091 2.603-.144.563-.267 1.205-.326 1.497-.25 0 0 .542 1.32.006 1.846-.903.888-2.079.705-2.079.705s-.66-.57-.348-1.384c.07-.18.178-.329.3-.462-.338.113-.618.24-.693.388-.202.396-.197 2.054-.138 2.596a.592.592 0 0 0 .013.089c-.023-.024-.053-.049-.083-.074-.198-.155-.588-.305-1.24-.38-.384-.043-1.05.077-1.05.077a.596.596 0 0 0-.292.136c.182-.63.821-2.11.21-2.607a3.36 3.36 0 0 0-.623-.387c.153.14.288.3.376.501.347.802-.289 1.397-.289 1.397 0 .001-1.165.236-2.107-.617-.558-.504-.075-1.842-.075-1.842m6.267 4.362c.63.505 1.068 2.199-.977 2.589-.99.188-1.574-.924-1.605-1.743.04.004.078.018.124.016.303-.023.568-.614.508-.803-.058-.187.134-.248.301-.196.168.051.637-.041.631-.259 0-.012-.006-.024-.008-.038.347.072.732.199 1.026.434m-5.548.294c.123-.238.296-.437.474-.551.343-.223.781-.308 1.155-.337-.016.067-.01.13.048.176.189.15.689.056.785.186.004.006.02.007.022.015.06.162-.164.425-.104.614.051.166.256.406.575.448-.118.812-.817 1.86-1.783 1.57-1.469-.439-1.518-1.446-1.172-2.12M55.09 14.473c.44-.193 1.021-.302 1.585-.409.188-.035.429-.08.634-.126-.866-5.535-.166-9.233 2.086-11.016-.781-1.094-1.437-1.874-1.848-2.3-.26.837-.46 2.431-.558 3.204-.067.529-.124.984-.187 1.308-.097.509-.58 1.703-1.202 3.114.258.472.43.906.506 1.323.178 1.008.044 3.069-.724 3.164-1.307.16-1.907 1.078-1.062 1.523.252.133.465.211.665.27.036-.019.065-.04.105-.055m-8.007-.919c.786-1.143 3.155-7.904 1.372-10.562-.111-.167-.5-.549-.877-.92-.074-.073-.157-.154-.236-.234.282 4.325-.62 9.33-.782 10.013-.35 1.462-3.105 1.365-1.345 2.555.067.045.14.081.208.12.298-.478.889-.691 1.316-.843.105-.038.255-.09.344-.129m-1.176-31.451c.109-.387.137-.734.091-.915-.018-.07-.045-.12-.087-.133-.037-.008-.08.009-.125.047-.142.119-.311.447-.425.852-.155.538-.156 1.006-.005 1.048.151.04.399-.36.55-.9m5.679.957c.148-.046.126-.517-.05-1.046a2.573 2.573 0 0 0-.334-.685c-.096-.132-.188-.21-.255-.187-.063.02-.09.127-.093.272-.003.195.04.469.141.774.177.528.44.92.59.872m20.414 28.945c.972-3.854.322-8.744-1.456-11.431-1.908-2.881-4.551-6.272-7.877-7.905-3.326-1.632-5.863-2.061-7.351-3.95-.623-.792-1.213-1.761-1.692-2.624.531-1.388.262-3.024.262-3.505 0-.69 2.567-4.87 1.634-5.614-.934-.745-4.202 2.176-4.61 2.005-.407-.172-4.725-.401-5.074-.573-.35-.172-3.093-3.15-3.794-2.233-.729.955.733 4.884.642 5.211-.225.83-1.216 4.572 1.147 6.085.103 1.53.156 3.414.02 3.996-1.12 4.842 3.006 8.51 4.762 10.264.082.08.158.158.228.232.052.054.108.112.154.162.117.128.217.244.282.34 2.188 3.262-.7 10.825-1.488 11.77a.693.693 0 0 1-.248.17l-.042.02a5.321 5.321 0 0 1-.315.125c-.287.102-.596.206-.784.34-.25.18-.286.419.253.806 1.312.946 3.762 1.03 4.55-.43.235-.435 2.478-5.04 3.76-8.005.003-.002.004-.007.006-.01.11-.257.213-.5.307-.727l.014-.03a27.58 27.58 0 0 0 .263-.66c.063-.16.11-.298.155-.428l.034-.093c.047-.145.08-.267.1-.356.015-.085.03-.18.047-.287.008-.047.015-.102.022-.156.01-.064.019-.124.028-.197l.03-.235.023-.164.05-.41c.01-.061.017-.123.025-.185l.039-.297.028-.21c.014-.09.024-.179.037-.269l.034-.224c.015-.09.026-.176.04-.267.013-.074.025-.147.039-.22l.043-.258c.014-.074.03-.145.042-.218l.051-.245.046-.205c.018-.076.038-.151.057-.224.017-.066.035-.13.052-.189.02-.07.042-.137.062-.202l.059-.167a4.53 4.53 0 0 1 .07-.173c.022-.047.041-.093.065-.134.025-.051.05-.096.077-.139.024-.036.048-.073.072-.103a.825.825 0 0 1 .087-.094c.027-.024.051-.049.078-.067a.439.439 0 0 1 .098-.043c.029-.009.056-.019.086-.022a.387.387 0 0 1 .175.02c.592.223 2.014 1.963 3.268 3.82-4.2 2.053-2.547 10.152-2.393 11.214.003.023-.02.041-.025.063-.113.45-2.044.522-2.863.882-1.166.51-1.12 1.286-.263 1.634 1.49.601 13.04 1.458 15.577-1.891.076-.1.12-.208.183-.312.145.336.228.657.21.93-.132 2.141-7.996 2.918-9.184 3.567-1.191.649-.595 1.753 1.652 1.558.895-.077 7.929-1.232 9.846-3.05 1.542-1.461-.235-3.963-1.512-5.783M146.769 62.961c-.751 0-1.36-.599-1.36-1.333 0-.735.609-1.332 1.36-1.332a1.38 1.38 0 0 1 1.027.458.48.48 0 0 0-.204-.046.45.45 0 0 0-.459.443c0 .25.205.45.459.45.246 0 .445-.19.458-.43.051.141.083.295.083.457 0 .734-.61 1.333-1.364 1.333m-5.308-6.052l-1.968 1.524s-3.214.099-2.576-2.983c.175-.842 1.436-2.39 3.589-1.336 1.044.51.955 2.795.955 2.795m12.081 9.825c-.217-.662-.596-1.341-.877-1.815-.5-.843-2.874-4.642-4.62-6.835.027-.068.054-.132.054-.195 0-.73.928-5.313-.86-6.103-2.396-1.058-3.51 1.77-3.248 3.303.046.282.12.583.204.884a7.645 7.645 0 0 0-1.135.086c-.128-1.307-.518-3.098-1.69-3.671-3.958-1.936-6.276.908-6.596 2.458-.746 3.613 1.382 4.839 3.025 5.26-.19.725-.276 1.492-.412 2.285-.372 2.193 1.882 4.682 4.237 5.722 2.354 1.038 5.778 2.328 11.206.727h.005c.5.094 1.025-.137 1.252-.62a1.106 1.106 0 0 0-.545-1.486m-7.534 9.885c-1.096-.494-2.473-1.741-3.446-2.71.653-.904 1.31-1.831 1.911-2.64-1.386-.315-2.6-.782-3.718-1.273-3.07-1.353-6.023-4.598-5.449-7.945.035-.221.07-.44.1-.657.003-.005.003-.01.006-.017-2.357-1.321-3.36-3.801-2.71-6.943.02-.091.048-.187.074-.283-1.514-.957-3.206-1.58-4.975-1.376-14.695 1.705-15.816 13.027-15.567 16.431.026.352.11.696.22 1.028-1.058 1.803-2.15 3.216-3.031 3.348-2.6.39-3.217-.48-5.487-.762-2.272-.282-5.921 1.641-5.921 1.641s1.627-.698 6.527-.089c4.9.604 4.069 1.721 6.76.628.623-.25 1.25-.791 1.856-1.466.327.33.92.65 1.94 1.029 3.611 1.338 4.236 3.408 6.973 4.504 2.74 1.095 6.851 1.095 6.477 0-.372-1.096-2.119-.366-3.612-1.341-.732-.477-1.312-1.303-1.818-2.107l.261-.091c1.126.929 2.537 1.875 3.838 2.104 2.742.489 3.86.852 5.106.489 1.244-.367-1.6-.951-2.822-1.505-.865-.388-1.909-1.25-2.786-2.07.195-.041.39-.078.587-.104 3.201-.465 6.044 1.262 7.384 1.851 1.3 1.028 2.186 2.09 3.893 2.774 2.742 1.095 6.853 1.095 6.478 0-.372-1.096-2.118-.366-3.61-1.341-.375-.24-.707-.573-1.013-.949.13-.166.266-.337.407-.52.918.65 1.93 1.204 2.884 1.375 2.741.489 3.862.852 5.106.489 1.246-.367-1.601-.951-2.823-1.502M0 70.026l2.048-11.161L0 60.828v9.198zm4.288-15.62L0 53.915v4.138l2.914-2.647 1.214.217-2.163 16.369v22.062l8.793-3.878V67.405l-6.47-13zM64.027 89.65c-.479-.311-.782-.606-.665-.798.179-.3.934-.22 1.728-.061.346-.28.688-.565 1.046-.87-.828-.817-1.749-1.77-1.164-1.935.618-.178 1.701.309 2.58.699.322-.295.635-.582.933-.862-.486-.991-1.188-2.216-1.017-2.377.15-.14 1.362.385 2.57.901.391-.37.772-.723 1.145-1.059-.984-1.166-2.023-2.425-1.35-2.405.758.021 1.987.52 3.17.927a12.194 12.194 0 0 1 2.366-1.312c.067-.027.14-.056.215-.083.435-.158 1.133-.321 2.002-.48-1.933-1.154-6.106-2.987-8.58-2.23-2.578.787-8.709 11.507-8.043 12.973.136.302.374.565.644.805a66.437 66.437 0 0 0 2.42-1.833zm4.107 12.028c1.356.95 4.789.086 4.672.575-.148.626-1.628 2.233.248 1.887 2.686-.494 6.38-2.393 8.123-4.088a4.01 4.01 0 0 0 .773-1.047c-.423.182-.847.363-1.292.53-2.526.919-7.694 1.637-12.524 2.143zm20.919-15.882c-.691.253-1.472-.14-1.745-.87-.276-.73.059-1.526.749-1.777.69-.253 1.47.134 1.745.867.275.73-.061 1.53-.75 1.78zm5.109-4.385c-1.183-1.31-14.96-.65-18.155.674-3.196 1.32-5.037 3.945-8.964 7.26-3.928 3.312-7.034 5.465-9.919 6.83-2.885 1.364-.17 4.585-.17 4.585s17.833-1.054 23.08-2.992c11.87-4.385 15.476-14.865 14.128-16.357zm-5.689 2.306c-.277.1-.414.42-.303.713a.558.558 0 0 0 .701.348c.276-.102.411-.421.3-.713-.11-.295-.424-.45-.698-.348zm-31.99 18.246c-1.106 1.985-2.388 4.717-3.55 5.191-1.338.555 1.655-3.752 2.84-5.649a6.96 6.96 0 0 1-.245-.326c-1.55 1.422-5.264 5.206-6.757 5.566-1.748.42 5.03-4.998 6.225-6.447-.051-.1-.1-.21-.15-.32-1.327.4-6.41 3.47-8.167 3.505-1.754.039 5.751-3.224 7.885-4.29a5.917 5.917 0 0 1-.08-.33c-1.997.118-8.158.802-8.782.305-.572-.46 5.884-1.142 8.74-1.422.007-.053-.001-.11.011-.163a3.37 3.37 0 0 1 .06-.27c-2.44-.636-7.69-2.128-8.363-2.854-.733-.791 5.852 1.147 8.833 1.916.282-.375.694-.735 1.306-1.027a25.14 25.14 0 0 0 1.191-.609c-3.818-1.298-11.013-4.207-13.263-2.264-1.282 1.11-1.793 6.503-.152 10.866.763 2.028 4.096 7.227 7.202 7.241 1.105.008 3.436-2.585 5.06-4.353.732-.791 1.851-2.63 2.949-4.448-1.467.104-2.433.163-2.595.17l-.198.012zM103.659 34.315l.142.504.373 1.322.541 1.92.372 1.323.143.504.373 1.321-2.76.769-3.679 1.021 1.287 4.566.773 2.74-1.332.37-.509.14-1.331.37-1.935.538-1.333.37-.507.141-1.334.371-.771-2.74-1.288-4.565-4.6 1.277-2.758.768-.373-1.323-.142-.504-.373-1.322-.54-1.921-.375-1.322-.141-.505-.373-1.321 2.759-.766 4.6-1.279-1.032-3.652-.771-2.74 1.332-.371.508-.14 1.332-.37 1.936-.538 1.33-.372.508-.14 1.332-.37.773 2.74 1.03 3.653 3.68-1.022 2.76-.767.373 1.322zm-7.422 7.456c-.214-.95-.318-1.379-.64-1.861a1.438 1.438 0 0 0-.1-.14 5.509 5.509 0 0 0-.09-.112 1.602 1.602 0 0 0-.09-.098c0-.002-.003-.002-.003-.004a1.367 1.367 0 0 0-.409-.298c-.035-.018-.073-.034-.11-.05-.3-.106-.646-.112-1.081-.029-1.218.233-1.728 2.193-1.856 2.817-.055.26-.212.45-.378.633-.031.037-.064.072-.097.109h-.002c-.008.01-.015.016-.02.025a.216.216 0 0 0-.03.033.165.165 0 0 0-.02.024c-.01.011-.021.022-.03.035-.008.006-.013.014-.018.019l-.041.054c-.002.003-.004.003-.004.007-.016.017-.028.035-.04.053-.006.008-.01.013-.015.023a.284.284 0 0 0-.027.04c-.002.007-.008.015-.014.022-.007.015-.016.03-.025.043-.001.01-.005.016-.009.02-.01.022-.021.044-.029.067a.177.177 0 0 0-.006.016l-.02.054c0 .009-.003.015-.006.024-.004.019-.01.035-.013.052 0 .008-.004.016-.005.025l-.01.062v.017c-.005.029-.005.054-.005.083 0 .008-.002.016 0 .024a.702.702 0 0 0 .002.067c.001.01.002.02.005.03 0 .022.002.045.008.068-.001.009.003.02.005.03a.6.6 0 0 0 .02.1c.134.526.6.783 1.032.839l.007-.001a.764.764 0 0 0 .106.01h.024c.03.003.058.002.086.002.015 0 .028-.004.044-.005.02 0 .04 0 .06-.004.021 0 .041-.006.06-.01.015-.003.028-.003.041-.005.034-.008.063-.016.094-.025 1.062-.356 1.167-.532 1.55-.583l.08-.008c.708-.053 1.585 1.047 2.532.275a.455.455 0 0 0 .07-.069l.02-.02c.018-.022.033-.045.05-.07.006-.006.01-.012.013-.018.02-.029.037-.062.055-.097l.009-.017c.014-.03.026-.061.037-.092.005-.008.006-.016.012-.025.026-.077.047-.158.061-.244 0-.006 0-.012.003-.02.006-.038.009-.078.01-.117.002-.003 0-.007.002-.012.003-.041.003-.082.003-.124a1.06 1.06 0 0 0-.128-.468c-.175-.302-.65-.823-.73-1.176zm-5.827-.327c.016.01.034.021.048.028.02.015.037.024.058.032a.58.58 0 0 0 .134.056c.02.007.044.016.067.022.008.003.015.003.021.004.03.008.058.014.084.016h.021l.077.005.011-.001a.425.425 0 0 0 .086-.01c.004-.002.01-.004.018-.002a.57.57 0 0 0 .084-.025c.492-.17.66-.917.38-1.661-.022-.054-.044-.106-.069-.157l-.02-.046a1.738 1.738 0 0 0-.055-.1l-.029-.05a.781.781 0 0 0-.062-.097c-.007-.012-.013-.025-.024-.037a1.418 1.418 0 0 0-.095-.122c0-.002-.002-.002-.003-.004a1.107 1.107 0 0 0-.099-.105c-.007-.01-.017-.018-.024-.026a4.436 4.436 0 0 0-.084-.074c-.01-.007-.017-.014-.027-.023-.032-.022-.065-.047-.097-.066-.007-.006-.01-.01-.015-.012-.041-.024-.08-.049-.12-.066a.764.764 0 0 0-.575-.054c-.492.174-.663.921-.381 1.665.102.27.248.504.418.682l.003.002.04.042c.014.012.026.022.037.034l.054.049c.015.01.032.026.051.037a.187.187 0 0 0 .038.03l.049.034zm1.123-2.635c.01.016.023.03.038.048l.024.025a.523.523 0 0 0 .09.095l.037.036c.016.01.025.022.04.03a2.273 2.273 0 0 0 .1.07c.01.007.021.016.032.021.023.014.046.027.069.036.01.007.017.012.027.013.018.01.039.017.057.023a.1.1 0 0 0 .026.01c.027.01.052.016.079.024.006 0 .013.003.02.003.025.005.05.007.073.012.005-.002.01 0 .015 0 .029.004.056.001.084 0l.02.001.086-.01c.509-.101.786-.757.614-1.467-.01-.052-.024-.1-.043-.149-.004-.016-.012-.03-.016-.045-.012-.034-.024-.068-.037-.1l-.021-.044c-.016-.035-.033-.066-.05-.1a1.553 1.553 0 0 0-.094-.157h-.001a1.081 1.081 0 0 0-.084-.112c-.007-.008-.015-.016-.021-.025-.023-.026-.05-.052-.073-.076a.694.694 0 0 0-.123-.11.923.923 0 0 0-.108-.072.793.793 0 0 0-.562-.118c-.513.099-.789.755-.617 1.467.061.26.173.487.318.671h.001zm6.404-.425l-.012-.033c-.017-.034-.03-.069-.048-.103a.092.092 0 0 0-.01-.016.912.912 0 0 0-.07-.113.725.725 0 0 0-.474-.32c-.513-.087-1.04.47-1.177 1.24-.05.28-.04.553.016.787l.001.002.016.053a.72.72 0 0 0 .013.047c.006.024.016.045.022.068.01.018.016.038.023.057a.3.3 0 0 0 .02.044c.006.019.019.035.027.052a.411.411 0 0 0 .024.047c.013.018.024.037.035.055a.092.092 0 0 1 .02.03c.018.022.031.043.052.065.004.005.01.009.014.016l.048.05.018.015a1.907 1.907 0 0 0 .08.063.439.439 0 0 0 .078.044c.025.014.05.026.077.033.008.002.013.003.018.007.027.007.056.015.085.02.515.087 1.04-.468 1.178-1.24l.021-.165c.003-.016.003-.036.003-.052a.697.697 0 0 0 .006-.114v-.054l-.005-.112-.002-.04a1.42 1.42 0 0 0-.02-.154l-.001-.003a1.116 1.116 0 0 0-.032-.137c-.002-.013-.006-.023-.01-.034-.01-.035-.02-.07-.034-.105zm-3.902.115c.024.03.05.062.077.09l.01.012c.065.06.13.112.199.153.007.002.012.007.017.008.028.017.057.029.086.041l.03.012c.028.01.053.016.081.021l.03.009c.039.006.076.01.112.012.524.004.933-.58.923-1.31-.004-.051-.007-.106-.012-.157l-.006-.044c-.004-.036-.011-.073-.016-.11a.247.247 0 0 1-.008-.044l-.03-.11-.008-.032a1.556 1.556 0 0 0-.108-.266l-.016-.026c-.018-.032-.034-.062-.055-.093-.006-.008-.008-.02-.017-.025-.02-.033-.044-.062-.068-.092-.005-.005-.007-.01-.01-.012-.168-.197-.382-.318-.617-.322-.521-.007-.932.579-.919 1.31.007.38.13.722.315.963l.01.012zM89.6 23.665a5.957 5.957 0 0 1 4.723.657l4.108-1.14c-2.455-2.824-6.226-4.179-9.861-3.17-3.633 1.01-6.146 4.112-6.77 7.79l4.107-1.142a5.918 5.918 0 0 1 3.693-2.995zm15.09-.68l-30.837 8.57c-2.407.667-3.827 3.097-3.171 5.424l5.545 19.665c.655 2.327 3.141 3.672 5.547 3.003l30.839-8.57c2.405-.667 3.827-3.098 3.17-5.424l-5.545-19.665c-.656-2.326-3.14-3.671-5.547-3.003zM47.21 71.48c-.376-.288-1.124-4.646-1.202-5.673-.075-.999-.13-1.914-.174-2.77.149-.164.293-.33.439-.502.46 3.267 1.098 7.526 1.144 8.7.008.16.044.292.077.43a3.532 3.532 0 0 1-.284-.185m-2.976-39.441c.745.364.4 3.316.181 3.862-.219.545-1.474 1.41-2.027 1.603-.552.192-.888-.092-.888-.092.018-.756 1.99-5.737 2.734-5.373m3.798 2.103c.395.295.021 2.268-.158 2.767-.388-.235-.842-.404-1.275-.545.5-1.134 1.179-2.41 1.433-2.222m-1.1 6.677c.5.138.773.87.773.87s-.272.549-.819.549c-.546 0-1.456-.413-1.456-.413s1-1.144 1.502-1.006m-.06.162c-.316-.087-.945.631-.945.631s.102.047.245.1c.09-.101.6-.649.895-.62a.51.51 0 0 0-.196-.111m6.272 4.736l-.033.001c-.168 0-.389.003-.624.014a5.758 5.758 0 0 0-.46.033c-.283.028-.559.071-.75.154a.291.291 0 0 0-.142.122c-.167.27.228.752.41.748.213-.004.475-.12.533.068.056.187.11.49.376.49.016 0 .025-.008.041-.01.24-.022.39-.224.516-.413.018-.03.055-.052.083-.079.157-.134.418-.242.58-.394.022-.022.052-.04.07-.064.165-.225-.134-.67-.6-.67m-1.662 2.941h.044c.828 0 1.079-.356 1.297-.863a.915.915 0 0 1-.367.075c-.082 0-.144-.022-.21-.043-.326-.093-.485-.379-.56-.592a1.81 1.81 0 0 1-.225.023c-.423 0-.843-.498-.93-.925a.777.777 0 0 1 .074-.544.784.784 0 0 1 .382-.338c.095-.042.216-.067.33-.095.063-.017.115-.04.184-.054a8.1 8.1 0 0 1 1.317-.107h.106c-.5-.665-1.551-1.91-2.388-2.945a1.081 1.081 0 0 1-.053-.196 2.35 2.35 0 0 1 .004-.421 1.15 1.15 0 0 1-.274.216c-.14-.177-.265-.339-.38-.489.012-.255.048-.5.151-.54.13-.054.365-.077.542-.086a2.036 2.036 0 0 0-.087-.602c-.32-.932-1.175-1.97-1.84-2.628a8.283 8.283 0 0 0 .432-1.901c.087-.929-.072-3.541-.734-4.056-.51-.4-2.023 2.935-2.687 4.474-.278-.116-.468-.245-.468-.418 0-.59.587-4.649-.146-5.24-.734-.588-3.743 3.395-4.99 5.977-1.026 2.124-2.04 8.444-2.534 11.605a10.18 10.18 0 0 0-1.833 1.819c-.47.612-2.065 2.945-3.86 5.76-3.138 3.034-6.745 7.691-7.949 9.781-.436.756-.758 1.795-.853 2.872-1.133.633-2.586 2.012-2.646 3.27-.187 3.82 2.332 5.473 2.954 5.782.623.304 1.932.568 2.225-.233.294-.797-4.477-2.853-2.241-5.594.06-.076.125-.146.19-.21.214.426.498.811.869 1.137 2.495 2.173 12.138 2.365 13.546 2.273 1.404-.095 1.975-.528 1.759-1.087-.11-.283-1.851-.706-3.132-1.184.861.233 1.704.288 2.125.31 1.112.061 4.425.653 4.425-.476 0-1.13-3.153-1.876-3.715-1.97-.318-.051-.489-.272-.45-.838.878-.732 1.61-1.683 2.399-2.27.244-.182.684-.51 1.23-.947.405 2.43.779 4.748.83 5.566.117 1.845 2.056 1.95 2.793 2.006.737.058 1.372.027 2.176-.494a.728.728 0 0 0 .263-.269c.577.264 1.227.321 1.587.355.738.076 1.372.061 2.188-.44 1.021-.635-.695-1.467-1.063-1.764-.368-.295-1.019-4.672-1.07-5.7-.346-6.68-1.075-10.34-1.897-13.186a61.94 61.94 0 0 0-.22-.83c.25-.66.597-1.365.86-2.084.545-.06 1.052-.158 1.486-.268-.439-.051-.895-.12-1.33-.205-.61-.119-1.172-.275-1.55-.48l-.096-.054c.493.136 1.1.22 1.71.273.904.08 1.796.092 2.3.092M249.819 19.024l-3.055 2.964 3.055 2.414v-5.378zm0-21.774l-3.865 3.752 3.48 2.748c-.195.291-.383.585-.55.888l-4.71-.882-1.527 6.255 4.571.857c0 .334.022.67.048 1.008l-4.586 1.3 2.248 6.086 4.444-1.26c.139.216.291.424.447.63V-2.75z"/>
            <g transform="translate(228.303 52.736)">
                <mask id="d" fill="#fff">
                    <use xlink:href="#c"/>
                </mask>
                <path fill="#FFF" d="M19.674 26.658c0 .084-.004.17-.011.258-.003.039-.003.075-.007.109-.01.123-.027.249-.046.372-.288 1.731-1.398 2.988-2.483 2.802-.06-.01-.119-.026-.176-.043l-.04-.015a1.343 1.343 0 0 1-.36-.195.858.858 0 0 1-.176-.155 1.57 1.57 0 0 1-.092-.097l-.04-.048a1.437 1.437 0 0 1-.1-.138.737.737 0 0 1-.05-.078 1.535 1.535 0 0 1-.06-.098c-.026-.044-.05-.092-.074-.138l-.043-.095a.744.744 0 0 1-.045-.109 3.117 3.117 0 0 1-.098-.285c-.006-.029-.016-.056-.023-.082-.012-.046-.024-.09-.034-.135a4.614 4.614 0 0 1-.035-1.76c.288-1.734 1.396-2.991 2.483-2.803.402.068.742.324.997.706.054.08.102.167.15.254.004.015.009.022.016.034.036.075.07.155.102.237l.024.068c.029.077.053.157.077.237.007.024.011.046.018.067.053.21.09.433.112.663.003.029.003.058.005.087.005.084.01.174.01.264v.116zm-3.594 6.4l-.002.016a1.02 1.02 0 0 1-.019.15c-.002.01-.002.017-.005.024a2 2 0 0 1-.096.34 2.453 2.453 0 0 1-.06.141 2.789 2.789 0 0 1-.072.123l-.017.025a.52.52 0 0 1-.064.084c-.007.007-.014.017-.021.027-.031.031-.06.06-.09.087-1.183.955-2.213-.493-3.079-.447-.516.026-.604.224-1.762.614l-.248.082a.735.735 0 0 1-.114.026c-.016.006-.033.006-.05.01-.024.002-.047.007-.071.007-.026.005-.05.003-.076.005-.02 0-.036.003-.055.003-.033 0-.067-.003-.1-.005-.012.002-.021 0-.033 0-.04-.003-.08-.01-.124-.017H9.91c-.525-.087-1.084-.438-1.23-1.112l-.02-.133-.006-.039c-.002-.029-.007-.058-.007-.087-.002-.012-.002-.024-.002-.039a.589.589 0 0 1 0-.084v-.032c0-.034.002-.07.007-.106.002-.007.002-.012.002-.015a.786.786 0 0 1 .017-.086.443.443 0 0 1 .024-.097c0-.01.005-.022.01-.03.006-.026.016-.05.026-.077.002-.002.002-.01.004-.014a1.567 1.567 0 0 1 .052-.104l.034-.063c.005-.007.01-.014.014-.024l.038-.056c.005-.005.01-.014.015-.022.035-.048.07-.096.111-.142.005-.01.012-.017.017-.024.017-.015.029-.034.043-.048.007-.008.014-.017.023-.025.012-.017.027-.031.04-.048l.022-.022c.005-.007.012-.012.017-.02.038-.04.074-.079.112-.122.209-.225.404-.465.48-.798.181-.798.876-3.294 2.367-3.545.535-.092.959-.072 1.318.078v.002c.23.097.435.251.625.464v.003c.036.04.07.082.105.128.002.005.007.005.007.012.034.039.067.087.095.133l.015.02c.035.05.07.105.104.164.376.633.485 1.19.712 2.413.02.113.07.244.14.377.202.406.556.867.706 1.163.093.183.136.391.138.604.003.053 0 .106-.005.157zM8.593 25.44a4.509 4.509 0 0 1-.774-1.73c-.385-1.715.174-3.301 1.247-3.552.418-.095.851.029 1.251.314.034.024.067.05.1.075.021.02.043.038.066.056.046.04.09.08.136.125l.06.06.104.114c.014.017.031.034.046.054.044.053.087.108.13.169.015.02.031.04.045.063.046.062.086.125.126.193a3.769 3.769 0 0 1 .129.225c.012.017.021.039.031.058l.112.227c.004.017.014.034.02.051.032.073.06.148.09.225.004.014.011.026.013.038.034.087.06.175.088.267l.017.055c.026.094.05.189.071.283.386 1.714-.173 3.305-1.246 3.551-.06.015-.119.022-.18.027-.015.002-.027.002-.041.005a1.5 1.5 0 0 1-.176-.003l-.03-.004c-.054-.005-.101-.015-.153-.025-.015-.002-.031-.007-.048-.009a1.415 1.415 0 0 1-.219-.075c-.04-.02-.08-.036-.121-.058a.38.38 0 0 1-.057-.027c-.05-.029-.098-.055-.145-.087-.026-.02-.053-.036-.076-.053a2.608 2.608 0 0 1-.212-.172c-.024-.02-.048-.043-.072-.065a2.544 2.544 0 0 0-.087-.087l-.053-.06a2.495 2.495 0 0 1-.145-.17c-.017-.021-.03-.041-.047-.058zm-1.634 4.971c-.06.015-.12.022-.18.027l-.042.002a.827.827 0 0 1-.176-.002h-.028c-.053-.01-.103-.017-.155-.03-.014-.004-.029-.006-.043-.009a1.373 1.373 0 0 1-.22-.075 1.778 1.778 0 0 1-.127-.056c-.019-.01-.036-.019-.053-.026-.05-.029-.1-.058-.15-.09-.023-.017-.044-.033-.068-.048l-.102-.075a4.671 4.671 0 0 0-.105-.09 2.174 2.174 0 0 0-.084-.079c-.028-.024-.052-.053-.078-.078a1.338 1.338 0 0 1-.078-.086 2.417 2.417 0 0 1-.117-.14 1.587 1.587 0 0 1-.135-.182h-.003a4.581 4.581 0 0 1-.692-1.615c-.383-1.714.173-3.303 1.247-3.552.396-.092.808.015 1.189.271.019.01.04.027.059.04l.107.08c.02.018.04.032.062.05l.138.13.057.058c.036.036.071.077.105.116l.045.05c.045.056.088.112.13.168.017.021.032.045.048.065.043.065.086.125.124.191.01.014.016.029.026.04.033.061.07.122.102.185l.034.06c.038.075.074.15.11.228a.976.976 0 0 0 .02.055c.032.072.062.143.088.218l.017.046c.03.084.06.171.086.26.007.017.012.042.017.06.025.093.052.187.073.281.386 1.715-.176 3.303-1.248 3.552zm7.383-10.867c.404.014.778.225 1.08.568.064.072.123.15.178.234.01.01.014.02.021.03.045.072.09.144.134.222a.89.89 0 0 1 .035.065c.034.07.07.145.103.222l.028.068c.08.199.145.413.195.638.007.03.01.058.017.087a3.838 3.838 0 0 1 .057.373c.01.087.019.172.024.258 0 .04.004.075.004.112.008.12.008.246.005.375-.062 1.754-1.004 3.147-2.103 3.109a1.488 1.488 0 0 1-.178-.025c-.017 0-.028-.004-.043-.01a.914.914 0 0 1-.171-.045c-.007-.002-.017-.008-.026-.012-.05-.017-.093-.04-.14-.063-.015-.007-.03-.012-.043-.022a1.593 1.593 0 0 1-.298-.215c-.016-.015-.033-.027-.047-.041-.043-.04-.081-.082-.12-.124l-.059-.067a2.392 2.392 0 0 0-.073-.095l-.086-.123a2.696 2.696 0 0 0-.057-.09c-.02-.033-.04-.067-.057-.1a2.393 2.393 0 0 1-.133-.268c-.015-.028-.024-.06-.036-.086a20.827 20.827 0 0 0-.05-.123s0-.005-.002-.005h.002a4.572 4.572 0 0 1-.262-1.738c.062-1.758 1.002-3.148 2.1-3.11zm4.115-7.998l-13.04-1.85-3.102 6.806V39.59l18.863 2.847v-22.75l.338-1.994V8.368l-3.06 3.179zm3.059-10.186L10.612.002l-2.276.58-.05-.007-8.22 6.402L17.56 9.465l3.956-3.91V1.362z" mask="url(#d)"/>
            </g>
            <path fill="#FFF" d="M221.214 9.26c-.192.174-.37.361-.536.56.295-.941.731-1.799 1.415-2.425 2.047-1.862 5.298-.147 4.835 2.548-1.169-1.785-3.773-2.43-5.714-.683zm-6.966-2.363c-.007.158-.003.313.007.466-.226-.488-.375-1.014-.35-1.577.068-1.674 1.819-2.627 2.6-1.417-1.037-.083-2.184.947-2.257 2.528zm1.447 3.092c.075.001.153-.003.229-.015 1.376-.195 2.221-2.097 1.89-4.245a6.728 6.728 0 0 0-.09-.453c-.01-.046-.024-.092-.037-.139a5.817 5.817 0 0 0-.082-.3c-.015-.049-.032-.096-.05-.143a6.445 6.445 0 0 0-.109-.298l-.044-.109a5.025 5.025 0 0 0-.182-.381c-.003-.002-.003-.006-.005-.01a4.702 4.702 0 0 0-.434-.66c-.02-.026-.039-.052-.06-.076a3.565 3.565 0 0 0-.21-.236c-.015-.012-.025-.025-.037-.037a3.24 3.24 0 0 0-.275-.24v-.002.001c-.458-.352-.967-.525-1.474-.453-1.376.195-2.218 2.095-1.89 4.244a5.669 5.669 0 0 0 .729 2.06c.002.004.005.005.005.007l.082.127.076.114c.039.053.075.106.114.158l.11.132c.027.035.058.067.087.101.035.04.074.078.11.116.036.037.073.07.11.105.043.04.085.077.131.113a2.883 2.883 0 0 0 .26.194c.02.01.04.02.057.032.056.03.112.063.168.09.017.01.037.019.056.029a2.083 2.083 0 0 0 .458.148 1.534 1.534 0 0 0 .256.026h.05zM221.713-.8c-1.04-.085-2.187.946-2.257 2.528a4.22 4.22 0 0 0 .004.464c-.226-.486-.372-1.011-.35-1.575.068-1.675 1.822-2.627 2.603-1.417zm-3.222 3.605l.073.146.05.088c.038.072.082.141.125.21.022.03.042.064.064.094.026.038.053.078.083.115.024.032.05.065.077.097.04.049.079.096.12.14l.097.103c.03.026.052.052.08.076a2.361 2.361 0 0 0 .222.184c.047.035.093.064.142.095a2.098 2.098 0 0 0 .254.141c.016.01.033.016.053.023.06.027.119.05.18.068l.039.013c.07.023.144.038.217.05l.053.007c.076.011.151.02.23.02 1.385.013 2.457-1.594 2.396-3.59a4.975 4.975 0 0 0-.034-.423l-.018-.129a3.646 3.646 0 0 0-.048-.288c-.007-.045-.017-.09-.027-.134a5.555 5.555 0 0 0-.075-.288c-.01-.033-.017-.067-.027-.1a5.546 5.546 0 0 0-.136-.374v-.002a3.859 3.859 0 0 0-.161-.343c-.015-.026-.027-.051-.041-.077a3.926 3.926 0 0 0-.15-.25c-.016-.024-.03-.05-.048-.073a3.576 3.576 0 0 0-.182-.245c-.013-.013-.02-.025-.03-.038a3.208 3.208 0 0 0-.243-.256s0-.002-.003-.002c-.409-.382-.891-.61-1.403-.614-1.388-.015-2.46 1.592-2.396 3.586.021.727.194 1.402.467 1.97zm16.938 3.675c.005-.037.012-.075.015-.114.017-.139.026-.279.03-.414v-.009c.004-.132 0-.263-.008-.391l-.008-.092a5.45 5.45 0 0 0-.034-.297c-.005-.032-.01-.063-.017-.094a2.929 2.929 0 0 0-.068-.303.451.451 0 0 0-.012-.052 3.388 3.388 0 0 0-.12-.337l-.002-.004c-.002 0 0 0 0 0-.224-.525-.584-.924-1.064-1.112-1.296-.514-2.97.685-3.74 2.678a5.417 5.417 0 0 0-.38 2.112v.006l.01.152.01.13c.008.068.015.133.025.197.007.055.017.109.027.165l.026.126c.012.052.024.105.04.155.014.049.028.096.043.142.017.054.037.109.058.164l.037.089c.032.07.063.138.097.204a.428.428 0 0 1 .032.051c.032.057.066.11.103.162.01.018.021.035.033.052a2.14 2.14 0 0 0 .33.351c.007.006.014.015.021.02.061.049.122.09.188.13.014.01.03.017.044.025.065.038.136.072.207.1 1.295.515 2.971-.684 3.741-2.676.054-.143.102-.287.146-.43.015-.046.025-.09.037-.135l.075-.3.03-.143c.019-.104.033-.206.048-.308zm-7.151-8.236c.791.257.696.797-.188.682-1.315-.173-1.985 1.222-2.221.903-.234-.316.782-2.114 2.409-1.585zm-3.093 5.096c.048.097.1.19.153.28.01.015.017.029.027.043.127.196.267.368.428.515.012.011.027.02.042.033.066.056.13.108.2.156a2.323 2.323 0 0 0 .272.15c.027.012.051.027.078.037.093.038.188.07.288.092 1.354.303 2.745-1.042 3.103-3.002.027-.143.044-.284.058-.424l.008-.119a3.33 3.33 0 0 0 .014-.305c.003-.042.003-.083.003-.124-.003-.106-.008-.21-.012-.313-.005-.03-.005-.06-.008-.09a4.763 4.763 0 0 0-.163-.85 3.288 3.288 0 0 0-.127-.356 3.375 3.375 0 0 0-.129-.281c-.007-.013-.012-.025-.02-.038-.33-.62-.828-1.061-1.431-1.196-1.357-.302-2.746 1.044-3.103 3.005-.188 1.017-.057 2 .301 2.752.005.013.012.023.018.035zm3.98 9.954c-.047-2.656-.083-3.857-.668-5.33a5.35 5.35 0 0 0-.166-.392c-.005-.012-.01-.02-.014-.032a9.667 9.667 0 0 0-.163-.33c-.005-.005-.008-.012-.012-.018a5.135 5.135 0 0 0-.186-.32 3.94 3.94 0 0 0-.906-1.026l-.002-.001a4.117 4.117 0 0 0-.263-.186c-.003-.002-.003-.003-.005-.003-.714-.453-1.618-.657-2.801-.67-3.298-.041-5.683 4.925-6.355 6.526-.285.672-.794 1.097-1.323 1.494a20.133 20.133 0 0 1-.321.243l-.066.049c-.034.024-.063.05-.097.074l-.061.049a1.667 1.667 0 0 0-.1.079l-.056.045c-.047.04-.093.078-.136.119a3.47 3.47 0 0 0-.149.14 3.42 3.42 0 0 0-.185.194c-.03.036-.061.07-.088.106-.012.017-.027.031-.039.048-.036.05-.075.102-.112.158l-.022.038c-.027.043-.053.089-.08.137l-.032.062-.06.127-.028.068a1.909 1.909 0 0 0-.058.163l-.015.043a3.153 3.153 0 0 0-.068.286c-.01.056-.02.115-.027.176-.004.029-.01.056-.01.087-.006.058-.012.12-.014.182-.003.029-.003.056-.003.083a2.902 2.902 0 0 0 0 .286c.066 1.473 1.145 2.418 2.241 2.802l.017.004c.093.034.183.061.273.086.02.003.042.007.061.012a2.5 2.5 0 0 0 .224.048c.037.01.076.01.112.018.056.006.113.015.166.021.056.005.11.005.163.006.037 0 .073.004.11.004.087-.001.173-.007.253-.018 2.964-.37 3.335-.785 4.358-.71.068.006.14.013.214.022 1.875.24 3.57 3.667 6.455 2.115.075-.04.148-.09.221-.146.02-.014.04-.032.061-.047.056-.047.11-.098.166-.153.014-.014.032-.027.046-.043.066-.072.132-.147.195-.23l.03-.043c.053-.072.104-.147.153-.225l.039-.064c.111-.192.211-.397.29-.616.007-.017.011-.033.019-.05a3.642 3.642 0 0 0 .105-.342c.027-.108.048-.216.068-.328.07-.449.053-.907-.078-1.323-.29-.904-1.257-2.557-1.272-3.554z"/>
            <g>
                <path fill="#FFF" d="M425.406 49.26c-1.399-.405-.323-1.553 1.185-1.37 1.821.218 2.603-1.893 3.05-1.366.447.53-.967 3.692-4.235 2.736M391.21 26.246c.118.374.27.733.439 1.081-1.1-.969-2.004-2.086-2.443-3.416-1.306-3.962 2.963-7.494 6.34-5.25-3.118.579-5.548 3.836-4.336 7.585m-4.42.08c-2.293.418-2.688 3.097-3.25 2.694-.558-.402.214-3.933 3.211-3.926 1.457.005 1.58.952.039 1.232M431.15 43.27c-.322-.842-1.32-3.036-3.402-3.211-5.41-.455-5.84 2.547-9.798.559-2.803-1.408-9.702-5.065-14.53-9.664-4.125-3.925-2.896-6.163-3.18-8.638-.054-1.77-.867-3.496-2.25-4.727-3.309-2.94-7.678-.935-9.667 1.792-.874 1.198-1.107 2.683-.895 4.118-.923.15-1.795.479-2.526 1l.002-.013c-.046.032-.092.07-.136.105l-.114.084a5.74 5.74 0 0 0-.381.344c-.03.03-.056.061-.085.092a4.425 4.425 0 0 0-.357.424c-1.989 2.726-1.698 6.357.65 8.108 1.42 1.063 3.267 1.193 4.945.528 1.578-.104 3.83-.029 5.299.983 3.516 2.43 4.17 3.66 7.47 5.78 5.691 3.654 9.723 6.247 10.665 8.759.376.991.68 1.828.928 2.523-.018 1.855.803 3.685 2.25 4.972 3.31 2.94 7.68.931 9.668-1.793.112-.155.211-.315.301-.477l.051-.093c.083-.152.158-.312.224-.47.014-.039.026-.078.043-.117l.061-.16-.012.007c.306-.891.37-1.86.228-2.809 1.426-.235 2.752-.882 3.594-2.035 1.362-1.865 1.656-4.152.954-5.971M396.15-25.305c9.287-1.343 16.963.31 17.465 3.764.157 1.075-.405 2.18-1.527 3.233-2.487 2.327-7.746 4.397-14.143 5.322-6.658.963-12.482.387-15.436-1.285-1.171-.664-1.891-1.497-2.034-2.479-.504-3.453 6.382-7.211 15.674-8.555m-10.02 9.783c2.388.8 6.48 1.167 11.705.411 4.82-.697 8.444-2.04 10.596-3.377 1.559-.973 2.344-1.944 2.24-2.664-.25-1.712-5.708-3.359-14.029-2.155-8.328 1.203-13.093 4.328-12.843 6.04.095.64.909 1.268 2.332 1.745m20.996 13.31c1.338 1.367.415 2.185.415 2.185s-2.467-.269-3.236-1.874c-1.296 1.24-3.388 3.025-5.228 3.67-3.788 1.33-7.632.323-8.156-2.628-.526-2.95 3.612-5.795 7.107-5.226 1.949.318 4.38 1.36 5.943 2.108.184-1.837 2.581-2.84 2.581-2.84s1.117.521.226 2.214a7.706 7.706 0 0 1-.91 1.351c.4.267.837.606 1.258 1.04m-8.849-6.161c-9.646 1.394-18.102.133-20.994-2.818l.078.533.322 2.217.002.017.264 1.806.308 2.127.25 1.7.342 2.34.555 3.827.004.017c.648 4.449 10.156 6.755 21.235 5.154C411.722 6.945 420.18 2.04 419.53-2.408l-.002-.018-.558-3.828-.342-2.339-.247-1.7-.31-2.127-.264-1.806-.003-.017-.322-2.216-.036-.251c-2.196 3.543-9.795 6.981-19.17 8.337m-21.627-7.325c.027.1.066.198.104.294.44 1.196 1.552 2.215 3.185 3.013 3.837 1.87 10.502 2.534 17.866 1.47 7.366-1.064 13.565-3.59 16.709-6.47 1.343-1.228 2.116-2.521 2.196-3.792.007-.103.017-.208.014-.31-.002-.07-.01-.14-.017-.21-.004-.058-.004-.117-.014-.175-.647-4.45-10.156-6.757-21.237-5.155-11.079 1.603-19.535 6.508-18.886 10.957.008.058.027.114.037.173.014.067.024.137.043.205M265.083 21.589c-5.821 1.916-12.065-1.328-13.95-7.245C249.25 8.426 252.44 2.077 258.262.16c5.82-1.915 12.065 1.33 13.948 7.247 1.885 5.917-1.307 12.268-7.126 14.182zm-2.723 8.98c-.249.3-.576.524-.943.645-.332.11-.696.134-1.063.054l-4.532-.984-.194 9.087 4.812-3.015 5.43 3.242.189-8.91-1.512.498a2.037 2.037 0 0 1-2.187-.618zm10.896-2.978c-.42.139-.88.137-1.303-.01a2.087 2.087 0 0 1-1.394 1.626l-3.885 1.279 2.95 9.264 3.569-4.456 6.176 1.248-3.612-11.351-1.608 1.812c-.251.282-.56.478-.893.588zM258.895 2.15c-4.74 1.56-7.338 6.732-5.803 11.549 1.534 4.818 6.618 7.457 11.356 5.898 4.738-1.559 7.337-6.73 5.803-11.546-1.533-4.817-6.619-7.46-11.356-5.9zm20.793 6.446l-1.946-6.116-3.845 1.266a13.58 13.58 0 0 0-.537-.861l2.794-3.144-4.694-4.306-2.717 3.062a13.9 13.9 0 0 0-.876-.484l.872-4.143-6.183-1.343-.843 4.02c-.332 0-.665.02-.998.043l-1.286-4.034-6.012 1.978 1.244 3.91c-.29.167-.569.354-.845.543l-3.095-2.836-.888 1v21.484l.148.226-.148.168v5.404l2.05 1.88 2.716-3.062c.289.17.576.335.875.484l-.87 4.144 6.18 1.342.847-4.02c.33 0 .665-.022.996-.044l1.285 4.036 6.014-1.979-1.244-3.908c.291-.17.57-.357.846-.544l3.093 2.837 4.234-4.77-3.012-2.763c.168-.293.33-.588.476-.892l4.075.886 1.322-6.285-3.955-.859c0-.337-.019-.675-.042-1.013l3.97-1.307zM357.33 5.282a20.166 20.166 0 0 1-3.459 1.365c-2.36.466-5.855.348-9.639-.459-3.783-.806-7.002-2.121-8.938-3.503A19.2 19.2 0 0 1 332.75.039c-3.568-4.44-5.146-10.367-3.78-16.346a19.38 19.38 0 0 1 2.744-6.371c.553.625 1.327 1.265 2.298 1.9-1.166 1.683-2.24 3.675-2.59 5.669-1.24 7.103.93 11.538 3.784 14.307 3.021 2.933 6.806 3.995 8.123 4.35-.41-.225-.796-.457-1.124-.69a17.123 17.123 0 0 1-3.363-3.912c-2.243-3.58-3.126-7.984-2.111-12.423a16.548 16.548 0 0 1 1.94-4.808c-.213-.116-.41-.231-.608-.348 3.044 1.34 6.844 2.561 11.055 3.46 8.278 1.765 15.679 1.773 19.059.272a19.05 19.05 0 0 1-.292 6.896c-1.367 5.979-5.384 10.71-10.554 13.287M334.866-27.6c2.518-1.332 9.311-1.243 17.003.397 7.693 1.642 13.892 4.325 15.597 6.556.38.497.542.973.442 1.408-.547 2.391-8.614 2.703-18.02.698-9.404-2.007-16.585-5.572-16.038-7.963.1-.435.454-.8 1.016-1.096m13.12 25.897c-.529-.112-1.056.211-1.173.725a.95.95 0 0 0 .748 1.134c.532.115 1.058-.21 1.175-.724.118-.513-.217-1.02-.75-1.135m9.42-7.92a.498.498 0 0 0-.592.365.48.48 0 0 0 .379.573.499.499 0 0 0 .592-.366.482.482 0 0 0-.378-.572m-5.262 2.687a.79.79 0 0 0-.94.58.761.761 0 0 0 .6.908.79.79 0 0 0 .94-.579.764.764 0 0 0-.6-.91M354.11.797c-.423-.09-.846.168-.94.578a.764.764 0 0 0 .6.908.79.79 0 0 0 .94-.58.76.76 0 0 0-.6-.906m1.013-13.357a.492.492 0 0 0-.586.361.475.475 0 0 0 .374.567.492.492 0 0 0 .588-.361.476.476 0 0 0-.376-.567m-5.88 16.437c-.425-.09-.848.168-.94.579a.763.763 0 0 0 .6.908.79.79 0 0 0 .94-.58.761.761 0 0 0-.6-.907m20.529-19.942a1.89 1.89 0 0 0 .317-.663v-.002l.427-1.865.042-.182-.03-.007c.373-3.161-7.709-7.482-18.354-9.753-10.646-2.27-19.859-1.639-20.898 1.38l-.032-.007-.042.184-.426 1.865h-.001a1.852 1.852 0 0 0 0 .732 20.777 20.777 0 0 0-3.923 8.188c-1.612 7.05.617 14.048 5.333 18.979.367.535.948 1.083 1.713 1.621 2.14 1.507 5.695 2.942 9.864 3.832 4.173.89 8.022 1.032 10.623.537.926-.177 1.692-.436 2.257-.773 6.426-2.553 11.503-7.992 13.118-15.044.701-3.074.656-6.134.012-9.022M477.345 37.063c-2.846 1.993-6.288 3.938-10.138 5.64-4.13 1.825-8.171 3.123-11.783 3.882-3.844.477-6.661-.039-7.436-1.665-1.448-3.05 4.83-8.82 14.025-12.884 9.196-4.064 17.825-4.885 19.276-1.834.806 1.7-.79 4.24-3.944 6.86zm6.542 3.65a.933.933 0 0 1-1.217-.437.872.872 0 0 1 .452-1.174c.46-.204 1.008-.01 1.22.435a.876.876 0 0 1-.455 1.175zm-5.772 5.764a.935.935 0 0 1-1.217-.436.873.873 0 0 1 .453-1.175.933.933 0 0 1 1.216.436.873.873 0 0 1-.452 1.175zm-6.773 4.181a.933.933 0 0 1-1.217-.434.877.877 0 0 1 .453-1.175.935.935 0 0 1 1.219.435.873.873 0 0 1-.455 1.174zm14.099-22.38c-2.036-4.157-12.95-3.426-24.429 1.648-11.244 4.97-18.862 12.267-17.348 16.51-.008-.005-.02-.007-.03-.012l.146.307 4.297 9.042a.12.12 0 0 0 .007.019c1.593 3.35 8.624 3.7 17.103 1.276a2.436 2.436 0 0 1-.239-.389l-1.367-2.881-.907.4a.883.883 0 0 1-1.155-.412.833.833 0 0 1 .43-1.117l.907-.398-1.472-3.1a2.257 2.257 0 0 1-.165-1.464 2.372 2.372 0 0 1 1.369-1.665l7.783-3.44a2.508 2.508 0 0 1 3.031.814l-3.309 1.463-2.215.98-3.321 1.467c-.873.386-1.258 1.384-.858 2.225l.922 1.94 1.178-.522a.885.885 0 0 1 1.158.414.83.83 0 0 1-.43 1.115l-1.18.52.89 1.873c.4.842 1.433 1.212 2.305.825l3.322-1.468 2.216-.979 3.273-1.447c.012.06.017.116.024.176 8.774-4.869 14.128-10.956 12.383-14.628l-.007-.017-4.295-9.043-.017-.034v.002zM437.64-4.983c1.228.844-.038 5.622-.545 6.662-.507 1.036-2.905 2.526-3.919 2.811-1.014.287-1.541-.333-1.541-.333.2-1.49 4.777-9.984 6.005-9.14m8.02 3.959c.804.574.063 3.54-.316 4.5-.753-.444-1.641-.765-2.49-1.033 1.012-1.883 2.305-3.826 2.807-3.467m-2.27 12.261c1.035.272 1.597 1.724 1.597 1.724s-.562 1.09-1.69 1.09c-1.127 0-3.005-.817-3.005-.817s2.066-2.27 3.098-1.997m-.125.322c-.648-.173-1.946 1.253-1.946 1.253s.211.09.505.196c.183-.198 1.237-1.287 1.845-1.228a1.051 1.051 0 0 0-.404-.221m13.085 9.235h-.079c-.255 0-.562 0-.9.006-.787.015-1.715.067-2.473.215a4.247 4.247 0 0 0-.788.217c-.084.035-.129.083-.184.128-.035.027-.085.048-.113.078l-.002.003a.554.554 0 0 0-.12.27c0 .003-.004.003-.004.003a.819.819 0 0 0 .018.308 1.467 1.467 0 0 0 .123.32c.003.003.003.004.003.007a2.053 2.053 0 0 0 .426.544c.003.003.003.004.008.007a1.277 1.277 0 0 0 .238.17.428.428 0 0 0 .206.064h.005c.136-.001.276-.023.417-.044.13-.02.256-.036.37-.038l.024-.002.015.002c.083.002.161.015.224.043.007.005.015.013.022.016.06.035.11.086.138.172.133.408.251 1.068.859 1.068.033 0 .058-.016.09-.018.548-.05.886-.489 1.173-.905a.707.707 0 0 1 .113-.125c.198-.187.51-.343.818-.51.289-.156.57-.323.733-.538.377-.493-.304-1.461-1.36-1.461m-2.02 4.383c-.672-.186-.988-.768-1.146-1.195-.138.02-.294.04-.475.043-.856 0-1.73-.993-1.91-1.847-.106-.497.025-.939.311-1.285.16-.192.36-.36.623-.47.005-.003.007-.007.012-.008.392-.162.882-.27 1.401-.346a19.05 19.05 0 0 1 2.367-.161c.076-.002.15-.004.226-.004-1.039-1.323-3.198-3.78-4.918-5.827a2 2 0 0 1-.105-.388c-.03-.195-.017-.488.005-.825a2.634 2.634 0 0 1-.557.424c-.297-.357-.555-.68-.791-.983.023-.506.1-.987.309-1.068.271-.106.755-.15 1.12-.169-.01-.427-.056-.844-.182-1.195-.655-1.848-2.414-3.906-3.788-5.21.467-1.224.788-2.741.889-3.777.178-1.84-.15-6.039-1.516-7.062-1.037-.781-4.097 5.088-5.493 7.927-.616-.245-1.015-.507-1.015-.865 0-1.169 1.213-8.236-.3-9.408-1.515-1.168-7.723 5.748-10.294 10.87-2.573 5.126-5.3 18.299-5.904 21.81-.214 1.241.314 2.44 1.152 3.495 3.951 6.809 20.5 7.183 21.263 5.022.508-1.432 1.349-2.994 1.954-4.585a22.424 22.424 0 0 0 2.824-.495 49.408 49.408 0 0 1-2.518-.39c-1.73-.317-3.452-.752-4.479-1.342-.406-.233-.67-.472-.828-.719l.823.372c1.103.497 2.91.77 4.697.917 1.893.157 3.766.176 4.778.176.078 0 .136-.01.205-.012 1.402-.054 1.949-.631 2.356-1.466a1.976 1.976 0 0 1-.643.111c-.17 0-.316-.026-.452-.065M439.617 73.997c-.973-.552 4.57-3.521 6.438-3.624 1.87-.104-1.972 8.177-1.972 8.177s-1.35-2.794-4.466-4.553m-.622 10.313c-1.86 2.062-4.432 1.789-4.432 1.789s-1.5-1.184-.915-3.017a3.3 3.3 0 0 1 .621-1.114c-.737.314-1.333.655-1.483.996-.416.948-.17 4.98.024 5.929-.368-.375-1.276-.737-2.91-.845-.84-.056-2.274.293-2.274.293a1.28 1.28 0 0 0-.618.302c.337-1.43 1.526-4.728.159-5.751-.374-.276-.833-.52-1.313-.737.316.28.588.617.785 1.02.848 1.73-.464 3.116-.464 3.116s-2.504.648-4.645-1.123c-1.27-1.052-.375-4.057-.375-4.057.383-.139 1.064-.2 1.832-.113.87-.026 4.89.346 7.305.161.717-.055 3.717-.321 5.764-.459 1.057-.453 2.162-.575 2.716-.46 0 0 1.324 2.849.223 4.07m-5.556 11.534c-.434.108-.83.081-1.2-.022-.683.52-1.577.963-2.239.967-1.21.01-2.092-.422-2.65-.996a2.301 2.301 0 0 1-1.313.05c-4.391-1.089-3.245-4.776-1.822-5.815.715-.525 1.651-.766 2.458-.876-.027.151.003.29.137.389.446.326 1.63.002 1.777.35.147.35-.31.958-.159 1.366a1.563 1.563 0 0 0 1.308.95h.007c.089.005.18.005.277-.007.034-.005.062-.024.091-.033.612-.188 1.072-1.402.925-1.791-.15-.408.262-.562.63-.468.369.093 1.378-.163 1.342-.64-.003-.03-.017-.06-.027-.087.766.12 1.618.36 2.283.847 1.42 1.04 2.569 4.726-1.825 5.816M416.546 78.55s-3.842-8.28-1.974-8.177c1.87.103 7.413 3.072 6.438 3.624-3.113 1.76-4.464 4.553-4.464 4.553m7.987 2.873c-.085-.02-.179.027-.28.125-.288.286-.611 1.02-.81 1.913-.273 1.205-.223 2.234.11 2.312.332.074.82-.838 1.09-2.043.193-.85.222-1.61.104-2.012-.046-.166-.118-.273-.214-.295m11.458-.082c-.202-.23-.386-.348-.515-.297-.128.045-.186.245-.183.535.002.432.144 1.075.409 1.764.445 1.15 1.062 1.98 1.38 1.858.317-.117.216-1.154-.227-2.3-.262-.674-.58-1.23-.864-1.56m12.768-15.354c-2.714-1.886-11.08 6.908-12.236 6.512-1.158-.396-13.052-.168-14.05-.574-.996-.408-9.134-8.16-10.867-5.465-1.808 2.81 3.01 13.466 2.831 14.399-.465 2.441-2.574 13.77 5.126 17.119 6.32 2.743 16.83 3.029 22.897-1.676 5.254-4.078 3.109-12.426 2.969-14.341-.142-1.918 6.046-14.087 3.33-15.974M294.199-19.162c.208-.064.602-.064 1.019.03.491.079 1.96.407 2.993.382.307-.008 1.605-.091 2.603-.144.563-.267 1.205-.326 1.497-.25 0 0 .542 1.32.006 1.846-.903.888-2.079.705-2.079.705s-.66-.57-.348-1.384c.07-.18.178-.329.3-.462-.338.113-.618.24-.693.388-.202.396-.197 2.054-.138 2.596a.592.592 0 0 0 .013.089c-.023-.024-.053-.049-.083-.074-.198-.155-.588-.305-1.24-.38-.384-.043-1.05.077-1.05.077a.596.596 0 0 0-.292.136c.182-.63.821-2.11.21-2.607a3.36 3.36 0 0 0-.623-.387c.153.14.288.3.376.501.347.802-.289 1.397-.289 1.397 0 .001-1.165.236-2.107-.617-.558-.504-.075-1.842-.075-1.842m6.267 4.362c.63.505 1.068 2.199-.977 2.589-.99.188-1.574-.924-1.605-1.743.04.004.078.018.124.016.303-.023.568-.614.508-.803-.058-.187.134-.248.301-.196.168.051.637-.041.631-.259 0-.012-.006-.024-.008-.038.347.072.732.199 1.026.434m-5.548.294c.123-.238.296-.437.474-.551.343-.223.781-.308 1.155-.337-.016.067-.01.13.048.176.189.15.689.056.785.186.004.006.02.007.022.015.06.162-.164.425-.104.614.051.166.256.406.575.448-.118.812-.817 1.86-1.783 1.57-1.469-.439-1.518-1.446-1.172-2.12m10.005 28.979c.44-.193 1.021-.302 1.585-.409.188-.035.429-.08.634-.126-.866-5.535-.166-9.233 2.086-11.016-.781-1.094-1.437-1.874-1.848-2.3-.26.837-.46 2.431-.558 3.204-.067.529-.124.984-.187 1.308-.097.509-.58 1.703-1.202 3.114.258.472.43.906.506 1.323.178 1.008.044 3.069-.724 3.164-1.307.16-1.907 1.078-1.062 1.523.252.133.465.211.665.27.036-.019.065-.04.105-.055m-8.007-.919c.786-1.143 3.155-7.904 1.372-10.562-.111-.167-.5-.549-.877-.92-.074-.073-.157-.154-.236-.234.282 4.325-.62 9.33-.782 10.013-.35 1.462-3.105 1.365-1.345 2.555.067.045.14.081.208.12.298-.478.889-.691 1.316-.843.105-.038.255-.09.344-.129m-1.176-31.451c.109-.387.137-.734.091-.915-.018-.07-.045-.12-.087-.133-.037-.008-.08.009-.125.047-.142.119-.311.447-.425.852-.155.538-.156 1.006-.005 1.048.151.04.399-.36.55-.9m5.679.957c.148-.046.126-.517-.05-1.046a2.573 2.573 0 0 0-.334-.685c-.096-.132-.188-.21-.255-.187-.063.02-.09.127-.093.272-.003.195.04.469.141.774.177.528.44.92.59.872m20.414 28.945c.972-3.854.322-8.744-1.456-11.431-1.908-2.881-4.551-6.272-7.877-7.905-3.326-1.632-5.863-2.061-7.351-3.95-.623-.792-1.213-1.761-1.692-2.624.531-1.388.262-3.024.262-3.505 0-.69 2.567-4.87 1.634-5.614-.934-.745-4.202 2.176-4.61 2.005-.407-.172-4.725-.401-5.074-.573-.35-.172-3.093-3.15-3.794-2.233-.729.955.733 4.884.642 5.211-.225.83-1.216 4.572 1.147 6.085.103 1.53.156 3.414.02 3.996-1.12 4.842 3.006 8.51 4.762 10.264.082.08.158.158.228.232.052.054.108.112.154.162.117.128.217.244.282.34 2.188 3.262-.7 10.825-1.488 11.77a.693.693 0 0 1-.248.17l-.042.02a5.321 5.321 0 0 1-.315.125c-.287.102-.596.206-.784.34-.25.18-.286.419.253.806 1.312.946 3.762 1.03 4.55-.43.235-.435 2.478-5.04 3.76-8.005.003-.002.004-.007.006-.01.11-.257.213-.5.307-.727l.014-.03a27.58 27.58 0 0 0 .263-.66c.063-.16.11-.298.155-.428l.034-.093c.047-.145.08-.267.1-.356.015-.085.03-.18.047-.287.008-.047.015-.102.022-.156.01-.064.019-.124.028-.197l.03-.235.023-.164.05-.41c.01-.061.017-.123.025-.185l.039-.297.028-.21c.014-.09.024-.179.037-.269l.034-.224c.015-.09.026-.176.04-.267.013-.074.025-.147.039-.22l.043-.258c.014-.074.03-.145.042-.218l.051-.245.046-.205c.018-.076.038-.151.057-.224.017-.066.035-.13.052-.189.02-.07.042-.137.062-.202l.059-.167a4.53 4.53 0 0 1 .07-.173c.022-.047.041-.093.065-.134.025-.051.05-.096.077-.139.024-.036.048-.073.072-.103a.825.825 0 0 1 .087-.094c.027-.024.051-.049.078-.067a.439.439 0 0 1 .098-.043c.029-.009.056-.019.086-.022a.387.387 0 0 1 .175.02c.592.223 2.014 1.963 3.268 3.82-4.2 2.053-2.547 10.152-2.393 11.214.003.023-.02.041-.025.063-.113.45-2.044.522-2.863.882-1.166.51-1.12 1.286-.263 1.634 1.49.601 13.04 1.458 15.577-1.891.076-.1.12-.208.183-.312.145.336.228.657.21.93-.132 2.141-7.996 2.918-9.184 3.567-1.191.649-.595 1.753 1.652 1.558.895-.077 7.929-1.232 9.846-3.05 1.542-1.461-.235-3.963-1.512-5.783M396.602 62.961c-.751 0-1.36-.599-1.36-1.333 0-.735.609-1.332 1.36-1.332a1.38 1.38 0 0 1 1.027.458.48.48 0 0 0-.204-.046.45.45 0 0 0-.459.443c0 .25.205.45.459.45.246 0 .445-.19.458-.43.051.141.083.295.083.457 0 .734-.61 1.333-1.364 1.333m-5.308-6.052l-1.968 1.524s-3.214.099-2.576-2.983c.175-.842 1.436-2.39 3.589-1.336 1.044.51.955 2.795.955 2.795m12.081 9.825c-.217-.662-.596-1.341-.877-1.815-.5-.843-2.874-4.642-4.62-6.835.027-.068.054-.132.054-.195 0-.73.928-5.313-.86-6.103-2.396-1.058-3.51 1.77-3.248 3.303.046.282.12.583.204.884a7.645 7.645 0 0 0-1.135.086c-.128-1.307-.518-3.098-1.69-3.671-3.958-1.936-6.276.908-6.596 2.458-.746 3.613 1.382 4.839 3.025 5.26-.19.725-.276 1.492-.412 2.285-.372 2.193 1.882 4.682 4.237 5.722 2.354 1.038 5.778 2.328 11.206.727h.005c.5.094 1.025-.137 1.252-.62a1.106 1.106 0 0 0-.545-1.486m-7.534 9.885c-1.096-.494-2.473-1.741-3.446-2.71.653-.904 1.31-1.831 1.911-2.64-1.386-.315-2.6-.782-3.718-1.273-3.07-1.353-6.023-4.598-5.449-7.945.035-.221.07-.44.1-.657.003-.005.003-.01.006-.017-2.357-1.321-3.36-3.801-2.71-6.943.02-.091.048-.187.074-.283-1.514-.957-3.206-1.58-4.975-1.376-14.695 1.705-15.816 13.027-15.567 16.431.026.352.11.696.22 1.028-1.058 1.803-2.15 3.216-3.031 3.348-2.6.39-3.217-.48-5.487-.762-2.272-.282-5.921 1.641-5.921 1.641s1.627-.698 6.527-.089c4.9.604 4.069 1.721 6.76.628.623-.25 1.25-.791 1.856-1.466.327.33.92.65 1.94 1.029 3.611 1.338 4.236 3.408 6.973 4.504 2.74 1.095 6.851 1.095 6.477 0-.372-1.096-2.119-.366-3.612-1.341-.732-.477-1.312-1.303-1.818-2.107l.261-.091c1.126.929 2.537 1.875 3.838 2.104 2.742.489 3.86.852 5.106.489 1.244-.367-1.6-.951-2.822-1.505-.865-.388-1.909-1.25-2.786-2.07.195-.041.39-.078.587-.104 3.201-.465 6.044 1.262 7.384 1.851 1.3 1.028 2.186 2.09 3.893 2.774 2.742 1.095 6.853 1.095 6.478 0-.372-1.096-2.118-.366-3.61-1.341-.375-.24-.707-.573-1.013-.949.13-.166.266-.337.407-.52.918.65 1.93 1.204 2.884 1.375 2.741.489 3.862.852 5.106.489 1.246-.367-1.601-.951-2.823-1.502M249.833 70.026l2.048-11.161-2.048 1.963v9.198zm4.288-15.62l-4.288-.49v4.138l2.914-2.647 1.214.217-2.163 16.369v22.062l8.793-3.878V67.405l-6.47-13zM313.86 89.65c-.479-.311-.782-.606-.665-.798.179-.3.934-.22 1.728-.061.346-.28.688-.565 1.046-.87-.828-.817-1.749-1.77-1.164-1.935.618-.178 1.701.309 2.58.699.322-.295.635-.582.933-.862-.486-.991-1.188-2.216-1.017-2.377.15-.14 1.362.385 2.57.901.391-.37.772-.723 1.145-1.059-.984-1.166-2.023-2.425-1.35-2.405.758.021 1.987.52 3.17.927a12.194 12.194 0 0 1 2.366-1.312c.067-.027.14-.056.215-.083.435-.158 1.133-.321 2.002-.48-1.933-1.154-6.106-2.987-8.58-2.23-2.578.787-8.709 11.507-8.043 12.973.136.302.374.565.644.805a66.437 66.437 0 0 0 2.42-1.833zm4.107 12.028c1.356.95 4.789.086 4.672.575-.148.626-1.628 2.233.248 1.887 2.686-.494 6.38-2.393 8.123-4.088a4.01 4.01 0 0 0 .773-1.047c-.423.182-.847.363-1.292.53-2.526.919-7.694 1.637-12.524 2.143zm20.919-15.882c-.691.253-1.472-.14-1.745-.87-.276-.73.059-1.526.749-1.777.69-.253 1.47.134 1.745.867.275.73-.061 1.53-.75 1.78zm5.109-4.385c-1.183-1.31-14.96-.65-18.155.674-3.196 1.32-5.037 3.945-8.964 7.26-3.928 3.312-7.034 5.465-9.919 6.83-2.885 1.364-.17 4.585-.17 4.585s17.833-1.054 23.08-2.992c11.87-4.385 15.476-14.865 14.128-16.357zm-5.689 2.306c-.277.1-.414.42-.303.713a.558.558 0 0 0 .701.348c.276-.102.411-.421.3-.713-.11-.295-.424-.45-.698-.348zm-31.99 18.246c-1.106 1.985-2.388 4.717-3.55 5.191-1.338.555 1.655-3.752 2.84-5.649a6.96 6.96 0 0 1-.245-.326c-1.55 1.422-5.264 5.206-6.757 5.566-1.748.42 5.03-4.998 6.225-6.447-.051-.1-.1-.21-.15-.32-1.327.4-6.41 3.47-8.167 3.505-1.754.039 5.751-3.224 7.885-4.29a5.917 5.917 0 0 1-.08-.33c-1.997.118-8.158.802-8.782.305-.572-.46 5.884-1.142 8.74-1.422.007-.053-.001-.11.011-.163a3.37 3.37 0 0 1 .06-.27c-2.44-.636-7.69-2.128-8.363-2.854-.733-.791 5.852 1.147 8.833 1.916.282-.375.694-.735 1.306-1.027a25.14 25.14 0 0 0 1.191-.609c-3.818-1.298-11.013-4.207-13.263-2.264-1.282 1.11-1.793 6.503-.152 10.866.763 2.028 4.096 7.227 7.202 7.241 1.105.008 3.436-2.585 5.06-4.353.732-.791 1.851-2.63 2.949-4.448-1.467.104-2.433.163-2.595.17l-.198.012zM353.492 34.315l.142.504.373 1.322.541 1.92.372 1.323.143.504.373 1.321-2.76.769-3.679 1.021 1.287 4.566.773 2.74-1.332.37-.509.14-1.331.37-1.935.538-1.333.37-.507.141-1.334.371-.771-2.74-1.288-4.565-4.6 1.277-2.758.768-.373-1.323-.142-.504-.373-1.322-.54-1.921-.375-1.322-.141-.505-.373-1.321 2.759-.766 4.6-1.279-1.032-3.652-.771-2.74 1.332-.371.508-.14 1.332-.37 1.936-.538 1.33-.372.508-.14 1.332-.37.773 2.74 1.03 3.653 3.68-1.022 2.76-.767.373 1.322zm-7.422 7.456c-.214-.95-.318-1.379-.64-1.861a1.438 1.438 0 0 0-.1-.14 5.509 5.509 0 0 0-.09-.112 1.602 1.602 0 0 0-.09-.098c0-.002-.003-.002-.003-.004a1.367 1.367 0 0 0-.409-.298c-.035-.018-.073-.034-.11-.05-.3-.106-.646-.112-1.081-.029-1.218.233-1.728 2.193-1.856 2.817-.055.26-.212.45-.378.633-.031.037-.064.072-.097.109h-.002c-.008.01-.015.016-.02.025a.216.216 0 0 0-.03.033.165.165 0 0 0-.02.024c-.01.011-.021.022-.03.035-.008.006-.013.014-.018.019l-.041.054c-.002.003-.004.003-.004.007-.016.017-.028.035-.04.053-.006.008-.01.013-.015.023a.284.284 0 0 0-.027.04c-.002.007-.008.015-.014.022-.007.015-.016.03-.025.043-.001.01-.005.016-.009.02-.01.022-.021.044-.029.067a.177.177 0 0 0-.006.016l-.02.054c0 .009-.003.015-.006.024-.004.019-.01.035-.013.052 0 .008-.004.016-.005.025l-.01.062v.017c-.005.029-.005.054-.005.083 0 .008-.002.016 0 .024a.702.702 0 0 0 .002.067c.001.01.002.02.005.03 0 .022.002.045.008.068-.001.009.003.02.005.03a.6.6 0 0 0 .02.1c.134.526.6.783 1.032.839l.007-.001a.764.764 0 0 0 .106.01h.024c.03.003.058.002.086.002.015 0 .028-.004.044-.005.02 0 .04 0 .06-.004.021 0 .041-.006.06-.01.015-.003.028-.003.041-.005.034-.008.063-.016.094-.025 1.062-.356 1.167-.532 1.55-.583l.08-.008c.708-.053 1.585 1.047 2.532.275a.455.455 0 0 0 .07-.069l.02-.02c.018-.022.033-.045.05-.07.006-.006.01-.012.013-.018.02-.029.037-.062.055-.097l.009-.017c.014-.03.026-.061.037-.092.005-.008.006-.016.012-.025.026-.077.047-.158.061-.244 0-.006 0-.012.003-.02.006-.038.009-.078.01-.117.002-.003 0-.007.002-.012.003-.041.003-.082.003-.124a1.06 1.06 0 0 0-.128-.468c-.175-.302-.65-.823-.73-1.176zm-5.827-.327c.016.01.034.021.048.028.02.015.037.024.058.032a.58.58 0 0 0 .134.056c.02.007.044.016.067.022.008.003.015.003.021.004.03.008.058.014.084.016h.021l.077.005.011-.001a.425.425 0 0 0 .086-.01c.004-.002.01-.004.018-.002a.57.57 0 0 0 .084-.025c.492-.17.66-.917.38-1.661-.022-.054-.044-.106-.069-.157l-.02-.046a1.738 1.738 0 0 0-.055-.1l-.029-.05a.781.781 0 0 0-.062-.097c-.007-.012-.013-.025-.024-.037a1.418 1.418 0 0 0-.095-.122c0-.002-.002-.002-.003-.004a1.107 1.107 0 0 0-.099-.105c-.007-.01-.017-.018-.024-.026a4.436 4.436 0 0 0-.084-.074c-.01-.007-.017-.014-.027-.023-.032-.022-.065-.047-.097-.066-.007-.006-.01-.01-.015-.012-.041-.024-.08-.049-.12-.066a.764.764 0 0 0-.575-.054c-.492.174-.663.921-.381 1.665.102.27.248.504.418.682l.003.002.04.042c.014.012.026.022.037.034l.054.049c.015.01.032.026.051.037a.187.187 0 0 0 .038.03l.049.034zm1.123-2.635c.01.016.023.03.038.048l.024.025a.523.523 0 0 0 .09.095l.037.036c.016.01.025.022.04.03a2.273 2.273 0 0 0 .1.07c.01.007.021.016.032.021.023.014.046.027.069.036.01.007.017.012.027.013.018.01.039.017.057.023a.1.1 0 0 0 .026.01c.027.01.052.016.079.024.006 0 .013.003.02.003.025.005.05.007.073.012.005-.002.01 0 .015 0 .029.004.056.001.084 0l.02.001.086-.01c.509-.101.786-.757.614-1.467-.01-.052-.024-.1-.043-.149-.004-.016-.012-.03-.016-.045-.012-.034-.024-.068-.037-.1l-.021-.044c-.016-.035-.033-.066-.05-.1a1.553 1.553 0 0 0-.094-.157h-.001a1.081 1.081 0 0 0-.084-.112c-.007-.008-.015-.016-.021-.025-.023-.026-.05-.052-.073-.076a.694.694 0 0 0-.123-.11.923.923 0 0 0-.108-.072.793.793 0 0 0-.562-.118c-.513.099-.789.755-.617 1.467.061.26.173.487.318.671h.001zm6.404-.425l-.012-.033c-.017-.034-.03-.069-.048-.103a.092.092 0 0 0-.01-.016.912.912 0 0 0-.07-.113.725.725 0 0 0-.474-.32c-.513-.087-1.04.47-1.177 1.24-.05.28-.04.553.016.787l.001.002.016.053a.72.72 0 0 0 .013.047c.006.024.016.045.022.068.01.018.016.038.023.057a.3.3 0 0 0 .02.044c.006.019.019.035.027.052a.411.411 0 0 0 .024.047c.013.018.024.037.035.055a.092.092 0 0 1 .02.03c.018.022.031.043.052.065.004.005.01.009.014.016l.048.05.018.015a1.907 1.907 0 0 0 .08.063.439.439 0 0 0 .078.044c.025.014.05.026.077.033.008.002.013.003.018.007.027.007.056.015.085.02.515.087 1.04-.468 1.178-1.24l.021-.165c.003-.016.003-.036.003-.052a.697.697 0 0 0 .006-.114v-.054l-.005-.112-.002-.04a1.42 1.42 0 0 0-.02-.154l-.001-.003a1.116 1.116 0 0 0-.032-.137c-.002-.013-.006-.023-.01-.034-.01-.035-.02-.07-.034-.105zm-3.902.115c.024.03.05.062.077.09l.01.012c.065.06.13.112.199.153.007.002.012.007.017.008.028.017.057.029.086.041l.03.012c.028.01.053.016.081.021l.03.009c.039.006.076.01.112.012.524.004.933-.58.923-1.31-.004-.051-.007-.106-.012-.157l-.006-.044c-.004-.036-.011-.073-.016-.11a.247.247 0 0 1-.008-.044l-.03-.11-.008-.032a1.556 1.556 0 0 0-.108-.266l-.016-.026c-.018-.032-.034-.062-.055-.093-.006-.008-.008-.02-.017-.025-.02-.033-.044-.062-.068-.092-.005-.005-.007-.01-.01-.012-.168-.197-.382-.318-.617-.322-.521-.007-.932.579-.919 1.31.007.38.13.722.315.963l.01.012zm-4.434-14.834a5.957 5.957 0 0 1 4.723.657l4.108-1.14c-2.455-2.824-6.226-4.179-9.861-3.17-3.633 1.01-6.146 4.112-6.77 7.79l4.107-1.142a5.918 5.918 0 0 1 3.693-2.995zm15.09-.68l-30.837 8.57c-2.407.667-3.827 3.097-3.171 5.424l5.545 19.665c.655 2.327 3.141 3.672 5.547 3.003l30.839-8.57c2.405-.667 3.827-3.098 3.17-5.424l-5.545-19.665c-.656-2.326-3.14-3.671-5.547-3.003zM297.043 71.48c-.376-.288-1.124-4.646-1.202-5.673-.075-.999-.13-1.914-.174-2.77.149-.164.293-.33.439-.502.46 3.267 1.098 7.526 1.144 8.7.008.16.044.292.077.43a3.532 3.532 0 0 1-.284-.185m-2.976-39.441c.745.364.4 3.316.181 3.862-.219.545-1.474 1.41-2.027 1.603-.552.192-.888-.092-.888-.092.018-.756 1.99-5.737 2.734-5.373m3.798 2.103c.395.295.021 2.268-.158 2.767-.388-.235-.842-.404-1.275-.545.5-1.134 1.179-2.41 1.433-2.222m-1.1 6.677c.5.138.773.87.773.87s-.272.549-.819.549c-.546 0-1.456-.413-1.456-.413s1-1.144 1.502-1.006m-.06.162c-.316-.087-.945.631-.945.631s.102.047.245.1c.09-.101.6-.649.895-.62a.51.51 0 0 0-.196-.111m6.272 4.736l-.033.001c-.168 0-.389.003-.624.014a5.758 5.758 0 0 0-.46.033c-.283.028-.559.071-.75.154a.291.291 0 0 0-.142.122c-.167.27.228.752.41.748.213-.004.475-.12.533.068.056.187.11.49.376.49.016 0 .025-.008.041-.01.24-.022.39-.224.516-.413.018-.03.055-.052.083-.079.157-.134.418-.242.58-.394.022-.022.052-.04.07-.064.165-.225-.134-.67-.6-.67m-1.662 2.941h.044c.828 0 1.079-.356 1.297-.863a.915.915 0 0 1-.367.075c-.082 0-.144-.022-.21-.043-.326-.093-.485-.379-.56-.592a1.81 1.81 0 0 1-.225.023c-.423 0-.843-.498-.93-.925a.777.777 0 0 1 .074-.544.784.784 0 0 1 .382-.338c.095-.042.216-.067.33-.095.063-.017.115-.04.184-.054a8.1 8.1 0 0 1 1.317-.107h.106c-.5-.665-1.551-1.91-2.388-2.945a1.081 1.081 0 0 1-.053-.196 2.35 2.35 0 0 1 .004-.421 1.15 1.15 0 0 1-.274.216c-.14-.177-.265-.339-.38-.489.012-.255.048-.5.151-.54.13-.054.365-.077.542-.086a2.036 2.036 0 0 0-.087-.602c-.32-.932-1.175-1.97-1.84-2.628a8.283 8.283 0 0 0 .432-1.901c.087-.929-.072-3.541-.734-4.056-.51-.4-2.023 2.935-2.687 4.474-.278-.116-.468-.245-.468-.418 0-.59.587-4.649-.146-5.24-.734-.588-3.743 3.395-4.99 5.977-1.026 2.124-2.04 8.444-2.534 11.605a10.18 10.18 0 0 0-1.833 1.819c-.47.612-2.065 2.945-3.86 5.76-3.138 3.034-6.745 7.691-7.949 9.781-.436.756-.758 1.795-.853 2.872-1.133.633-2.586 2.012-2.646 3.27-.187 3.82 2.332 5.473 2.954 5.782.623.304 1.932.568 2.225-.233.294-.797-4.477-2.853-2.241-5.594.06-.076.125-.146.19-.21.214.426.498.811.869 1.137 2.495 2.173 12.138 2.365 13.546 2.273 1.404-.095 1.975-.528 1.759-1.087-.11-.283-1.851-.706-3.132-1.184.861.233 1.704.288 2.125.31 1.112.061 4.425.653 4.425-.476 0-1.13-3.153-1.876-3.715-1.97-.318-.051-.489-.272-.45-.838.878-.732 1.61-1.683 2.399-2.27.244-.182.684-.51 1.23-.947.405 2.43.779 4.748.83 5.566.117 1.845 2.056 1.95 2.793 2.006.737.058 1.372.027 2.176-.494a.728.728 0 0 0 .263-.269c.577.264 1.227.321 1.587.355.738.076 1.372.061 2.188-.44 1.021-.635-.695-1.467-1.063-1.764-.368-.295-1.019-4.672-1.07-5.7-.346-6.68-1.075-10.34-1.897-13.186a61.94 61.94 0 0 0-.22-.83c.25-.66.597-1.365.86-2.084.545-.06 1.052-.158 1.486-.268-.439-.051-.895-.12-1.33-.205-.61-.119-1.172-.275-1.55-.48l-.096-.054c.493.136 1.1.22 1.71.273.904.08 1.796.092 2.3.092M499.652 19.024l-3.055 2.964 3.055 2.414v-5.378zm0-21.774l-3.865 3.752 3.48 2.748c-.195.291-.383.585-.55.888l-4.71-.882-1.527 6.255 4.571.857c0 .334.022.67.048 1.008l-4.586 1.3 2.248 6.086 4.444-1.26c.139.216.291.424.447.63V-2.75z"/>
                <g transform="translate(478.136 52.736)">
                    <mask id="f" fill="#fff">
                        <use xlink:href="#e"/>
                    </mask>
                    <path fill="#FFF" d="M19.674 26.658c0 .084-.004.17-.011.258-.003.039-.003.075-.007.109-.01.123-.027.249-.046.372-.288 1.731-1.398 2.988-2.483 2.802-.06-.01-.119-.026-.176-.043l-.04-.015a1.343 1.343 0 0 1-.36-.195.858.858 0 0 1-.176-.155 1.57 1.57 0 0 1-.092-.097l-.04-.048a1.437 1.437 0 0 1-.1-.138.737.737 0 0 1-.05-.078 1.535 1.535 0 0 1-.06-.098c-.026-.044-.05-.092-.074-.138l-.043-.095a.744.744 0 0 1-.045-.109 3.117 3.117 0 0 1-.098-.285c-.006-.029-.016-.056-.023-.082-.012-.046-.024-.09-.034-.135a4.614 4.614 0 0 1-.035-1.76c.288-1.734 1.396-2.991 2.483-2.803.402.068.742.324.997.706.054.08.102.167.15.254.004.015.009.022.016.034.036.075.07.155.102.237l.024.068c.029.077.053.157.077.237.007.024.011.046.018.067.053.21.09.433.112.663.003.029.003.058.005.087.005.084.01.174.01.264v.116zm-3.594 6.4l-.002.016a1.02 1.02 0 0 1-.019.15c-.002.01-.002.017-.005.024a2 2 0 0 1-.096.34 2.453 2.453 0 0 1-.06.141 2.789 2.789 0 0 1-.072.123l-.017.025a.52.52 0 0 1-.064.084c-.007.007-.014.017-.021.027-.031.031-.06.06-.09.087-1.183.955-2.213-.493-3.079-.447-.516.026-.604.224-1.762.614l-.248.082a.735.735 0 0 1-.114.026c-.016.006-.033.006-.05.01-.024.002-.047.007-.071.007-.026.005-.05.003-.076.005-.02 0-.036.003-.055.003-.033 0-.067-.003-.1-.005-.012.002-.021 0-.033 0-.04-.003-.08-.01-.124-.017H9.91c-.525-.087-1.084-.438-1.23-1.112l-.02-.133-.006-.039c-.002-.029-.007-.058-.007-.087-.002-.012-.002-.024-.002-.039a.589.589 0 0 1 0-.084v-.032c0-.034.002-.07.007-.106.002-.007.002-.012.002-.015a.786.786 0 0 1 .017-.086.443.443 0 0 1 .024-.097c0-.01.005-.022.01-.03.006-.026.016-.05.026-.077.002-.002.002-.01.004-.014a1.567 1.567 0 0 1 .052-.104l.034-.063c.005-.007.01-.014.014-.024l.038-.056c.005-.005.01-.014.015-.022.035-.048.07-.096.111-.142.005-.01.012-.017.017-.024.017-.015.029-.034.043-.048.007-.008.014-.017.023-.025.012-.017.027-.031.04-.048l.022-.022c.005-.007.012-.012.017-.02.038-.04.074-.079.112-.122.209-.225.404-.465.48-.798.181-.798.876-3.294 2.367-3.545.535-.092.959-.072 1.318.078v.002c.23.097.435.251.625.464v.003c.036.04.07.082.105.128.002.005.007.005.007.012.034.039.067.087.095.133l.015.02c.035.05.07.105.104.164.376.633.485 1.19.712 2.413.02.113.07.244.14.377.202.406.556.867.706 1.163.093.183.136.391.138.604.003.053 0 .106-.005.157zM8.593 25.44a4.509 4.509 0 0 1-.774-1.73c-.385-1.715.174-3.301 1.247-3.552.418-.095.851.029 1.251.314.034.024.067.05.1.075.021.02.043.038.066.056.046.04.09.08.136.125l.06.06.104.114c.014.017.031.034.046.054.044.053.087.108.13.169.015.02.031.04.045.063.046.062.086.125.126.193a3.769 3.769 0 0 1 .129.225c.012.017.021.039.031.058l.112.227c.004.017.014.034.02.051.032.073.06.148.09.225.004.014.011.026.013.038.034.087.06.175.088.267l.017.055c.026.094.05.189.071.283.386 1.714-.173 3.305-1.246 3.551-.06.015-.119.022-.18.027-.015.002-.027.002-.041.005a1.5 1.5 0 0 1-.176-.003l-.03-.004c-.054-.005-.101-.015-.153-.025-.015-.002-.031-.007-.048-.009a1.415 1.415 0 0 1-.219-.075c-.04-.02-.08-.036-.121-.058a.38.38 0 0 1-.057-.027c-.05-.029-.098-.055-.145-.087-.026-.02-.053-.036-.076-.053a2.608 2.608 0 0 1-.212-.172c-.024-.02-.048-.043-.072-.065a2.544 2.544 0 0 0-.087-.087l-.053-.06a2.495 2.495 0 0 1-.145-.17c-.017-.021-.03-.041-.047-.058zm-1.634 4.971c-.06.015-.12.022-.18.027l-.042.002a.827.827 0 0 1-.176-.002h-.028c-.053-.01-.103-.017-.155-.03-.014-.004-.029-.006-.043-.009a1.373 1.373 0 0 1-.22-.075 1.778 1.778 0 0 1-.127-.056c-.019-.01-.036-.019-.053-.026-.05-.029-.1-.058-.15-.09-.023-.017-.044-.033-.068-.048l-.102-.075a4.671 4.671 0 0 0-.105-.09 2.174 2.174 0 0 0-.084-.079c-.028-.024-.052-.053-.078-.078a1.338 1.338 0 0 1-.078-.086 2.417 2.417 0 0 1-.117-.14 1.587 1.587 0 0 1-.135-.182h-.003a4.581 4.581 0 0 1-.692-1.615c-.383-1.714.173-3.303 1.247-3.552.396-.092.808.015 1.189.271.019.01.04.027.059.04l.107.08c.02.018.04.032.062.05l.138.13.057.058c.036.036.071.077.105.116l.045.05c.045.056.088.112.13.168.017.021.032.045.048.065.043.065.086.125.124.191.01.014.016.029.026.04.033.061.07.122.102.185l.034.06c.038.075.074.15.11.228a.976.976 0 0 0 .02.055c.032.072.062.143.088.218l.017.046c.03.084.06.171.086.26.007.017.012.042.017.06.025.093.052.187.073.281.386 1.715-.176 3.303-1.248 3.552zm7.383-10.867c.404.014.778.225 1.08.568.064.072.123.15.178.234.01.01.014.02.021.03.045.072.09.144.134.222a.89.89 0 0 1 .035.065c.034.07.07.145.103.222l.028.068c.08.199.145.413.195.638.007.03.01.058.017.087a3.838 3.838 0 0 1 .057.373c.01.087.019.172.024.258 0 .04.004.075.004.112.008.12.008.246.005.375-.062 1.754-1.004 3.147-2.103 3.109a1.488 1.488 0 0 1-.178-.025c-.017 0-.028-.004-.043-.01a.914.914 0 0 1-.171-.045c-.007-.002-.017-.008-.026-.012-.05-.017-.093-.04-.14-.063-.015-.007-.03-.012-.043-.022a1.593 1.593 0 0 1-.298-.215c-.016-.015-.033-.027-.047-.041-.043-.04-.081-.082-.12-.124l-.059-.067a2.392 2.392 0 0 0-.073-.095l-.086-.123a2.696 2.696 0 0 0-.057-.09c-.02-.033-.04-.067-.057-.1a2.393 2.393 0 0 1-.133-.268c-.015-.028-.024-.06-.036-.086a20.827 20.827 0 0 0-.05-.123s0-.005-.002-.005h.002a4.572 4.572 0 0 1-.262-1.738c.062-1.758 1.002-3.148 2.1-3.11zm4.115-7.998l-13.04-1.85-3.102 6.806V39.59l18.863 2.847v-22.75l.338-1.994V8.368l-3.06 3.179zm3.059-10.186L10.612.002l-2.276.58-.05-.007-8.22 6.402L17.56 9.465l3.956-3.91V1.362z" mask="url(#f)"/>
                </g>
                <path fill="#FFF" d="M471.047 9.26c-.192.174-.37.361-.536.56.295-.941.731-1.799 1.415-2.425 2.047-1.862 5.298-.147 4.835 2.548-1.169-1.785-3.773-2.43-5.714-.683zm-6.966-2.363c-.007.158-.003.313.007.466-.226-.488-.375-1.014-.35-1.577.068-1.674 1.819-2.627 2.6-1.417-1.037-.083-2.184.947-2.257 2.528zm1.447 3.092c.075.001.153-.003.229-.015 1.376-.195 2.221-2.097 1.89-4.245a6.728 6.728 0 0 0-.09-.453c-.01-.046-.024-.092-.037-.139a5.817 5.817 0 0 0-.082-.3c-.015-.049-.032-.096-.05-.143a6.445 6.445 0 0 0-.109-.298l-.044-.109a5.025 5.025 0 0 0-.182-.381c-.003-.002-.003-.006-.005-.01a4.702 4.702 0 0 0-.434-.66c-.02-.026-.039-.052-.06-.076a3.565 3.565 0 0 0-.21-.236c-.015-.012-.025-.025-.037-.037a3.24 3.24 0 0 0-.275-.24v-.002.001c-.458-.352-.967-.525-1.474-.453-1.376.195-2.218 2.095-1.89 4.244a5.669 5.669 0 0 0 .729 2.06c.002.004.005.005.005.007l.082.127.076.114c.039.053.075.106.114.158l.11.132c.027.035.058.067.087.101.035.04.074.078.11.116.036.037.073.07.11.105.043.04.085.077.131.113a2.883 2.883 0 0 0 .26.194c.02.01.04.02.057.032.056.03.112.063.168.09.017.01.037.019.056.029a2.083 2.083 0 0 0 .458.148 1.534 1.534 0 0 0 .256.026h.05zM471.546-.8c-1.04-.085-2.187.946-2.257 2.528a4.22 4.22 0 0 0 .004.464c-.226-.486-.372-1.011-.35-1.575.068-1.675 1.822-2.627 2.603-1.417zm-3.222 3.605l.073.146.05.088c.038.072.082.141.125.21.022.03.042.064.064.094.026.038.053.078.083.115.024.032.05.065.077.097.04.049.079.096.12.14l.097.103c.03.026.052.052.08.076a2.361 2.361 0 0 0 .222.184c.047.035.093.064.142.095a2.098 2.098 0 0 0 .254.141c.016.01.033.016.053.023.06.027.119.05.18.068l.039.013c.07.023.144.038.217.05l.053.007c.076.011.151.02.23.02 1.385.013 2.457-1.594 2.396-3.59a4.975 4.975 0 0 0-.034-.423l-.018-.129a3.646 3.646 0 0 0-.048-.288c-.007-.045-.017-.09-.027-.134a5.555 5.555 0 0 0-.075-.288c-.01-.033-.017-.067-.027-.1a5.546 5.546 0 0 0-.136-.374v-.002a3.859 3.859 0 0 0-.161-.343c-.015-.026-.027-.051-.041-.077a3.926 3.926 0 0 0-.15-.25c-.016-.024-.03-.05-.048-.073a3.576 3.576 0 0 0-.182-.245c-.013-.013-.02-.025-.03-.038a3.208 3.208 0 0 0-.243-.256s0-.002-.003-.002c-.409-.382-.891-.61-1.403-.614-1.388-.015-2.46 1.592-2.396 3.586.021.727.194 1.402.467 1.97zm16.938 3.675c.005-.037.012-.075.015-.114.017-.139.026-.279.03-.414v-.009c.004-.132 0-.263-.008-.391l-.008-.092a5.45 5.45 0 0 0-.034-.297c-.005-.032-.01-.063-.017-.094a2.929 2.929 0 0 0-.068-.303.451.451 0 0 0-.012-.052 3.388 3.388 0 0 0-.12-.337l-.002-.004c-.002 0 0 0 0 0-.224-.525-.584-.924-1.064-1.112-1.296-.514-2.97.685-3.74 2.678a5.417 5.417 0 0 0-.38 2.112v.006l.01.152.01.13c.008.068.015.133.025.197.007.055.017.109.027.165l.026.126c.012.052.024.105.04.155.014.049.028.096.043.142.017.054.037.109.058.164l.037.089c.032.07.063.138.097.204a.428.428 0 0 1 .032.051c.032.057.066.11.103.162.01.018.021.035.033.052a2.14 2.14 0 0 0 .33.351c.007.006.014.015.021.02.061.049.122.09.188.13.014.01.03.017.044.025.065.038.136.072.207.1 1.295.515 2.971-.684 3.741-2.676.054-.143.102-.287.146-.43.015-.046.025-.09.037-.135l.075-.3.03-.143c.019-.104.033-.206.048-.308zm-7.151-8.236c.791.257.696.797-.188.682-1.315-.173-1.985 1.222-2.221.903-.234-.316.782-2.114 2.409-1.585zm-3.093 5.096c.048.097.1.19.153.28.01.015.017.029.027.043.127.196.267.368.428.515.012.011.027.02.042.033.066.056.13.108.2.156a2.323 2.323 0 0 0 .272.15c.027.012.051.027.078.037.093.038.188.07.288.092 1.354.303 2.745-1.042 3.103-3.002.027-.143.044-.284.058-.424l.008-.119a3.33 3.33 0 0 0 .014-.305c.003-.042.003-.083.003-.124-.003-.106-.008-.21-.012-.313-.005-.03-.005-.06-.008-.09a4.763 4.763 0 0 0-.163-.85 3.288 3.288 0 0 0-.127-.356 3.375 3.375 0 0 0-.129-.281c-.007-.013-.012-.025-.02-.038-.33-.62-.828-1.061-1.431-1.196-1.357-.302-2.746 1.044-3.103 3.005-.188 1.017-.057 2 .301 2.752.005.013.012.023.018.035zm3.98 9.954c-.047-2.656-.083-3.857-.668-5.33a5.35 5.35 0 0 0-.166-.392c-.005-.012-.01-.02-.014-.032a9.667 9.667 0 0 0-.163-.33c-.005-.005-.008-.012-.012-.018a5.135 5.135 0 0 0-.186-.32 3.94 3.94 0 0 0-.906-1.026l-.002-.001a4.117 4.117 0 0 0-.263-.186c-.003-.002-.003-.003-.005-.003-.714-.453-1.618-.657-2.801-.67-3.298-.041-5.683 4.925-6.355 6.526-.285.672-.794 1.097-1.323 1.494a20.133 20.133 0 0 1-.321.243l-.066.049c-.034.024-.063.05-.097.074l-.061.049a1.667 1.667 0 0 0-.1.079l-.056.045c-.047.04-.093.078-.136.119a3.47 3.47 0 0 0-.149.14 3.42 3.42 0 0 0-.185.194c-.03.036-.061.07-.088.106-.012.017-.027.031-.039.048-.036.05-.075.102-.112.158l-.022.038c-.027.043-.053.089-.08.137l-.032.062-.06.127-.028.068a1.909 1.909 0 0 0-.058.163l-.015.043a3.153 3.153 0 0 0-.068.286c-.01.056-.02.115-.027.176-.004.029-.01.056-.01.087-.006.058-.012.12-.014.182-.003.029-.003.056-.003.083a2.902 2.902 0 0 0 0 .286c.066 1.473 1.145 2.418 2.241 2.802l.017.004c.093.034.183.061.273.086.02.003.042.007.061.012a2.5 2.5 0 0 0 .224.048c.037.01.076.01.112.018.056.006.113.015.166.021.056.005.11.005.163.006.037 0 .073.004.11.004.087-.001.173-.007.253-.018 2.964-.37 3.335-.785 4.358-.71.068.006.14.013.214.022 1.875.24 3.57 3.667 6.455 2.115.075-.04.148-.09.221-.146.02-.014.04-.032.061-.047.056-.047.11-.098.166-.153.014-.014.032-.027.046-.043.066-.072.132-.147.195-.23l.03-.043c.053-.072.104-.147.153-.225l.039-.064c.111-.192.211-.397.29-.616.007-.017.011-.033.019-.05a3.642 3.642 0 0 0 .105-.342c.027-.108.048-.216.068-.328.07-.449.053-.907-.078-1.323-.29-.904-1.257-2.557-1.272-3.554z"/>
            </g>
        </g>
    </g>
</svg>
