<svg xmlns="http://www.w3.org/2000/svg" width="17" height="15" viewBox="0 0 17 15">
    <g fill="#FFF" fill-rule="nonzero">
        <path d="M5.574 5.852c.064 0 .13-.004.194-.014 1.069-.16 1.772-1.597 1.568-3.203C7.148 1.157 6.218 0 5.22 0c-.064 0-.13.005-.194.015-.504.075-.945.44-1.243 1.028-.31.612-.426 1.384-.325 2.174.188 1.478 1.118 2.635 2.116 2.635zM1.459 3.99c-.106 0-.213.014-.317.04-.902.233-1.36 1.39-1.04 2.636.278 1.087 1.043 1.847 1.861 1.847.107 0 .213-.014.317-.04.902-.233 1.36-1.39 1.041-2.635C3.043 4.75 2.277 3.99 1.46 3.99zM10.29 5.838c1.074.16 2.11-1.048 2.311-2.62.1-.79-.015-1.563-.325-2.175-.298-.588-.74-.953-1.242-1.028A1.318 1.318 0 0 0 10.839 0c-.998 0-1.928 1.158-2.116 2.636-.205 1.605.499 3.042 1.568 3.202zM15.443 4.03a1.275 1.275 0 0 0-.317-.04c-.818 0-1.583.76-1.862 1.848-.318 1.245.14 2.402 1.042 2.635.103.026.21.04.316.04.818 0 1.584-.76 1.862-1.847.32-1.246-.138-2.403-1.04-2.636z"/>
        <g>
            <path d="M8.286 14.918c-8.85-4.73-2.45-10.61 0-6.65 2.45-3.96 8.85 1.92 0 6.65z"/>
        </g>
    </g>
</svg>
