<svg xmlns="http://www.w3.org/2000/svg" width="79" height="41" viewBox="0 0 79 41">
    <g fill="#23B4C9" fill-rule="nonzero">
        <path d="M26.468 27.701c.305 0 .612-.022.921-.068 5.076-.76 8.416-7.56 7.445-15.159C33.94 5.48 29.526 0 24.786 0c-.305 0-.614.023-.922.069-2.39.357-4.486 2.086-5.9 4.866-1.475 2.898-2.023 6.555-1.545 10.294.894 6.994 5.308 12.472 10.049 12.472zM6.928 18.887c-.505 0-1.01.064-1.504.19C1.14 20.176-1.034 25.655.482 31.55c1.32 5.148 4.955 8.743 8.84 8.743a6.06 6.06 0 0 0 1.503-.19c4.286-1.098 6.459-6.576 4.945-12.472-1.321-5.148-4.957-8.744-8.842-8.744zM48.865 27.634c5.097.76 10.019-4.96 10.97-12.405.478-3.74-.07-7.395-1.544-10.294-1.415-2.78-3.51-4.509-5.9-4.866A6.277 6.277 0 0 0 51.47 0c-4.74 0-9.154 5.48-10.048 12.475-.973 7.6 2.368 14.4 7.444 15.159zM73.33 19.077c-.492-.126-1-.19-1.504-.19-3.885 0-7.52 3.596-8.842 8.744-1.513 5.896.66 11.374 4.945 12.472.492.127.998.19 1.503.19 3.885 0 7.519-3.594 8.841-8.743 1.515-5.896-.658-11.374-4.943-12.473z"/>
    </g>
</svg>
