<svg xmlns="http://www.w3.org/2000/svg" width="79" height="72"><path d="M26.468 27.7c.305 0 .612-.022.92-.068 5.076-.76 8.416-7.56 7.445-15.16C33.94 5.48 29.526 0 24.786 0a6.25 6.25 0 0 0-.922.069c-2.4.357-4.486 2.086-5.9 4.866C16.49 7.833 15.94 11.5 16.42 15.23c.894 6.994 5.308 12.472 10.05 12.472zm-19.54-8.814c-.505 0-1 .064-1.504.2-4.284 1.1-6.458 6.578-4.942 12.473 1.32 5.148 4.955 8.743 8.84 8.743a6.06 6.06 0 0 0 1.503-.19c4.286-1.098 6.46-6.576 4.945-12.472-1.32-5.148-4.957-8.744-8.842-8.744zm41.937 8.747c5.097.76 10.02-4.96 10.97-12.405.478-3.74-.07-7.395-1.544-10.294-1.415-2.78-3.5-4.51-5.9-4.866A6.277 6.277 0 0 0 51.47 0c-4.74 0-9.154 5.48-10.048 12.475-.973 7.6 2.368 14.4 7.444 15.16zm24.465-8.557a6.08 6.08 0 0 0-1.504-.19c-3.885 0-7.52 3.596-8.842 8.744-1.513 5.896.66 11.374 4.945 12.472a6.02 6.02 0 0 0 1.503.19c3.885 0 7.52-3.594 8.84-8.743 1.515-5.896-.658-11.374-4.943-12.473z" fill="#23b4c9"/><path fill="#f8951d" d="M39.376 71.43c-41.1-22.87-11.372-51.302 0-32.154 11.375-19.148 41.094 9.284 0 32.154z"/></svg>