<svg xmlns="http://www.w3.org/2000/svg" width="78" height="70" fill="#f8951d"><path d="M57.3 0C49.417 0 42.546 4.382 39 10.843 35.45 4.383 28.587 0 20.693 0c-7.558 0-14.42 4.424-18.04 10.977-4.308 7.784-2.833 16.365.6 24.174l.025.05H20.4l3.922-7.063c.796-1.433 2.866-1.44 3.662-.01L35.173 41 46.3 17.563c.796-1.684 3.234-1.567 3.863.184l6.335 17.446h18.2l.025-.05c3.452-7.8 4.92-16.4.62-24.174C71.732 4.424 64.86 0 57.312 0zm-5.715 40.682L47.7 30 37.37 51.607c-.73 1.535-2.897 1.602-3.737.125l-7.506-13.345-1.453 2.596a2.114 2.114 0 0 1-1.839 1.076H7c8.682 11.826 25.535 24.002 30.556 27.5a2.54 2.54 0 0 0 2.888 0C45.466 66.053 62.318 53.876 71 42.06H53.577c-.9 0-1.68-.55-1.982-1.377z"/></svg>