<svg xmlns="http://www.w3.org/2000/svg" width="80" height="72"><path fill="#23b4c9" d="M79 25.995C79 11.637 67.793 0 53.958 0c-1.517 0-3.007.137-4.45.41-.85.16-1.7.38-2.51.626L53.958 26 79 25.995z"/><path fill="#f8951d" d="M23.4 29.337c-.117-1.962-.718-5.114-3.107-8.06-2.527-3.12-6.38-5.18-11.433-6.2A3.135 3.135 0 0 0 6.472 14H3.156C1.418 14 0 15.39 0 17.114s1.413 3.11 3.156 3.11h3.316c.773 0 1.468-.283 2.014-.734 3.713.815 6.49 2.3 8.27 4.468 1.61 1.956 2.07 4.054 2.185 5.385h-.127C18.815 42.957 32.5 54 49.4 54S80 42.962 80 29.342c0 0-56.6 0-56.6-.005zM37.5 55a8.51 8.51 0 0 0-8.5 8.5 8.51 8.51 0 0 0 8.5 8.5 8.51 8.51 0 0 0 8.5-8.5 8.51 8.51 0 0 0-8.5-8.5zm0 12.66a4.166 4.166 0 0 1-4.161-4.156 4.171 4.171 0 0 1 4.161-4.16 4.171 4.171 0 0 1 4.161 4.16 4.166 4.166 0 0 1-4.161 4.156zM60.503 55C55.815 55 52 58.81 52 63.5s3.815 8.5 8.503 8.5A8.51 8.51 0 0 0 69 63.5a8.51 8.51 0 0 0-8.497-8.5zm0 12.66a4.162 4.162 0 0 1-4.16-4.156 4.17 4.17 0 0 1 4.16-4.16 4.166 4.166 0 0 1 4.154 4.16 4.161 4.161 0 0 1-4.154 4.156z"/></svg>