<svg xmlns="http://www.w3.org/2000/svg" width="66" height="70"><path fill="#f8951d" d="M64.198 62.175l-5.092-2.903 5.092-2.903a2.425 2.425 0 0 0 .905-3.336 2.49 2.49 0 0 0-3.378-.893l-5.09 2.903V21.977C56.634 9.86 46.65 0 34.38 0S12.125 9.86 12.125 21.977v15.77h-4.2c-4.37 0-7.925 3.5-7.925 7.825S3.555 53.4 7.924 53.4h4.2v3.43h44.5v4.884h-44.5v5.844c0 1.35 1.108 2.442 2.474 2.442H54.16c1.365 0 2.472-1.093 2.472-2.442v-4.056l5.092 2.903a2.49 2.49 0 0 0 3.378-.894 2.425 2.425 0 0 0-.905-3.336zM27.385 37.37c-1.326 0-2.4-1.06-2.4-2.37s1.075-2.37 2.4-2.37 2.4 1.06 2.4 2.37c0 1.687-.714 2.37-2.4 2.37zm0-12.395c-1.326 0-2.4-1.062-2.4-2.37s1.075-2.372 2.4-2.372 2.4 1.062 2.4 2.372-1.075 2.37-2.4 2.37zM41.373 37.37c-1.326 0-2.4-1.06-2.4-2.37s1.075-2.37 2.4-2.37 2.402 1.06 2.402 2.37-1.075 2.37-2.402 2.37zm0-12.395c-1.326 0-2.4-1.062-2.4-2.37s1.075-2.372 2.4-2.372 2.402 1.062 2.402 2.372-1.075 2.37-2.402 2.37z"/></svg>