<svg xmlns="http://www.w3.org/2000/svg" width="71" height="70"><path fill="#23b4c9" d="M53.569 18.416C53.569 8.244 45.324 0 35.15 0S16.736 8.244 16.736 18.416c0 14.573 18.415 36.138 18.415 36.138S53.57 32.914 53.57 18.416zm-27.5-1.1a9.084 9.084 0 1 1 18.168 0 9.084 9.084 0 0 1-18.168 0z"/><path fill="#f8951d" d="M45.564 48.147a130.71 130.71 0 0 1-4.082 5.576c11.637.7 19.264 3.212 22.1 5.08-3.324 2.193-13.2 5.274-28.43 5.274S10.05 60.994 6.726 58.804c2.837-1.87 10.458-4.38 22.083-5.08a128.914 128.914 0 0 1-4.088-5.574C10.4 49.56 0 53.797 0 58.802c0 6.16 15.74 11.155 35.154 11.155s35.153-4.992 35.153-11.155c.003-5.008-10.4-9.247-24.743-10.655z"/></svg>