<svg xmlns="http://www.w3.org/2000/svg" width="73" height="72"><g fill="#23b4c9"><ellipse cx="25.685" cy="63.45" rx="8.562" ry="8.55"/><path d="M54.055 54.044a9.01 9.01 0 0 0-9.85 8.075c-.488 4.946 3.132 9.35 8.085 9.838a9.032 9.032 0 0 0 1.765 0c4.954-.487 8.574-4.892 8.086-9.838a9.006 9.006 0 0 0-8.086-8.075z"/></g><path fill="#f8951d" d="M72.415 20a2.32 2.32 0 0 0-1.976-1.03h-9.793v-.172C60.647 8.412 52.225.001 41.836 0S23.022 8.4 23.022 18.786v.174H15.72L13.23 7.636a2.576 2.576 0 0 0-2.491-1.973H0V10.8h8.676l7.99 36.63a2.49 2.49 0 0 0 2.491 2.06h44.926a2.577 2.577 0 0 0 2.492-1.974l6.356-25.392a2.4 2.4 0 0 0-.515-2.145zm-30.58 12.437c-7.543 0-13.658-6.107-13.658-13.64s6.115-13.64 13.658-13.64 13.658 6.107 13.658 13.64c-.047 7.514-6.134 13.593-13.658 13.64z"/><path fill="#23b4c9" d="M39.87 18.756l-4.673-5-3.653 3.758L38 24.392c.47.506 1.11.795 1.784.805a2.313 2.313 0 0 0 1.784-.716l10.704-10.645L48.79 9.9l-8.92 8.856z"/></svg>