<svg xmlns="http://www.w3.org/2000/svg" width="70" height="70"><path fill="#f8951d" d="M39.635 66.016l-3.006.082h-.035a1.25 1.25 0 0 1-.033-2.499l2.03-.056a54.361 54.361 0 0 0-1.342-2.759l-2.998.398a1.25 1.25 0 0 1-.328-2.478l2-.265a54.626 54.626 0 0 0-1.646-2.597l-2.904.7a1.25 1.25 0 0 1-.586-2.43l1.936-.467a55.092 55.092 0 0 0-1.895-2.412l-2.803.996a1.25 1.25 0 0 1-.837-2.356l1.887-.67a57.146 57.146 0 0 0-2.142-2.2l-2.69 1.285a1.25 1.25 0 1 1-1.078-2.256l1.78-.85a57.931 57.931 0 0 0-2.354-1.964l-2.518 1.548a1.25 1.25 0 1 1-1.309-2.13l1.682-1.034a55.502 55.502 0 0 0-2.536-1.717l-2.355 1.812a1.25 1.25 0 0 1-1.524-1.982l1.587-1.22a55.468 55.468 0 0 0-2.715-1.432l-2.16 2.055a1.25 1.25 0 1 1-1.722-1.812l1.443-1.372a55.008 55.008 0 0 0-2.84-1.15l-1.937 2.27a1.25 1.25 0 1 1-1.903-1.62l1.3-1.537a54.546 54.546 0 0 0-5.018-1.325c-1.097 16.632 9.73 31.716 25.84 35.997 1.107.31 2.232.554 3.37.728.56.1 1.1.164 1.623.227a3.12 3.12 0 0 0 .51.047l.165.01a18.02 18.02 0 0 0 2.127.145h.028l.027-.006.178.007a32.936 32.936 0 0 0 6.885-.462 69.217 69.217 0 0 0-.597-1.771c-.183-.5-.4-.985-.596-1.48zm30.34-32.107l-.002-.08.007-.08-.024-.113.007-.1a19.878 19.878 0 0 0-.146-2.09l-.01-.15a2.706 2.706 0 0 0-.04-.437 21.174 21.174 0 0 0-.229-1.626 28.41 28.41 0 0 0-.752-3.41 34.544 34.544 0 0 0-9.023-15.592A34.826 34.826 0 0 0 27.102.933a54.624 54.624 0 0 0 2.09 5.02l1.342-1.515a1.25 1.25 0 0 1 1.87 1.66l-1.982 2.234a55.2 55.2 0 0 0 1.535 2.652l1.16-1.62a1.25 1.25 0 1 1 2.033 1.453l-1.735 2.426c.58.845 1.172 1.68 1.796 2.5l.988-1.74a1.25 1.25 0 0 1 2.174 1.233l-1.47 2.59c.662.78 1.35 1.53 2.054 2.27l.792-1.816a1.25 1.25 0 0 1 2.29 1l-1.183 2.713a53.614 53.614 0 0 0 2.273 2.058l.597-1.885a1.25 1.25 0 1 1 2.384.755l-.9 2.843c.8.627 1.632 1.237 2.476 1.818l.403-1.967a1.25 1.25 0 0 1 2.448.502l-.597 2.917a55.243 55.243 0 0 0 2.654 1.539l.193-1.985a1.25 1.25 0 0 1 2.488.243l-.3 2.973c.922.446 1.853.872 2.8 1.266l-.015-2.015a1.25 1.25 0 0 1 1.24-1.26h.01a1.25 1.25 0 0 1 1.25 1.241l.023 3.022c.96.345 1.936.65 2.918.943l-.227-2.013a1.25 1.25 0 1 1 2.484-.28l.337 2.982c.522.127 1.036.275 1.564.388a54.1 54.1 0 0 0 2.58.474c.04-.888.058-1.77.026-2.634z"/><path fill="#23b4c9" d="M65.316 38.134l-1.57 2.674a1.25 1.25 0 0 1-2.156-1.267l1.21-2.058-3.262-1.047-1.828 2.476a1.25 1.25 0 0 1-2.012-1.484l1.432-1.94a58.99 58.99 0 0 1-3.122-1.392l-2.104 2.3a1.25 1.25 0 0 1-1.846-1.687l1.636-1.79a55.357 55.357 0 0 1-2.964-1.705l-2.337 2.072a1.25 1.25 0 1 1-1.659-1.87l1.808-1.603a57.889 57.889 0 0 1-2.763-2.012l-2.542 1.817a1.25 1.25 0 1 1-1.454-2.033l2-1.423a58.364 58.364 0 0 1-2.545-2.282l-2.734 1.55a1.25 1.25 0 1 1-1.234-2.174l2.117-1.2a58.047 58.047 0 0 1-2.303-2.532l-2.86 1.247a1.25 1.25 0 1 1-1-2.291l2.226-.97-2.018-2.763-2.978.942a1.25 1.25 0 0 1-.754-2.383l2.315-.732a56.05 56.05 0 0 1-1.727-2.957l-3.052.624a1.25 1.25 0 0 1-.5-2.449l2.34-.48a57.117 57.117 0 0 1-2.39-5.739c-.038.013-.08.02-.118.033l-.05.05-.38.096a6.043 6.043 0 0 0-.693.214l-.77.3-.71.27a34.928 34.928 0 0 0-19.42 19.333 4.6 4.6 0 0 0-.22.575l-.064.177-.283.732-.2.635-.548 1.832-.18.624a35.692 35.692 0 0 0-.694 3.634c1.96.408 3.898.92 5.804 1.532l.15-2.392a1.25 1.25 0 0 1 2.494.156L8.6 32.48l3.168 1.298.404-2.397a1.25 1.25 0 1 1 2.465.417l-.52 3.08a57.821 57.821 0 0 1 3.016 1.614l.653-2.34a1.25 1.25 0 0 1 2.408.672l-.84 3.014 2.827 1.928.898-2.27a1.25 1.25 0 1 1 2.325.919l-1.158 2.93a57.703 57.703 0 0 1 2.613 2.2l1.135-2.172a1.25 1.25 0 1 1 2.216 1.158l-1.447 2.772a58.12 58.12 0 0 1 2.377 2.455l1.336-2.014a1.25 1.25 0 1 1 2.084 1.381l-1.73 2.608a59.986 59.986 0 0 1 2.101 2.696l1.547-1.87a1.25 1.25 0 1 1 1.927 1.593l-1.986 2.403a55.522 55.522 0 0 1 1.814 2.897l1.72-1.686a1.25 1.25 0 1 1 1.751 1.784l-2.197 2.154a57.012 57.012 0 0 1 1.492 3.084l1.868-1.48a1.25 1.25 0 0 1 1.554 1.957l-2.426 1.924.6 1.464.71 2.12.763-.18a29.875 29.875 0 0 0 2.903-.907 27.691 27.691 0 0 0 2.869-1.194A34.795 34.795 0 0 0 66.702 49.69c.457-.936.86-1.898 1.208-2.88.353-.95.658-1.918.913-2.9l.644-3 .278-1.88a55.247 55.247 0 0 1-2.898-.529l-1.53-.38z"/></svg>