<svg xmlns="http://www.w3.org/2000/svg" width="95" height="94"><g fill="#23b4c9"><circle cx="33" cy="83" r="11"/><path d="M70.626 71.056c-6.32-.622-11.948 3.998-12.57 10.318a11.5 11.5 0 0 0 10.318 12.57 11.51 11.51 0 0 0 2.252 0 11.5 11.5 0 0 0 0-22.888z"/></g><path fill="#f8951d" d="M94.238 26.25a3.012 3.012 0 0 0-2.57-1.352H78.922v-.225C78.924 11.047 67.964 0 54.443 0S29.96 11.043 29.96 24.668v.23h-9.503l-3.24-14.87a3.359 3.359 0 0 0-3.242-2.59H0v6.758h11.3l10.397 48.1A3.25 3.25 0 0 0 24.93 65h58.466a3.36 3.36 0 0 0 3.242-2.592L94.9 29.065a3.172 3.172 0 0 0-.67-2.816zM54.44 42.582c-9.816 0-17.774-8.02-17.774-17.9S44.625 6.76 54.44 6.76s17.775 8.02 17.775 17.9c-.06 9.867-7.983 17.85-17.775 17.91z"/><path fill="#23b4c9" d="M51.844 24.577l-6.086-6.55L41 22.94l8.4 9.004a3.236 3.236 0 0 0 2.324 1.052 3.007 3.007 0 0 0 2.323-.935L68 18.145 63.463 13l-11.62 11.577z"/></svg>