<svg xmlns="http://www.w3.org/2000/svg" xmlns:xlink="http://www.w3.org/1999/xlink" width="84" height="59"><defs><path id="A" d="M25 29.5c8.06 0 14.583-6.598 14.583-14.75S33.06 0 25 0 10.417 6.598 10.417 14.75 16.94 29.5 25 29.5zm10 4.214h-1.08C31.2 35.03 28.203 35.82 25 35.82s-6.198-.8-8.92-2.107H15c-8.28 0-15 6.796-15 15.172v3.793C0 56.17 2.8 59 6.25 59h37.5C47.2 59 50 56.17 50 52.68v-3.793c0-8.376-6.72-15.172-15-15.172z"/></defs><use fill="#23b4c9" xlink:href="#A"/><path fill="#f8951d" d="M62.5 29C69.4 29 75 23.4 75 16.5S69.4 4 62.5 4 50 9.6 50 16.5 55.6 29 62.5 29zm6.635 5h-.505c-1.845.63-3.796 1.05-5.866 1.05s-4.022-.42-5.867-1.05h-.504c-2.708 0-5.203.774-7.393 2.02 3.24 3.452 5.27 8.033 5.27 13.1v5.04c0 .29-.067.564-.08.84h23.44c3.516 0 6.37-2.822 6.37-6.3C84 40.576 77.35 34 69.135 34z"/></svg>