<svg xmlns="http://www.w3.org/2000/svg" width="95" height="94"><path fill="#23b4c9" d="M71.935 24.73C71.935 11.07 60.865 0 47.203 0s-24.73 11.07-24.73 24.73c0 19.57 24.73 48.528 24.73 48.528s24.732-29.06 24.732-48.528zm-36.928-1.477a12.2 12.2 0 0 1 12.198-12.198 12.2 12.2 0 0 1 12.198 12.198 12.2 12.2 0 0 1-12.198 12.198 12.2 12.2 0 0 1-12.198-12.198z"/><path fill="#f8951d" d="M61.186 64.655a175.524 175.524 0 0 1-5.482 7.487c15.627.94 25.87 4.314 29.68 6.823-4.464 2.943-17.726 7.08-38.176 7.08s-33.712-4.14-38.175-7.08c3.8-2.5 14.044-5.882 29.655-6.822a173.113 173.113 0 0 1-5.49-7.485C13.967 66.552 0 72.24 0 78.963c0 8.272 21.137 14.98 47.207 14.98s47.206-6.704 47.206-14.98c.004-6.726-13.98-12.417-33.227-14.308z"/></svg>