<svg xmlns="http://www.w3.org/2000/svg" xmlns:xlink="http://www.w3.org/1999/xlink" width="83" height="64"><defs><path id="A" d="M60 23C60 10.293 46.572 0 30 0S0 10.293 0 23c0 4.93 2.034 9.473 5.48 13.225-1.93 4.34-5.12 7.79-5.162 7.834a1.14 1.14 0 0 0-.216 1.251 1.13 1.13 0 0 0 1.053.69c5.28 0 9.65-1.768 12.793-3.594C18.59 44.663 24.087 46 30 46c16.572 0 30-10.292 30-23z"/></defs><use fill="#23b4c9" xlink:href="#A"/><path fill="#f8951d" d="M77.486 54.29C80.954 50.576 83 46.05 83 41.15c0-9.554-7.763-17.737-18.763-21.15.13.943.2 1.9.2 2.87 0 15.124-15.63 27.42-34.827 27.42-1.567 0-3.1-.114-4.6-.27C29.57 58.23 40.31 64 52.817 64c5.95 0 11.478-1.314 16.15-3.57C72.13 62.243 76.528 64 81.84 64c.464 0 .885-.27 1.06-.685a1.13 1.13 0 0 0-.218-1.243c-.044-.043-3.25-3.456-5.195-7.783z"/></svg>