<svg xmlns="http://www.w3.org/2000/svg" xmlns:xlink="http://www.w3.org/1999/xlink" width="77" height="77"><defs><path id="A" d="M63 7.22v62.56c0 3.988-3.223 7.22-7.2 7.22H22.2c-3.976 0-7.2-3.232-7.2-7.22V7.22C15 3.232 18.224 0 22.2 0h33.6C59.777 0 63 3.232 63 7.22z"/></defs><use fill="#23b4c9" xlink:href="#A"/><path fill="#f8951d" d="M4.583 57H11v7H4.583c-.506 0-.916-.392-.916-.875v-.875H.917C.4 62.25 0 61.858 0 61.375v-1.75c0-.483.4-.875.917-.875h2.75v-.875c0-.483.4-.875.916-.875zm0-15H11v7H4.583c-.506 0-.916-.392-.916-.875v-.875H.917C.4 47.25 0 46.858 0 46.375v-1.75c0-.483.4-.875.917-.875h2.75v-.875c0-.483.4-.875.916-.875zm0-14H11v7H4.583c-.506 0-.916-.392-.916-.875v-.875H.917C.4 33.25 0 32.858 0 32.375v-1.75c0-.483.4-.875.917-.875h2.75v-.875c0-.483.4-.875.916-.875zm0-15H11v7H4.583c-.506 0-.916-.392-.916-.875v-.875H.917C.4 18.25 0 17.858 0 17.375v-1.75c0-.483.4-.875.917-.875h2.75v-.875c0-.483.4-.875.916-.875zM77 15.625v1.75c0 .483-.4.875-.917.875h-2.75v.875c0 .483-.4.875-.916.875H66v-7h6.417c.506 0 .916.392.916.875v.875h2.75c.507 0 .917.392.917.875zm0 15v1.75c0 .483-.4.875-.917.875h-2.75v.875c0 .483-.4.875-.916.875H66v-7h6.417c.506 0 .916.392.916.875v.875h2.75c.507 0 .917.392.917.875zm0 14v1.75c0 .483-.4.875-.917.875h-2.75v.875c0 .483-.4.875-.916.875H66v-7h6.417c.506 0 .916.392.916.875v.875h2.75c.507 0 .917.392.917.875zm0 15v1.75c0 .483-.4.875-.917.875h-2.75v.875c0 .483-.4.875-.916.875H66v-7h6.417c.506 0 .916.392.916.875v.875h2.75c.507 0 .917.392.917.875z"/></svg>