<svg xmlns="http://www.w3.org/2000/svg" xmlns:xlink="http://www.w3.org/1999/xlink" width="74" height="84"><defs><path id="A" d="M67.44 42c6.552-9.005 6.778-16.18 4.105-21-1.782-3.203-6.62-8.323-18.995-6.87C49.043 5.723 43.7 0 36.575 0S24.107 5.724 20.6 14.13C8.234 12.688 3.384 17.796 1.605 21-1.07 25.823-.845 32.99 5.7 42-.843 51.005-1.068 58.18 1.605 63c4.77 8.587 16.602 7.15 18.994 6.87C24.105 78.275 29.45 84 36.575 84s12.47-5.726 15.975-14.13c2.4.28 14.224 1.717 18.995-6.87 2.674-4.823 2.45-11.99-4.105-21zM10.348 57.75c-.658-1.183-.03-4.07 2.44-7.923a71.126 71.126 0 0 0 3.571 3.147 78.7 78.7 0 0 0 1.104 6.576c-4 .146-6.513-.717-7.116-1.8zm6.012-26.723a72.602 72.602 0 0 0-3.57 3.147c-2.47-3.855-3.098-6.74-2.442-7.924.557-1.007 2.677-1.882 6.192-1.882.28 0 .632.05.93.06a77.808 77.808 0 0 0-1.11 6.6zM36.575 10.5c1.546 0 3.625 2.218 5.528 6.113a71.014 71.014 0 0 0-5.528 2.11 71.014 71.014 0 0 0-5.529-2.11c1.904-3.895 3.982-6.113 5.53-6.113zm0 63c-1.547 0-3.625-2.218-5.53-6.113a71.014 71.014 0 0 0 5.529-2.11 71.014 71.014 0 0 0 5.528 2.11C40.2 71.282 38.12 73.5 36.575 73.5zM46.78 47.688c-4.36 3.13-7.534 4.812-10.205 6.15-2.67-1.336-5.846-3.02-10.205-6.15-.325-4.56-.325-6.815 0-11.374 4.354-3.126 7.532-4.8 10.205-6.15 2.676 1.34 5.855 3.026 10.205 6.15.323 4.557.325 6.813 0 11.374zM62.8 57.75c-.598 1.086-3.1 1.94-7.115 1.796a78.85 78.85 0 0 0 1.104-6.572 72.602 72.602 0 0 0 3.57-3.147c2.47 3.854 3.098 6.74 2.442 7.923zm-2.44-23.577a71.126 71.126 0 0 0-3.571-3.147 78.03 78.03 0 0 0-1.109-6.599c.297-.01.648-.06.93-.06 3.513 0 5.634.876 6.2 1.88.657 1.185.03 4.07-2.44 7.925z"/></defs><use fill="#f8951d" xlink:href="#A"/><path fill="#23b4c9" d="M36.575 36.75c-2.886 0-5.225 2.35-5.225 5.25a5.24 5.24 0 0 0 5.225 5.25 5.24 5.24 0 1 0 0-10.5z"/></svg>