<svg xmlns="http://www.w3.org/2000/svg" xmlns:xlink="http://www.w3.org/1999/xlink" width="86" height="67"><defs><path id="A" d="M0 59.773C0 63.763 3.2 67 7.167 67h71.666C82.8 67 86 63.763 86 59.773V14H0v45.773zM52.556 24.84c0-.663.537-1.205 1.194-1.205h21.5c.657 0 1.194.542 1.194 1.205v2.41c0 .663-.537 1.205-1.194 1.205h-21.5a1.203 1.203 0 0 1-1.194-1.205v-2.4zm0 9.636c0-.662.537-1.204 1.194-1.204h21.5c.657 0 1.194.542 1.194 1.204v2.4c0 .662-.537 1.204-1.194 1.204h-21.5a1.203 1.203 0 0 1-1.194-1.205v-2.41zm0 9.637c0-.663.537-1.205 1.194-1.205h21.5c.657 0 1.194.542 1.194 1.205v2.41c0 .662-.537 1.204-1.194 1.204h-21.5a1.203 1.203 0 0 1-1.194-1.204v-2.4zM26.278 23.636c5.27 0 9.555 4.322 9.555 9.637s-4.285 9.636-9.555 9.636-9.556-4.32-9.556-9.636 4.285-9.637 9.556-9.637zm-16.26 30.746c1.255-3.87 4.853-6.655 9.093-6.655h1.224a15.352 15.352 0 0 0 5.943 1.205c2.105 0 4.12-.437 5.942-1.205h1.224c4.24 0 7.84 2.786 9.093 6.655.478 1.49-.776 2.982-2.33 2.982h-27.86c-1.553 0-2.807-1.506-2.33-2.982z"/></defs><use fill="#f8951d" xlink:href="#A"/><path fill="#23b4c9" d="M78.833 0H7.167C3.2 0 0 3.36 0 7.5V10h86V7.5C86 3.36 82.8 0 78.833 0z"/></svg>