<svg xmlns="http://www.w3.org/2000/svg" width="85" height="85"><path fill="#f8951d" d="M81.9 14.88L65.437 9.807V77.44c0 .338-.018.67-.052 1 2.018.21 3.955-1.125 4.54-3.273l14.905-54.63c.66-2.423-.652-4.956-2.93-5.657z"/><g fill="#23b4c9"><path d="M22.885 19.615c-1.24.772-2.35 1.9-3.27 3.27h2.24c.3-1.22.637-2.317 1.03-3.27zm0 6.54h-4.723a18.462 18.462 0 0 0-1.816 6.538h5.852c.078-2.33.313-4.527.687-6.538zm19.615-3.27c-.92-1.38-2.03-2.498-3.27-3.27.393.953.74 2.05 1.03 3.27h2.24zM19.615 42.5c.92 1.38 2.03 2.498 3.27 3.27a22.075 22.075 0 0 1-1.029-3.27h-2.24zm19.615-9.808c-.1-2.382-.41-4.588-.87-6.538H27.023c-.457 1.95-.768 4.156-.87 6.538H39.23zm-8.173-13.077c-1.722 0-3.55 1.234-4.903 3.27h9.808c-1.353-2.036-3.18-3.27-4.905-3.27zm-8.86 13.077h-5.852a18.46 18.46 0 0 0 1.816 6.539h4.723a44.095 44.095 0 0 1-.687-6.539zm17.72 0h5.85a18.46 18.46 0 0 0-1.816-6.538H39.23c.373 2 .61 4.208.687 6.538zm-8.86 13.078c1.723 0 3.553-1.234 4.905-3.27h-9.808c1.352 2.036 3.18 3.27 4.903 3.27z"/><path d="M39.23 39.23h4.723a18.461 18.461 0 0 0 1.816-6.538h-5.85a44.037 44.037 0 0 1-.687 6.539zM16.06 62.115h-2.983v3.27h2.982c2.36 0 3.556-.56 3.556-1.663 0-1.066-1.196-1.607-3.556-1.607zm6.825 3.27h3.27l-1.65-3.27zM55.422 0H6.694C3.003 0 0 3 0 6.7v71.583C0 82 3.003 85 6.694 85h48.728c3.7 0 6.693-3 6.693-6.7V6.7A6.71 6.71 0 0 0 55.422.001zM31.057 15.2c9.803 0 17.777 7.992 17.777 17.817S40.86 50.843 31.057 50.843 13.28 42.85 13.28 33.026 21.255 15.2 31.057 15.2zm-18 52.72v2.827a1.12 1.12 0 0 1-1.116 1.118h-.104c-.616 0-1.116-.5-1.116-1.118V59.5a1.12 1.12 0 0 1 1.116-1.118h3.775c3.32 0 5.382 1.816 5.382 4.738 0 2.972-2.062 4.818-5.382 4.818h-2.555zm18.784 3.428c-.205.322-.56.517-.94.517h-.13c-.436 0-.83-.255-1.013-.65l-1.3-2.85h-5.663l-1.293 2.846a1.115 1.115 0 0 1-1.015.654h-.15a1.115 1.115 0 0 1-1.014-1.583l5.146-11.266a1.116 1.116 0 0 1 1.014-.652h.22a1.11 1.11 0 0 1 1.01.648l5.2 11.265a1.12 1.12 0 0 1-.072 1.072zm4.958.517c-1.642 0-3.38-.695-4.536-1.813a1.12 1.12 0 0 1-.013-1.596l.07-.07a1.114 1.114 0 0 1 1.576-.002c.683.682 1.85 1.14 2.903 1.14 1.18 0 2.555-.382 2.555-1.458.01-1.037-.616-1.392-2.63-2.004-1.784-.54-4.225-1.28-4.225-4.144 0-2.126 1.873-3.555 4.66-3.555 1.2 0 2.53.354 3.473.924a1.119 1.119 0 0 1 .37 1.548l-.045.073a1.114 1.114 0 0 1-1.52.369c-.57-.342-1.485-.572-2.278-.572-1.072 0-2.324.318-2.324 1.213 0 .968.613 1.3 2.585 1.907 1.812.55 4.292 1.3 4.27 4.248 0 2.265-1.966 3.792-4.892 3.792zm9.725 0c-1.642 0-3.38-.695-4.536-1.814a1.118 1.118 0 0 1-.015-1.594l.07-.07a1.114 1.114 0 0 1 1.577-.003c.683.682 1.85 1.14 2.904 1.14 1.178 0 2.554-.382 2.554-1.458.01-1.037-.617-1.392-2.63-2.005-1.784-.54-4.224-1.28-4.224-4.144 0-2.126 1.873-3.554 4.66-3.554 1.2 0 2.53.354 3.474.924a1.118 1.118 0 0 1 .368 1.552l-.047.074a1.115 1.115 0 0 1-1.517.364c-.57-.342-1.485-.572-2.277-.572-1.073 0-2.326.318-2.326 1.212 0 .97.614 1.3 2.585 1.908 1.813.55 4.293 1.3 4.27 4.248 0 2.265-1.965 3.792-4.9 3.792zm-20.37-39.183c.102 2.382.412 4.588.87 6.54H38.36c.457-1.95.768-4.156.87-6.54H26.154zM39.23 45.77c1.24-.772 2.35-1.9 3.27-3.27h-2.24a22.073 22.073 0 0 1-1.03 3.27z"/></g></svg>