<svg xmlns="http://www.w3.org/2000/svg" width="92" height="84"><path d="M30.88 32.318a7.3 7.3 0 0 0 1.074-.08c5.922-.885 9.82-8.82 8.686-17.685C39.597 6.392 34.447 0 28.917 0c-.356 0-.716.027-1.076.08-2.79.417-5.233 2.434-6.883 5.677-1.72 3.382-2.36 7.648-1.802 12 1.043 8.16 6.192 14.55 11.723 14.55zM8.083 22.035a7.05 7.05 0 0 0-1.755.222c-5 1.282-7.534 7.673-5.766 14.552 1.54 6.005 5.782 10.2 10.314 10.2a7.07 7.07 0 0 0 1.753-.222c5-1.282 7.535-7.673 5.77-14.55-1.542-6.007-5.784-10.202-10.316-10.202zM57.01 32.24c5.947.886 11.69-5.788 12.8-14.473.556-4.362-.084-8.628-1.802-12C66.355 2.514 63.912.497 61.123.08c-.36-.053-.72-.08-1.076-.08-5.53 0-10.68 6.393-11.723 14.554-1.134 8.867 2.763 16.8 8.685 17.685zm28.543-9.983a7.086 7.086 0 0 0-1.755-.222c-4.533 0-8.773 4.195-10.316 10.2-1.765 6.878.77 13.27 5.77 14.55a7.066 7.066 0 0 0 1.753.222c4.533 0 8.772-4.194 10.315-10.2 1.767-6.88-.768-13.27-5.767-14.552z" fill="#23b4c9"/><path fill="#f8951d" d="M45.94 83.333C-2 56.653 32.67 23.48 45.94 45.82c13.27-22.34 47.943 10.83 0 37.512z"/></svg>