<svg xmlns="http://www.w3.org/2000/svg" xmlns:xlink="http://www.w3.org/1999/xlink" width="78" height="75"><defs><path id="A" d="M0 13.982V.066h19.906v13.916H0z"/><path id="B" d="M28.933 32H.053V.027h28.88V32z"/><path id="C" d="M.028.003h11.937V23.9H.028V.003z"/></defs><g fill="none" fill-rule="evenodd"><g transform="translate(0 30)"><mask id="D" fill="#fff"><use xlink:href="#A"/></mask><path fill="#fff" d="M19.72 10.697c-.143.43-.376.84-.693 1.212-2.58 3.052-9.507 2.682-14.544-.764C.583 8.475-.483 5.26.186 3.265A3.56 3.56 0 0 1 1.07 1.86c2.167-2.16 7.76-2.7 13.005.22 4.12 2.246 6.54 5.948 5.645 8.617" mask="url(#D)"/></g><g fill="#fff"><path d="M24.766 58.045l-.077-.266a15.91 15.91 0 0 1-.194-.708l-.197-1.05c-.477-2.725-.218-5.65.748-8.463.567-1.517 1.18-2.73 1.888-3.74.785-1.237 1.793-2.26 2.58-3l.04-.037.505-.416.223-.18.228-.183c.175-.145.372-.308.623-.46l.748-.486.14-.088.306-.188 1.4-.7.912-.357.576-.213.84-.237c.392-.126.818-.198 1.195-.26l.522-.095c.556-.08 1.093-.115 1.6-.147l.128-.003.5.007 1.092.044.443.047 1.087.157a14.74 14.74 0 0 1 5.077 1.937l.332.2.693.468.15.117.25-.537.186-.38.74-1.26.057-.084.507-.692c.263-.394.605-.78.968-1.186l.376-.427.032-.037.034-.032c.507-.492 1.138-1.104 1.906-1.66a16.373 16.373 0 0 1 5.429-2.72 16.883 16.883 0 0 1 4.661-.673c.875 0 1.75.074 2.6.22l.152.028 1.82.418.76.22.153.05.95.38c.804.3 1.625.734 2.553 1.317-2.858-8.304-16.3-15.422-23.972-6.704-5.772 6.55-9.97 5.563-18.03 7.187-8.053 1.63-9.956 8.78-10.787 14.52-.77 5.402.464 11.227 5.255 12.308l-.145-.36c-.204-.5-.414-1.02-.556-1.596m50.757-7.05l.055-.307.092-.547.1-1.14.024-.292.002-1.455-.086-.95-.04-.46-.25-1.416-.363-1.378a5.523 5.523 0 0 0-.113-.323l-.368-1c-.986-2.33-2.43-4.346-4.187-5.862-1.7-1.445-3.724-2.48-5.826-2.997-.2-.064-.42-.102-.642-.14l-.842-.144-.454-.036-1.06-.063c-1.108 0-2.04.1-2.858.273a14.763 14.763 0 0 0-4.732 1.898l-.2.115.166-.13a13.67 13.67 0 0 1 4.634-2.464c1.332-.405 2.67-.6 3.98-.6.74 0 1.48.066 2.197.196l.128.026 1.508.36.768.236.902.38c.952.388 1.927.97 3.17 1.887l.466.398.256.226.22.193.455.435.288.313 1.02 1.2c.742.918 1.383 2.005 2.103 3.555l.447 1.16.113.303.24.833.2.72.196 1.05.097.542.152 1.616.005 1.623-.03.38-.114 1.235-.132.743-.065.346a12.88 12.88 0 0 1-.354 1.465l-.154.542-.063.223-.032.097-.034.088a3.05 3.05 0 0 1 .12 1.076l.092-.194.263-.682.025-.07.014-.033c.014-.043-.013.047.034-.104l.07-.244c.18-.664.4-1.247.518-2.057l.204-1.14.103-1.113.045-.56v-.56l-.007-1.118-.105-1.112-.054-.554-.1-.546-.203-1.1-.298-1.06-.153-.528-.2-.5-.393-1.015c-.606-1.303-1.282-2.567-2.154-3.643-.4-.57-.882-1.053-1.34-1.552-.22-.26-.486-.462-.73-.687l-.753-.646c-1.05-.778-2.128-1.482-3.27-1.946l-.87-.37-.074-.027-.05-.016-.1-.03-.202-.062-.4-.122c-.503-.177-1.127-.3-1.7-.405-2.3-.418-4.5-.153-6.396.426a14.247 14.247 0 0 0-4.792 2.545c-.647.498-1.2 1.05-1.682 1.555l-1.213 1.538-.477.688-.672 1.207-.22.484-.4.9.807-1.235.38-.487.437-.565.54-.592c.363-.435.844-.827 1.33-1.283.532-.402 1.077-.866 1.73-1.25a14.197 14.197 0 0 1 4.58-1.836c.872-.195 1.8-.26 2.75-.26l1.442.092.73.125c.244.042.494.076.722.152 1.958.48 3.924 1.455 5.622 2.9 1.7 1.458 3.088 3.4 4.03 5.63l.3.854.154.43.117.443.235.887.245 1.362.04.462.083.923-.002.93v.463l-.04.463-.078.924-.15.868a6.733 6.733 0 0 1-.209.973 3.4 3.4 0 0 1 .453.284c.115-.4.22-.82.262-1.2"/><path d="M75.075 53.818l.065-.22.155-.533.36-1.44.066-.34.133-.73.116-1.216.03-.372-.006-1.597-.154-1.6-.1-.532-.197-1.033a25.44 25.44 0 0 0-.203-.707l-.24-.798a6.192 6.192 0 0 0-.114-.3l-.452-1.14c-.73-1.524-1.38-2.594-2.13-3.498-.303-.42-.657-.788-1.032-1.18l-.292-.307c-.13-.15-.3-.284-.46-.428a9.58 9.58 0 0 1-.222-.19 20.93 20.93 0 0 1-.26-.222 10.29 10.29 0 0 0-.472-.391c-1.257-.904-2.244-1.476-3.207-1.856l-.913-.375-.777-.23c-.436-.15-1-.254-1.527-.355l-.13-.024A12.784 12.784 0 0 0 60.888 32c-1.326 0-2.68.202-4.03.6a13.985 13.985 0 0 0-4.69 2.423l-.17.13a9.18 9.18 0 0 1 .193-.115 15.213 15.213 0 0 1 4.789-1.867c.83-.18 1.773-.268 2.894-.268l1.07.06.46.036.853.142.65.137a14.789 14.789 0 0 1 5.897 2.947c1.777 1.5 3.24 3.475 4.238 5.766l.372.994.114.318.368 1.354.255 1.394.04.452.087.935-.003 1.43-.025.287-.1 1.122-.093.54-.057.3c-.04.362-.148.766-.264 1.17a3.67 3.67 0 0 1 .98 1.043 2.86 2.86 0 0 1 .29.669l.035-.087.03-.095zm-46.495 6.47a10.73 10.73 0 0 1-.4-.692l-.105-.2-.258-.55-.025-.058-.238-.64-.447-1.37-.092-.347-.158-.62-.164-.96c-.395-2.428-.176-5.06.634-7.603.466-1.34.976-2.432 1.555-3.324.676-1.148 1.528-2.078 2.195-2.764l.4-.36.433-.378.4-.324.857-.597.2-.138 1.192-.65.756-.315.458-.184.722-.218c.317-.1.63-.167.96-.228l.476-.1c.426-.067.888-.098 1.335-.128l.488.005.867.036.427.048.84.128a11.759 11.759 0 0 1 4.396 1.84l-.13-.067a12.757 12.757 0 0 0-4.307-1.18 11.405 11.405 0 0 0-5.08.718l-.622.245a7.232 7.232 0 0 0-.43.209l-.668.337-1.122.7-.224.174-.62.495a3.94 3.94 0 0 0-.394.352l-.374.36-.33.324a14.733 14.733 0 0 0-3.17 5.56l-.136.5-.26 1.162-.048.27-.088.528-.092.977-.024.3-.007 1.243.103 1.304.075.43.132.8.135.546.075.3c.085.405.228.795.367 1.17l.124.34-.006.008.115.298.276.595.015.025.138.247.165.3.36-.4-.245-.44-.235-.504-.017-.038-.003-.007-.068-.2c-.175-.5-.4-1.003-.503-1.537l-.2-.787-.133-.805-.07-.402-.03-.408-.068-.814.006-.818v-.4l.036-.406.076-.8.136-.8c.07-.54.247-1.047.374-1.568a14.136 14.136 0 0 1 3.034-5.33l.525-.508c.175-.163.344-.36.526-.485l.802-.638.964-.612.08-.05.04-.026.017-.012.126-.063.305-.153.606-.3.618-.244a10.985 10.985 0 0 1 4.875-.688 12.17 12.17 0 0 1 4.132 1.126l.845.444.768.468c.464.35.92.64 1.274.984l.525.465.432.444.376.388c.113.122.204.25.292.353l.533.65-.4-.753-.23-.405-.315-.467-.372-.545-.472-.567c-.32-.418-.744-.798-1.185-1.248l-.746-.623c-.257-.22-.556-.392-.85-.6a12.22 12.22 0 0 0-4.4-1.808c-.427-.1-.874-.126-1.327-.188-.454-.053-.92-.03-1.395-.046l-1.444.14c-.482.105-.985.16-1.47.328l-.74.224c-.247.086-.485.198-.73.297l-.368.157-.185.078-.214.115-.998.543-.357.24-.722.505c-.253.165-.45.367-.674.554l-.656.58c-.824.845-1.626 1.768-2.263 2.85-.68 1.047-1.193 2.234-1.62 3.464-.8 2.48-1.086 5.238-.654 7.892l.17.992.25.968c.15.654.408 1.262.632 1.88l.087.232c.014.033-.018-.035.034.082l.012.026.025.05.047.1.2.403.52.906.26.394.334-.436-.18-.276"/><path d="M27.118 59.17l-.015-.024-.28-.568-.115-.284.006-.01a28.652 28.652 0 0 0-.126-.325c-.14-.36-.285-.733-.37-1.12l-.077-.277a9.263 9.263 0 0 1-.136-.522l-.134-.764-.075-.412-.104-1.247.008-1.188c.002-.095.013-.2.024-.286l.093-.936.088-.504.05-.26c.054-.394.16-.758.263-1.1l.137-.487a13.902 13.902 0 0 1 3.201-5.316l.335-.3.377-.346c.13-.123.265-.25.398-.336l.626-.473.226-.166 1.133-.682.675-.322.434-.2.628-.233a12.084 12.084 0 0 1 5.13-.687 13.46 13.46 0 0 1 4.353 1.128l.13.064-.138-.1a12.215 12.215 0 0 0-4.303-1.668 6.112 6.112 0 0 0-.847-.123 11.987 11.987 0 0 1-.43-.047 8.472 8.472 0 0 0-.877-.034L36.912 39l-1.348.12-.48.088-.97.217-.73.2-.463.174-.763.302-1.205.62-.2.133-.864.57c-.14.087-.27.195-.405.3l-.217.178-.22.183-.413.345c-.675.656-1.535 1.546-2.218 2.645-.584.85-1.1 1.895-1.57 3.178-.818 2.433-1.04 4.95-.64 7.27l.166.92.16.6.092.333c.107.44.275.862.452 1.3l.24.613.026.056.26.525.105.18.405.663.183.264 1.142-1.315a7.176 7.176 0 0 1-.167-.28l-.14-.236m30.556-17.1l-.618.487-.54.46a2.3 2.3 0 0 1-.508.238l-.8.27a.381.381 0 0 0-.144.106c-.096.1-.07.207.07.26.125.047.253.087.382.12.15.04.28-.025.405-.092l.738-.406a3.43 3.43 0 0 1 .678-.207l.932-.15.983-.154c.9-.138 1.67-.525 2.243-1.214.17-.205.397-.34.618-.485l.496-.337c.112-.072.232-.132.347-.198.02-.01.034-.03.05-.042a.863.863 0 0 0-.01-.03l-.312-.04a.341.341 0 0 1-.17-.074c-.256-.252-.58-.285-.92-.253-.178.016-.353.058-.53.1-.12.02-.2-.037-.27-.12a1.71 1.71 0 0 1-.183-.324c-.076-.172-.1-.364-.2-.522a3.54 3.54 0 0 0-.458-.585 22.185 22.185 0 0 0-.909-.884c-.328-.306-.643-.627-1.056-.836a1.517 1.517 0 0 0-.325-.117c-.112-.027-.158.025-.136.13.03.142.027.146-.128.15-.025 0-.05.006-.077.005-.202-.004-.2.007-.2.195.003.05-.034.107-.068.148s-.08.06-.125.083c-.092.044-.134.112-.098.203.054.143.04.278.008.425a1.15 1.15 0 0 0 .092.74l.364.707c.164.316.28.646.33.996l.132.84a.38.38 0 0 0 .038.119c.093.174.07.164-.104.3"/></g><g transform="translate(20 43)"><mask id="E" fill="#fff"><use xlink:href="#B"/></mask><path fill="#fff" d="M16.53 31.57l-.84.133-2.684.15-.778.015c-.183.01-.365.055-.55.062l-.81.004c-.018-.15-.075-.225-.256-.2-.084.01-.197-.076-.274-.143-.095-.083-.17-.183-.35-.113l.293.447h-.874c-.008-.017-.017-.03-.026-.047.06-.05.126-.092.18-.146.04-.04.062-.092.092-.138-.062-.01-.142-.046-.182-.023-.123.072-.256.15-.336.257-.085.116-.184.138-.305.134l-1.095-.042-2.665-.137a18.843 18.843 0 0 1-1.051-.08c-.257-.03-.51-.085-.764-.136-.053-.01-.1-.052-.176-.094.275-.256.63-.182.957-.288-.292-.175-.6-.333-.57-.672.03-.277.185-.542.293-.837l-.567-.14c-.936-.224-1.78-.597-2.365-1.37a3.331 3.331 0 0 1-.667-1.671c-.046-.423-.086-.852-.062-1.275.048-.883.317-1.72.688-2.528.012-.028.04-.05.1-.105l.02.186.008 1.415c.07 1 .275 1.972.9 2.798.2.26.476.503.84.572.3.058.627.083.943.122.126.014.183-.034.168-.164-.024-.22-.063-.446-.05-.665l.154-1.69c.16-1.068.6-2.048 1.113-2.998.452-.835.995-1.615 1.585-2.364 1.24-1.572 2.67-2.975 4.175-4.3l3.02-2.585 1.43-1.293c.372-.336.54-.78.684-1.228l.57-1.923.444-2.034.44-1.7c.13-.4.294-.823.76-1.016.032-.013.063-.07.063-.105 0-.74.343-1.37.756-1.955.358-.51.782-.974 1.178-1.458.023-.028.06-.045.133-.098l.112.78.278 1.637c.027.178.12.202.285.195 1-.052 1.894.27 2.718.773.183.112.335.34.403.543.22.66.698 1.01 1.36 1.212l1.828.63 1.212.366c.428.127.616.663.37 1.016-.09.127-.128.3-.174.44-.18.598-.56.987-1.183 1.203-.937.326-1.906.375-2.884.404a11.53 11.53 0 0 0-1.074.08c-.3.037-.358.128-.32.4l.273 1.694c.184 1.087.4 2.17.4 3.277 0 .514-.104 1-.23 1.506l-.408 1.766-.548 2.42-.48 2.9c-.07.423.093.815.184 1.217.203.896.328 1.8.415 2.715.077.81.122 1.625.347 2.416.08.287.227.483.558.538l1.047.22c.482.082.577.416.55.787-.013.186-.19.215-.346.22l-1.1.003c-.613.001-1.226-.012-1.84.007-.287.008-.46-.112-.558-.34l-.467-1.192a25.059 25.059 0 0 1-.454-1.734l-.41-1.98-.328-1.686-.15-.94c-.01-.06-.032-.118-.054-.198l-1.28 1.035c-.8.636-1.63 1.26-2.556 1.738a3.41 3.41 0 0 1-.598.233c-1.286-2.743-3.62-3.337-3.62-3.337l.94.757c.613.532 1.13 1.143 1.474 1.87.265.557.42 1.14.376 1.757-.065.914-.66 1.557-1.592 1.802l-1 .22 1.01.06c.476.034.964.024 1.425.126.605.134 1.056.508 1.324 1.06a.59.59 0 0 1 .044.166c.012.085-.013.223.032.25.12.068.27.096.41.125l.603.108c.045.01.077.07.116.1-.043.037-.08.097-.13.106m.125-.17c-.03-.034-.06-.07-.103-.08l-.317-.058-.315-.057c-.13-.027-.263-.055-.37-.115-.01-.012-.01-.077-.01-.115l-.005-.108a.621.621 0 0 0-.047-.177 1.923 1.923 0 0 0-1.35-1.08c-.333-.072-.686-.088-1.025-.104a10.77 10.77 0 0 1-.405-.022 31.502 31.502 0 0 0-.7-.04l-.04-.003.057-.012.67-.153c.965-.253 1.555-.922 1.62-1.833.04-.573-.084-1.154-.38-1.776-.323-.68-.81-1.296-1.483-1.882l-.644-.523-.14-.1c.582.212 2.353 1.016 3.404 3.256l.013.03.033-.01a3.29 3.29 0 0 0 .604-.237c.93-.48 1.743-1.098 2.563-1.742l.87-.7.364-.297.006.02.03.118.055.352.095.6.33 1.686.082.407.33 1.575.454 1.737c.114.373.27.737.424 1.1l.044.105c.105.243.3.362.594.362h.001l.767-.01 1.56.004.612-.005c.1-.002.365-.007.383-.25.036-.484-.154-.754-.58-.826a8.003 8.003 0 0 1-.515-.108l-.532-.11c-.282-.048-.44-.2-.528-.514-.2-.667-.253-1.365-.313-2.04l-.034-.37a21.22 21.22 0 0 0-.415-2.72 6.506 6.506 0 0 0-.073-.287c-.08-.296-.162-.6-.1-.917l.128-.813.352-2.086.37-1.665.177-.753.126-.56.28-1.206c.12-.468.232-.976.232-1.514.002-1.007-.17-2-.338-2.98l-.052-.302a73.713 73.713 0 0 1-.271-1.695c-.02-.134-.01-.21.03-.26s.118-.08.257-.097a10.58 10.58 0 0 1 1.07-.08c.996-.03 1.968-.082 2.897-.406.63-.218 1.023-.62 1.205-1.226l.018-.06c.04-.13.078-.266.152-.372a.684.684 0 0 0 .069-.63.706.706 0 0 0-.46-.44l-.3-.087-.91-.278-.745-.26-1.085-.37c-.714-.22-1.138-.597-1.335-1.19-.078-.234-.243-.456-.418-.562-.866-.53-1.693-.785-2.528-.785l-.213.006h-.048c-.116 0-.176-.024-.198-.165a54.934 54.934 0 0 0-.166-.986l-.11-.652-.076-.52-.045-.32-.12.084c-.032.022-.055.038-.073.06l-.352.42a15.06 15.06 0 0 0-.827 1.038c-.377.536-.763 1.2-.764 1.976 0 .024-.024.066-.04.072-.483.2-.65.623-.78 1.04-.175.555-.31 1.13-.44 1.703a34.79 34.79 0 0 0-.186.864l-.26 1.168a32.703 32.703 0 0 1-.57 1.921c-.137.43-.302.877-.673 1.213l-.487.443-.944.85-1.232 1.05-1.788 1.534c-1.757 1.558-3.085 2.93-4.178 4.314-.655.832-1.175 1.606-1.588 2.37-.457.842-.946 1.86-1.117 3-.083.56-.12 1.133-.154 1.69-.012.177.01.355.032.53l.017.143c.006.05 0 .086-.018.104-.01.014-.03.02-.083.02H3.6l-.26-.03a9.589 9.589 0 0 1-.68-.092c-.302-.057-.577-.245-.817-.558-.688-.897-.843-1.956-.902-2.78-.023-.315-.017-.64-.013-.952l.004-.46a1.02 1.02 0 0 0-.009-.117l-.017-.16-.058.068-.047.05a.23.23 0 0 0-.05.063c-.42.917-.647 1.75-.692 2.543-.023.428.018.867.063 1.28a3.38 3.38 0 0 0 .674 1.688c.512.678 1.27 1.117 2.387 1.385l.526.13-.095.23c-.084.197-.164.382-.187.578-.038.334.242.502.516.663a2.22 2.22 0 0 1-.261.043c-.217.028-.442.057-.63.23l-.036.033.044.025.068.04c.042.027.077.05.12.058l.1.023.657.113 1.053.08 2.666.136L8.83 32h.025a.35.35 0 0 0 .312-.15c.076-.102.208-.18.338-.25a.331.331 0 0 1 .09.018v.002c-.02.033-.036.064-.06.087-.036.036-.08.067-.12.1l-.057.043.002.065.024.045h.967l-.305-.462a.216.216 0 0 1 .055-.008c.074 0 .123.045.18.098l.034.03c.12.103.208.15.302.15h.003a.643.643 0 0 1 .057-.002c.1 0 .14.043.156.17l.004.033.523.003.322-.006a2.57 2.57 0 0 0 .286-.033l.264-.03.393-.008.384-.007.17-.01 2.514-.14a5.86 5.86 0 0 0 .701-.105l.144-.028c.046-.008.08-.044.1-.078a.53.53 0 0 1 .037-.038l.03-.024-.028-.027a.49.49 0 0 1-.032-.038" mask="url(#E)"/></g><g fill="#fff"><path d="M36.565 74.4l-.607-.1c-.142-.03-.293-.058-.414-.126-.046-.025-.02-.164-.032-.25a.567.567 0 0 0-.044-.166 1.895 1.895 0 0 0-1.334-1.064c-.463-.102-.954-.093-1.434-.127l-1.018-.058.996-.223c.94-.245 1.54-.9 1.604-1.808.044-.618-.112-1.205-.38-1.764-.348-.73-.866-1.343-1.484-1.88l-.946-.76s2.35.6 3.644 3.352c.208-.06.412-.137.602-.235.933-.48 1.76-1.106 2.574-1.744L39.58 66.4l.053.196.15.947.33 1.693.414 1.987.457 1.742c.125.408.3.802.47 1.197a.53.53 0 0 0 .563.34l2.958-.01c.158-.003.335-.032.35-.22.027-.372-.068-.71-.553-.8l-1.055-.22c-.333-.056-.48-.253-.562-.54-.227-.796-.272-1.615-.35-2.428a21.611 21.611 0 0 0-.417-2.726c-.09-.403-.255-.797-.186-1.222l.485-2.912.552-2.43.4-1.773c.13-.498.233-.995.233-1.51 0-1.112-.206-2.2-.393-3.29a70.394 70.394 0 0 1-.273-1.702c-.04-.272.028-.364.32-.4a10.87 10.87 0 0 1 1.082-.08c.985-.03 1.96-.078 2.904-.405.627-.217 1-.6 1.2-1.208.047-.152.086-.315.176-.443.247-.353.058-.892-.373-1.02l-1.22-.368-1.84-.632c-.666-.203-1.147-.556-1.368-1.217a1.07 1.07 0 0 0-.406-.545c-.83-.504-1.73-.83-2.736-.777-.165.01-.26-.016-.287-.194l-.28-1.644-.114-.783c-.073.053-.1.07-.134.1l-1.185 1.463c-.416.588-.76 1.218-.762 1.962 0 .037-.03.093-.062.106-.47.194-.637.61-.767 1.02a23.26 23.26 0 0 0-.443 1.708l-.447 2.04-.574 1.93c-.144.45-.314.897-.69 1.234l-1.44 1.298-3.04 2.596c-1.515 1.34-2.954 2.75-4.202 4.327a16.697 16.697 0 0 0-1.595 2.374c-.52.954-.962 1.938-1.12 3.01-.084.56-.12 1.13-.155 1.694-.014.223.025.447.05.67.014.13-.043.18-.17.164l-.95-.123c-.365-.068-.643-.3-.846-.574-.638-.83-.844-1.807-.915-2.8-.033-.472-.007-.947-.008-1.42 0-.052-.01-.103-.018-.188-.05.057-.08.08-.092.106-.373.81-.643 1.653-.693 2.54-.024.424.017.855.063 1.28a3.35 3.35 0 0 0 .671 1.677c.59.78 1.44 1.153 2.38 1.378l.572.14c-.1.296-.264.56-.297.84-.04.34.28.5.575.674-.33.106-.686.033-.963.3.077.042.123.084.177.096l.77.135 1.057.08 2.683.138L28.8 75c.122.003.22-.02.307-.135.08-.11.215-.187.337-.258.042-.024.122.013.184.023-.03.046-.053.1-.092.138-.054.054-.12.1-.18.147a.759.759 0 0 0 .025.045h.88l-.296-.448c.183-.07.26.03.354.115.078.066.192.154.276.143.183-.025.24.05.258.2l.815-.002c.185-.01.368-.054.554-.063l.783-.016 2.702-.15c.284-.02.565-.08.846-.133.05-.01.087-.07.13-.107-.04-.04-.072-.1-.117-.1m39.062.107c-.216.056-.435.115-.658.137l-2.12.178-1.566.104-2.066.04c-.907.006-1.815.017-2.722-.008a67.424 67.424 0 0 1-3.101-.15c-.565-.042-1.126-.152-1.685-.25-.196-.033-.416-.07-.505-.346l1.22-.08v-.03c-.544 0-1.1.004-1.636-.003a3.799 3.799 0 0 1-.596-.05c-.374-.065-.52-.324-.352-.654a1.78 1.78 0 0 1 1.46-.989l1.678-.127-.232-.056c-.782-.155-1.464-.462-1.752-1.245-.2-.51-.142-1.046.01-1.57.223-.768.652-1.4 1.194-1.958.525-.453 1.253-.86 2.27-1.132 0 0-2.878-.016-3.708 2.852 0 0-.1-.877-.696-1.2a5.22 5.22 0 0 0 .368.929l.116.565.007.062.003.035c.008.115.008.23-.002.342-.046.404-.23.78-.424 1.143-.355.668-.514 1.38-.62 2.116-.127.876-.12.736-.86.74-.6.002-1.182 0-1.772-.004-.416-.004-.534-.182-.34-.532.156-.283.322-.552.702-.624.303-.055.434-.323.513-.573l.486-1.76c.175-.918.3-1.85.17-2.784a11.355 11.355 0 0 0-.423-1.85c-.444-1.352-.824-2.7-.86-4.14-.028-1.12.2-2.147.733-3.13.188-.348.34-.718.22-1.132-.098-.335-.22-.454-.587-.484l-1.718-.087c-.618-.022-.875-.48-1.162-.9-.184-.27-.242-.613-.54-.825-.058-.04-.042-.273.02-.364l.877-1.166a.733.733 0 0 0 .143-.342l.1-1.42c.05-.584.396-1.002.882-1.297.397-.24.83-.43 1.256-.62.256-.113.333-.18.278-.454a12.31 12.31 0 0 0-.227-.91c-.095-.336.058-.516.416-.458.64.105 1.2.372 1.526.927.197.337.46.517.818.578.842.147 1.394.668 1.784 1.34.444.767.836 1.564 1.2 2.366l1.298 2.937c.442.9 1.206 1.554 2.054 2.112l2.127 1.485c.687.562 1.153 1.313 1.553 2.094.014.025.026.05.08.062l-.222-.73-.323-1.308c-.25-1.182-.42-2.368-.306-3.585.076-.8.232-1.6.626-2.3.462-.848 1.172-1.392 2.118-1.7 1.24-.404 2.585.25 3.205 1.17a1.85 1.85 0 0 1-.47 2.559c-.278.197-.595.244-.916.246-.793.006-1.22.665-1.3 1.23a3.163 3.163 0 0 0 .144 1.492l1.22 3.483c.387 1.086.742 2.18.936 3.315.187 1.096.227 2.197-.04 3.286-.482 1.97-1.612 3.456-3.5 4.36l-.362.162-.358.15c1.678.07 3.33.047 4.945.43.073.018.138.072.264.14-.132.072-.207.133-.293.156m.198-.255c-.06-.036-.107-.064-.16-.077-1.325-.315-2.643-.357-4.038-.4l-.744-.026a13.845 13.845 0 0 0 .564-.248c1.846-.878 3.034-2.353 3.532-4.384.24-.978.252-2.057.04-3.3-.2-1.17-.57-2.288-.938-3.32l-1.22-3.484a3.109 3.109 0 0 1-.141-1.475c.08-.573.5-1.193 1.26-1.198.274-.003.63-.034.94-.254a1.89 1.89 0 0 0 .478-2.61 3.09 3.09 0 0 0-2.46-1.308c-.27 0-.537.042-.79.124-.984.32-1.683.882-2.14 1.718-.345.63-.54 1.348-.63 2.324-.122 1.307.087 2.552.308 3.597l.308 1.255.015.056.16.533c-.353-.677-.8-1.428-1.508-2-.557-.456-1.175-.86-1.773-1.25l-.358-.236c-.7-.462-1.563-1.117-2.04-2.098a35.036 35.036 0 0 1-.714-1.603l-.585-1.333a29.562 29.562 0 0 0-1.211-2.369c-.452-.782-1.045-1.226-1.81-1.36a1.07 1.07 0 0 1-.791-.56c-.297-.507-.82-.825-1.554-.944a.74.74 0 0 0-.131-.012c-.13 0-.233.04-.293.117-.072.09-.084.23-.035.4l.226.907c.05.248-.008.302-.256.412l-1.26.622c-.55.333-.854.78-.9 1.325l-.1 1.422c-.01.1-.06.218-.137.324l-.365.48-.51.686c-.067.096-.097.354-.012.415.186.134.273.316.366.512a2.12 2.12 0 0 0 .164.303l.066.098c.264.393.537.8 1.126.82l.398.02.547.025.772.042c.337.028.457.126.553.456.117.402-.035.768-.218 1.104-.524.968-.765 1.997-.736 3.15.033 1.37.368 2.65.86 4.15a11.09 11.09 0 0 1 .421 1.844c.146.97-.01 1.94-.17 2.772-.105.553-.28 1.104-.448 1.636l-.038.12c-.07.227-.2.493-.482.548-.386.072-.558.334-.73.642-.1.183-.122.328-.06.43s.2.157.434.158l1.242.004h.56l.236.003.145.003c.377 0 .394-.118.49-.78.092-.642.24-1.393.617-2.103.2-.358.38-.74.428-1.157.01-.1.01-.226-.002-.383l-.008-.065a6.746 6.746 0 0 0-.115-.57 5.375 5.375 0 0 0-.313-.817c.482.343.563 1.083.564 1.092l.076.007c.646-2.232 2.53-2.7 3.32-2.798-.775.246-1.43.595-1.948 1.04-.604.623-.997 1.27-1.203 1.977-.176.608-.18 1.13-.01 1.6.324.877 1.122 1.14 1.782 1.27a.236.236 0 0 0 .023.004l-.658.044-.81.06c-.677.077-1.192.426-1.5 1-.086.17-.096.326-.03.454s.2.22.4.253a3.56 3.56 0 0 0 .603.051l.702.004h.235l-.574.04.015.044c.095.296.337.34.535.373l.265.046 1.424.202 3.103.152 1.252.014 1.47-.008 2.068-.04 1.365-.088.202-.015 2.122-.18c.213-.02.424-.075.664-.137.062-.016.116-.05.184-.1l.118-.07.06-.032-.06-.033a2.407 2.407 0 0 1-.115-.066"/><path d="M69.06 71.7a17.7 17.7 0 0 1 .23-1.018c.34-1.282.404-2.624.194-4.102-.05-.365-.14-.735-.226-1.092l-.046-.19.107.216.598 1.2.24.455.438.887c.405.976.473 1.86.2 2.705-.216.7-.862 1.19-1.54 1.19-.122 0-.192-.005-.215-.032s-.014-.102.01-.222m.205.29c.696 0 1.357-.518 1.575-1.216.293-.94.156-1.85-.2-2.732-.192-.462-.453-.895-.678-1.344L69.103 65l.345 1.596c.194 1.37.164 2.737-.194 4.086l-.23 1.02c-.055.276-.03.298.242.298"/><path d="M70.952 70.467l.233-1.012c.364-1.34.395-2.695.198-4.056-.078-.53-.23-1.048-.35-1.584l.862 1.695.7 1.335c.37.875.51 1.78.213 2.7-.22.694-.893 1.21-1.6 1.208-.278 0-.303-.022-.246-.296m-.2 3.336l.36-.15.364-.163c1.91-.906 3.045-2.397 3.53-4.37.268-1.092.227-2.196.04-3.294-.195-1.138-.55-2.235-.94-3.324a314.622 314.622 0 0 1-1.225-3.494 3.16 3.16 0 0 1-.145-1.495c.08-.568.5-1.228 1.306-1.234.323-.002.642-.048.922-.246a1.855 1.855 0 0 0 .472-2.566c-.624-.923-1.976-1.578-3.222-1.174-.952.3-1.665.856-2.13 1.705-.396.724-.553 1.504-.63 2.317-.115 1.22.057 2.4.308 3.595l.325 1.312.223.732c-.054-.012-.066-.038-.08-.063-.4-.783-.87-1.536-1.56-2.1-.67-.547-1.413-1.01-2.14-1.487-.852-.562-1.62-1.207-2.064-2.12l-1.305-2.944a30.428 30.428 0 0 0-1.217-2.373c-.392-.676-.947-1.198-1.794-1.345-.36-.06-.624-.24-.822-.578-.327-.558-.89-.826-1.535-.93-.36-.058-.514.123-.418.46l.228.913c.055.273-.02.34-.28.453l-1.263.622c-.49.296-.837.716-.887 1.3l-.1 1.426a.734.734 0 0 1-.144.344l-.88 1.17c-.063.1-.08.323-.02.364.298.214.356.557.54.827.29.422.547.88 1.168.904l1.728.087c.368.03.492.148.6.485.12.415-.033.786-.222 1.134-.536.986-.764 2.016-.736 3.14.035 1.442.417 2.794.864 4.15a11.34 11.34 0 0 1 .424 1.856c.14.935.006 1.87-.17 2.8-.114.597-.305 1.182-.49 1.764-.08.252-.21.52-.515.576-.383.07-.55.34-.707.624-.195.352-.076.53.34.533l1.783.005c.746-.005.738.137.865-.743.107-.737.267-1.45.624-2.12.195-.365.38-.743.427-1.147.01-.112.01-.227.001-.343l-.003-.034-.007-.064a6.743 6.743 0 0 0-.116-.565c-.15-.522-.37-.932-.37-.932.6.314.7 1.192.7 1.192.834-2.875 3.728-2.858 3.728-2.858-1.023.272-1.754.68-2.283 1.134-.545.558-.976 1.194-1.2 1.965-.153.523-.2 1.06-.01 1.573.3.784.975 1.093 1.762 1.247l.233.057-1.69.127c-.66.074-1.17.408-1.467.993-.17.33-.02.6.355.655a4 4 0 0 0 .599.05l1.645.002v.03l-1.228.082c.09.276.3.313.507.347l1.694.248 3.12.152 2.736.007a64.702 64.702 0 0 0 2.078-.04l1.574-.104 2.133-.18c.223-.02.444-.08.66-.136.086-.023.162-.085.295-.156-.127-.07-.192-.123-.267-.14-1.622-.386-3.284-.364-4.97-.433"/><path d="M43.07 69.648c.068.137.18.257.318.363.173.133.393.244.643.333a5.12 5.12 0 0 0 .924.227 7.45 7.45 0 0 0 1.862.053s2.224.685 5.128.206c0 0-1.8-.586-1.79-2.1 0 0 .33 1.387 1.997 1.8s3.748.325 3.604-.138-.886-.513-1.154-1.456c0 0-.226-1.5 1.895-1.472s1.36-.976 1.42-1.678-.433-1.508-1.73-1.747c0 0-.37-2.482-3.604-3.048 0 0-.393 1.343 1.73 2.365 0 0-1.025-.202-1.713-.994-.533-.178-1.532-.37-2.427.256 0 0 .392 1.216 2.904 2.226 0 0-3.5-1.5-6.054-.257s-2.637 3.237-2.637 3.237-.82.442-1.2 1.002c-.174.257-.255.538-.118.813M62.55 21.88c1.842.595 3.177-1.157 3.806-2.253.867-1.512 1.432-3.573 1.593-5.812.44-5.946-1.956-10.85-4.468-11.7-1.923-.644-3.326 1.375-3.84 2.27-.784 1.368-1.315 3.143-1.528 5.136-.673 6.194 1.803 11.48 4.437 12.348"/></g><g transform="translate(36)"><mask id="F" fill="#fff"><use xlink:href="#C"/></mask><path fill="#fff" d="M6.143 23.55c1.378.684 2.617.37 3.68-.93.966-1.18 1.666-3.06 1.968-5.312C12.726 10.38 9.76 2.125 5.7.314c-1.385-.613-2.5-.327-3.506.904C.767 2.948-.037 6.126.032 9.7c.137 6.747 3.28 12.434 6.1 13.838" mask="url(#F)"/></g><path fill="#fff" d="M23.623 29.953c1.24-.172 2.125-.795 2.7-1.888.882-1.68.903-4.202.057-6.907-2.08-6.56-8.47-11.94-13.15-11.064-1.21.225-2.047.815-2.57 1.81-1.196 2.275-.74 6.1 1.158 9.722 3.028 5.745 8.484 8.796 11.805 8.328"/></g></svg>